%TF.GenerationSoftware,KiCad,Pcbnew,(6.0.6)*%
%TF.CreationDate,2022-08-10T17:00:59+02:00*%
%TF.ProjectId,rabid40,72616269-6434-4302-9e6b-696361645f70,rev?*%
%TF.SameCoordinates,Original*%
%TF.FileFunction,Copper,L2,Bot*%
%TF.FilePolarity,Positive*%
%FSLAX46Y46*%
G04 Gerber Fmt 4.6, Leading zero omitted, Abs format (unit mm)*
G04 Created by KiCad (PCBNEW (6.0.6)) date 2022-08-10 17:00:59*
%MOMM*%
%LPD*%
G01*
G04 APERTURE LIST*
G04 Aperture macros list*
%AMRoundRect*
0 Rectangle with rounded corners*
0 $1 Rounding radius*
0 $2 $3 $4 $5 $6 $7 $8 $9 X,Y pos of 4 corners*
0 Add a 4 corners polygon primitive as box body*
4,1,4,$2,$3,$4,$5,$6,$7,$8,$9,$2,$3,0*
0 Add four circle primitives for the rounded corners*
1,1,$1+$1,$2,$3*
1,1,$1+$1,$4,$5*
1,1,$1+$1,$6,$7*
1,1,$1+$1,$8,$9*
0 Add four rect primitives between the rounded corners*
20,1,$1+$1,$2,$3,$4,$5,0*
20,1,$1+$1,$4,$5,$6,$7,0*
20,1,$1+$1,$6,$7,$8,$9,0*
20,1,$1+$1,$8,$9,$2,$3,0*%
G04 Aperture macros list end*
%TA.AperFunction,ComponentPad*%
%ADD10C,2.300000*%
%TD*%
%TA.AperFunction,ComponentPad*%
%ADD11O,1.700000X1.950000*%
%TD*%
%TA.AperFunction,ComponentPad*%
%ADD12RoundRect,0.250000X-0.600000X-0.725000X0.600000X-0.725000X0.600000X0.725000X-0.600000X0.725000X0*%
%TD*%
%TA.AperFunction,ComponentPad*%
%ADD13O,1.700000X1.700000*%
%TD*%
%TA.AperFunction,ComponentPad*%
%ADD14R,1.700000X1.700000*%
%TD*%
%TA.AperFunction,ComponentPad*%
%ADD15C,4.000000*%
%TD*%
%TA.AperFunction,SMDPad,CuDef*%
%ADD16RoundRect,0.140000X0.170000X-0.140000X0.170000X0.140000X-0.170000X0.140000X-0.170000X-0.140000X0*%
%TD*%
%TA.AperFunction,SMDPad,CuDef*%
%ADD17R,1.200000X0.900000*%
%TD*%
%TA.AperFunction,ComponentPad*%
%ADD18C,0.600000*%
%TD*%
%TA.AperFunction,SMDPad,CuDef*%
%ADD19RoundRect,0.144000X1.456000X1.456000X-1.456000X1.456000X-1.456000X-1.456000X1.456000X-1.456000X0*%
%TD*%
%TA.AperFunction,SMDPad,CuDef*%
%ADD20RoundRect,0.050000X0.050000X0.387500X-0.050000X0.387500X-0.050000X-0.387500X0.050000X-0.387500X0*%
%TD*%
%TA.AperFunction,SMDPad,CuDef*%
%ADD21RoundRect,0.050000X0.387500X0.050000X-0.387500X0.050000X-0.387500X-0.050000X0.387500X-0.050000X0*%
%TD*%
%TA.AperFunction,SMDPad,CuDef*%
%ADD22RoundRect,0.135000X0.135000X0.185000X-0.135000X0.185000X-0.135000X-0.185000X0.135000X-0.185000X0*%
%TD*%
%TA.AperFunction,SMDPad,CuDef*%
%ADD23RoundRect,0.140000X-0.170000X0.140000X-0.170000X-0.140000X0.170000X-0.140000X0.170000X0.140000X0*%
%TD*%
%TA.AperFunction,SMDPad,CuDef*%
%ADD24RoundRect,0.140000X0.140000X0.170000X-0.140000X0.170000X-0.140000X-0.170000X0.140000X-0.170000X0*%
%TD*%
%TA.AperFunction,SMDPad,CuDef*%
%ADD25R,0.900000X1.200000*%
%TD*%
%TA.AperFunction,SMDPad,CuDef*%
%ADD26RoundRect,0.135000X0.185000X-0.135000X0.185000X0.135000X-0.185000X0.135000X-0.185000X-0.135000X0*%
%TD*%
%TA.AperFunction,SMDPad,CuDef*%
%ADD27RoundRect,0.150000X0.650000X0.150000X-0.650000X0.150000X-0.650000X-0.150000X0.650000X-0.150000X0*%
%TD*%
%TA.AperFunction,SMDPad,CuDef*%
%ADD28RoundRect,0.150000X-0.587500X-0.150000X0.587500X-0.150000X0.587500X0.150000X-0.587500X0.150000X0*%
%TD*%
%TA.AperFunction,SMDPad,CuDef*%
%ADD29R,1.400000X1.200000*%
%TD*%
%TA.AperFunction,SMDPad,CuDef*%
%ADD30RoundRect,0.200000X-0.275000X0.200000X-0.275000X-0.200000X0.275000X-0.200000X0.275000X0.200000X0*%
%TD*%
%TA.AperFunction,SMDPad,CuDef*%
%ADD31RoundRect,0.250000X0.375000X0.625000X-0.375000X0.625000X-0.375000X-0.625000X0.375000X-0.625000X0*%
%TD*%
%TA.AperFunction,SMDPad,CuDef*%
%ADD32RoundRect,0.135000X-0.135000X-0.185000X0.135000X-0.185000X0.135000X0.185000X-0.135000X0.185000X0*%
%TD*%
%TA.AperFunction,SMDPad,CuDef*%
%ADD33RoundRect,0.140000X-0.140000X-0.170000X0.140000X-0.170000X0.140000X0.170000X-0.140000X0.170000X0*%
%TD*%
%TA.AperFunction,ViaPad*%
%ADD34C,0.800000*%
%TD*%
%TA.AperFunction,Conductor*%
%ADD35C,0.200000*%
%TD*%
G04 APERTURE END LIST*
D10*
%TO.P,Alt1,1,1*%
%TO.N,Col3*%
X61307500Y-102543750D03*
%TO.P,Alt1,2,2*%
%TO.N,Net-(Alt1-Pad2)*%
X67657500Y-100003750D03*
%TD*%
%TO.P,Alt2,1,1*%
%TO.N,Col9*%
X223232500Y-102543750D03*
%TO.P,Alt2,2,2*%
%TO.N,Net-(Alt2-Pad2)*%
X229582500Y-100003750D03*
%TD*%
D11*
%TO.P,J2,4,Pin_4*%
%TO.N,GND*%
X121130000Y-59172500D03*
%TO.P,J2,3,Pin_3*%
%TO.N,D_P*%
X118630000Y-59172500D03*
%TO.P,J2,2,Pin_2*%
%TO.N,D_N*%
X116130000Y-59172500D03*
D12*
%TO.P,J2,1,Pin_1*%
%TO.N,VBUS*%
X113630000Y-59172500D03*
%TD*%
D10*
%TO.P,F2,2,2*%
%TO.N,Net-(D16-Pad2)*%
X106551250Y-61903750D03*
%TO.P,F2,1,1*%
%TO.N,Col4*%
X100201250Y-64443750D03*
%TD*%
%TO.P,P1,2,2*%
%TO.N,Net-(D39-Pad2)*%
X216088750Y-42853750D03*
%TO.P,P1,1,1*%
%TO.N,Col10*%
X209738750Y-45393750D03*
%TD*%
%TO.P,Q1,2,2*%
%TO.N,Net-(D4-Pad2)*%
X44638750Y-42853750D03*
%TO.P,Q1,1,1*%
%TO.N,Col1*%
X38288750Y-45393750D03*
%TD*%
%TO.P,W1,2,2*%
%TO.N,Net-(D7-Pad2)*%
X63688750Y-42853750D03*
%TO.P,W1,1,1*%
%TO.N,Col2*%
X57338750Y-45393750D03*
%TD*%
%TO.P,G1,1,1*%
%TO.N,Col5*%
X119251250Y-64443750D03*
%TO.P,G1,2,2*%
%TO.N,Net-(D20-Pad2)*%
X125601250Y-61903750D03*
%TD*%
%TO.P,D46,2,2*%
%TO.N,Net-(D12-Pad2)*%
X87501250Y-61903750D03*
%TO.P,D46,1,1*%
%TO.N,Col3*%
X81151250Y-64443750D03*
%TD*%
%TO.P,E1,2,2*%
%TO.N,Net-(D11-Pad2)*%
X82738750Y-42853750D03*
%TO.P,E1,1,1*%
%TO.N,Col3*%
X76388750Y-45393750D03*
%TD*%
%TO.P,;1,2,2*%
%TO.N,Net-(;1-Pad2)*%
X220851250Y-61903750D03*
%TO.P,;1,1,1*%
%TO.N,Col10*%
X214501250Y-64443750D03*
%TD*%
%TO.P,T1,2,2*%
%TO.N,Net-(D19-Pad2)*%
X120838750Y-42853750D03*
%TO.P,T1,1,1*%
%TO.N,Col5*%
X114488750Y-45393750D03*
%TD*%
%TO.P,J3,2,2*%
%TO.N,Net-(D28-Pad2)*%
X163701250Y-61903750D03*
%TO.P,J3,1,1*%
%TO.N,Col7*%
X157351250Y-64443750D03*
%TD*%
%TO.P,Win1,2,2*%
%TO.N,Net-(D10-Pad2)*%
X43845000Y-100003750D03*
%TO.P,Win1,1,1*%
%TO.N,Col2*%
X37495000Y-102543750D03*
%TD*%
D13*
%TO.P,J1,5,Pin_5*%
%TO.N,SWCLK*%
X65190000Y-94530000D03*
%TO.P,J1,4,Pin_4*%
%TO.N,SWD*%
X67730000Y-94530000D03*
%TO.P,J1,3,Pin_3*%
%TO.N,GND*%
X70270000Y-94530000D03*
%TO.P,J1,2,Pin_2*%
%TO.N,+3V3*%
X72810000Y-94530000D03*
D14*
%TO.P,J1,1,Pin_1*%
%TO.N,~{RESET}*%
X75350000Y-94530000D03*
%TD*%
D10*
%TO.P,H1,2,2*%
%TO.N,Net-(D24-Pad2)*%
X144651250Y-61903750D03*
%TO.P,H1,1,1*%
%TO.N,Col6*%
X138301250Y-64443750D03*
%TD*%
%TO.P,<1,2,2*%
%TO.N,Net-(<1-Pad2)*%
X192276250Y-80953750D03*
%TO.P,<1,1,1*%
%TO.N,Col8*%
X185926250Y-83493750D03*
%TD*%
D15*
%TO.P,Stab_Spc2.25,*%
%TO.N,*%
X107993520Y-112064148D03*
X131806020Y-112064148D03*
%TD*%
D10*
%TO.P,U4,2,2*%
%TO.N,Net-(D27-Pad2)*%
X158938750Y-42853750D03*
%TO.P,U4,1,1*%
%TO.N,Col7*%
X152588750Y-45393750D03*
%TD*%
%TO.P,L1,2,2*%
%TO.N,Net-(D36-Pad2)*%
X201801250Y-61903750D03*
%TO.P,L1,1,1*%
%TO.N,Col9*%
X195451250Y-64443750D03*
%TD*%
D15*
%TO.P,Stab_Spc7u1,*%
%TO.N,*%
X88930000Y-112068750D03*
X203230000Y-112068750D03*
%TD*%
D10*
%TO.P,Tab1,2,2*%
%TO.N,Net-(D1-Pad2)*%
X20826250Y-42853750D03*
%TO.P,Tab1,1,1*%
%TO.N,Col0*%
X14476250Y-45393750D03*
%TD*%
%TO.P,[1,2,2*%
%TO.N,Net-(D43-Pad2)*%
X235138750Y-42853750D03*
%TO.P,[1,1,1*%
%TO.N,Col11*%
X228788750Y-45393750D03*
%TD*%
%TO.P,I1,2,2*%
%TO.N,Net-(D31-Pad2)*%
X177988750Y-42853750D03*
%TO.P,I1,1,1*%
%TO.N,Col8*%
X171638750Y-45393750D03*
%TD*%
%TO.P,StepCtrl1,2,2*%
%TO.N,Net-(Ctrl1-Pad2)*%
X18445000Y-61903750D03*
%TO.P,StepCtrl1,1,1*%
%TO.N,Col0*%
X12095000Y-64443750D03*
%TD*%
%TO.P,V1,2,2*%
%TO.N,Net-(D17-Pad2)*%
X116076250Y-80953750D03*
%TO.P,V1,1,1*%
%TO.N,Col4*%
X109726250Y-83493750D03*
%TD*%
%TO.P,Shift3,2,2*%
%TO.N,Net-(D49-Pad2)*%
X266095000Y-80953750D03*
%TO.P,Shift3,1,1*%
%TO.N,Col12*%
X259745000Y-83493750D03*
%TD*%
%TO.P,Ctrl1,2,2*%
%TO.N,Net-(Ctrl1-Pad2)*%
X23207500Y-61903750D03*
%TO.P,Ctrl1,1,1*%
%TO.N,Col0*%
X16857500Y-64443750D03*
%TD*%
%TO.P,Bspc1,2,2*%
%TO.N,Net-(Bspc1-Pad2)*%
X278001250Y-42853750D03*
%TO.P,Bspc1,1,1*%
%TO.N,Col13*%
X271651250Y-45393750D03*
%TD*%
%TO.P,Space_7u1,2,2*%
%TO.N,Net-(D26-Pad2)*%
X148620000Y-100003750D03*
%TO.P,Space_7u1,1,1*%
%TO.N,Col6*%
X142270000Y-102543750D03*
%TD*%
%TO.P,Y2,2,2*%
%TO.N,Net-(D23-Pad2)*%
X139888750Y-42853750D03*
%TO.P,Y2,1,1*%
%TO.N,Col6*%
X133538750Y-45393750D03*
%TD*%
D15*
%TO.P,Stab_Spc2.75,*%
%TO.N,*%
X155605000Y-112068750D03*
X179417500Y-112068750D03*
%TD*%
D10*
%TO.P,Shift2,2,2*%
%TO.N,Net-(D49-Pad2)*%
X256570000Y-80953750D03*
%TO.P,Shift2,1,1*%
%TO.N,Col12*%
X250220000Y-83493750D03*
%TD*%
%TO.P,Space2.25,2,2*%
%TO.N,Net-(D22-Pad2)*%
X122426250Y-100003750D03*
%TO.P,Space2.25,1,1*%
%TO.N,Col5*%
X116076250Y-102543750D03*
%TD*%
%TO.P,Space2.75,2,2*%
%TO.N,Net-(D30-Pad2)*%
X170051250Y-100003750D03*
%TO.P,Space2.75,1,1*%
%TO.N,Col7*%
X163701250Y-102543750D03*
%TD*%
%TO.P,Fn1,2,2*%
%TO.N,Net-(D52-Pad2)*%
X282763750Y-80953750D03*
%TO.P,Fn1,1,1*%
%TO.N,Col13*%
X276413750Y-83493750D03*
%TD*%
%TO.P,B1,2,2*%
%TO.N,Net-(B1-Pad2)*%
X135126250Y-80953750D03*
%TO.P,B1,1,1*%
%TO.N,Col5*%
X128776250Y-83493750D03*
%TD*%
%TO.P,Shift1,2,2*%
%TO.N,Net-(D3-Pad2)*%
X27970000Y-80953750D03*
%TO.P,Shift1,1,1*%
%TO.N,Col0*%
X21620000Y-83493750D03*
%TD*%
%TO.P,M1,2,2*%
%TO.N,Net-(D29-Pad2)*%
X173226250Y-80953750D03*
%TO.P,M1,1,1*%
%TO.N,Col7*%
X166876250Y-83493750D03*
%TD*%
%TO.P,Z1,2,2*%
%TO.N,Net-(D6-Pad2)*%
X58926250Y-80953750D03*
%TO.P,Z1,1,1*%
%TO.N,Col1*%
X52576250Y-83493750D03*
%TD*%
%TO.P,C18,2,2*%
%TO.N,Net-(C18-Pad2)*%
X97026250Y-80953750D03*
%TO.P,C18,1,1*%
%TO.N,Col3*%
X90676250Y-83493750D03*
%TD*%
%TO.P,S1,2,2*%
%TO.N,Net-(D8-Pad2)*%
X68451250Y-61903750D03*
%TO.P,S1,1,1*%
%TO.N,Col2*%
X62101250Y-64443750D03*
%TD*%
%TO.P,A1,2,2*%
%TO.N,Net-(A1-Pad2)*%
X49401250Y-61903750D03*
%TO.P,A1,1,1*%
%TO.N,Col1*%
X43051250Y-64443750D03*
%TD*%
%TO.P,'1,2,2*%
%TO.N,Net-('1-Pad2)*%
X239901250Y-61903750D03*
%TO.P,'1,1,1*%
%TO.N,Col11*%
X233551250Y-64443750D03*
%TD*%
%TO.P,X1,2,2*%
%TO.N,Net-(D9-Pad2)*%
X77976250Y-80953750D03*
%TO.P,X1,1,1*%
%TO.N,Col2*%
X71626250Y-83493750D03*
%TD*%
%TO.P,/1,2,2*%
%TO.N,Net-(/1-Pad2)*%
X230376250Y-80953750D03*
%TO.P,/1,1,1*%
%TO.N,Col10*%
X224026250Y-83493750D03*
%TD*%
%TO.P,R6,2,2*%
%TO.N,Net-(D15-Pad2)*%
X101788750Y-42853750D03*
%TO.P,R6,1,1*%
%TO.N,Col4*%
X95438750Y-45393750D03*
%TD*%
%TO.P,RMod1,2,2*%
%TO.N,Net-(D34-Pad2)*%
X205770000Y-100003750D03*
%TO.P,RMod1,1,1*%
%TO.N,Col8*%
X199420000Y-102543750D03*
%TD*%
%TO.P,K1,2,2*%
%TO.N,Net-(D32-Pad2)*%
X182751250Y-61903750D03*
%TO.P,K1,1,1*%
%TO.N,Col8*%
X176401250Y-64443750D03*
%TD*%
%TO.P,Win2,2,2*%
%TO.N,Net-(D42-Pad2)*%
X253395000Y-100003750D03*
%TO.P,Win2,1,1*%
%TO.N,Col10*%
X247045000Y-102543750D03*
%TD*%
%TO.P,>1,2,2*%
%TO.N,Net-(>1-Pad2)*%
X211326250Y-80953750D03*
%TO.P,>1,1,1*%
%TO.N,Col9*%
X204976250Y-83493750D03*
%TD*%
%TO.P,N1,2,2*%
%TO.N,Net-(D25-Pad2)*%
X154176250Y-80953750D03*
%TO.P,N1,1,1*%
%TO.N,Col6*%
X147826250Y-83493750D03*
%TD*%
%TO.P,]1,2,2*%
%TO.N,Net-(D47-Pad2)*%
X254188750Y-42853750D03*
%TO.P,]1,1,1*%
%TO.N,Col12*%
X247838750Y-45393750D03*
%TD*%
%TO.P,Enter1,2,2*%
%TO.N,Net-(D48-Pad2)*%
X270857500Y-61903750D03*
%TO.P,Enter1,1,1*%
%TO.N,Col12*%
X264507500Y-64443750D03*
%TD*%
%TO.P,O1,2,2*%
%TO.N,Net-(D35-Pad2)*%
X197038750Y-42853750D03*
%TO.P,O1,1,1*%
%TO.N,Col9*%
X190688750Y-45393750D03*
%TD*%
%TO.P,LMod1,2,2*%
%TO.N,Net-(D18-Pad2)*%
X91470000Y-100003750D03*
%TO.P,LMod1,1,1*%
%TO.N,Col4*%
X85120000Y-102543750D03*
%TD*%
D16*
%TO.P,C11,2*%
%TO.N,+5V*%
X97667500Y-55831250D03*
%TO.P,C11,1*%
%TO.N,GND*%
X97667500Y-56791250D03*
%TD*%
D17*
%TO.P,D32,2,A*%
%TO.N,Net-(D32-Pad2)*%
X188942500Y-66921250D03*
%TO.P,D32,1,K*%
%TO.N,Row1*%
X188942500Y-70221250D03*
%TD*%
D18*
%TO.P,U1,57,GND*%
%TO.N,GND*%
X101530000Y-103772500D03*
X100255000Y-103772500D03*
X98980000Y-102497500D03*
X100255000Y-102497500D03*
D19*
X100255000Y-102497500D03*
D18*
X101530000Y-102497500D03*
X98980000Y-103772500D03*
X98980000Y-101222500D03*
X100255000Y-101222500D03*
X101530000Y-101222500D03*
D20*
%TO.P,U1,56,QSPI_SS_N*%
%TO.N,CS*%
X102855000Y-99060000D03*
%TO.P,U1,55,QSPI_SD1*%
%TO.N,SD1*%
X102455000Y-99060000D03*
%TO.P,U1,54,QSPI_SD2*%
%TO.N,SD2*%
X102055000Y-99060000D03*
%TO.P,U1,53,QSPI_SD0*%
%TO.N,SD0*%
X101655000Y-99060000D03*
%TO.P,U1,52,QSPI_SCLK*%
%TO.N,QSPI_CLK*%
X101255000Y-99060000D03*
%TO.P,U1,51,QSPI_SD3*%
%TO.N,SD3*%
X100855000Y-99060000D03*
%TO.P,U1,50,DVDD*%
%TO.N,+1V1*%
X100455000Y-99060000D03*
%TO.P,U1,49,IOVDD*%
%TO.N,+3V3*%
X100055000Y-99060000D03*
%TO.P,U1,48,USB_VDD*%
X99655000Y-99060000D03*
%TO.P,U1,47,D+*%
%TO.N,/D_+*%
X99255000Y-99060000D03*
%TO.P,U1,46,D-*%
%TO.N,/D_-*%
X98855000Y-99060000D03*
%TO.P,U1,45,VREG_VOUT*%
%TO.N,+1V1*%
X98455000Y-99060000D03*
%TO.P,U1,44,VREG_VIN*%
%TO.N,+3V3*%
X98055000Y-99060000D03*
%TO.P,U1,43,ADC_AVDD*%
X97655000Y-99060000D03*
D21*
%TO.P,U1,42,IOVDD*%
X96817500Y-99897500D03*
%TO.P,U1,41,GPIO29/ADC3*%
%TO.N,Row0*%
X96817500Y-100297500D03*
%TO.P,U1,40,GPIO28/ADC2*%
%TO.N,unconnected-(U1-Pad40)*%
X96817500Y-100697500D03*
%TO.P,U1,39,GPIO27/ADC1*%
%TO.N,Row2*%
X96817500Y-101097500D03*
%TO.P,U1,38,GPIO26/ADC0*%
%TO.N,Row3*%
X96817500Y-101497500D03*
%TO.P,U1,37,GPIO25*%
%TO.N,unconnected-(U1-Pad37)*%
X96817500Y-101897500D03*
%TO.P,U1,36,GPIO24*%
%TO.N,Col3*%
X96817500Y-102297500D03*
%TO.P,U1,35,GPIO23*%
%TO.N,Col4*%
X96817500Y-102697500D03*
%TO.P,U1,34,GPIO22*%
%TO.N,unconnected-(U1-Pad34)*%
X96817500Y-103097500D03*
%TO.P,U1,33,IOVDD*%
%TO.N,+3V3*%
X96817500Y-103497500D03*
%TO.P,U1,32,GPIO21*%
%TO.N,unconnected-(U1-Pad32)*%
X96817500Y-103897500D03*
%TO.P,U1,31,GPIO20*%
%TO.N,unconnected-(U1-Pad31)*%
X96817500Y-104297500D03*
%TO.P,U1,30,GPIO19*%
%TO.N,Row1*%
X96817500Y-104697500D03*
%TO.P,U1,29,GPIO18*%
%TO.N,Col2*%
X96817500Y-105097500D03*
D20*
%TO.P,U1,28,GPIO17*%
%TO.N,Col1*%
X97655000Y-105935000D03*
%TO.P,U1,27,GPIO16*%
%TO.N,Col0*%
X98055000Y-105935000D03*
%TO.P,U1,26,~{RUN}*%
%TO.N,~{RESET}*%
X98455000Y-105935000D03*
%TO.P,U1,25,SWDIO*%
%TO.N,SWD*%
X98855000Y-105935000D03*
%TO.P,U1,24,SWCLK*%
%TO.N,SWCLK*%
X99255000Y-105935000D03*
%TO.P,U1,23,DVDD*%
%TO.N,+1V1*%
X99655000Y-105935000D03*
%TO.P,U1,22,IOVDD*%
%TO.N,+3V3*%
X100055000Y-105935000D03*
%TO.P,U1,21,XTAL_OUT*%
%TO.N,XTAL_OUT*%
X100455000Y-105935000D03*
%TO.P,U1,20,XTAL_IN*%
%TO.N,XTAL_IN*%
X100855000Y-105935000D03*
%TO.P,U1,19,TESTEN*%
%TO.N,GND*%
X101255000Y-105935000D03*
%TO.P,U1,18,GPIO15*%
%TO.N,unconnected-(U1-Pad18)*%
X101655000Y-105935000D03*
%TO.P,U1,17,GPIO14*%
%TO.N,unconnected-(U1-Pad17)*%
X102055000Y-105935000D03*
%TO.P,U1,16,GPIO13*%
%TO.N,unconnected-(U1-Pad16)*%
X102455000Y-105935000D03*
%TO.P,U1,15,GPIO12*%
%TO.N,unconnected-(U1-Pad15)*%
X102855000Y-105935000D03*
D21*
%TO.P,U1,14,GPIO11*%
%TO.N,unconnected-(U1-Pad14)*%
X103692500Y-105097500D03*
%TO.P,U1,13,GPIO10*%
%TO.N,unconnected-(U1-Pad13)*%
X103692500Y-104697500D03*
%TO.P,U1,12,GPIO9*%
%TO.N,unconnected-(U1-Pad12)*%
X103692500Y-104297500D03*
%TO.P,U1,11,GPIO8*%
%TO.N,Col13*%
X103692500Y-103897500D03*
%TO.P,U1,10,IOVDD*%
%TO.N,+3V3*%
X103692500Y-103497500D03*
%TO.P,U1,9,GPIO7*%
%TO.N,Col12*%
X103692500Y-103097500D03*
%TO.P,U1,8,GPIO6*%
%TO.N,Col11*%
X103692500Y-102697500D03*
%TO.P,U1,7,GPIO5*%
%TO.N,Col10*%
X103692500Y-102297500D03*
%TO.P,U1,6,GPIO4*%
%TO.N,Col9*%
X103692500Y-101897500D03*
%TO.P,U1,5,GPIO3*%
%TO.N,Col8*%
X103692500Y-101497500D03*
%TO.P,U1,4,GPIO2*%
%TO.N,Col7*%
X103692500Y-101097500D03*
%TO.P,U1,3,GPIO1*%
%TO.N,Col6*%
X103692500Y-100697500D03*
%TO.P,U1,2,GPIO0*%
%TO.N,Col5*%
X103692500Y-100297500D03*
%TO.P,U1,1,IOVDD*%
%TO.N,+3V3*%
X103692500Y-99897500D03*
%TD*%
D17*
%TO.P,D1,2,A*%
%TO.N,Net-(D1-Pad2)*%
X27017500Y-47077500D03*
%TO.P,D1,1,K*%
%TO.N,Row0*%
X27017500Y-50377500D03*
%TD*%
%TO.P,D20,2,A*%
%TO.N,Net-(D20-Pad2)*%
X131792500Y-66921250D03*
%TO.P,D20,1,K*%
%TO.N,Row1*%
X131792500Y-70221250D03*
%TD*%
%TO.P,D44,2,A*%
%TO.N,Net-('1-Pad2)*%
X245298750Y-66858750D03*
%TO.P,D44,1,K*%
%TO.N,Row1*%
X245298750Y-70158750D03*
%TD*%
D16*
%TO.P,C6,2*%
%TO.N,GND*%
X96537500Y-96457500D03*
%TO.P,C6,1*%
%TO.N,+3V3*%
X96537500Y-97417500D03*
%TD*%
D17*
%TO.P,D39,2,A*%
%TO.N,Net-(D39-Pad2)*%
X222280000Y-47140000D03*
%TO.P,D39,1,K*%
%TO.N,Row0*%
X222280000Y-50440000D03*
%TD*%
%TO.P,D15,2,A*%
%TO.N,Net-(D15-Pad2)*%
X107980000Y-47140000D03*
%TO.P,D15,1,K*%
%TO.N,Row0*%
X107980000Y-50440000D03*
%TD*%
%TO.P,D26,2,A*%
%TO.N,Net-(D26-Pad2)*%
X150842500Y-97146250D03*
%TO.P,D26,1,K*%
%TO.N,Row3*%
X150842500Y-93846250D03*
%TD*%
%TO.P,D4,2,A*%
%TO.N,Net-(D4-Pad2)*%
X50830000Y-47077500D03*
%TO.P,D4,1,K*%
%TO.N,Row0*%
X50830000Y-50377500D03*
%TD*%
D22*
%TO.P,R4,2*%
%TO.N,CS*%
X122630000Y-89560000D03*
%TO.P,R4,1*%
%TO.N,/~{USB_BOOT}*%
X123650000Y-89560000D03*
%TD*%
D23*
%TO.P,C4,2*%
%TO.N,GND*%
X90787500Y-55851250D03*
%TO.P,C4,1*%
%TO.N,+3V3*%
X90787500Y-54891250D03*
%TD*%
D17*
%TO.P,D10,2,A*%
%TO.N,Net-(D10-Pad2)*%
X50036250Y-104227500D03*
%TO.P,D10,1,K*%
%TO.N,Row3*%
X50036250Y-107527500D03*
%TD*%
%TO.P,D24,2,A*%
%TO.N,Net-(D24-Pad2)*%
X150842500Y-66921250D03*
%TO.P,D24,1,K*%
%TO.N,Row1*%
X150842500Y-70221250D03*
%TD*%
D13*
%TO.P,SW7,2,2*%
%TO.N,/~{USB_BOOT}*%
X123630000Y-87300000D03*
D14*
%TO.P,SW7,1,1*%
%TO.N,GND*%
X123630000Y-84760000D03*
%TD*%
D24*
%TO.P,C5,2*%
%TO.N,GND*%
X93417500Y-99087500D03*
%TO.P,C5,1*%
%TO.N,+3V3*%
X94377500Y-99087500D03*
%TD*%
D17*
%TO.P,D28,2,A*%
%TO.N,Net-(D28-Pad2)*%
X169892500Y-66921250D03*
%TO.P,D28,1,K*%
%TO.N,Row1*%
X169892500Y-70221250D03*
%TD*%
%TO.P,D49,2,A*%
%TO.N,Net-(D49-Pad2)*%
X271492500Y-85971250D03*
%TO.P,D49,1,K*%
%TO.N,Row2*%
X271492500Y-89271250D03*
%TD*%
D25*
%TO.P,D3,2,A*%
%TO.N,Net-(D3-Pad2)*%
X35686250Y-84446250D03*
%TO.P,D3,1,K*%
%TO.N,Row2*%
X38986250Y-84446250D03*
%TD*%
D17*
%TO.P,D17,2,A*%
%TO.N,Net-(D17-Pad2)*%
X121473750Y-81333750D03*
%TO.P,D17,1,K*%
%TO.N,Row2*%
X121473750Y-78033750D03*
%TD*%
%TO.P,D47,2,A*%
%TO.N,Net-(D47-Pad2)*%
X260380000Y-47015000D03*
%TO.P,D47,1,K*%
%TO.N,Row0*%
X260380000Y-50315000D03*
%TD*%
%TO.P,D42,2,A*%
%TO.N,Net-(D42-Pad2)*%
X259025000Y-104100000D03*
%TO.P,D42,1,K*%
%TO.N,Row3*%
X259025000Y-107400000D03*
%TD*%
%TO.P,D50,2,A*%
%TO.N,Net-(Bspc1-Pad2)*%
X283398750Y-47140000D03*
%TO.P,D50,1,K*%
%TO.N,Row0*%
X283398750Y-50440000D03*
%TD*%
%TO.P,D8,2,A*%
%TO.N,Net-(D8-Pad2)*%
X74642500Y-66921250D03*
%TO.P,D8,1,K*%
%TO.N,Row1*%
X74642500Y-70221250D03*
%TD*%
D26*
%TO.P,R5,2*%
%TO.N,XTAL_OUT*%
X100627500Y-108717500D03*
%TO.P,R5,1*%
%TO.N,/XTAL_O*%
X100627500Y-109737500D03*
%TD*%
D17*
%TO.P,D48,2,A*%
%TO.N,Net-(D48-Pad2)*%
X277048750Y-66921250D03*
%TO.P,D48,1,K*%
%TO.N,Row1*%
X277048750Y-70221250D03*
%TD*%
%TO.P,D34,2,A*%
%TO.N,Net-(D34-Pad2)*%
X211961250Y-104165000D03*
%TO.P,D34,1,K*%
%TO.N,Row3*%
X211961250Y-107465000D03*
%TD*%
%TO.P,D30,2,A*%
%TO.N,Net-(D30-Pad2)*%
X174655000Y-101240000D03*
%TO.P,D30,1,K*%
%TO.N,Row3*%
X174655000Y-97940000D03*
%TD*%
D27*
%TO.P,U2,8,VCC*%
%TO.N,+3V3*%
X113687500Y-90377500D03*
%TO.P,U2,7,IO3*%
%TO.N,SD3*%
X113687500Y-91647500D03*
%TO.P,U2,6,CLK*%
%TO.N,QSPI_CLK*%
X113687500Y-92917500D03*
%TO.P,U2,5,DI(IO0)*%
%TO.N,SD0*%
X113687500Y-94187500D03*
%TO.P,U2,4,GND*%
%TO.N,GND*%
X120887500Y-94187500D03*
%TO.P,U2,3,IO2*%
%TO.N,SD2*%
X120887500Y-92917500D03*
%TO.P,U2,2,DO(IO1)*%
%TO.N,SD1*%
X120887500Y-91647500D03*
%TO.P,U2,1,~{CS}*%
%TO.N,CS*%
X120887500Y-90377500D03*
%TD*%
D17*
%TO.P,D23,2,A*%
%TO.N,Net-(D23-Pad2)*%
X146080000Y-47140000D03*
%TO.P,D23,1,K*%
%TO.N,Row0*%
X146080000Y-50440000D03*
%TD*%
%TO.P,D41,2,A*%
%TO.N,Net-(/1-Pad2)*%
X235773750Y-85971250D03*
%TO.P,D41,1,K*%
%TO.N,Row2*%
X235773750Y-89271250D03*
%TD*%
%TO.P,D9,2,A*%
%TO.N,Net-(D9-Pad2)*%
X84167500Y-80540000D03*
%TO.P,D9,1,K*%
%TO.N,Row2*%
X84167500Y-77240000D03*
%TD*%
%TO.P,D12,2,A*%
%TO.N,Net-(D12-Pad2)*%
X93692500Y-66921250D03*
%TO.P,D12,1,K*%
%TO.N,Row1*%
X93692500Y-70221250D03*
%TD*%
D28*
%TO.P,U3,3,VI*%
%TO.N,+5V*%
X95347500Y-55817500D03*
%TO.P,U3,2,VO*%
%TO.N,+3V3*%
X93472500Y-54867500D03*
%TO.P,U3,1,GND*%
%TO.N,GND*%
X93472500Y-56767500D03*
%TD*%
D17*
%TO.P,D43,2,A*%
%TO.N,Net-(D43-Pad2)*%
X241330000Y-47077500D03*
%TO.P,D43,1,K*%
%TO.N,Row0*%
X241330000Y-50377500D03*
%TD*%
D23*
%TO.P,C2,2*%
%TO.N,GND*%
X98390000Y-109880000D03*
%TO.P,C2,1*%
%TO.N,+1V1*%
X98390000Y-108920000D03*
%TD*%
D16*
%TO.P,C15,2*%
%TO.N,+3V3*%
X91807500Y-54891250D03*
%TO.P,C15,1*%
%TO.N,GND*%
X91807500Y-55851250D03*
%TD*%
D17*
%TO.P,D29,2,A*%
%TO.N,Net-(D29-Pad2)*%
X179417500Y-85908750D03*
%TO.P,D29,1,K*%
%TO.N,Row2*%
X179417500Y-89208750D03*
%TD*%
D24*
%TO.P,C7,2*%
%TO.N,GND*%
X93425000Y-100116250D03*
%TO.P,C7,1*%
%TO.N,+3V3*%
X94385000Y-100116250D03*
%TD*%
%TO.P,C10,2*%
%TO.N,GND*%
X92200000Y-103810000D03*
%TO.P,C10,1*%
%TO.N,+3V3*%
X93160000Y-103810000D03*
%TD*%
D29*
%TO.P,Y1,4,4*%
%TO.N,GND*%
X101237500Y-113077500D03*
%TO.P,Y1,3,3*%
%TO.N,XTAL_IN*%
X103437500Y-113077500D03*
%TO.P,Y1,2,2*%
%TO.N,GND*%
X103437500Y-111377500D03*
%TO.P,Y1,1,1*%
%TO.N,/XTAL_O*%
X101237500Y-111377500D03*
%TD*%
D17*
%TO.P,D36,2,A*%
%TO.N,Net-(D36-Pad2)*%
X207992500Y-66858750D03*
%TO.P,D36,1,K*%
%TO.N,Row1*%
X207992500Y-70158750D03*
%TD*%
D30*
%TO.P,R1,2*%
%TO.N,/D_+*%
X116420000Y-73770000D03*
%TO.P,R1,1*%
%TO.N,D_P*%
X116420000Y-72120000D03*
%TD*%
D31*
%TO.P,F1,2*%
%TO.N,+5V*%
X101953750Y-56040000D03*
%TO.P,F1,1*%
%TO.N,VBUS*%
X104753750Y-56040000D03*
%TD*%
D16*
%TO.P,C13,2*%
%TO.N,GND*%
X105177500Y-97927500D03*
%TO.P,C13,1*%
%TO.N,+3V3*%
X105177500Y-98887500D03*
%TD*%
D17*
%TO.P,D25,2,A*%
%TO.N,Net-(D25-Pad2)*%
X159573750Y-85971250D03*
%TO.P,D25,1,K*%
%TO.N,Row2*%
X159573750Y-89271250D03*
%TD*%
%TO.P,D14,2,A*%
%TO.N,Net-(Alt1-Pad2)*%
X73848750Y-104227500D03*
%TO.P,D14,1,K*%
%TO.N,Row3*%
X73848750Y-107527500D03*
%TD*%
%TO.P,D52,2,A*%
%TO.N,Net-(D52-Pad2)*%
X288161250Y-85971250D03*
%TO.P,D52,1,K*%
%TO.N,Row2*%
X288161250Y-89271250D03*
%TD*%
D16*
%TO.P,C1,2*%
%TO.N,GND*%
X100230000Y-94600000D03*
%TO.P,C1,1*%
%TO.N,+1V1*%
X100230000Y-95560000D03*
%TD*%
D17*
%TO.P,D6,2,A*%
%TO.N,Net-(D6-Pad2)*%
X65117500Y-80540000D03*
%TO.P,D6,1,K*%
%TO.N,Row2*%
X65117500Y-77240000D03*
%TD*%
%TO.P,D40,2,A*%
%TO.N,Net-(;1-Pad2)*%
X227042500Y-66921250D03*
%TO.P,D40,1,K*%
%TO.N,Row1*%
X227042500Y-70221250D03*
%TD*%
D32*
%TO.P,R3,2*%
%TO.N,~{RESET}*%
X75350000Y-98970000D03*
%TO.P,R3,1*%
%TO.N,+3V3*%
X74330000Y-98970000D03*
%TD*%
D17*
%TO.P,D19,2,A*%
%TO.N,Net-(D19-Pad2)*%
X127030000Y-47077500D03*
%TO.P,D19,1,K*%
%TO.N,Row0*%
X127030000Y-50377500D03*
%TD*%
%TO.P,D2,2,A*%
%TO.N,Net-(Ctrl1-Pad2)*%
X31050000Y-65060000D03*
%TO.P,D2,1,K*%
%TO.N,Row1*%
X31050000Y-68360000D03*
%TD*%
%TO.P,D18,2,A*%
%TO.N,Net-(D18-Pad2)*%
X92090000Y-94470000D03*
%TO.P,D18,1,K*%
%TO.N,Row3*%
X92090000Y-91170000D03*
%TD*%
%TO.P,D5,2,A*%
%TO.N,Net-(A1-Pad2)*%
X55592500Y-70096250D03*
%TO.P,D5,1,K*%
%TO.N,Row1*%
X55592500Y-73396250D03*
%TD*%
%TO.P,D21,2,A*%
%TO.N,Net-(B1-Pad2)*%
X141317500Y-85971250D03*
%TO.P,D21,1,K*%
%TO.N,Row2*%
X141317500Y-89271250D03*
%TD*%
%TO.P,D31,2,A*%
%TO.N,Net-(D31-Pad2)*%
X184180000Y-47140000D03*
%TO.P,D31,1,K*%
%TO.N,Row0*%
X184180000Y-50440000D03*
%TD*%
%TO.P,D16,2,A*%
%TO.N,Net-(D16-Pad2)*%
X111710000Y-66920000D03*
%TO.P,D16,1,K*%
%TO.N,Row1*%
X111710000Y-70220000D03*
%TD*%
%TO.P,D27,2,A*%
%TO.N,Net-(D27-Pad2)*%
X165130000Y-47077500D03*
%TO.P,D27,1,K*%
%TO.N,Row0*%
X165130000Y-50377500D03*
%TD*%
%TO.P,D13,2,A*%
%TO.N,Net-(C18-Pad2)*%
X105257500Y-80307500D03*
%TO.P,D13,1,K*%
%TO.N,Row2*%
X105257500Y-77007500D03*
%TD*%
%TO.P,D35,2,A*%
%TO.N,Net-(D35-Pad2)*%
X203230000Y-47077500D03*
%TO.P,D35,1,K*%
%TO.N,Row0*%
X203230000Y-50377500D03*
%TD*%
%TO.P,D38,2,A*%
%TO.N,Net-(Alt2-Pad2)*%
X235773750Y-104227500D03*
%TO.P,D38,1,K*%
%TO.N,Row3*%
X235773750Y-107527500D03*
%TD*%
D16*
%TO.P,C17,2*%
%TO.N,/XTAL_O*%
X99696250Y-111588750D03*
%TO.P,C17,1*%
%TO.N,GND*%
X99696250Y-112548750D03*
%TD*%
%TO.P,C8,2*%
%TO.N,GND*%
X111737500Y-89387500D03*
%TO.P,C8,1*%
%TO.N,+3V3*%
X111737500Y-90347500D03*
%TD*%
D17*
%TO.P,D11,2,A*%
%TO.N,Net-(D11-Pad2)*%
X88930000Y-47077500D03*
%TO.P,D11,1,K*%
%TO.N,Row0*%
X88930000Y-50377500D03*
%TD*%
D23*
%TO.P,C16,2*%
%TO.N,XTAL_IN*%
X105340000Y-113110000D03*
%TO.P,C16,1*%
%TO.N,GND*%
X105340000Y-112150000D03*
%TD*%
%TO.P,C14,2*%
%TO.N,GND*%
X99400000Y-109960000D03*
%TO.P,C14,1*%
%TO.N,+3V3*%
X99400000Y-109000000D03*
%TD*%
D30*
%TO.P,R2,2*%
%TO.N,/D_-*%
X114880000Y-73710000D03*
%TO.P,R2,1*%
%TO.N,D_N*%
X114880000Y-72060000D03*
%TD*%
D17*
%TO.P,D33,2,A*%
%TO.N,Net-(<1-Pad2)*%
X197673750Y-85971250D03*
%TO.P,D33,1,K*%
%TO.N,Row2*%
X197673750Y-89271250D03*
%TD*%
%TO.P,D22,2,A*%
%TO.N,Net-(D22-Pad2)*%
X127030000Y-97146250D03*
%TO.P,D22,1,K*%
%TO.N,Row3*%
X127030000Y-93846250D03*
%TD*%
D16*
%TO.P,C3,2*%
%TO.N,GND*%
X97537500Y-96457500D03*
%TO.P,C3,1*%
%TO.N,+1V1*%
X97537500Y-97417500D03*
%TD*%
%TO.P,C9,2*%
%TO.N,GND*%
X99210000Y-94580000D03*
%TO.P,C9,1*%
%TO.N,+3V3*%
X99210000Y-95540000D03*
%TD*%
D17*
%TO.P,D7,2,A*%
%TO.N,Net-(D7-Pad2)*%
X69880000Y-47077500D03*
%TO.P,D7,1,K*%
%TO.N,Row0*%
X69880000Y-50377500D03*
%TD*%
D33*
%TO.P,C12,2*%
%TO.N,GND*%
X107380000Y-104390000D03*
%TO.P,C12,1*%
%TO.N,+3V3*%
X106420000Y-104390000D03*
%TD*%
D17*
%TO.P,D37,2,A*%
%TO.N,Net-(>1-Pad2)*%
X216723750Y-85971250D03*
%TO.P,D37,1,K*%
%TO.N,Row2*%
X216723750Y-89271250D03*
%TD*%
D34*
%TO.N,Row1*%
X114020000Y-70240000D03*
X117560000Y-70240000D03*
%TO.N,Row2*%
X118960000Y-77250000D03*
X108850000Y-77280000D03*
%TO.N,*%
X117280000Y-92300000D03*
%TO.N,Col12*%
X257200000Y-109010000D03*
%TO.N,Col10*%
X118190373Y-110902186D03*
%TO.N,Col11*%
X241750000Y-105730000D03*
X242630000Y-96270000D03*
X239190000Y-108290000D03*
%TO.N,Col8*%
X116640000Y-109469500D03*
%TO.N,Col9*%
X117510000Y-110170000D03*
%TO.N,Col1*%
X75233523Y-111088240D03*
%TO.N,Col3*%
X65280000Y-91380000D03*
X86340000Y-84730000D03*
X75190000Y-109090000D03*
%TO.N,Col13*%
X254790000Y-110190000D03*
%TO.N,+1V1*%
X100150000Y-96910000D03*
X99400000Y-100298000D03*
X99660000Y-104697000D03*
X97170000Y-108880000D03*
X100150000Y-96910000D03*
X99660000Y-104697000D03*
%TO.N,GND*%
X105167500Y-96737500D03*
X105487500Y-110947500D03*
X98590000Y-110910000D03*
X99687500Y-113647500D03*
X93437500Y-97937500D03*
X110450000Y-89410000D03*
X108820000Y-104400000D03*
X118880000Y-94190000D03*
%TO.N,+3V3*%
X94420000Y-94430000D03*
X99755500Y-108110000D03*
X76830000Y-67830000D03*
X79460000Y-76380000D03*
X99262343Y-96288529D03*
X76810000Y-72000000D03*
%TO.N,Col0*%
X75610000Y-112030000D03*
X12980000Y-57000000D03*
%TO.N,Row0*%
X92917004Y-100987081D03*
X72120000Y-54820000D03*
%TO.N,Row1*%
X71570000Y-75550000D03*
X82230000Y-95320000D03*
X86420000Y-99470000D03*
X92720000Y-106957657D03*
%TO.N,Row2*%
X77910000Y-90680500D03*
X83930000Y-95890000D03*
%TO.N,Row3*%
X124610000Y-96250000D03*
X99840000Y-91250000D03*
%TO.N,Col4*%
X101600000Y-90490000D03*
X88320000Y-92880000D03*
%TO.N,~{RESET}*%
X81090000Y-107470500D03*
X77761480Y-105039277D03*
%TO.N,SWD*%
X77054725Y-105746032D03*
X80174030Y-107870500D03*
%TO.N,SWCLK*%
X76120000Y-106100000D03*
X79318087Y-108570000D03*
%TO.N,Col2*%
X75194692Y-110089492D03*
%TD*%
D35*
%TO.N,Row3*%
X258960000Y-107465000D02*
X259025000Y-107400000D01*
X211961250Y-107465000D02*
X258960000Y-107465000D01*
%TO.N,Net-(D42-Pad2)*%
X259025000Y-103666250D02*
X259025000Y-104100000D01*
X255362500Y-100003750D02*
X259025000Y-103666250D01*
X253395000Y-100003750D02*
X255362500Y-100003750D01*
%TO.N,D_P*%
X116530000Y-61272500D02*
X118630000Y-59172500D01*
X116530000Y-72010000D02*
X116530000Y-61272500D01*
X116420000Y-72120000D02*
X116530000Y-72010000D01*
%TO.N,D_N*%
X116130000Y-70930000D02*
X116130000Y-59172500D01*
X115000000Y-72060000D02*
X116130000Y-70930000D01*
X114880000Y-72060000D02*
X115000000Y-72060000D01*
%TO.N,+3V3*%
X95640000Y-103810000D02*
X93160000Y-103810000D01*
X95952500Y-103497500D02*
X95640000Y-103810000D01*
%TO.N,XTAL_IN*%
X103637500Y-113077500D02*
X103437500Y-113077500D01*
X104510000Y-112205000D02*
X103637500Y-113077500D01*
X104510000Y-110480000D02*
X104510000Y-112205000D01*
X100855000Y-106825000D02*
X104510000Y-110480000D01*
X100855000Y-105935000D02*
X100855000Y-106825000D01*
%TO.N,Row1*%
X150842500Y-70221250D02*
X131792500Y-70221250D01*
X169892500Y-70221250D02*
X150842500Y-70221250D01*
X169892500Y-70221250D02*
X188942500Y-70221250D01*
X207992500Y-70158750D02*
X189005000Y-70158750D01*
X189005000Y-70158750D02*
X188942500Y-70221250D01*
X208055000Y-70221250D02*
X207992500Y-70158750D01*
X227042500Y-70221250D02*
X208055000Y-70221250D01*
X227105000Y-70158750D02*
X227042500Y-70221250D01*
X245298750Y-70158750D02*
X227105000Y-70158750D01*
X245361250Y-70221250D02*
X245298750Y-70158750D01*
X277048750Y-70221250D02*
X245361250Y-70221250D01*
X93692500Y-70221250D02*
X74642500Y-70221250D01*
X93663750Y-70250000D02*
X93692500Y-70221250D01*
X74642500Y-70221250D02*
X74671250Y-70250000D01*
%TO.N,VBUS*%
X106490000Y-56040000D02*
X104753750Y-56040000D01*
X113630000Y-59172500D02*
X109622500Y-59172500D01*
X109622500Y-59172500D02*
X106490000Y-56040000D01*
%TO.N,D_N*%
X116010000Y-59010000D02*
X116020000Y-59000000D01*
%TO.N,/D_-*%
X105897157Y-83597157D02*
X114880000Y-74614314D01*
X114880000Y-74614314D02*
X114880000Y-73710000D01*
X105897157Y-87897157D02*
X105897157Y-83597157D01*
X100214314Y-93580000D02*
X105897157Y-87897157D01*
X98147500Y-94144560D02*
X98712060Y-93580000D01*
X98712060Y-93580000D02*
X100214314Y-93580000D01*
X98147500Y-97461814D02*
X98147500Y-94144560D01*
X98167843Y-97482157D02*
X98147500Y-97461814D01*
%TO.N,/D_+*%
X98562843Y-94294903D02*
X98877746Y-93980000D01*
X98562843Y-97311471D02*
X98562843Y-94294903D01*
X106310000Y-83750000D02*
X116290000Y-73770000D01*
X99255000Y-98003628D02*
X98562843Y-97311471D01*
X106310000Y-88050000D02*
X106310000Y-83750000D01*
X116290000Y-73770000D02*
X116420000Y-73770000D01*
X98877746Y-93980000D02*
X100380000Y-93980000D01*
X99255000Y-99060000D02*
X99255000Y-98003628D01*
X100380000Y-93980000D02*
X106310000Y-88050000D01*
%TO.N,Row1*%
X114000000Y-70220000D02*
X111710000Y-70220000D01*
X114020000Y-70240000D02*
X114000000Y-70220000D01*
X117578750Y-70221250D02*
X117560000Y-70240000D01*
X131792500Y-70221250D02*
X117578750Y-70221250D01*
X93692500Y-70221250D02*
X112742500Y-70221250D01*
X277017500Y-70190000D02*
X277048750Y-70221250D01*
X74642500Y-70221250D02*
X74673750Y-70190000D01*
%TO.N,Row2*%
X118960000Y-77250000D02*
X119743750Y-78033750D01*
X119743750Y-78033750D02*
X121473750Y-78033750D01*
X108810000Y-77240000D02*
X108850000Y-77280000D01*
X107400000Y-77240000D02*
X108810000Y-77240000D01*
X65117500Y-77240000D02*
X107400000Y-77240000D01*
%TO.N,/D_-*%
X98167843Y-97482157D02*
X98162843Y-97477157D01*
X98855000Y-98169314D02*
X98167843Y-97482157D01*
%TO.N,*%
X117280000Y-92290000D02*
X117280000Y-92300000D01*
%TO.N,Col12*%
X119500000Y-111785685D02*
X121435685Y-109850000D01*
X108630000Y-103630000D02*
X109039950Y-103630000D01*
X127130000Y-109010000D02*
X257200000Y-109010000D01*
X126320000Y-109850000D02*
X127050000Y-109120000D01*
X110920000Y-108130000D02*
X114520000Y-111730000D01*
X121435685Y-109850000D02*
X126320000Y-109850000D01*
X114520000Y-111730000D02*
X114810000Y-112020000D01*
X119265686Y-112020000D02*
X119500000Y-111785685D01*
X127050000Y-109090000D02*
X127130000Y-109010000D01*
X104697500Y-103097500D02*
X105230000Y-103630000D01*
X105230000Y-103630000D02*
X108630000Y-103630000D01*
X127050000Y-109120000D02*
X127050000Y-109090000D01*
X110920000Y-105510050D02*
X110920000Y-108130000D01*
X103692500Y-103097500D02*
X104663186Y-103097500D01*
X114810000Y-112020000D02*
X119265686Y-112020000D01*
X109039950Y-103630000D02*
X110920000Y-105510050D01*
X104663186Y-103097500D02*
X104697500Y-103097500D01*
X259745000Y-83493750D02*
X250220000Y-83493750D01*
%TO.N,Net-('1-Pad2)*%
X244856250Y-66858750D02*
X245298750Y-66858750D01*
X239901250Y-61903750D02*
X244856250Y-66858750D01*
%TO.N,Col10*%
X111720000Y-107765686D02*
X111720000Y-102925686D01*
X114856500Y-110902186D02*
X111720000Y-107765686D01*
X118190373Y-110902186D02*
X114856500Y-110902186D01*
X111091814Y-102297500D02*
X103692500Y-102297500D01*
X111720000Y-102925686D02*
X111091814Y-102297500D01*
%TO.N,Net-(/1-Pad2)*%
X235773750Y-85971250D02*
X235393750Y-85971250D01*
X235393750Y-85971250D02*
X230376250Y-80953750D01*
%TO.N,Col11*%
X114980000Y-111620000D02*
X111320000Y-107960000D01*
X110926128Y-102697500D02*
X103692500Y-102697500D01*
X167396890Y-108290000D02*
X167136890Y-108550000D01*
X119100000Y-111620000D02*
X114980000Y-111620000D01*
X167136890Y-108550000D02*
X126970000Y-108550000D01*
X126080000Y-109440000D02*
X121240000Y-109440000D01*
X126970000Y-108550000D02*
X126080000Y-109440000D01*
X121240000Y-109480000D02*
X119100000Y-111620000D01*
X111320000Y-107960000D02*
X111320000Y-103091372D01*
X121240000Y-109440000D02*
X121240000Y-109480000D01*
X239190000Y-108290000D02*
X167396890Y-108290000D01*
X111320000Y-103091372D02*
X110926128Y-102697500D01*
X242630000Y-96270000D02*
X242630000Y-104850000D01*
X242630000Y-104850000D02*
X241750000Y-105730000D01*
%TO.N,Col8*%
X111661814Y-101497500D02*
X112482157Y-102317843D01*
X112482157Y-102317843D02*
X112520000Y-102355686D01*
X103692500Y-101497500D02*
X111661814Y-101497500D01*
X112520000Y-107410000D02*
X114579500Y-109469500D01*
X112520000Y-102355686D02*
X112520000Y-107410000D01*
X114579500Y-109469500D02*
X116640000Y-109469500D01*
%TO.N,Net-(<1-Pad2)*%
X197673750Y-85971250D02*
X197293750Y-85971250D01*
X197293750Y-85971250D02*
X192276250Y-80953750D01*
%TO.N,Col9*%
X111257500Y-101897500D02*
X112120000Y-102760000D01*
X112120000Y-107600000D02*
X114460000Y-109940000D01*
X114460000Y-109940000D02*
X114690000Y-110170000D01*
X112120000Y-103690000D02*
X112120000Y-107600000D01*
X103692500Y-101897500D02*
X111257500Y-101897500D01*
X112120000Y-102760000D02*
X112120000Y-103690000D01*
X114690000Y-110170000D02*
X117510000Y-110170000D01*
%TO.N,Net-(>1-Pad2)*%
X216723750Y-85971250D02*
X216343750Y-85971250D01*
X216343750Y-85971250D02*
X211326250Y-80953750D01*
%TO.N,Col1*%
X97010000Y-106580000D02*
X96214314Y-106580000D01*
X76415686Y-109102812D02*
X76415686Y-109906077D01*
X94734314Y-108060000D02*
X83520000Y-108060000D01*
X79147998Y-106370500D02*
X76415686Y-109102812D01*
X97655000Y-105935000D02*
X97010000Y-106580000D01*
X81830500Y-106370500D02*
X79147998Y-106370500D01*
X76415686Y-109906077D02*
X75233523Y-111088240D01*
X83520000Y-108060000D02*
X81830500Y-106370500D01*
X96214314Y-106580000D02*
X94734314Y-108060000D01*
%TO.N,Net-(A1-Pad2)*%
X55592500Y-68095000D02*
X49401250Y-61903750D01*
X55592500Y-70096250D02*
X55592500Y-68095000D01*
%TO.N,Col3*%
X83780000Y-100900000D02*
X82600000Y-102080000D01*
X81050000Y-105560000D02*
X78795686Y-105560000D01*
X78795686Y-105560000D02*
X75265686Y-109090000D01*
X82600000Y-102080000D02*
X82600000Y-104010000D01*
X87263750Y-102143750D02*
X86020000Y-100900000D01*
X90063750Y-102143750D02*
X87263750Y-102143750D01*
X93745635Y-102780000D02*
X90700000Y-102780000D01*
X96021128Y-102297500D02*
X95518628Y-102800000D01*
X82600000Y-104010000D02*
X81050000Y-105560000D01*
X86020000Y-100900000D02*
X83780000Y-100900000D01*
X96817500Y-102297500D02*
X96021128Y-102297500D01*
X86340000Y-84730000D02*
X79690000Y-91380000D01*
X90700000Y-102780000D02*
X90063750Y-102143750D01*
X93765636Y-102800000D02*
X93745635Y-102780000D01*
X79690000Y-91380000D02*
X65280000Y-91380000D01*
X95518628Y-102800000D02*
X93765636Y-102800000D01*
X75265686Y-109090000D02*
X75190000Y-109090000D01*
%TO.N,Net-(Alt1-Pad2)*%
X67657500Y-100003750D02*
X69625000Y-100003750D01*
X69625000Y-100003750D02*
X73848750Y-104227500D01*
%TO.N,Net-(Alt2-Pad2)*%
X229582500Y-100003750D02*
X231550000Y-100003750D01*
X231550000Y-100003750D02*
X235773750Y-104227500D01*
%TO.N,Col5*%
X113830000Y-100297500D02*
X116076250Y-102543750D01*
X103692500Y-100297500D02*
X113830000Y-100297500D01*
%TO.N,Net-(B1-Pad2)*%
X140143750Y-85971250D02*
X141317500Y-85971250D01*
X135126250Y-80953750D02*
X140143750Y-85971250D01*
%TO.N,Col13*%
X104331815Y-103897500D02*
X103692500Y-103897500D01*
X254790000Y-110190000D02*
X254020000Y-109420000D01*
X254020000Y-109420000D02*
X127550000Y-109420000D01*
X113064314Y-112630000D02*
X104331815Y-103897500D01*
X124340000Y-112630000D02*
X113064314Y-112630000D01*
X127550000Y-109420000D02*
X124340000Y-112630000D01*
%TO.N,Net-(Bspc1-Pad2)*%
X278001250Y-42853750D02*
X279663750Y-42853750D01*
X283398750Y-46588750D02*
X283398750Y-47140000D01*
X279663750Y-42853750D02*
X283398750Y-46588750D01*
%TO.N,+1V1*%
X98390000Y-108920000D02*
X98390000Y-108485550D01*
X99650000Y-107410000D02*
X99655000Y-107405000D01*
X100150000Y-95640000D02*
X100150000Y-96910000D01*
X99465550Y-107410000D02*
X99650000Y-107410000D01*
X98455000Y-99060000D02*
X98455000Y-98335000D01*
X97177500Y-108887500D02*
X98357500Y-108887500D01*
X100230000Y-95560000D02*
X100150000Y-95640000D01*
X98390000Y-108485550D02*
X99465550Y-107410000D01*
X98455000Y-98335000D02*
X97537500Y-97417500D01*
X100455000Y-99060000D02*
X100455000Y-98305000D01*
X99655000Y-107405000D02*
X99655000Y-105935000D01*
X100150000Y-98000000D02*
X100150000Y-96910000D01*
X100455000Y-98305000D02*
X100150000Y-98000000D01*
X97170000Y-108880000D02*
X97177500Y-108887500D01*
%TO.N,GND*%
X105487500Y-110857500D02*
X101255000Y-106625000D01*
X100225000Y-113077500D02*
X99696250Y-112548750D01*
X105177500Y-96747500D02*
X105167500Y-96737500D01*
X99400000Y-109960000D02*
X99400000Y-110100000D01*
X118882500Y-94187500D02*
X118880000Y-94190000D01*
X101237500Y-113077500D02*
X100225000Y-113077500D01*
X99400000Y-110100000D02*
X98590000Y-110910000D01*
X98357500Y-109707500D02*
X98610000Y-109960000D01*
X105487500Y-110947500D02*
X105487500Y-110857500D01*
X101237500Y-113077500D02*
X101337500Y-113077500D01*
X111737500Y-89387500D02*
X110472500Y-89387500D01*
X98610000Y-109960000D02*
X99400000Y-109960000D01*
X120887500Y-94187500D02*
X118882500Y-94187500D01*
X101337500Y-113077500D02*
X103037500Y-111377500D01*
X105497500Y-110957500D02*
X105487500Y-110947500D01*
X101255000Y-106625000D02*
X101255000Y-105935000D01*
X105497500Y-112127500D02*
X105497500Y-110957500D01*
X93425000Y-100116250D02*
X93425000Y-97950000D01*
X105177500Y-97927500D02*
X105177500Y-96747500D01*
X110472500Y-89387500D02*
X110450000Y-89410000D01*
X103037500Y-111377500D02*
X103437500Y-111377500D01*
X99696250Y-112548750D02*
X99696250Y-113638750D01*
X99696250Y-113638750D02*
X99687500Y-113647500D01*
X107370000Y-104400000D02*
X108820000Y-104400000D01*
X93425000Y-97950000D02*
X93437500Y-97937500D01*
%TO.N,+3V3*%
X96817500Y-103497500D02*
X95952500Y-103497500D01*
X95518750Y-100116250D02*
X94385000Y-100116250D01*
X98055000Y-99060000D02*
X98055000Y-99300000D01*
X97457500Y-99897500D02*
X96817500Y-99897500D01*
X99238529Y-95568529D02*
X99210000Y-95540000D01*
X76830000Y-59530000D02*
X76830000Y-67830000D01*
X99238529Y-97421471D02*
X99238529Y-96288529D01*
X81468750Y-54891250D02*
X76890000Y-59470000D01*
X99655000Y-98185000D02*
X99655000Y-97837942D01*
X97655000Y-98535000D02*
X96537500Y-97417500D01*
X104167500Y-99897500D02*
X105177500Y-98887500D01*
X97837500Y-103497500D02*
X97840000Y-103500000D01*
X74330000Y-98970000D02*
X72840000Y-97480000D01*
X99655000Y-97837942D02*
X99238529Y-97421471D01*
X100055000Y-98585000D02*
X99655000Y-98185000D01*
X100055000Y-105935000D02*
X100055000Y-105291950D01*
X111767500Y-90377500D02*
X111737500Y-90347500D01*
X99655000Y-99060000D02*
X99655000Y-98185000D01*
X94385000Y-100116250D02*
X94385000Y-99095000D01*
X103692500Y-103497500D02*
X102927500Y-103497500D01*
X99238529Y-96288529D02*
X99262343Y-96288529D01*
X97655000Y-99060000D02*
X97655000Y-98535000D01*
X99755500Y-108110000D02*
X99755500Y-108389500D01*
X98055000Y-98935000D02*
X97655000Y-98535000D01*
X94930000Y-94940000D02*
X94930000Y-97250000D01*
X99755500Y-108389500D02*
X99407500Y-108737500D01*
X100055000Y-105291950D02*
X100078475Y-105268475D01*
X90787500Y-54891250D02*
X81468750Y-54891250D01*
X99238529Y-96288529D02*
X99238529Y-95568529D01*
X102927500Y-103497500D02*
X102920000Y-103490000D01*
X96817500Y-99897500D02*
X95737500Y-99897500D01*
X95737500Y-99897500D02*
X95518750Y-100116250D01*
X94385000Y-99095000D02*
X94377500Y-99087500D01*
X100055000Y-99805000D02*
X100040000Y-99820000D01*
X99655000Y-99060000D02*
X99655000Y-99635000D01*
X100055000Y-99060000D02*
X100055000Y-98585000D01*
X98055000Y-99060000D02*
X98055000Y-98935000D01*
X76810000Y-72000000D02*
X79460000Y-74650000D01*
X100055000Y-107810500D02*
X100055000Y-105935000D01*
X93448750Y-54891250D02*
X90787500Y-54891250D01*
X96817500Y-103497500D02*
X97837500Y-103497500D01*
X94420000Y-94430000D02*
X94930000Y-94940000D01*
X72840000Y-97480000D02*
X72840000Y-95075000D01*
X105460000Y-104460000D02*
X106210000Y-104460000D01*
X99755500Y-108110000D02*
X100055000Y-107810500D01*
X76890000Y-59470000D02*
X76830000Y-59530000D01*
X98055000Y-99300000D02*
X97457500Y-99897500D01*
X103692500Y-103497500D02*
X104497500Y-103497500D01*
X113687500Y-90377500D02*
X111767500Y-90377500D01*
X104497500Y-103497500D02*
X105460000Y-104460000D01*
X93472500Y-54867500D02*
X93448750Y-54891250D01*
X97655000Y-99060000D02*
X96817500Y-99897500D01*
X103692500Y-99897500D02*
X104167500Y-99897500D01*
X79460000Y-74650000D02*
X79460000Y-76380000D01*
X100055000Y-99060000D02*
X100055000Y-99805000D01*
%TO.N,+5V*%
X97876250Y-56040000D02*
X97667500Y-55831250D01*
X101953750Y-56040000D02*
X97876250Y-56040000D01*
X95361250Y-55831250D02*
X95347500Y-55817500D01*
X97667500Y-55831250D02*
X95361250Y-55831250D01*
%TO.N,XTAL_IN*%
X105487500Y-113077500D02*
X105497500Y-113087500D01*
X103437500Y-113077500D02*
X105487500Y-113077500D01*
%TO.N,/XTAL_O*%
X101237500Y-110347500D02*
X100627500Y-109737500D01*
X101237500Y-111377500D02*
X101237500Y-110347500D01*
X101237500Y-111377500D02*
X99907500Y-111377500D01*
X99907500Y-111377500D02*
X99696250Y-111588750D01*
%TO.N,Net-(C18-Pad2)*%
X97026250Y-80953750D02*
X104611250Y-80953750D01*
X104611250Y-80953750D02*
X105257500Y-80307500D01*
%TO.N,Col0*%
X81710000Y-107100000D02*
X81740000Y-107100000D01*
X81380500Y-106770500D02*
X81710000Y-107100000D01*
X98055000Y-105935000D02*
X98055000Y-106554314D01*
X16857500Y-64443750D02*
X12095000Y-64443750D01*
X98055000Y-106554314D02*
X97629314Y-106980000D01*
X83070000Y-108460000D02*
X81710000Y-107100000D01*
X96380000Y-106980000D02*
X94900000Y-108460000D01*
X97629314Y-106980000D02*
X96380000Y-106980000D01*
X75610000Y-112030000D02*
X76870000Y-110770000D01*
X94900000Y-108460000D02*
X83070000Y-108460000D01*
X76870000Y-109250000D02*
X79349500Y-106770500D01*
X14476250Y-45393750D02*
X14476250Y-55503750D01*
X76870000Y-110770000D02*
X76870000Y-109250000D01*
X79349500Y-106770500D02*
X81380500Y-106770500D01*
X14476250Y-55503750D02*
X12980000Y-57000000D01*
%TO.N,Net-(Ctrl1-Pad2)*%
X27893750Y-61903750D02*
X31050000Y-65060000D01*
X23207500Y-61903750D02*
X27893750Y-61903750D01*
X18445000Y-61903750D02*
X23207500Y-61903750D01*
%TO.N,Row0*%
X72120000Y-54820000D02*
X71607500Y-54307500D01*
X92917004Y-100987081D02*
X95417233Y-100987081D01*
X27017500Y-50377500D02*
X71607500Y-50377500D01*
X71607500Y-54307500D02*
X71607500Y-50377500D01*
X96106814Y-100297500D02*
X96817500Y-100297500D01*
X283336250Y-50377500D02*
X283398750Y-50440000D01*
X71607500Y-50377500D02*
X283336250Y-50377500D01*
X95417233Y-100987081D02*
X96106814Y-100297500D01*
%TO.N,Net-(D1-Pad2)*%
X22793750Y-42853750D02*
X27017500Y-47077500D01*
X20826250Y-42853750D02*
X22793750Y-42853750D01*
%TO.N,Row1*%
X71570000Y-73293750D02*
X71736875Y-73126875D01*
X71467500Y-73396250D02*
X71736875Y-73126875D01*
X96066814Y-104697500D02*
X95235001Y-105529313D01*
X96817500Y-104697500D02*
X96066814Y-104697500D01*
X71570000Y-75550000D02*
X71570000Y-73293750D01*
X36086250Y-73396250D02*
X31050000Y-68360000D01*
X95235001Y-106427941D02*
X94531471Y-107131471D01*
X94357657Y-106957657D02*
X92720000Y-106957657D01*
X94531471Y-107131471D02*
X94357657Y-106957657D01*
X71736875Y-73126875D02*
X74642500Y-70221250D01*
X55592500Y-73396250D02*
X71467500Y-73396250D01*
X55592500Y-73396250D02*
X36086250Y-73396250D01*
X95235001Y-105529313D02*
X95235001Y-106427941D01*
X86420000Y-99470000D02*
X82270000Y-95320000D01*
X82270000Y-95320000D02*
X82230000Y-95320000D01*
%TO.N,Row2*%
X95872500Y-101097500D02*
X96817500Y-101097500D01*
X126401250Y-89271250D02*
X141317500Y-89271250D01*
X159573750Y-89271250D02*
X288161250Y-89271250D01*
X91230000Y-101980000D02*
X94990000Y-101980000D01*
X125440000Y-88310000D02*
X126401250Y-89271250D01*
X125440000Y-82000000D02*
X125440000Y-88310000D01*
X89383750Y-101343750D02*
X90593750Y-101343750D01*
X38986250Y-84446250D02*
X41956250Y-81476250D01*
X141317500Y-89271250D02*
X159573750Y-89271250D01*
X46192500Y-77240000D02*
X65117500Y-77240000D01*
X94990000Y-101980000D02*
X95872500Y-101097500D01*
X41956250Y-81476250D02*
X51160500Y-90680500D01*
X83930000Y-95890000D02*
X89383750Y-101343750D01*
X90593750Y-101343750D02*
X91230000Y-101980000D01*
X41956250Y-81476250D02*
X46192500Y-77240000D01*
X121473750Y-78033750D02*
X125440000Y-82000000D01*
X51160500Y-90680500D02*
X77910000Y-90680500D01*
%TO.N,Net-(D3-Pad2)*%
X32193750Y-80953750D02*
X35686250Y-84446250D01*
X27970000Y-80953750D02*
X32193750Y-80953750D01*
%TO.N,Net-(D4-Pad2)*%
X46606250Y-42853750D02*
X50830000Y-47077500D01*
X44638750Y-42853750D02*
X46606250Y-42853750D01*
%TO.N,Net-(D6-Pad2)*%
X58926250Y-80953750D02*
X64703750Y-80953750D01*
X64703750Y-80953750D02*
X65117500Y-80540000D01*
%TO.N,Net-(D7-Pad2)*%
X65656250Y-42853750D02*
X69880000Y-47077500D01*
X63688750Y-42853750D02*
X65656250Y-42853750D01*
%TO.N,Net-(D8-Pad2)*%
X68451250Y-61903750D02*
X73468750Y-66921250D01*
X73468750Y-66921250D02*
X74642500Y-66921250D01*
%TO.N,Net-(D9-Pad2)*%
X77976250Y-80953750D02*
X83753750Y-80953750D01*
X83753750Y-80953750D02*
X84167500Y-80540000D01*
%TO.N,Row3*%
X174655000Y-97940000D02*
X176295000Y-99580000D01*
X176330000Y-99580000D02*
X184215000Y-107465000D01*
X80430000Y-103360000D02*
X80430000Y-100490000D01*
X96817500Y-101497500D02*
X96255442Y-101497500D01*
X50036250Y-107527500D02*
X73848750Y-107527500D01*
X76262500Y-107527500D02*
X80430000Y-103360000D01*
X80430000Y-100490000D02*
X80430000Y-95590000D01*
X95366471Y-102386471D02*
X95359999Y-102379999D01*
X160716250Y-93846250D02*
X164810000Y-97940000D01*
X164810000Y-97940000D02*
X174655000Y-97940000D01*
X184215000Y-107465000D02*
X211961250Y-107465000D01*
X150842500Y-93846250D02*
X160716250Y-93846250D01*
X92090000Y-91170000D02*
X99760000Y-91170000D01*
X87429436Y-101743750D02*
X86175686Y-100490000D01*
X99760000Y-91170000D02*
X99840000Y-91250000D01*
X95359999Y-102379999D02*
X90930000Y-102380000D01*
X124626250Y-96250000D02*
X127030000Y-93846250D01*
X96255442Y-101497500D02*
X95366471Y-102386471D01*
X127030000Y-93846250D02*
X150842500Y-93846250D01*
X176295000Y-99580000D02*
X176330000Y-99580000D01*
X73848750Y-107527500D02*
X76262500Y-107527500D01*
X86175686Y-100490000D02*
X80430000Y-100490000D01*
X124610000Y-96250000D02*
X124626250Y-96250000D01*
X80430000Y-95590000D02*
X84850000Y-91170000D01*
X90930000Y-102380000D02*
X90293750Y-101743750D01*
X90293750Y-101743750D02*
X87429436Y-101743750D01*
X84850000Y-91170000D02*
X92090000Y-91170000D01*
%TO.N,Net-(D10-Pad2)*%
X43845000Y-100003750D02*
X45812500Y-100003750D01*
X45812500Y-100003750D02*
X50036250Y-104227500D01*
%TO.N,Net-(D11-Pad2)*%
X82738750Y-42853750D02*
X84706250Y-42853750D01*
X84706250Y-42853750D02*
X88930000Y-47077500D01*
%TO.N,Net-(D12-Pad2)*%
X92518750Y-66921250D02*
X93692500Y-66921250D01*
X87501250Y-61903750D02*
X92518750Y-66921250D01*
%TO.N,Net-(D15-Pad2)*%
X103693750Y-42853750D02*
X107980000Y-47140000D01*
X101788750Y-42853750D02*
X103693750Y-42853750D01*
%TO.N,Net-(D16-Pad2)*%
X106551250Y-61903750D02*
X111568750Y-66921250D01*
%TO.N,Net-(D17-Pad2)*%
X116076250Y-80953750D02*
X121093750Y-80953750D01*
X121093750Y-80953750D02*
X121473750Y-81333750D01*
%TO.N,Net-(D18-Pad2)*%
X92090000Y-94470000D02*
X92090000Y-99383750D01*
X92090000Y-99383750D02*
X91470000Y-100003750D01*
%TO.N,Net-(D19-Pad2)*%
X120838750Y-42853750D02*
X122806250Y-42853750D01*
X122806250Y-42853750D02*
X127030000Y-47077500D01*
%TO.N,Net-(D20-Pad2)*%
X130618750Y-66921250D02*
X131792500Y-66921250D01*
X125601250Y-61903750D02*
X130618750Y-66921250D01*
%TO.N,Net-(D22-Pad2)*%
X124172500Y-100003750D02*
X127030000Y-97146250D01*
X122426250Y-100003750D02*
X124172500Y-100003750D01*
%TO.N,Net-(D23-Pad2)*%
X141793750Y-42853750D02*
X146080000Y-47140000D01*
X139888750Y-42853750D02*
X141793750Y-42853750D01*
%TO.N,Net-(D24-Pad2)*%
X149668750Y-66921250D02*
X150842500Y-66921250D01*
X144651250Y-61903750D02*
X149668750Y-66921250D01*
%TO.N,Net-(D25-Pad2)*%
X154176250Y-80953750D02*
X159193750Y-85971250D01*
X159193750Y-85971250D02*
X159573750Y-85971250D01*
%TO.N,Net-(D26-Pad2)*%
X150842500Y-97781250D02*
X150842500Y-97146250D01*
X148620000Y-100003750D02*
X150842500Y-97781250D01*
%TO.N,Net-(D27-Pad2)*%
X160906250Y-42853750D02*
X165130000Y-47077500D01*
X158938750Y-42853750D02*
X160906250Y-42853750D01*
%TO.N,Net-(D28-Pad2)*%
X163701250Y-61903750D02*
X168718750Y-66921250D01*
X168718750Y-66921250D02*
X169892500Y-66921250D01*
%TO.N,Net-(D29-Pad2)*%
X173226250Y-80953750D02*
X178181250Y-85908750D01*
X178181250Y-85908750D02*
X179417500Y-85908750D01*
%TO.N,Net-(D30-Pad2)*%
X174655000Y-101240000D02*
X171287500Y-101240000D01*
X171287500Y-101240000D02*
X170051250Y-100003750D01*
%TO.N,Net-(D31-Pad2)*%
X177988750Y-42853750D02*
X179893750Y-42853750D01*
X179893750Y-42853750D02*
X184180000Y-47140000D01*
%TO.N,Net-(D32-Pad2)*%
X182751250Y-61903750D02*
X187768750Y-66921250D01*
X187768750Y-66921250D02*
X188942500Y-66921250D01*
%TO.N,Net-(D34-Pad2)*%
X205770000Y-100003750D02*
X207800000Y-100003750D01*
X207800000Y-100003750D02*
X211961250Y-104165000D01*
%TO.N,Net-(D35-Pad2)*%
X197038750Y-42853750D02*
X199006250Y-42853750D01*
X199006250Y-42853750D02*
X203230000Y-47077500D01*
%TO.N,Net-(D36-Pad2)*%
X206756250Y-66858750D02*
X207992500Y-66858750D01*
X201801250Y-61903750D02*
X206756250Y-66858750D01*
%TO.N,Net-(D39-Pad2)*%
X216088750Y-42853750D02*
X217993750Y-42853750D01*
X217993750Y-42853750D02*
X222280000Y-47140000D01*
%TO.N,Net-(;1-Pad2)*%
X220851250Y-61903750D02*
X225868750Y-66921250D01*
X225868750Y-66921250D02*
X227042500Y-66921250D01*
%TO.N,Net-(D43-Pad2)*%
X237106250Y-42853750D02*
X241330000Y-47077500D01*
X235138750Y-42853750D02*
X237106250Y-42853750D01*
%TO.N,Net-(D47-Pad2)*%
X256218750Y-42853750D02*
X260380000Y-47015000D01*
X254188750Y-42853750D02*
X256218750Y-42853750D01*
%TO.N,Net-(D52-Pad2)*%
X287781250Y-85971250D02*
X288161250Y-85971250D01*
X282763750Y-80953750D02*
X287781250Y-85971250D01*
%TO.N,VBUS*%
X104841250Y-56127500D02*
X104753750Y-56040000D01*
%TO.N,Col4*%
X89880000Y-102620000D02*
X90440000Y-103180000D01*
X95684314Y-103200000D02*
X96186814Y-102697500D01*
X99210000Y-92880000D02*
X101600000Y-90490000D01*
X93579950Y-103180000D02*
X93599950Y-103200000D01*
X93599950Y-103200000D02*
X95684314Y-103200000D01*
X85196250Y-102620000D02*
X89880000Y-102620000D01*
X90440000Y-103180000D02*
X93579950Y-103180000D01*
X96186814Y-102697500D02*
X96817500Y-102697500D01*
X85120000Y-102543750D02*
X85196250Y-102620000D01*
X88320000Y-92880000D02*
X99210000Y-92880000D01*
%TO.N,Col6*%
X112067500Y-100697500D02*
X113350000Y-101980000D01*
X125470000Y-108370000D02*
X131296250Y-102543750D01*
X131296250Y-102543750D02*
X142270000Y-102543750D01*
X103692500Y-100697500D02*
X112067500Y-100697500D01*
X113350000Y-106860000D02*
X114860000Y-108370000D01*
X114860000Y-108370000D02*
X125470000Y-108370000D01*
X113350000Y-101980000D02*
X113350000Y-106860000D01*
%TO.N,~{RESET}*%
X98455000Y-105935000D02*
X98455000Y-106350000D01*
X98455000Y-106720000D02*
X98455000Y-105935000D01*
X81090000Y-107470500D02*
X82479500Y-108860000D01*
X82479500Y-108860000D02*
X95068678Y-108860000D01*
X95068678Y-108860000D02*
X96548678Y-107380000D01*
X76880000Y-100500000D02*
X75350000Y-98970000D01*
X75380000Y-98940000D02*
X75350000Y-98970000D01*
X96548678Y-107380000D02*
X97791320Y-107380000D01*
X97793161Y-107381839D02*
X98455000Y-106720000D01*
X76880000Y-104157797D02*
X76880000Y-100500000D01*
X77761480Y-105039277D02*
X76880000Y-104157797D01*
X75380000Y-95075000D02*
X75380000Y-98940000D01*
X97791320Y-107380000D02*
X97793161Y-107381839D01*
%TO.N,SWD*%
X96714364Y-107780000D02*
X97625635Y-107780000D01*
X97794907Y-107949271D02*
X98855000Y-106889178D01*
X97625635Y-107780000D02*
X97794907Y-107949271D01*
X95234364Y-109260000D02*
X96714364Y-107780000D01*
X80174030Y-107870500D02*
X81563530Y-109260000D01*
X67730000Y-95893065D02*
X67730000Y-94530000D01*
X81563530Y-109260000D02*
X95234364Y-109260000D01*
X98855000Y-106889178D02*
X98855000Y-105935000D01*
X77054725Y-105217790D02*
X67730000Y-95893065D01*
X77054725Y-105746032D02*
X77054725Y-105217790D01*
%TO.N,SWCLK*%
X68451250Y-97180000D02*
X65550000Y-97180000D01*
X76120000Y-104848750D02*
X68451250Y-97180000D01*
X80408087Y-109660000D02*
X95400050Y-109660000D01*
X96880050Y-108180000D02*
X97459950Y-108180000D01*
X79318087Y-108570000D02*
X80408087Y-109660000D01*
X76120000Y-106100000D02*
X76120000Y-104848750D01*
X97767450Y-108487500D02*
X97822364Y-108487500D01*
X97822364Y-108487500D02*
X99255000Y-107054864D01*
X99255000Y-107054864D02*
X99255000Y-105935000D01*
X65190000Y-96820000D02*
X65190000Y-94530000D01*
X65550000Y-97180000D02*
X65190000Y-96820000D01*
X97459950Y-108180000D02*
X97767450Y-108487500D01*
X95400050Y-109660000D02*
X96880050Y-108180000D01*
%TO.N,Col7*%
X112950000Y-102220000D02*
X112950000Y-107025686D01*
X125940000Y-108770000D02*
X127720000Y-106990000D01*
X111827500Y-101097500D02*
X112950000Y-102220000D01*
X114694315Y-108770000D02*
X125940000Y-108770000D01*
X141560000Y-106990000D02*
X142610000Y-108040000D01*
X161506425Y-102543750D02*
X163701250Y-102543750D01*
X142610000Y-108040000D02*
X156010175Y-108040000D01*
X112950000Y-107025686D02*
X114694315Y-108770000D01*
X127720000Y-106990000D02*
X141560000Y-106990000D01*
X156010175Y-108040000D02*
X161506425Y-102543750D01*
X103692500Y-101097500D02*
X111827500Y-101097500D01*
%TO.N,/D_-*%
X98855000Y-99060000D02*
X98855000Y-98169314D01*
%TO.N,/~{USB_BOOT}*%
X123630000Y-89530000D02*
X123630000Y-87300000D01*
%TO.N,CS*%
X112250000Y-97620000D02*
X123440000Y-97620000D01*
X123440000Y-92763604D02*
X123430000Y-92753604D01*
X123430000Y-91410000D02*
X122397500Y-90377500D01*
X102855000Y-95333116D02*
X103707869Y-94480247D01*
X122397500Y-90377500D02*
X120887500Y-90377500D01*
X123430000Y-92753604D02*
X123430000Y-91410000D01*
X122397500Y-90377500D02*
X122397500Y-89742500D01*
X103707869Y-94480247D02*
X109110247Y-94480247D01*
X109110247Y-94480247D02*
X112250000Y-97620000D01*
X123440000Y-97620000D02*
X123440000Y-92763604D01*
X102855000Y-99060000D02*
X102855000Y-95333116D01*
X122397500Y-89742500D02*
X122560000Y-89580000D01*
%TO.N,XTAL_OUT*%
X100627500Y-108717500D02*
X100455000Y-108545000D01*
X100455000Y-108545000D02*
X100455000Y-105935000D01*
%TO.N,Col2*%
X75194692Y-110089492D02*
X76015686Y-109268498D01*
X95990000Y-105340000D02*
X96232500Y-105097500D01*
X96232500Y-105097500D02*
X96817500Y-105097500D01*
X94571471Y-107657157D02*
X95990000Y-106238628D01*
X95990000Y-106238628D02*
X95990000Y-105340000D01*
X78961372Y-105960000D02*
X81985686Y-105960000D01*
X76015686Y-109268498D02*
X76015686Y-108905686D01*
X76015686Y-108905686D02*
X78961372Y-105960000D01*
X83682843Y-107657157D02*
X94571471Y-107657157D01*
X81985686Y-105960000D02*
X83682843Y-107657157D01*
%TO.N,Net-(D48-Pad2)*%
X270857500Y-61903750D02*
X275875000Y-66921250D01*
X275875000Y-66921250D02*
X277048750Y-66921250D01*
%TO.N,Net-(D49-Pad2)*%
X256570000Y-80953750D02*
X266095000Y-80953750D01*
X271112500Y-85971250D02*
X271492500Y-85971250D01*
X266095000Y-80953750D02*
X271112500Y-85971250D01*
%TO.N,SD3*%
X103712187Y-91647500D02*
X113687500Y-91647500D01*
X100855000Y-94504687D02*
X103712187Y-91647500D01*
X100855000Y-99060000D02*
X100855000Y-94504687D01*
%TO.N,QSPI_CLK*%
X101255000Y-99060000D02*
X101255000Y-94670373D01*
X101255000Y-94670373D02*
X103045127Y-92880247D01*
X113650247Y-92880247D02*
X113687500Y-92917500D01*
X103045127Y-92880247D02*
X113650247Y-92880247D01*
%TO.N,SD0*%
X110517058Y-94190000D02*
X113685000Y-94190000D01*
X101655000Y-94836059D02*
X103210812Y-93280247D01*
X109607305Y-93280247D02*
X110517058Y-94190000D01*
X113685000Y-94190000D02*
X113687500Y-94187500D01*
X101655000Y-99060000D02*
X101655000Y-94836059D01*
X103210812Y-93280247D02*
X109607305Y-93280247D01*
%TO.N,SD2*%
X120887500Y-92917500D02*
X122007500Y-92917500D01*
X122640000Y-93550000D02*
X122640000Y-96820000D01*
X103376498Y-93680247D02*
X102055000Y-95001745D01*
X102055000Y-95001745D02*
X102055000Y-99060000D01*
X112581372Y-96820000D02*
X109441619Y-93680247D01*
X122007500Y-92917500D02*
X122640000Y-93550000D01*
X109441619Y-93680247D02*
X103376498Y-93680247D01*
X122640000Y-96820000D02*
X112581372Y-96820000D01*
%TO.N,SD1*%
X123040000Y-97220000D02*
X123040000Y-92850000D01*
X103542184Y-94080247D02*
X109275933Y-94080247D01*
X112415686Y-97220000D02*
X123040000Y-97220000D01*
X102455000Y-99060000D02*
X102455000Y-95167430D01*
X102455000Y-95167430D02*
X103542184Y-94080247D01*
X123040000Y-92850000D02*
X121837500Y-91647500D01*
X109275933Y-94080247D02*
X112415686Y-97220000D01*
X121837500Y-91647500D02*
X120887500Y-91647500D01*
%TD*%
%TA.AperFunction,Conductor*%
%TO.N,+1V1*%
G36*
X98720145Y-99686029D02*
G01*
X98776756Y-99697290D01*
X98776757Y-99697290D01*
X98780326Y-99698000D01*
X98929674Y-99698000D01*
X98933243Y-99697290D01*
X98933244Y-99697290D01*
X98989855Y-99686029D01*
X99004292Y-99684607D01*
X99105708Y-99684607D01*
X99120145Y-99686029D01*
X99176756Y-99697290D01*
X99176757Y-99697290D01*
X99180326Y-99698000D01*
X99203500Y-99698000D01*
X99251066Y-99715313D01*
X99276376Y-99759150D01*
X99277500Y-99772000D01*
X99277500Y-100084607D01*
X99603500Y-100084607D01*
X99651066Y-100101920D01*
X99676376Y-100145757D01*
X99677500Y-100158607D01*
X99677500Y-100284607D01*
X102403500Y-100284607D01*
X102451066Y-100301920D01*
X102476376Y-100345757D01*
X102477500Y-100358607D01*
X102477500Y-104610607D01*
X102460187Y-104658173D01*
X102416350Y-104683483D01*
X102403500Y-104684607D01*
X100077500Y-104684607D01*
X100077500Y-104810607D01*
X100060187Y-104858173D01*
X100016350Y-104883483D01*
X100003500Y-104884607D01*
X99351500Y-104884607D01*
X99303934Y-104867294D01*
X99278624Y-104823457D01*
X99277500Y-104810607D01*
X99277500Y-104372000D01*
X99294813Y-104324434D01*
X99338650Y-104299124D01*
X99351500Y-104298000D01*
X101739151Y-104297999D01*
X101751362Y-104297999D01*
X101753769Y-104297682D01*
X101753771Y-104297682D01*
X101795927Y-104292133D01*
X101795929Y-104292133D01*
X101801539Y-104291394D01*
X101911645Y-104240051D01*
X101997551Y-104154145D01*
X102048894Y-104044039D01*
X102055500Y-103993863D01*
X102055499Y-101001138D01*
X102048894Y-100950961D01*
X101997551Y-100840855D01*
X101911645Y-100754949D01*
X101908258Y-100753370D01*
X101880022Y-100713045D01*
X101878277Y-100699789D01*
X101877500Y-100697654D01*
X101877500Y-100684607D01*
X98351500Y-100684607D01*
X98303934Y-100667294D01*
X98278624Y-100623457D01*
X98277500Y-100610607D01*
X98277500Y-99758607D01*
X98294813Y-99711041D01*
X98338650Y-99685731D01*
X98351500Y-99684607D01*
X98705708Y-99684607D01*
X98720145Y-99686029D01*
G37*
%TD.AperFunction*%
%TD*%
%TA.AperFunction,Conductor*%
%TO.N,+3V3*%
G36*
X99602575Y-99561662D02*
G01*
X99609490Y-99569285D01*
X99951090Y-99628257D01*
X100274375Y-99684068D01*
X100274381Y-99684068D01*
X100277500Y-99684607D01*
X100305708Y-99684607D01*
X100320145Y-99686029D01*
X100376756Y-99697290D01*
X100376757Y-99697290D01*
X100380326Y-99698000D01*
X100529674Y-99698000D01*
X100533243Y-99697290D01*
X100533244Y-99697290D01*
X100589855Y-99686029D01*
X100604292Y-99684607D01*
X100705708Y-99684607D01*
X100720145Y-99686029D01*
X100776756Y-99697290D01*
X100776757Y-99697290D01*
X100780326Y-99698000D01*
X100929674Y-99698000D01*
X100933243Y-99697290D01*
X100933244Y-99697290D01*
X100989855Y-99686029D01*
X101004292Y-99684607D01*
X101105708Y-99684607D01*
X101120145Y-99686029D01*
X101176756Y-99697290D01*
X101176757Y-99697290D01*
X101180326Y-99698000D01*
X101329674Y-99698000D01*
X101333243Y-99697290D01*
X101333244Y-99697290D01*
X101389855Y-99686029D01*
X101404292Y-99684607D01*
X101505708Y-99684607D01*
X101520145Y-99686029D01*
X101576756Y-99697290D01*
X101576757Y-99697290D01*
X101580326Y-99698000D01*
X101729674Y-99698000D01*
X101733243Y-99697290D01*
X101733244Y-99697290D01*
X101789855Y-99686029D01*
X101804292Y-99684607D01*
X101905708Y-99684607D01*
X101920145Y-99686029D01*
X101976756Y-99697290D01*
X101976757Y-99697290D01*
X101980326Y-99698000D01*
X102129674Y-99698000D01*
X102133243Y-99697290D01*
X102133244Y-99697290D01*
X102189855Y-99686029D01*
X102204292Y-99684607D01*
X102305708Y-99684607D01*
X102320145Y-99686029D01*
X102376756Y-99697290D01*
X102376757Y-99697290D01*
X102380326Y-99698000D01*
X102529674Y-99698000D01*
X102533243Y-99697290D01*
X102533244Y-99697290D01*
X102589855Y-99686029D01*
X102604292Y-99684607D01*
X102705708Y-99684607D01*
X102720145Y-99686029D01*
X102776756Y-99697290D01*
X102776757Y-99697290D01*
X102780326Y-99698000D01*
X102929674Y-99698000D01*
X102933241Y-99697291D01*
X102933246Y-99697290D01*
X102989064Y-99686187D01*
X103039093Y-99693887D01*
X103072469Y-99731945D01*
X103077500Y-99758765D01*
X103077500Y-100118318D01*
X103072184Y-100145046D01*
X103069034Y-100149760D01*
X103054500Y-100222826D01*
X103054500Y-100372174D01*
X103069034Y-100445240D01*
X103072184Y-100449954D01*
X103077500Y-100476684D01*
X103077500Y-100518316D01*
X103072184Y-100545046D01*
X103069034Y-100549760D01*
X103067612Y-100556909D01*
X103056931Y-100610607D01*
X103054500Y-100622826D01*
X103054500Y-100772174D01*
X103069034Y-100845240D01*
X103072184Y-100849954D01*
X103077500Y-100876684D01*
X103077500Y-100918316D01*
X103072184Y-100945046D01*
X103069034Y-100949760D01*
X103054500Y-101022826D01*
X103054500Y-101172174D01*
X103069034Y-101245240D01*
X103072184Y-101249954D01*
X103077500Y-101276684D01*
X103077500Y-101318316D01*
X103072184Y-101345046D01*
X103069034Y-101349760D01*
X103067612Y-101356909D01*
X103055985Y-101415363D01*
X103054500Y-101422826D01*
X103054500Y-101572174D01*
X103069034Y-101645240D01*
X103072184Y-101649954D01*
X103077500Y-101676684D01*
X103077500Y-101718316D01*
X103072184Y-101745046D01*
X103069034Y-101749760D01*
X103054500Y-101822826D01*
X103054500Y-101972174D01*
X103069034Y-102045240D01*
X103072184Y-102049954D01*
X103077500Y-102076684D01*
X103077500Y-102118316D01*
X103072184Y-102145046D01*
X103069034Y-102149760D01*
X103054500Y-102222826D01*
X103054500Y-102372174D01*
X103069034Y-102445240D01*
X103072184Y-102449954D01*
X103077500Y-102476684D01*
X103077500Y-102518316D01*
X103072184Y-102545046D01*
X103069034Y-102549760D01*
X103054500Y-102622826D01*
X103054500Y-102772174D01*
X103069034Y-102845240D01*
X103072184Y-102849954D01*
X103077500Y-102876684D01*
X103077500Y-102918316D01*
X103072184Y-102945046D01*
X103069034Y-102949760D01*
X103054500Y-103022826D01*
X103054500Y-103172174D01*
X103069034Y-103245240D01*
X103072184Y-103249954D01*
X103077500Y-103276682D01*
X103077500Y-103718318D01*
X103072184Y-103745046D01*
X103069034Y-103749760D01*
X103054500Y-103822826D01*
X103054500Y-103972174D01*
X103069034Y-104045240D01*
X103072184Y-104049954D01*
X103077500Y-104076684D01*
X103077500Y-104118316D01*
X103072184Y-104145046D01*
X103069034Y-104149760D01*
X103054500Y-104222826D01*
X103054500Y-104372174D01*
X103069034Y-104445240D01*
X103072184Y-104449954D01*
X103077500Y-104476684D01*
X103077500Y-104518316D01*
X103072184Y-104545046D01*
X103069034Y-104549760D01*
X103067612Y-104556909D01*
X103056931Y-104610607D01*
X103054500Y-104622826D01*
X103054500Y-104772174D01*
X103069034Y-104845240D01*
X103072184Y-104849954D01*
X103077500Y-104876684D01*
X103077500Y-104918316D01*
X103072184Y-104945046D01*
X103069034Y-104949760D01*
X103054500Y-105022826D01*
X103054500Y-105172174D01*
X103055209Y-105175741D01*
X103055210Y-105175746D01*
X103059273Y-105196171D01*
X103051573Y-105246200D01*
X103013515Y-105279576D01*
X102986695Y-105284607D01*
X100098642Y-105284607D01*
X100051076Y-105267294D01*
X100025766Y-105223457D01*
X100034556Y-105173607D01*
X100053594Y-105151899D01*
X100084431Y-105128237D01*
X100088282Y-105125282D01*
X100142951Y-105054036D01*
X100160740Y-105037426D01*
X100160930Y-105037300D01*
X100162939Y-105036140D01*
X100203674Y-105005285D01*
X100253293Y-104928460D01*
X100253877Y-104928837D01*
X100288106Y-104896279D01*
X100317693Y-104890107D01*
X102403500Y-104890107D01*
X102404295Y-104890072D01*
X102404308Y-104890072D01*
X102416048Y-104889559D01*
X102421407Y-104889325D01*
X102422199Y-104889256D01*
X102422210Y-104889255D01*
X102430233Y-104888553D01*
X102434257Y-104888201D01*
X102438108Y-104886987D01*
X102438112Y-104886986D01*
X102515245Y-104862666D01*
X102515244Y-104862666D01*
X102519102Y-104861450D01*
X102562939Y-104836140D01*
X102603674Y-104805285D01*
X102622754Y-104775744D01*
X102651039Y-104731951D01*
X102651041Y-104731946D01*
X102653293Y-104728460D01*
X102657954Y-104715656D01*
X102669501Y-104683929D01*
X102670606Y-104680894D01*
X102683000Y-104610607D01*
X102683000Y-100358607D01*
X102682218Y-100340700D01*
X102681094Y-100327850D01*
X102654343Y-100243005D01*
X102629033Y-100199168D01*
X102598178Y-100158433D01*
X102572758Y-100142015D01*
X102524844Y-100111068D01*
X102524839Y-100111066D01*
X102521353Y-100108814D01*
X102517449Y-100107393D01*
X102517447Y-100107392D01*
X102496044Y-100099602D01*
X102473787Y-100091501D01*
X102470613Y-100090941D01*
X102470608Y-100090940D01*
X102436356Y-100084901D01*
X102403500Y-100079107D01*
X100008753Y-100079107D01*
X99961187Y-100061794D01*
X99940386Y-100033425D01*
X99934566Y-100019375D01*
X99924536Y-99995159D01*
X99828282Y-99869718D01*
X99804716Y-99851635D01*
X99706689Y-99776416D01*
X99706685Y-99776414D01*
X99702841Y-99773464D01*
X99556762Y-99712956D01*
X99551957Y-99712323D01*
X99547694Y-99711181D01*
X99506229Y-99682147D01*
X99493129Y-99633253D01*
X99505321Y-99598587D01*
X99512170Y-99588338D01*
X99552993Y-99558409D01*
X99602575Y-99561662D01*
G37*
%TD.AperFunction*%
%TA.AperFunction,Conductor*%
G36*
X96000254Y-96431773D02*
G01*
X96025804Y-96475471D01*
X96027000Y-96488721D01*
X96027001Y-96607159D01*
X96027001Y-96637400D01*
X96033528Y-96686987D01*
X96084276Y-96795816D01*
X96169184Y-96880724D01*
X96278013Y-96931472D01*
X96327599Y-96938000D01*
X96537413Y-96938000D01*
X96747400Y-96937999D01*
X96749807Y-96937682D01*
X96749810Y-96937682D01*
X96791375Y-96932211D01*
X96791377Y-96932210D01*
X96796987Y-96931472D01*
X96802114Y-96929081D01*
X96802115Y-96929081D01*
X96889644Y-96888265D01*
X96905816Y-96880724D01*
X96985174Y-96801366D01*
X97031050Y-96779974D01*
X97079945Y-96793075D01*
X97089826Y-96801366D01*
X97169184Y-96880724D01*
X97169551Y-96880895D01*
X97174789Y-96885512D01*
X97177288Y-96888265D01*
X97196440Y-96935121D01*
X97180992Y-96983325D01*
X97169801Y-96993988D01*
X97169184Y-96994276D01*
X97084276Y-97079184D01*
X97033528Y-97188013D01*
X97027000Y-97237599D01*
X97027001Y-97597400D01*
X97033528Y-97646987D01*
X97084276Y-97755816D01*
X97169184Y-97840724D01*
X97278013Y-97891472D01*
X97327599Y-97898000D01*
X97347081Y-97898000D01*
X97562376Y-97897999D01*
X97609942Y-97915312D01*
X97614702Y-97919673D01*
X98132826Y-98437797D01*
X98154218Y-98483673D01*
X98154500Y-98490123D01*
X98154500Y-99472174D01*
X98155210Y-99475743D01*
X98155210Y-99475744D01*
X98161867Y-99509209D01*
X98154167Y-99559239D01*
X98150950Y-99563686D01*
X98151326Y-99563929D01*
X98103961Y-99637263D01*
X98103959Y-99637268D01*
X98101707Y-99640754D01*
X98084394Y-99688320D01*
X98072000Y-99758607D01*
X98072000Y-100610607D01*
X98072782Y-100628514D01*
X98073906Y-100641364D01*
X98075120Y-100645215D01*
X98075121Y-100645219D01*
X98095654Y-100710342D01*
X98100657Y-100726209D01*
X98125967Y-100770046D01*
X98156822Y-100810781D01*
X98162257Y-100814291D01*
X98230156Y-100858146D01*
X98230161Y-100858148D01*
X98233647Y-100860400D01*
X98237551Y-100861821D01*
X98237553Y-100861822D01*
X98257045Y-100868917D01*
X98281213Y-100877713D01*
X98284387Y-100878273D01*
X98284392Y-100878274D01*
X98318644Y-100884313D01*
X98351500Y-100890107D01*
X98384737Y-100890107D01*
X98432303Y-100907420D01*
X98457613Y-100951257D01*
X98458104Y-100973763D01*
X98454500Y-101001137D01*
X98454501Y-103993862D01*
X98454818Y-103996269D01*
X98454818Y-103996271D01*
X98459783Y-104033985D01*
X98461106Y-104044039D01*
X98512449Y-104154145D01*
X98598355Y-104240051D01*
X98708461Y-104291394D01*
X98758637Y-104298000D01*
X98998000Y-104298000D01*
X99045566Y-104315313D01*
X99070876Y-104359150D01*
X99072000Y-104372000D01*
X99072000Y-104557840D01*
X99071367Y-104567499D01*
X99054318Y-104697000D01*
X99074956Y-104853762D01*
X99076810Y-104858239D01*
X99076812Y-104858245D01*
X99085691Y-104879682D01*
X99087898Y-104885745D01*
X99091220Y-104896279D01*
X99100657Y-104926209D01*
X99113479Y-104948417D01*
X99117752Y-104957080D01*
X99135464Y-104999841D01*
X99231718Y-105125282D01*
X99235569Y-105128237D01*
X99266406Y-105151899D01*
X99293604Y-105194590D01*
X99286997Y-105244776D01*
X99249677Y-105278974D01*
X99221358Y-105284607D01*
X97551904Y-105284607D01*
X97504338Y-105267294D01*
X97479028Y-105223457D01*
X97477905Y-105210204D01*
X97505679Y-100106424D01*
X97505750Y-100093375D01*
X97440718Y-100093375D01*
X97393152Y-100076062D01*
X97389469Y-100072687D01*
X97385601Y-100066899D01*
X97355348Y-100046685D01*
X97308799Y-100015582D01*
X97308797Y-100015581D01*
X97302740Y-100011534D01*
X97295595Y-100010113D01*
X97295593Y-100010112D01*
X97233244Y-99997710D01*
X97233243Y-99997710D01*
X97229674Y-99997000D01*
X96161381Y-99997000D01*
X96155908Y-99996598D01*
X96151472Y-99995075D01*
X96144648Y-99995331D01*
X96144647Y-99995331D01*
X96101573Y-99996948D01*
X96098797Y-99997000D01*
X96078866Y-99997000D01*
X96075514Y-99997624D01*
X96072123Y-99997937D01*
X96072105Y-99997747D01*
X96068059Y-99998206D01*
X96039606Y-99999274D01*
X96033329Y-100001971D01*
X96033324Y-100001972D01*
X96026471Y-100004916D01*
X96010812Y-100009674D01*
X96005945Y-100010580D01*
X95996761Y-100012291D01*
X95990946Y-100015876D01*
X95990942Y-100015877D01*
X95972524Y-100027230D01*
X95962907Y-100032226D01*
X95941552Y-100041401D01*
X95941550Y-100041402D01*
X95936751Y-100043464D01*
X95931865Y-100047478D01*
X95925434Y-100053909D01*
X95911939Y-100064576D01*
X95901466Y-100071032D01*
X95898737Y-100074621D01*
X95850133Y-100093375D01*
X93979499Y-100093375D01*
X93931933Y-100076062D01*
X93906623Y-100032225D01*
X93905499Y-100019375D01*
X93905499Y-99906350D01*
X93901184Y-99873569D01*
X93899711Y-99862375D01*
X93899710Y-99862373D01*
X93898972Y-99856763D01*
X93848224Y-99747934D01*
X93843646Y-99743356D01*
X93839933Y-99738053D01*
X93842569Y-99736207D01*
X93826482Y-99701708D01*
X93826203Y-99694618D01*
X93827382Y-99558409D01*
X93827932Y-99494821D01*
X93840270Y-99456270D01*
X93840724Y-99455816D01*
X93891472Y-99346987D01*
X93898000Y-99297401D01*
X93897999Y-98877600D01*
X93891472Y-98828013D01*
X93889081Y-98822885D01*
X93841834Y-98721563D01*
X93834904Y-98689648D01*
X93837208Y-98423474D01*
X93854932Y-98376060D01*
X93858879Y-98371789D01*
X93861931Y-98368737D01*
X93865782Y-98365782D01*
X93868737Y-98361931D01*
X93959084Y-98244189D01*
X93959086Y-98244185D01*
X93962036Y-98240341D01*
X94022544Y-98094262D01*
X94031275Y-98027948D01*
X94042549Y-97942308D01*
X94043182Y-97937500D01*
X94036807Y-97889079D01*
X94023177Y-97785543D01*
X94023176Y-97785540D01*
X94022544Y-97780738D01*
X93962036Y-97634659D01*
X93959086Y-97630815D01*
X93959084Y-97630811D01*
X93868737Y-97513069D01*
X93865782Y-97509218D01*
X93866045Y-97509016D01*
X93845841Y-97465689D01*
X93845562Y-97458598D01*
X93848796Y-97085050D01*
X93853868Y-96499206D01*
X93871592Y-96451793D01*
X93915646Y-96426864D01*
X93927456Y-96425849D01*
X95952593Y-96414722D01*
X96000254Y-96431773D01*
G37*
%TD.AperFunction*%
%TD*%
%TA.AperFunction,Conductor*%
%TO.N,GND*%
G36*
X96504642Y-109520123D02*
G01*
X96548837Y-109550186D01*
X96549420Y-109549539D01*
X96554159Y-109553806D01*
X96554240Y-109553861D01*
X96554325Y-109553955D01*
X96558747Y-109558866D01*
X96564089Y-109562747D01*
X96564091Y-109562749D01*
X96697945Y-109660000D01*
X96713248Y-109671118D01*
X96719276Y-109673802D01*
X96719278Y-109673803D01*
X96881681Y-109746109D01*
X96887712Y-109748794D01*
X96981112Y-109768647D01*
X97068056Y-109787128D01*
X97068061Y-109787128D01*
X97074513Y-109788500D01*
X97265487Y-109788500D01*
X97271939Y-109787128D01*
X97271944Y-109787128D01*
X97358888Y-109768647D01*
X97452288Y-109748794D01*
X97458319Y-109746109D01*
X97620722Y-109673803D01*
X97620724Y-109673802D01*
X97626752Y-109671118D01*
X97655731Y-109650063D01*
X97722597Y-109626206D01*
X97729791Y-109626000D01*
X97868621Y-109626000D01*
X97932760Y-109643546D01*
X97949186Y-109653260D01*
X97960403Y-109659894D01*
X97968014Y-109662105D01*
X97968016Y-109662106D01*
X98007941Y-109673705D01*
X98117746Y-109705606D01*
X98124151Y-109706110D01*
X98124156Y-109706111D01*
X98152060Y-109708307D01*
X98152068Y-109708307D01*
X98154516Y-109708500D01*
X98625484Y-109708500D01*
X98627932Y-109708307D01*
X98627940Y-109708307D01*
X98655844Y-109706111D01*
X98655849Y-109706110D01*
X98662254Y-109705606D01*
X98668430Y-109703812D01*
X98668434Y-109703811D01*
X98777654Y-109672080D01*
X98848650Y-109672283D01*
X98876945Y-109684624D01*
X98963574Y-109735856D01*
X98963578Y-109735858D01*
X98970403Y-109739894D01*
X98978014Y-109742105D01*
X98978016Y-109742106D01*
X99028995Y-109756916D01*
X99127746Y-109785606D01*
X99134151Y-109786110D01*
X99134156Y-109786111D01*
X99162060Y-109788307D01*
X99162068Y-109788307D01*
X99164516Y-109788500D01*
X99528000Y-109788500D01*
X99596121Y-109808502D01*
X99642614Y-109862158D01*
X99654000Y-109914500D01*
X99654000Y-110088000D01*
X99633998Y-110156121D01*
X99580342Y-110202614D01*
X99528000Y-110214000D01*
X98662115Y-110214000D01*
X98646876Y-110218475D01*
X98645671Y-110219865D01*
X98644000Y-110227548D01*
X98644000Y-110648424D01*
X98648344Y-110663219D01*
X98658775Y-110665063D01*
X98668356Y-110663313D01*
X98777720Y-110631539D01*
X98848717Y-110631742D01*
X98877013Y-110644083D01*
X98963774Y-110695393D01*
X98978214Y-110701642D01*
X99066545Y-110727305D01*
X99126380Y-110765518D01*
X99156057Y-110830015D01*
X99146153Y-110900317D01*
X99120486Y-110937397D01*
X99009762Y-111048121D01*
X98926356Y-111189153D01*
X98880644Y-111346496D01*
X98877750Y-111383266D01*
X98877750Y-111794234D01*
X98880644Y-111831004D01*
X98882439Y-111837181D01*
X98916073Y-111952951D01*
X98926356Y-111988347D01*
X98930393Y-111995173D01*
X98936265Y-112005103D01*
X98953724Y-112073920D01*
X98936266Y-112133378D01*
X98930855Y-112142528D01*
X98924607Y-112156966D01*
X98889631Y-112277355D01*
X98889671Y-112291455D01*
X98896941Y-112294750D01*
X99174871Y-112294750D01*
X99239010Y-112312296D01*
X99266653Y-112328644D01*
X99274264Y-112330855D01*
X99274266Y-112330856D01*
X99308360Y-112340761D01*
X99423996Y-112374356D01*
X99430401Y-112374860D01*
X99430406Y-112374861D01*
X99458310Y-112377057D01*
X99458318Y-112377057D01*
X99460766Y-112377250D01*
X99824250Y-112377250D01*
X99892371Y-112397252D01*
X99938864Y-112450908D01*
X99950250Y-112503250D01*
X99950250Y-113317174D01*
X99954725Y-113332413D01*
X99978855Y-113353322D01*
X99989038Y-113358375D01*
X100025478Y-113419307D01*
X100029501Y-113450892D01*
X100029501Y-113722169D01*
X100029871Y-113728990D01*
X100035395Y-113779852D01*
X100039021Y-113795104D01*
X100087328Y-113923962D01*
X100084088Y-113925177D01*
X100095692Y-113978249D01*
X100070952Y-114044796D01*
X100014162Y-114087403D01*
X99970007Y-114095394D01*
X98489636Y-114095430D01*
X95680846Y-114095499D01*
X95612727Y-114075499D01*
X95566233Y-114021844D01*
X95554885Y-113966322D01*
X95555072Y-113958928D01*
X95583934Y-112814621D01*
X98888026Y-112814621D01*
X98924607Y-112940534D01*
X98930854Y-112954970D01*
X99006126Y-113082249D01*
X99015766Y-113094676D01*
X99120324Y-113199234D01*
X99132751Y-113208874D01*
X99260030Y-113284146D01*
X99274466Y-113290393D01*
X99417891Y-113332062D01*
X99425859Y-113333518D01*
X99439281Y-113330698D01*
X99442250Y-113319237D01*
X99442250Y-112820865D01*
X99437775Y-112805626D01*
X99436385Y-112804421D01*
X99428702Y-112802750D01*
X98902692Y-112802750D01*
X98889161Y-112806723D01*
X98888026Y-112814621D01*
X95583934Y-112814621D01*
X95624740Y-111196766D01*
X95647506Y-110294178D01*
X95669219Y-110226583D01*
X95706926Y-110191524D01*
X95706931Y-110191520D01*
X95766422Y-110145871D01*
X97581776Y-110145871D01*
X97618357Y-110271784D01*
X97624604Y-110286220D01*
X97699876Y-110413499D01*
X97709516Y-110425926D01*
X97814074Y-110530484D01*
X97826501Y-110540124D01*
X97953780Y-110615396D01*
X97968216Y-110621643D01*
X98111641Y-110663312D01*
X98119609Y-110664768D01*
X98133031Y-110661948D01*
X98136000Y-110650487D01*
X98136000Y-110152115D01*
X98131525Y-110136876D01*
X98130135Y-110135671D01*
X98122452Y-110134000D01*
X97596442Y-110134000D01*
X97582911Y-110137973D01*
X97581776Y-110145871D01*
X95766422Y-110145871D01*
X95802122Y-110118477D01*
X95802125Y-110118474D01*
X95834037Y-110093987D01*
X95846365Y-110077921D01*
X95853502Y-110068621D01*
X95864369Y-110056230D01*
X96371515Y-109549084D01*
X96433827Y-109515058D01*
X96504642Y-109520123D01*
G37*
%TD.AperFunction*%
%TA.AperFunction,Conductor*%
G36*
X105261298Y-107336342D02*
G01*
X106135018Y-107339542D01*
X106203064Y-107359793D01*
X106249360Y-107413619D01*
X106260554Y-107464982D01*
X106272602Y-110183951D01*
X106252903Y-110252157D01*
X106232857Y-110276357D01*
X106182407Y-110323733D01*
X106161287Y-110343566D01*
X105960088Y-110586773D01*
X105790958Y-110853279D01*
X105789274Y-110856858D01*
X105789270Y-110856865D01*
X105696063Y-111054942D01*
X105656564Y-111138882D01*
X105559025Y-111439076D01*
X105499879Y-111749128D01*
X105480060Y-112064148D01*
X105480309Y-112068106D01*
X105480309Y-112068107D01*
X105487826Y-112187589D01*
X105472141Y-112256831D01*
X105421510Y-112306601D01*
X105362075Y-112321500D01*
X105248672Y-112321500D01*
X105180551Y-112301498D01*
X105134058Y-112247842D01*
X105124711Y-112204874D01*
X105123750Y-112205001D01*
X105119578Y-112173310D01*
X105118500Y-112156864D01*
X105118500Y-110528144D01*
X105119578Y-110511698D01*
X105122673Y-110488188D01*
X105123751Y-110480000D01*
X105102838Y-110321149D01*
X105041524Y-110173124D01*
X104968478Y-110077929D01*
X104968474Y-110077925D01*
X104961335Y-110068621D01*
X104949016Y-110052566D01*
X104949013Y-110052563D01*
X104943987Y-110046013D01*
X104928423Y-110034070D01*
X104918621Y-110026548D01*
X104906230Y-110015681D01*
X102447105Y-107556556D01*
X102413079Y-107494244D01*
X102418144Y-107423429D01*
X102460691Y-107366593D01*
X102527211Y-107341782D01*
X102534748Y-107341469D01*
X103529077Y-107330011D01*
X103530991Y-107330004D01*
X105261298Y-107336342D01*
G37*
%TD.AperFunction*%
%TD*%
%TA.AperFunction,Conductor*%
%TO.N,GND*%
G36*
X116458767Y-51974310D02*
G01*
X124014093Y-51979907D01*
X124082199Y-51999960D01*
X124128652Y-52053650D01*
X124140000Y-52105907D01*
X124140000Y-61053951D01*
X124119998Y-61122072D01*
X124066342Y-61168565D01*
X124013906Y-61179951D01*
X117791817Y-61175328D01*
X117723712Y-61155275D01*
X117677259Y-61101585D01*
X117667207Y-61031304D01*
X117696748Y-60966745D01*
X117702816Y-60960233D01*
X118052003Y-60611046D01*
X118114315Y-60577020D01*
X118178463Y-60579809D01*
X118337227Y-60629107D01*
X118342516Y-60629808D01*
X118560489Y-60658698D01*
X118560494Y-60658698D01*
X118565774Y-60659398D01*
X118571103Y-60659198D01*
X118571105Y-60659198D01*
X118680966Y-60655073D01*
X118796158Y-60650749D01*
X118818802Y-60645998D01*
X119016572Y-60604502D01*
X119021791Y-60603407D01*
X119026750Y-60601449D01*
X119026752Y-60601448D01*
X119231256Y-60520685D01*
X119231258Y-60520684D01*
X119236221Y-60518724D01*
X119241525Y-60515506D01*
X119428757Y-60401890D01*
X119428756Y-60401890D01*
X119433317Y-60399123D01*
X119473134Y-60364572D01*
X119603412Y-60251523D01*
X119603414Y-60251521D01*
X119607445Y-60248023D01*
X119683416Y-60155370D01*
X119750240Y-60073873D01*
X119750244Y-60073867D01*
X119753624Y-60069745D01*
X119766681Y-60046808D01*
X119771829Y-60037765D01*
X119822912Y-59988459D01*
X119892542Y-59974598D01*
X119958613Y-60000582D01*
X119985851Y-60029732D01*
X120064852Y-60147078D01*
X120071519Y-60155370D01*
X120223228Y-60314400D01*
X120231186Y-60321441D01*
X120407525Y-60452641D01*
X120416562Y-60458245D01*
X120612484Y-60557857D01*
X120622335Y-60561857D01*
X120832240Y-60627034D01*
X120842624Y-60629317D01*
X120858043Y-60631361D01*
X120872207Y-60629165D01*
X120876000Y-60615978D01*
X120876000Y-60613692D01*
X121384000Y-60613692D01*
X121387973Y-60627223D01*
X121398580Y-60628748D01*
X121516421Y-60604023D01*
X121526617Y-60600963D01*
X121731029Y-60520237D01*
X121740561Y-60515506D01*
X121928462Y-60401484D01*
X121937052Y-60395220D01*
X122103052Y-60251173D01*
X122110472Y-60243542D01*
X122249826Y-60073589D01*
X122255850Y-60064822D01*
X122364576Y-59873818D01*
X122369041Y-59864154D01*
X122444031Y-59657559D01*
X122446802Y-59647292D01*
X122483504Y-59444326D01*
X122482085Y-59431086D01*
X122467450Y-59426500D01*
X121402115Y-59426500D01*
X121386876Y-59430975D01*
X121385671Y-59432365D01*
X121384000Y-59440048D01*
X121384000Y-60613692D01*
X120876000Y-60613692D01*
X120876000Y-58900385D01*
X121384000Y-58900385D01*
X121388475Y-58915624D01*
X121389865Y-58916829D01*
X121397548Y-58918500D01*
X122463849Y-58918500D01*
X122478527Y-58914190D01*
X122480590Y-58902307D01*
X122473876Y-58823175D01*
X122472086Y-58812703D01*
X122416870Y-58599965D01*
X122413335Y-58589925D01*
X122323063Y-58389530D01*
X122317894Y-58380244D01*
X122195150Y-58197925D01*
X122188481Y-58189630D01*
X122036772Y-58030600D01*
X122028814Y-58023559D01*
X121852475Y-57892359D01*
X121843438Y-57886755D01*
X121647516Y-57787143D01*
X121637665Y-57783143D01*
X121427760Y-57717966D01*
X121417376Y-57715683D01*
X121401957Y-57713639D01*
X121387793Y-57715835D01*
X121384000Y-57729022D01*
X121384000Y-58900385D01*
X120876000Y-58900385D01*
X120876000Y-57731308D01*
X120872027Y-57717777D01*
X120861420Y-57716252D01*
X120743579Y-57740977D01*
X120733383Y-57744037D01*
X120528971Y-57824763D01*
X120519439Y-57829494D01*
X120331538Y-57943516D01*
X120322948Y-57949780D01*
X120156948Y-58093827D01*
X120149528Y-58101458D01*
X120010174Y-58271411D01*
X120004152Y-58280174D01*
X119988762Y-58307211D01*
X119937680Y-58356518D01*
X119868049Y-58370380D01*
X119801978Y-58344397D01*
X119774739Y-58315247D01*
X119738869Y-58261968D01*
X119692559Y-58193181D01*
X119633918Y-58131709D01*
X119604725Y-58101108D01*
X119533424Y-58026365D01*
X119348458Y-57888746D01*
X119343707Y-57886330D01*
X119343703Y-57886328D01*
X119225588Y-57826276D01*
X119142949Y-57784260D01*
X119137855Y-57782678D01*
X119137852Y-57782677D01*
X118927871Y-57717476D01*
X118922773Y-57715893D01*
X118917484Y-57715192D01*
X118699511Y-57686302D01*
X118699506Y-57686302D01*
X118694226Y-57685602D01*
X118688897Y-57685802D01*
X118688895Y-57685802D01*
X118579034Y-57689926D01*
X118463842Y-57694251D01*
X118458623Y-57695346D01*
X118436566Y-57699974D01*
X118238209Y-57741593D01*
X118233250Y-57743551D01*
X118233248Y-57743552D01*
X118028744Y-57824315D01*
X118028742Y-57824316D01*
X118023779Y-57826276D01*
X118019220Y-57829043D01*
X118019217Y-57829044D01*
X117924113Y-57886755D01*
X117826683Y-57945877D01*
X117822653Y-57949374D01*
X117729484Y-58030222D01*
X117652555Y-58096977D01*
X117649168Y-58101108D01*
X117509760Y-58271127D01*
X117509756Y-58271133D01*
X117506376Y-58275255D01*
X117488448Y-58306750D01*
X117437368Y-58356055D01*
X117367738Y-58369917D01*
X117301667Y-58343934D01*
X117274427Y-58314784D01*
X117247814Y-58275255D01*
X117192559Y-58193181D01*
X117133918Y-58131709D01*
X117104725Y-58101108D01*
X117033424Y-58026365D01*
X116848458Y-57888746D01*
X116843707Y-57886330D01*
X116843703Y-57886328D01*
X116725588Y-57826276D01*
X116642949Y-57784260D01*
X116637855Y-57782678D01*
X116637852Y-57782677D01*
X116427871Y-57717476D01*
X116422773Y-57715893D01*
X116417484Y-57715192D01*
X116199511Y-57686302D01*
X116199506Y-57686302D01*
X116194226Y-57685602D01*
X116188897Y-57685802D01*
X116188895Y-57685802D01*
X116079034Y-57689926D01*
X115963842Y-57694251D01*
X115958623Y-57695346D01*
X115936566Y-57699974D01*
X115738209Y-57741593D01*
X115733250Y-57743551D01*
X115733248Y-57743552D01*
X115528744Y-57824315D01*
X115528742Y-57824316D01*
X115523779Y-57826276D01*
X115519220Y-57829043D01*
X115519217Y-57829044D01*
X115424113Y-57886755D01*
X115326683Y-57945877D01*
X115322653Y-57949374D01*
X115229484Y-58030222D01*
X115152555Y-58096977D01*
X115123330Y-58132620D01*
X115064671Y-58172614D01*
X114993701Y-58174546D01*
X114932952Y-58137802D01*
X114918752Y-58119032D01*
X114832332Y-57979380D01*
X114828478Y-57973152D01*
X114703303Y-57848195D01*
X114672965Y-57829494D01*
X114558968Y-57759225D01*
X114558966Y-57759224D01*
X114552738Y-57755385D01*
X114439353Y-57717777D01*
X114391389Y-57701868D01*
X114391387Y-57701868D01*
X114384861Y-57699703D01*
X114378025Y-57699003D01*
X114378022Y-57699002D01*
X114334969Y-57694591D01*
X114280400Y-57689000D01*
X112979600Y-57689000D01*
X112976354Y-57689337D01*
X112976350Y-57689337D01*
X112880692Y-57699262D01*
X112880688Y-57699263D01*
X112873834Y-57699974D01*
X112867298Y-57702155D01*
X112867296Y-57702155D01*
X112735194Y-57746228D01*
X112706054Y-57755950D01*
X112555652Y-57849022D01*
X112430695Y-57974197D01*
X112426855Y-57980427D01*
X112426854Y-57980428D01*
X112352466Y-58101108D01*
X112337885Y-58124762D01*
X112316472Y-58189322D01*
X112286432Y-58279890D01*
X112282203Y-58292639D01*
X112281503Y-58299475D01*
X112281502Y-58299478D01*
X112279338Y-58320602D01*
X112271500Y-58397100D01*
X112271500Y-58438000D01*
X112251498Y-58506121D01*
X112197842Y-58552614D01*
X112145500Y-58564000D01*
X110751940Y-58564000D01*
X110683819Y-58543998D01*
X110637326Y-58490342D01*
X110625940Y-58437726D01*
X110630946Y-56134901D01*
X110639726Y-52095817D01*
X110659876Y-52027742D01*
X110713633Y-51981366D01*
X110765818Y-51970093D01*
X116458767Y-51974310D01*
G37*
%TD.AperFunction*%
%TD*%
M02*
