%TF.GenerationSoftware,KiCad,Pcbnew,(6.0.6)*%
%TF.CreationDate,2022-08-10T17:00:59+02:00*%
%TF.ProjectId,rabid40,72616269-6434-4302-9e6b-696361645f70,rev?*%
%TF.SameCoordinates,Original*%
%TF.FileFunction,Soldermask,Top*%
%TF.FilePolarity,Negative*%
%FSLAX46Y46*%
G04 Gerber Fmt 4.6, Leading zero omitted, Abs format (unit mm)*
G04 Created by KiCad (PCBNEW (6.0.6)) date 2022-08-10 17:00:59*
%MOMM*%
%LPD*%
G01*
G04 APERTURE LIST*
G04 Aperture macros list*
%AMRoundRect*
0 Rectangle with rounded corners*
0 $1 Rounding radius*
0 $2 $3 $4 $5 $6 $7 $8 $9 X,Y pos of 4 corners*
0 Add a 4 corners polygon primitive as box body*
4,1,4,$2,$3,$4,$5,$6,$7,$8,$9,$2,$3,0*
0 Add four circle primitives for the rounded corners*
1,1,$1+$1,$2,$3*
1,1,$1+$1,$4,$5*
1,1,$1+$1,$6,$7*
1,1,$1+$1,$8,$9*
0 Add four rect primitives between the rounded corners*
20,1,$1+$1,$2,$3,$4,$5,0*
20,1,$1+$1,$4,$5,$6,$7,0*
20,1,$1+$1,$6,$7,$8,$9,0*
20,1,$1+$1,$8,$9,$2,$3,0*%
G04 Aperture macros list end*
%ADD10C,1.750000*%
%ADD11C,3.987800*%
%ADD12O,1.700000X1.950000*%
%ADD13RoundRect,0.250000X-0.600000X-0.725000X0.600000X-0.725000X0.600000X0.725000X-0.600000X0.725000X0*%
%ADD14C,3.048000*%
%ADD15O,1.700000X1.700000*%
%ADD16R,1.700000X1.700000*%
G04 APERTURE END LIST*
D10*
%TO.C,Alt1*%
X70197500Y-105083750D03*
D11*
X65117500Y-105083750D03*
D10*
X60037500Y-105083750D03*
%TD*%
%TO.C,Alt2*%
X232122500Y-105083750D03*
D11*
X227042500Y-105083750D03*
D10*
X221962500Y-105083750D03*
%TD*%
D12*
%TO.C,J2*%
X121130000Y-59172500D03*
X118630000Y-59172500D03*
X116130000Y-59172500D03*
D13*
X113630000Y-59172500D03*
%TD*%
D10*
%TO.C,F2*%
X98931250Y-66983750D03*
X109091250Y-66983750D03*
D11*
X104011250Y-66983750D03*
%TD*%
D10*
%TO.C,P1*%
X218628750Y-47933750D03*
X208468750Y-47933750D03*
D11*
X213548750Y-47933750D03*
%TD*%
D10*
%TO.C,Q1*%
X47178750Y-47933750D03*
D11*
X42098750Y-47933750D03*
D10*
X37018750Y-47933750D03*
%TD*%
%TO.C,W1*%
X66228750Y-47933750D03*
X56068750Y-47933750D03*
D11*
X61148750Y-47933750D03*
%TD*%
%TO.C,G1*%
X123061250Y-66983750D03*
D10*
X128141250Y-66983750D03*
X117981250Y-66983750D03*
%TD*%
%TO.C,D46*%
X79881250Y-66983750D03*
D11*
X84961250Y-66983750D03*
D10*
X90041250Y-66983750D03*
%TD*%
D11*
%TO.C,E1*%
X80198750Y-47933750D03*
D10*
X85278750Y-47933750D03*
X75118750Y-47933750D03*
%TD*%
%TO.C,;1*%
X223391250Y-66983750D03*
X213231250Y-66983750D03*
D11*
X218311250Y-66983750D03*
%TD*%
%TO.C,Stab_Enter1*%
X280223750Y-75238750D03*
D14*
X256411250Y-59998750D03*
X280223750Y-59998750D03*
D11*
X256411250Y-75238750D03*
%TD*%
D10*
%TO.C,T1*%
X113218750Y-47933750D03*
D11*
X118298750Y-47933750D03*
D10*
X123378750Y-47933750D03*
%TD*%
%TO.C,J3*%
X166241250Y-66983750D03*
D11*
X161161250Y-66983750D03*
D10*
X156081250Y-66983750D03*
%TD*%
%TO.C,Win1*%
X46385000Y-105083750D03*
X36225000Y-105083750D03*
D11*
X41305000Y-105083750D03*
%TD*%
D15*
%TO.C,J1*%
X65190000Y-94530000D03*
X67730000Y-94530000D03*
X70270000Y-94530000D03*
X72810000Y-94530000D03*
D16*
X75350000Y-94530000D03*
%TD*%
D10*
%TO.C,H1*%
X147191250Y-66983750D03*
X137031250Y-66983750D03*
D11*
X142111250Y-66983750D03*
%TD*%
D10*
%TO.C,<1*%
X184656250Y-86033750D03*
D11*
X189736250Y-86033750D03*
D10*
X194816250Y-86033750D03*
%TD*%
D11*
%TO.C,Stab_Spc2.25*%
X107993520Y-96824148D03*
X131806020Y-96824148D03*
%TD*%
%TO.C,U4*%
X156398750Y-47933750D03*
D10*
X151318750Y-47933750D03*
X161478750Y-47933750D03*
%TD*%
%TO.C,L1*%
X194181250Y-66983750D03*
X204341250Y-66983750D03*
D11*
X199261250Y-66983750D03*
%TD*%
%TO.C,Stab_Spc7u1*%
X203230000Y-96828750D03*
X88930000Y-96828750D03*
%TD*%
D10*
%TO.C,Tab1*%
X13206250Y-47933750D03*
D11*
X18286250Y-47933750D03*
D10*
X23366250Y-47933750D03*
%TD*%
D11*
%TO.C,[1*%
X232598750Y-47933750D03*
D10*
X237678750Y-47933750D03*
X227518750Y-47933750D03*
%TD*%
%TO.C,I1*%
X180528750Y-47933750D03*
X170368750Y-47933750D03*
D11*
X175448750Y-47933750D03*
%TD*%
D10*
%TO.C,StepCtrl1*%
X10825000Y-66983750D03*
X20985000Y-66983750D03*
D11*
X15905000Y-66983750D03*
%TD*%
%TO.C,V1*%
X113536250Y-86033750D03*
D10*
X118616250Y-86033750D03*
X108456250Y-86033750D03*
%TD*%
%TO.C,Shift3*%
X258475000Y-86033750D03*
X268635000Y-86033750D03*
D11*
X263555000Y-86033750D03*
%TD*%
D10*
%TO.C,Ctrl1*%
X15587500Y-66983750D03*
X25747500Y-66983750D03*
D11*
X20667500Y-66983750D03*
%TD*%
D10*
%TO.C,Bspc1*%
X270381250Y-47933750D03*
X280541250Y-47933750D03*
D11*
X275461250Y-47933750D03*
%TD*%
D10*
%TO.C,Space_7u1*%
X141000000Y-105083750D03*
X151160000Y-105083750D03*
D11*
X146080000Y-105083750D03*
%TD*%
%TO.C,Y2*%
X137348750Y-47933750D03*
D10*
X142428750Y-47933750D03*
X132268750Y-47933750D03*
%TD*%
D11*
%TO.C,Stab_Spc2.75*%
X155605000Y-96828750D03*
X179417500Y-96828750D03*
%TD*%
D10*
%TO.C,Shift2*%
X259110000Y-86033750D03*
D11*
X254030000Y-86033750D03*
D10*
X248950000Y-86033750D03*
%TD*%
D11*
%TO.C,Space2.25*%
X119886250Y-105083750D03*
D10*
X124966250Y-105083750D03*
X114806250Y-105083750D03*
%TD*%
%TO.C,Space2.75*%
X172591250Y-105083750D03*
X162431250Y-105083750D03*
D11*
X167511250Y-105083750D03*
%TD*%
%TO.C,Fn1*%
X280223750Y-86033750D03*
D10*
X275143750Y-86033750D03*
X285303750Y-86033750D03*
%TD*%
D11*
%TO.C,B1*%
X132586250Y-86033750D03*
D10*
X137666250Y-86033750D03*
X127506250Y-86033750D03*
%TD*%
%TO.C,Shift1*%
X30510000Y-86033750D03*
D11*
X25430000Y-86033750D03*
D10*
X20350000Y-86033750D03*
%TD*%
D14*
%TO.C,Stab_RShift1*%
X251648750Y-79048750D03*
D11*
X251648750Y-94288750D03*
D14*
X275461250Y-79048750D03*
D11*
X275461250Y-94288750D03*
%TD*%
D10*
%TO.C,M1*%
X165606250Y-86033750D03*
D11*
X170686250Y-86033750D03*
D10*
X175766250Y-86033750D03*
%TD*%
%TO.C,Z1*%
X51306250Y-86033750D03*
X61466250Y-86033750D03*
D11*
X56386250Y-86033750D03*
%TD*%
D10*
%TO.C,C18*%
X99566250Y-86033750D03*
D11*
X94486250Y-86033750D03*
D10*
X89406250Y-86033750D03*
%TD*%
D14*
%TO.C,Stab_LShift1*%
X13523750Y-79048750D03*
D11*
X37336250Y-94288750D03*
D14*
X37336250Y-79048750D03*
D11*
X13523750Y-94288750D03*
%TD*%
%TO.C,S1*%
X65911250Y-66983750D03*
D10*
X60831250Y-66983750D03*
X70991250Y-66983750D03*
%TD*%
D11*
%TO.C,A1*%
X46861250Y-66983750D03*
D10*
X51941250Y-66983750D03*
X41781250Y-66983750D03*
%TD*%
%TO.C,'1*%
X232281250Y-66983750D03*
X242441250Y-66983750D03*
D11*
X237361250Y-66983750D03*
%TD*%
D10*
%TO.C,X1*%
X80516250Y-86033750D03*
D11*
X75436250Y-86033750D03*
D10*
X70356250Y-86033750D03*
%TD*%
%TO.C,/1*%
X232916250Y-86033750D03*
D11*
X227836250Y-86033750D03*
D10*
X222756250Y-86033750D03*
%TD*%
%TO.C,R6*%
X94168750Y-47933750D03*
D11*
X99248750Y-47933750D03*
D10*
X104328750Y-47933750D03*
%TD*%
D11*
%TO.C,RMod1*%
X203230000Y-105083750D03*
D10*
X208310000Y-105083750D03*
X198150000Y-105083750D03*
%TD*%
%TO.C,K1*%
X185291250Y-66983750D03*
X175131250Y-66983750D03*
D11*
X180211250Y-66983750D03*
%TD*%
D10*
%TO.C,Win2*%
X245775000Y-105083750D03*
X255935000Y-105083750D03*
D11*
X250855000Y-105083750D03*
%TD*%
D10*
%TO.C,>1*%
X213866250Y-86033750D03*
X203706250Y-86033750D03*
D11*
X208786250Y-86033750D03*
%TD*%
%TO.C,N1*%
X151636250Y-86033750D03*
D10*
X146556250Y-86033750D03*
X156716250Y-86033750D03*
%TD*%
%TO.C,]1*%
X246568750Y-47933750D03*
D11*
X251648750Y-47933750D03*
D10*
X256728750Y-47933750D03*
%TD*%
%TO.C,Enter1*%
X263237500Y-66983750D03*
D11*
X268317500Y-66983750D03*
D10*
X273397500Y-66983750D03*
%TD*%
%TO.C,O1*%
X199578750Y-47933750D03*
D11*
X194498750Y-47933750D03*
D10*
X189418750Y-47933750D03*
%TD*%
%TO.C,LMod1*%
X94010000Y-105083750D03*
X83850000Y-105083750D03*
D11*
X88930000Y-105083750D03*
%TD*%
D15*
%TO.C,SW7*%
X123630000Y-87300000D03*
D16*
X123630000Y-84760000D03*
%TD*%
M02*
