%TF.GenerationSoftware,KiCad,Pcbnew,(6.0.6)*%
%TF.CreationDate,2022-08-10T17:00:59+02:00*%
%TF.ProjectId,rabid40,72616269-6434-4302-9e6b-696361645f70,rev?*%
%TF.SameCoordinates,Original*%
%TF.FileFunction,Legend,Top*%
%TF.FilePolarity,Positive*%
%FSLAX46Y46*%
G04 Gerber Fmt 4.6, Leading zero omitted, Abs format (unit mm)*
G04 Created by KiCad (PCBNEW (6.0.6)) date 2022-08-10 17:00:59*
%MOMM*%
%LPD*%
G01*
G04 APERTURE LIST*
%ADD10C,0.150000*%
%ADD11C,0.120000*%
G04 APERTURE END LIST*
D10*
%TO.C,J2*%
X117046666Y-50724880D02*
X117046666Y-51439166D01*
X116999047Y-51582023D01*
X116903809Y-51677261D01*
X116760952Y-51724880D01*
X116665714Y-51724880D01*
X117475238Y-50820119D02*
X117522857Y-50772500D01*
X117618095Y-50724880D01*
X117856190Y-50724880D01*
X117951428Y-50772500D01*
X117999047Y-50820119D01*
X118046666Y-50915357D01*
X118046666Y-51010595D01*
X117999047Y-51153452D01*
X117427619Y-51724880D01*
X118046666Y-51724880D01*
%TO.C,J1*%
X77572380Y-94863333D02*
X78286666Y-94863333D01*
X78429523Y-94910952D01*
X78524761Y-95006190D01*
X78572380Y-95149047D01*
X78572380Y-95244285D01*
X78572380Y-93863333D02*
X78572380Y-94434761D01*
X78572380Y-94149047D02*
X77572380Y-94149047D01*
X77715238Y-94244285D01*
X77810476Y-94339523D01*
X77858095Y-94434761D01*
D11*
%TO.C,J2*%
X119800000Y-58582500D02*
X119960000Y-58582500D01*
X113310000Y-57582500D02*
X113310000Y-54162500D01*
X118310000Y-57582500D02*
X118310000Y-54162500D01*
X112240000Y-58582500D02*
X111020000Y-58582500D01*
X118310000Y-54162500D02*
X118630000Y-54082500D01*
X113950000Y-57582500D02*
X113630000Y-57582500D01*
X113630000Y-57582500D02*
X113310000Y-57582500D01*
X121130000Y-54082500D02*
X121450000Y-54162500D01*
X116450000Y-54162500D02*
X116450000Y-57582500D01*
X123740000Y-60782500D02*
X122520000Y-60782500D01*
X121450000Y-57582500D02*
X121130000Y-57582500D01*
X113630000Y-60672500D02*
X113330000Y-61272500D01*
X122520000Y-58582500D02*
X123740000Y-58582500D01*
X113950000Y-54162500D02*
X113950000Y-57582500D01*
X113930000Y-61272500D02*
X113630000Y-60672500D01*
X123740000Y-52362500D02*
X123740000Y-60782500D01*
X114800000Y-58582500D02*
X114960000Y-58582500D01*
X112240000Y-58582500D02*
X112240000Y-60782500D01*
X112240000Y-53582500D02*
X112240000Y-58582500D01*
X118630000Y-57582500D02*
X118310000Y-57582500D01*
X111020000Y-60782500D02*
X111020000Y-52362500D01*
X116130000Y-57582500D02*
X115810000Y-57582500D01*
X118950000Y-57582500D02*
X118630000Y-57582500D01*
X118630000Y-54082500D02*
X118950000Y-54162500D01*
X116130000Y-54082500D02*
X116450000Y-54162500D01*
X118950000Y-54162500D02*
X118950000Y-57582500D01*
X113330000Y-61272500D02*
X113930000Y-61272500D01*
X121130000Y-57582500D02*
X120810000Y-57582500D01*
X113310000Y-54162500D02*
X113630000Y-54082500D01*
X116450000Y-57582500D02*
X116130000Y-57582500D01*
X123740000Y-53582500D02*
X122520000Y-53582500D01*
X111020000Y-53582500D02*
X112240000Y-53582500D01*
X121450000Y-54162500D02*
X121450000Y-57582500D01*
X113630000Y-54082500D02*
X113950000Y-54162500D01*
X111020000Y-52362500D02*
X123740000Y-52362500D01*
X120810000Y-57582500D02*
X120810000Y-54162500D01*
X122520000Y-60782500D02*
X122520000Y-58582500D01*
X112240000Y-57582500D02*
X122520000Y-57582500D01*
X115810000Y-57582500D02*
X115810000Y-54162500D01*
X112240000Y-60782500D02*
X111020000Y-60782500D01*
X115810000Y-54162500D02*
X116130000Y-54082500D01*
X117300000Y-58582500D02*
X117460000Y-58582500D01*
X120810000Y-54162500D02*
X121130000Y-54082500D01*
X122520000Y-53582500D02*
X122520000Y-58582500D01*
%TO.C,J1*%
X74080000Y-93200000D02*
X63860000Y-93200000D01*
X76680000Y-94530000D02*
X76680000Y-95860000D01*
X63860000Y-93200000D02*
X63860000Y-95860000D01*
X76680000Y-95860000D02*
X75350000Y-95860000D01*
X74080000Y-93200000D02*
X74080000Y-95860000D01*
X74080000Y-95860000D02*
X63860000Y-95860000D01*
%TD*%
M02*
