  0
SECTION
  2
HEADER
  9
$ACADVER
  1
AC1009
  9
$FILLMODE
 70
 0
  9
$SPLFRAME
 70
 1
  9
$EXTMIN
 10
0
 20
0
 30
0.0
  9
$EXTMAX
 10
1058.33
 20
1058.33
 30
0.0
  0
ENDSEC
  0
SECTION
  2
TABLES
  0
TABLE
  2
LAYER
 70
1
  0
LAYER
  2
0
 70
     0
 62
     7
  6
CONTINUOUS
  0
ENDTAB
  0
ENDSEC
  0
SECTION
  2
ENTITIES
  0
LINE
  8
0
 62
     0
 10
0.0950846
 20
76.4575
 30
0.0
 11
285.845
 21
76.4575
 31
0.0
  0
LINE
  8
0
 62
     0
 10
285.845
 20
76.4575
 30
0.0
 11
285.845
 21
0.257693
 31
0.0
  0
LINE
  8
0
 62
     0
 10
285.845
 20
0.257693
 30
0.0
 11
0.0950846
 21
0.257693
 31
0.0
  0
LINE
  8
0
 62
     0
 10
0.0950846
 20
0.257693
 30
0.0
 11
0.0950846
 21
76.4575
 31
0.0
  0
LINE
  8
0
 62
     0
 10
78.8197
 20
16.7831
 30
0.0
 11
78.8197
 21
2.78364
 31
0.0
  0
LINE
  8
0
 62
     0
 10
78.8197
 20
2.78364
 30
0.0
 11
84.1692
 21
2.78364
 31
0.0
  0
LINE
  8
0
 62
     0
 10
84.1692
 20
2.78364
 30
0.0
 11
84.1692
 21
1.8135
 31
0.0
  0
LINE
  8
0
 62
     0
 10
84.1692
 20
1.8135
 30
0.0
 11
87.4751
 21
1.8135
 31
0.0
  0
LINE
  8
0
 62
     0
 10
87.4751
 20
1.8135
 30
0.0
 11
87.4751
 21
2.78364
 31
0.0
  0
LINE
  8
0
 62
     0
 10
87.4751
 20
2.78364
 30
0.0
 11
92.819
 21
2.78364
 31
0.0
  0
LINE
  8
0
 62
     0
 10
92.819
 20
2.78364
 30
0.0
 11
92.819
 21
7.48273
 31
0.0
  0
LINE
  8
0
 62
     0
 10
92.819
 20
7.48273
 30
0.0
 11
101.501
 21
7.48273
 31
0.0
  0
LINE
  8
0
 62
     0
 10
101.501
 20
7.48273
 30
0.0
 11
101.501
 21
3.01377
 31
0.0
  0
LINE
  8
0
 62
     0
 10
101.501
 20
3.01377
 30
0.0
 11
103.226
 21
3.01377
 31
0.0
  0
LINE
  8
0
 62
     0
 10
103.226
 20
3.01377
 30
0.0
 11
103.226
 21
1.8135
 31
0.0
  0
LINE
  8
0
 62
     0
 10
103.226
 20
1.8135
 30
0.0
 11
106.525
 21
1.8135
 31
0.0
  0
LINE
  8
0
 62
     0
 10
106.525
 20
1.8135
 30
0.0
 11
106.525
 21
3.01377
 31
0.0
  0
LINE
  8
0
 62
     0
 10
106.525
 20
3.01377
 30
0.0
 11
108.251
 21
3.01377
 31
0.0
  0
LINE
  8
0
 62
     0
 10
108.251
 20
3.01377
 30
0.0
 11
108.251
 21
7.48273
 31
0.0
  0
LINE
  8
0
 62
     0
 10
108.251
 20
7.48273
 30
0.0
 11
109.776
 21
7.48273
 31
0.0
  0
LINE
  8
0
 62
     0
 10
109.776
 20
7.48273
 30
0.0
 11
109.776
 21
2.78364
 31
0.0
  0
LINE
  8
0
 62
     0
 10
109.776
 20
2.78364
 30
0.0
 11
123.775
 21
2.78364
 31
0.0
  0
LINE
  8
0
 62
     0
 10
123.775
 20
2.78364
 30
0.0
 11
123.775
 21
7.48273
 31
0.0
  0
LINE
  8
0
 62
     0
 10
123.775
 20
7.48273
 30
0.0
 11
125.3
 21
7.48273
 31
0.0
  0
LINE
  8
0
 62
     0
 10
125.3
 20
7.48273
 30
0.0
 11
125.3
 21
3.01377
 31
0.0
  0
LINE
  8
0
 62
     0
 10
125.3
 20
3.01377
 30
0.0
 11
127.025
 21
3.01377
 31
0.0
  0
LINE
  8
0
 62
     0
 10
127.025
 20
3.01377
 30
0.0
 11
127.025
 21
1.8135
 31
0.0
  0
LINE
  8
0
 62
     0
 10
127.025
 20
1.8135
 30
0.0
 11
130.325
 21
1.8135
 31
0.0
  0
LINE
  8
0
 62
     0
 10
130.325
 20
1.8135
 30
0.0
 11
130.325
 21
2.78364
 31
0.0
  0
LINE
  8
0
 62
     0
 10
130.325
 20
2.78364
 30
0.0
 11
149.969
 21
2.78364
 31
0.0
  0
LINE
  8
0
 62
     0
 10
149.969
 20
2.78364
 30
0.0
 11
149.969
 21
3.01377
 31
0.0
  0
LINE
  8
0
 62
     0
 10
149.969
 20
3.01377
 30
0.0
 11
150.851
 21
3.01377
 31
0.0
  0
LINE
  8
0
 62
     0
 10
150.851
 20
3.01377
 30
0.0
 11
150.851
 21
1.8135
 31
0.0
  0
LINE
  8
0
 62
     0
 10
150.851
 20
1.8135
 30
0.0
 11
154.15
 21
1.8135
 31
0.0
  0
LINE
  8
0
 62
     0
 10
154.15
 20
1.8135
 30
0.0
 11
154.15
 21
3.01377
 31
0.0
  0
LINE
  8
0
 62
     0
 10
154.15
 20
3.01377
 30
0.0
 11
155.876
 21
3.01377
 31
0.0
  0
LINE
  8
0
 62
     0
 10
155.876
 20
3.01377
 30
0.0
 11
155.876
 21
7.48273
 31
0.0
  0
LINE
  8
0
 62
     0
 10
155.876
 20
7.48273
 30
0.0
 11
157.401
 21
7.48273
 31
0.0
  0
LINE
  8
0
 62
     0
 10
157.401
 20
7.48273
 30
0.0
 11
157.401
 21
2.78364
 31
0.0
  0
LINE
  8
0
 62
     0
 10
157.401
 20
2.78364
 30
0.0
 11
171.4
 21
2.78364
 31
0.0
  0
LINE
  8
0
 62
     0
 10
171.4
 20
2.78364
 30
0.0
 11
171.4
 21
7.48273
 31
0.0
  0
LINE
  8
0
 62
     0
 10
171.4
 20
7.48273
 30
0.0
 11
172.926
 21
7.48273
 31
0.0
  0
LINE
  8
0
 62
     0
 10
172.926
 20
7.48273
 30
0.0
 11
172.926
 21
3.01377
 31
0.0
  0
LINE
  8
0
 62
     0
 10
172.926
 20
3.01377
 30
0.0
 11
174.651
 21
3.01377
 31
0.0
  0
LINE
  8
0
 62
     0
 10
174.651
 20
3.01377
 30
0.0
 11
174.651
 21
1.8135
 31
0.0
  0
LINE
  8
0
 62
     0
 10
174.651
 20
1.8135
 30
0.0
 11
177.95
 21
1.8135
 31
0.0
  0
LINE
  8
0
 62
     0
 10
177.95
 20
1.8135
 30
0.0
 11
177.95
 21
3.01377
 31
0.0
  0
LINE
  8
0
 62
     0
 10
177.95
 20
3.01377
 30
0.0
 11
179.675
 21
3.01377
 31
0.0
  0
LINE
  8
0
 62
     0
 10
179.675
 20
3.01377
 30
0.0
 11
179.675
 21
7.48273
 31
0.0
  0
LINE
  8
0
 62
     0
 10
179.675
 20
7.48273
 30
0.0
 11
182.451
 21
7.48273
 31
0.0
  0
LINE
  8
0
 62
     0
 10
182.451
 20
7.48273
 30
0.0
 11
182.451
 21
3.01377
 31
0.0
  0
LINE
  8
0
 62
     0
 10
182.451
 20
3.01377
 30
0.0
 11
184.176
 21
3.01377
 31
0.0
  0
LINE
  8
0
 62
     0
 10
184.176
 20
3.01377
 30
0.0
 11
184.176
 21
1.8135
 31
0.0
  0
LINE
  8
0
 62
     0
 10
184.176
 20
1.8135
 30
0.0
 11
187.475
 21
1.8135
 31
0.0
  0
LINE
  8
0
 62
     0
 10
187.475
 20
1.8135
 30
0.0
 11
187.475
 21
3.01377
 31
0.0
  0
LINE
  8
0
 62
     0
 10
187.475
 20
3.01377
 30
0.0
 11
189.2
 21
3.01377
 31
0.0
  0
LINE
  8
0
 62
     0
 10
189.2
 20
3.01377
 30
0.0
 11
189.2
 21
7.48273
 31
0.0
  0
LINE
  8
0
 62
     0
 10
189.2
 20
7.48273
 30
0.0
 11
193.118
 21
7.48273
 31
0.0
  0
LINE
  8
0
 62
     0
 10
193.118
 20
7.48273
 30
0.0
 11
193.118
 21
2.78364
 31
0.0
  0
LINE
  8
0
 62
     0
 10
193.118
 20
2.78364
 30
0.0
 11
198.469
 21
2.78364
 31
0.0
  0
LINE
  8
0
 62
     0
 10
198.469
 20
2.78364
 30
0.0
 11
198.469
 21
1.8135
 31
0.0
  0
LINE
  8
0
 62
     0
 10
198.469
 20
1.8135
 30
0.0
 11
201.769
 21
1.8135
 31
0.0
  0
LINE
  8
0
 62
     0
 10
201.769
 20
1.8135
 30
0.0
 11
201.769
 21
2.78364
 31
0.0
  0
LINE
  8
0
 62
     0
 10
201.769
 20
2.78364
 30
0.0
 11
211.882
 21
2.78364
 31
0.0
  0
LINE
  8
0
 62
     0
 10
211.882
 20
2.78364
 30
0.0
 11
211.882
 21
16.7831
 31
0.0
  0
LINE
  8
0
 62
     0
 10
211.882
 20
16.7831
 30
0.0
 11
193.118
 21
16.7831
 31
0.0
  0
LINE
  8
0
 62
     0
 10
193.118
 20
16.7831
 30
0.0
 11
193.118
 21
12.0826
 31
0.0
  0
LINE
  8
0
 62
     0
 10
193.118
 20
12.0826
 30
0.0
 11
189.2
 21
12.0826
 31
0.0
  0
LINE
  8
0
 62
     0
 10
189.2
 20
12.0826
 30
0.0
 11
189.2
 21
15.3128
 31
0.0
  0
LINE
  8
0
 62
     0
 10
189.2
 20
15.3128
 30
0.0
 11
182.451
 21
15.3128
 31
0.0
  0
LINE
  8
0
 62
     0
 10
182.451
 20
15.3128
 30
0.0
 11
182.451
 21
12.0826
 31
0.0
  0
LINE
  8
0
 62
     0
 10
182.451
 20
12.0826
 30
0.0
 11
179.675
 21
12.0826
 31
0.0
  0
LINE
  8
0
 62
     0
 10
179.675
 20
12.0826
 30
0.0
 11
179.675
 21
15.3128
 31
0.0
  0
LINE
  8
0
 62
     0
 10
179.675
 20
15.3128
 30
0.0
 11
172.926
 21
15.3128
 31
0.0
  0
LINE
  8
0
 62
     0
 10
172.926
 20
15.3128
 30
0.0
 11
172.926
 21
12.0826
 31
0.0
  0
LINE
  8
0
 62
     0
 10
172.926
 20
12.0826
 30
0.0
 11
171.4
 21
12.0826
 31
0.0
  0
LINE
  8
0
 62
     0
 10
171.4
 20
12.0826
 30
0.0
 11
171.4
 21
16.7831
 31
0.0
  0
LINE
  8
0
 62
     0
 10
171.4
 20
16.7831
 30
0.0
 11
157.401
 21
16.7831
 31
0.0
  0
LINE
  8
0
 62
     0
 10
157.401
 20
16.7831
 30
0.0
 11
157.401
 21
12.0826
 31
0.0
  0
LINE
  8
0
 62
     0
 10
157.401
 20
12.0826
 30
0.0
 11
155.876
 21
12.0826
 31
0.0
  0
LINE
  8
0
 62
     0
 10
155.876
 20
12.0826
 30
0.0
 11
155.876
 21
15.3128
 31
0.0
  0
LINE
  8
0
 62
     0
 10
155.876
 20
15.3128
 30
0.0
 11
149.969
 21
15.3128
 31
0.0
  0
LINE
  8
0
 62
     0
 10
149.969
 20
15.3128
 30
0.0
 11
149.969
 21
16.7831
 31
0.0
  0
LINE
  8
0
 62
     0
 10
149.969
 20
16.7831
 30
0.0
 11
128.826
 21
16.7831
 31
0.0
  0
LINE
  8
0
 62
     0
 10
128.826
 20
16.7831
 30
0.0
 11
128.826
 21
15.3128
 31
0.0
  0
LINE
  8
0
 62
     0
 10
128.826
 20
15.3128
 30
0.0
 11
125.3
 21
15.3128
 31
0.0
  0
LINE
  8
0
 62
     0
 10
125.3
 20
15.3128
 30
0.0
 11
125.3
 21
12.0826
 31
0.0
  0
LINE
  8
0
 62
     0
 10
125.3
 20
12.0826
 30
0.0
 11
123.775
 21
12.0826
 31
0.0
  0
LINE
  8
0
 62
     0
 10
123.775
 20
12.0826
 30
0.0
 11
123.775
 21
16.7831
 31
0.0
  0
LINE
  8
0
 62
     0
 10
123.775
 20
16.7831
 30
0.0
 11
109.776
 21
16.7831
 31
0.0
  0
LINE
  8
0
 62
     0
 10
109.776
 20
16.7831
 30
0.0
 11
109.776
 21
12.0826
 31
0.0
  0
LINE
  8
0
 62
     0
 10
109.776
 20
12.0826
 30
0.0
 11
108.251
 21
12.0826
 31
0.0
  0
LINE
  8
0
 62
     0
 10
108.251
 20
12.0826
 30
0.0
 11
108.251
 21
15.3128
 31
0.0
  0
LINE
  8
0
 62
     0
 10
108.251
 20
15.3128
 30
0.0
 11
101.501
 21
15.3128
 31
0.0
  0
LINE
  8
0
 62
     0
 10
101.501
 20
15.3128
 30
0.0
 11
101.501
 21
12.0826
 31
0.0
  0
LINE
  8
0
 62
     0
 10
101.501
 20
12.0826
 30
0.0
 11
92.819
 21
12.0826
 31
0.0
  0
LINE
  8
0
 62
     0
 10
92.819
 20
12.0826
 30
0.0
 11
92.819
 21
16.7831
 31
0.0
  0
LINE
  8
0
 62
     0
 10
92.819
 20
16.7831
 30
0.0
 11
78.8197
 21
16.7831
 31
0.0
  0
LINE
  8
0
 62
     0
 10
31.1947
 20
16.7831
 30
0.0
 11
47.5753
 21
16.7831
 31
0.0
  0
LINE
  8
0
 62
     0
 10
47.5753
 20
16.7831
 30
0.0
 11
47.5753
 21
2.78364
 31
0.0
  0
LINE
  8
0
 62
     0
 10
47.5753
 20
2.78364
 30
0.0
 11
31.1947
 21
2.78364
 31
0.0
  0
LINE
  8
0
 62
     0
 10
31.1947
 20
2.78364
 30
0.0
 11
31.1947
 21
16.7831
 31
0.0
  0
LINE
  8
0
 62
     0
 10
55.0072
 20
16.7831
 30
0.0
 11
71.3878
 21
16.7831
 31
0.0
  0
LINE
  8
0
 62
     0
 10
71.3878
 20
16.7831
 30
0.0
 11
71.3878
 21
2.78364
 31
0.0
  0
LINE
  8
0
 62
     0
 10
71.3878
 20
2.78364
 30
0.0
 11
55.0072
 21
2.78364
 31
0.0
  0
LINE
  8
0
 62
     0
 10
55.0072
 20
2.78364
 30
0.0
 11
55.0072
 21
16.7831
 31
0.0
  0
LINE
  8
0
 62
     0
 10
216.932
 20
16.7831
 30
0.0
 11
230.932
 21
16.7831
 31
0.0
  0
LINE
  8
0
 62
     0
 10
230.932
 20
16.7831
 30
0.0
 11
230.932
 21
2.78364
 31
0.0
  0
LINE
  8
0
 62
     0
 10
230.932
 20
2.78364
 30
0.0
 11
216.932
 21
2.78364
 31
0.0
  0
LINE
  8
0
 62
     0
 10
216.932
 20
2.78364
 30
0.0
 11
216.932
 21
16.7831
 31
0.0
  0
LINE
  8
0
 62
     0
 10
238.362
 20
16.7831
 30
0.0
 11
254.744
 21
16.7831
 31
0.0
  0
LINE
  8
0
 62
     0
 10
254.744
 20
16.7831
 30
0.0
 11
254.744
 21
2.78364
 31
0.0
  0
LINE
  8
0
 62
     0
 10
254.744
 20
2.78364
 30
0.0
 11
238.362
 21
2.78364
 31
0.0
  0
LINE
  8
0
 62
     0
 10
238.362
 20
2.78364
 30
0.0
 11
238.362
 21
16.7831
 31
0.0
  0
LINE
  8
0
 62
     0
 10
14.5259
 20
35.833
 30
0.0
 11
14.5259
 21
31.1326
 31
0.0
  0
LINE
  8
0
 62
     0
 10
14.5259
 20
31.1326
 30
0.0
 11
13.0004
 21
31.1326
 31
0.0
  0
LINE
  8
0
 62
     0
 10
13.0004
 20
31.1326
 30
0.0
 11
13.0004
 21
34.3628
 31
0.0
  0
LINE
  8
0
 62
     0
 10
13.0004
 20
34.3628
 30
0.0
 11
6.2508
 21
34.3628
 31
0.0
  0
LINE
  8
0
 62
     0
 10
6.2508
 20
34.3628
 30
0.0
 11
6.2508
 21
31.1326
 31
0.0
  0
LINE
  8
0
 62
     0
 10
6.2508
 20
31.1326
 30
0.0
 11
5.42533
 21
31.1326
 31
0.0
  0
LINE
  8
0
 62
     0
 10
5.42533
 20
31.1326
 30
0.0
 11
5.42533
 21
28.3338
 31
0.0
  0
LINE
  8
0
 62
     0
 10
5.42533
 20
28.3338
 30
0.0
 11
6.2508
 21
28.3338
 31
0.0
  0
LINE
  8
0
 62
     0
 10
6.2508
 20
28.3338
 30
0.0
 11
6.2508
 21
22.0638
 31
0.0
  0
LINE
  8
0
 62
     0
 10
6.2508
 20
22.0638
 30
0.0
 11
7.97609
 21
22.0638
 31
0.0
  0
LINE
  8
0
 62
     0
 10
7.97609
 20
22.0638
 30
0.0
 11
7.97609
 21
20.8635
 31
0.0
  0
LINE
  8
0
 62
     0
 10
7.97609
 20
20.8635
 30
0.0
 11
11.2751
 21
20.8635
 31
0.0
  0
LINE
  8
0
 62
     0
 10
11.2751
 20
20.8635
 30
0.0
 11
11.2751
 21
22.0638
 31
0.0
  0
LINE
  8
0
 62
     0
 10
11.2751
 20
22.0638
 30
0.0
 11
13.0004
 21
22.0638
 31
0.0
  0
LINE
  8
0
 62
     0
 10
13.0004
 20
22.0638
 30
0.0
 11
13.0004
 21
26.5327
 31
0.0
  0
LINE
  8
0
 62
     0
 10
13.0004
 20
26.5327
 30
0.0
 11
14.5259
 21
26.5327
 31
0.0
  0
LINE
  8
0
 62
     0
 10
14.5259
 20
26.5327
 30
0.0
 11
14.5259
 21
21.8336
 31
0.0
  0
LINE
  8
0
 62
     0
 10
14.5259
 20
21.8336
 30
0.0
 11
28.5254
 21
21.8336
 31
0.0
  0
LINE
  8
0
 62
     0
 10
28.5254
 20
21.8336
 30
0.0
 11
28.5254
 21
26.5327
 31
0.0
  0
LINE
  8
0
 62
     0
 10
28.5254
 20
26.5327
 30
0.0
 11
30.0509
 21
26.5327
 31
0.0
  0
LINE
  8
0
 62
     0
 10
30.0509
 20
26.5327
 30
0.0
 11
30.0509
 21
22.0638
 31
0.0
  0
LINE
  8
0
 62
     0
 10
30.0509
 20
22.0638
 30
0.0
 11
31.7748
 21
22.0638
 31
0.0
  0
LINE
  8
0
 62
     0
 10
31.7748
 20
22.0638
 30
0.0
 11
31.7748
 21
20.8635
 31
0.0
  0
LINE
  8
0
 62
     0
 10
31.7748
 20
20.8635
 30
0.0
 11
35.0752
 21
20.8635
 31
0.0
  0
LINE
  8
0
 62
     0
 10
35.0752
 20
20.8635
 30
0.0
 11
35.0752
 21
22.0638
 31
0.0
  0
LINE
  8
0
 62
     0
 10
35.0752
 20
22.0638
 30
0.0
 11
36.8004
 21
22.0638
 31
0.0
  0
LINE
  8
0
 62
     0
 10
36.8004
 20
22.0638
 30
0.0
 11
36.8004
 21
28.3338
 31
0.0
  0
LINE
  8
0
 62
     0
 10
36.8004
 20
28.3338
 30
0.0
 11
37.6259
 21
28.3338
 31
0.0
  0
LINE
  8
0
 62
     0
 10
37.6259
 20
28.3338
 30
0.0
 11
37.6259
 21
31.1326
 31
0.0
  0
LINE
  8
0
 62
     0
 10
37.6259
 20
31.1326
 30
0.0
 11
36.8004
 21
31.1326
 31
0.0
  0
LINE
  8
0
 62
     0
 10
36.8004
 20
31.1326
 30
0.0
 11
36.8004
 21
34.3628
 31
0.0
  0
LINE
  8
0
 62
     0
 10
36.8004
 20
34.3628
 30
0.0
 11
30.0509
 21
34.3628
 31
0.0
  0
LINE
  8
0
 62
     0
 10
30.0509
 20
34.3628
 30
0.0
 11
30.0509
 21
31.1326
 31
0.0
  0
LINE
  8
0
 62
     0
 10
30.0509
 20
31.1326
 30
0.0
 11
28.5254
 21
31.1326
 31
0.0
  0
LINE
  8
0
 62
     0
 10
28.5254
 20
31.1326
 30
0.0
 11
28.5254
 21
35.833
 31
0.0
  0
LINE
  8
0
 62
     0
 10
28.5254
 20
35.833
 30
0.0
 11
14.5259
 21
35.833
 31
0.0
  0
LINE
  8
0
 62
     0
 10
243.126
 20
35.833
 30
0.0
 11
243.126
 21
21.8336
 31
0.0
  0
LINE
  8
0
 62
     0
 10
243.126
 20
21.8336
 30
0.0
 11
246.101
 21
21.8336
 31
0.0
  0
LINE
  8
0
 62
     0
 10
246.101
 20
21.8336
 30
0.0
 11
246.101
 21
20.8635
 31
0.0
  0
LINE
  8
0
 62
     0
 10
246.101
 20
20.8635
 30
0.0
 11
249.4
 21
20.8635
 31
0.0
  0
LINE
  8
0
 62
     0
 10
249.4
 20
20.8635
 30
0.0
 11
249.4
 21
21.8336
 31
0.0
  0
LINE
  8
0
 62
     0
 10
249.4
 20
21.8336
 30
0.0
 11
266.65
 21
21.8336
 31
0.0
  0
LINE
  8
0
 62
     0
 10
266.65
 20
21.8336
 30
0.0
 11
266.65
 21
26.5327
 31
0.0
  0
LINE
  8
0
 62
     0
 10
266.65
 20
26.5327
 30
0.0
 11
268.176
 21
26.5327
 31
0.0
  0
LINE
  8
0
 62
     0
 10
268.176
 20
26.5327
 30
0.0
 11
268.176
 21
22.0638
 31
0.0
  0
LINE
  8
0
 62
     0
 10
268.176
 20
22.0638
 30
0.0
 11
269.32
 21
22.0638
 31
0.0
  0
LINE
  8
0
 62
     0
 10
269.32
 20
22.0638
 30
0.0
 11
269.32
 21
21.8336
 31
0.0
  0
LINE
  8
0
 62
     0
 10
269.32
 20
21.8336
 30
0.0
 11
269.901
 21
21.8336
 31
0.0
  0
LINE
  8
0
 62
     0
 10
269.901
 20
21.8336
 30
0.0
 11
269.901
 21
20.8635
 31
0.0
  0
LINE
  8
0
 62
     0
 10
269.901
 20
20.8635
 30
0.0
 11
273.2
 21
20.8635
 31
0.0
  0
LINE
  8
0
 62
     0
 10
273.2
 20
20.8635
 30
0.0
 11
273.2
 21
21.8336
 31
0.0
  0
LINE
  8
0
 62
     0
 10
273.2
 20
21.8336
 30
0.0
 11
283.319
 21
21.8336
 31
0.0
  0
LINE
  8
0
 62
     0
 10
283.319
 20
21.8336
 30
0.0
 11
283.319
 21
35.833
 31
0.0
  0
LINE
  8
0
 62
     0
 10
283.319
 20
35.833
 30
0.0
 11
269.32
 21
35.833
 31
0.0
  0
LINE
  8
0
 62
     0
 10
269.32
 20
35.833
 30
0.0
 11
269.32
 21
34.3628
 31
0.0
  0
LINE
  8
0
 62
     0
 10
269.32
 20
34.3628
 30
0.0
 11
268.176
 21
34.3628
 31
0.0
  0
LINE
  8
0
 62
     0
 10
268.176
 20
34.3628
 30
0.0
 11
268.176
 21
31.1326
 31
0.0
  0
LINE
  8
0
 62
     0
 10
268.176
 20
31.1326
 30
0.0
 11
266.65
 21
31.1326
 31
0.0
  0
LINE
  8
0
 62
     0
 10
266.65
 20
31.1326
 30
0.0
 11
266.65
 21
35.833
 31
0.0
  0
LINE
  8
0
 62
     0
 10
266.65
 20
35.833
 30
0.0
 11
243.126
 21
35.833
 31
0.0
  0
LINE
  8
0
 62
     0
 10
45.4822
 20
35.833
 30
0.0
 11
59.4815
 21
35.833
 31
0.0
  0
LINE
  8
0
 62
     0
 10
59.4815
 20
35.833
 30
0.0
 11
59.4815
 21
21.8336
 31
0.0
  0
LINE
  8
0
 62
     0
 10
59.4815
 20
21.8336
 30
0.0
 11
45.4822
 21
21.8336
 31
0.0
  0
LINE
  8
0
 62
     0
 10
45.4822
 20
21.8336
 30
0.0
 11
45.4822
 21
35.833
 31
0.0
  0
LINE
  8
0
 62
     0
 10
64.5322
 20
35.833
 30
0.0
 11
78.5315
 21
35.833
 31
0.0
  0
LINE
  8
0
 62
     0
 10
78.5315
 20
35.833
 30
0.0
 11
78.5315
 21
21.8336
 31
0.0
  0
LINE
  8
0
 62
     0
 10
78.5315
 20
21.8336
 30
0.0
 11
64.5322
 21
21.8336
 31
0.0
  0
LINE
  8
0
 62
     0
 10
64.5322
 20
21.8336
 30
0.0
 11
64.5322
 21
35.833
 31
0.0
  0
LINE
  8
0
 62
     0
 10
83.5822
 20
35.833
 30
0.0
 11
97.5815
 21
35.833
 31
0.0
  0
LINE
  8
0
 62
     0
 10
97.5815
 20
35.833
 30
0.0
 11
97.5815
 21
21.8336
 31
0.0
  0
LINE
  8
0
 62
     0
 10
97.5815
 20
21.8336
 30
0.0
 11
83.5822
 21
21.8336
 31
0.0
  0
LINE
  8
0
 62
     0
 10
83.5822
 20
21.8336
 30
0.0
 11
83.5822
 21
35.833
 31
0.0
  0
LINE
  8
0
 62
     0
 10
102.632
 20
35.833
 30
0.0
 11
116.632
 21
35.833
 31
0.0
  0
LINE
  8
0
 62
     0
 10
116.632
 20
35.833
 30
0.0
 11
116.632
 21
21.8336
 31
0.0
  0
LINE
  8
0
 62
     0
 10
116.632
 20
21.8336
 30
0.0
 11
102.632
 21
21.8336
 31
0.0
  0
LINE
  8
0
 62
     0
 10
102.632
 20
21.8336
 30
0.0
 11
102.632
 21
35.833
 31
0.0
  0
LINE
  8
0
 62
     0
 10
121.682
 20
35.833
 30
0.0
 11
135.682
 21
35.833
 31
0.0
  0
LINE
  8
0
 62
     0
 10
135.682
 20
35.833
 30
0.0
 11
135.682
 21
21.8336
 31
0.0
  0
LINE
  8
0
 62
     0
 10
135.682
 20
21.8336
 30
0.0
 11
121.682
 21
21.8336
 31
0.0
  0
LINE
  8
0
 62
     0
 10
121.682
 20
21.8336
 30
0.0
 11
121.682
 21
35.833
 31
0.0
  0
LINE
  8
0
 62
     0
 10
140.732
 20
35.833
 30
0.0
 11
154.732
 21
35.833
 31
0.0
  0
LINE
  8
0
 62
     0
 10
154.732
 20
35.833
 30
0.0
 11
154.732
 21
21.8336
 31
0.0
  0
LINE
  8
0
 62
     0
 10
154.732
 20
21.8336
 30
0.0
 11
140.732
 21
21.8336
 31
0.0
  0
LINE
  8
0
 62
     0
 10
140.732
 20
21.8336
 30
0.0
 11
140.732
 21
35.833
 31
0.0
  0
LINE
  8
0
 62
     0
 10
159.782
 20
35.833
 30
0.0
 11
173.782
 21
35.833
 31
0.0
  0
LINE
  8
0
 62
     0
 10
173.782
 20
35.833
 30
0.0
 11
173.782
 21
21.8336
 31
0.0
  0
LINE
  8
0
 62
     0
 10
173.782
 20
21.8336
 30
0.0
 11
159.782
 21
21.8336
 31
0.0
  0
LINE
  8
0
 62
     0
 10
159.782
 20
21.8336
 30
0.0
 11
159.782
 21
35.833
 31
0.0
  0
LINE
  8
0
 62
     0
 10
178.832
 20
35.833
 30
0.0
 11
192.832
 21
35.833
 31
0.0
  0
LINE
  8
0
 62
     0
 10
192.832
 20
35.833
 30
0.0
 11
192.832
 21
21.8336
 31
0.0
  0
LINE
  8
0
 62
     0
 10
192.832
 20
21.8336
 30
0.0
 11
178.832
 21
21.8336
 31
0.0
  0
LINE
  8
0
 62
     0
 10
178.832
 20
21.8336
 30
0.0
 11
178.832
 21
35.833
 31
0.0
  0
LINE
  8
0
 62
     0
 10
197.882
 20
35.833
 30
0.0
 11
211.882
 21
35.833
 31
0.0
  0
LINE
  8
0
 62
     0
 10
211.882
 20
35.833
 30
0.0
 11
211.882
 21
21.8336
 31
0.0
  0
LINE
  8
0
 62
     0
 10
211.882
 20
21.8336
 30
0.0
 11
197.882
 21
21.8336
 31
0.0
  0
LINE
  8
0
 62
     0
 10
197.882
 20
21.8336
 30
0.0
 11
197.882
 21
35.833
 31
0.0
  0
LINE
  8
0
 62
     0
 10
216.932
 20
35.833
 30
0.0
 11
230.932
 21
35.833
 31
0.0
  0
LINE
  8
0
 62
     0
 10
230.932
 20
35.833
 30
0.0
 11
230.932
 21
21.8336
 31
0.0
  0
LINE
  8
0
 62
     0
 10
230.932
 20
21.8336
 30
0.0
 11
216.932
 21
21.8336
 31
0.0
  0
LINE
  8
0
 62
     0
 10
216.932
 20
21.8336
 30
0.0
 11
216.932
 21
35.833
 31
0.0
  0
LINE
  8
0
 62
     0
 10
257.412
 20
54.8831
 30
0.0
 11
257.412
 21
50.1826
 31
0.0
  0
LINE
  8
0
 62
     0
 10
257.412
 20
50.1826
 30
0.0
 11
255.888
 21
50.1826
 31
0.0
  0
LINE
  8
0
 62
     0
 10
255.888
 20
50.1826
 30
0.0
 11
255.888
 21
53.4127
 31
0.0
  0
LINE
  8
0
 62
     0
 10
255.888
 20
53.4127
 30
0.0
 11
249.137
 21
53.4127
 31
0.0
  0
LINE
  8
0
 62
     0
 10
249.137
 20
53.4127
 30
0.0
 11
249.137
 21
50.1826
 31
0.0
  0
LINE
  8
0
 62
     0
 10
249.137
 20
50.1826
 30
0.0
 11
248.313
 21
50.1826
 31
0.0
  0
LINE
  8
0
 62
     0
 10
248.313
 20
50.1826
 30
0.0
 11
248.313
 21
47.3837
 31
0.0
  0
LINE
  8
0
 62
     0
 10
248.313
 20
47.3837
 30
0.0
 11
249.137
 21
47.3837
 31
0.0
  0
LINE
  8
0
 62
     0
 10
249.137
 20
47.3837
 30
0.0
 11
249.137
 21
41.1138
 31
0.0
  0
LINE
  8
0
 62
     0
 10
249.137
 20
41.1138
 30
0.0
 11
250.862
 21
41.1138
 31
0.0
  0
LINE
  8
0
 62
     0
 10
250.862
 20
41.1138
 30
0.0
 11
250.862
 21
39.9136
 31
0.0
  0
LINE
  8
0
 62
     0
 10
250.862
 20
39.9136
 30
0.0
 11
254.161
 21
39.9136
 31
0.0
  0
LINE
  8
0
 62
     0
 10
254.161
 20
39.9136
 30
0.0
 11
254.161
 21
41.1138
 31
0.0
  0
LINE
  8
0
 62
     0
 10
254.161
 20
41.1138
 30
0.0
 11
255.888
 21
41.1138
 31
0.0
  0
LINE
  8
0
 62
     0
 10
255.888
 20
41.1138
 30
0.0
 11
255.888
 21
45.5828
 31
0.0
  0
LINE
  8
0
 62
     0
 10
255.888
 20
45.5828
 30
0.0
 11
257.412
 21
45.5828
 31
0.0
  0
LINE
  8
0
 62
     0
 10
257.412
 20
45.5828
 30
0.0
 11
257.412
 21
40.8838
 31
0.0
  0
LINE
  8
0
 62
     0
 10
257.412
 20
40.8838
 30
0.0
 11
271.413
 21
40.8838
 31
0.0
  0
LINE
  8
0
 62
     0
 10
271.413
 20
40.8838
 30
0.0
 11
271.413
 21
45.5828
 31
0.0
  0
LINE
  8
0
 62
     0
 10
271.413
 20
45.5828
 30
0.0
 11
272.937
 21
45.5828
 31
0.0
  0
LINE
  8
0
 62
     0
 10
272.937
 20
45.5828
 30
0.0
 11
272.937
 21
41.1138
 31
0.0
  0
LINE
  8
0
 62
     0
 10
272.937
 20
41.1138
 30
0.0
 11
274.662
 21
41.1138
 31
0.0
  0
LINE
  8
0
 62
     0
 10
274.662
 20
41.1138
 30
0.0
 11
274.662
 21
39.9136
 31
0.0
  0
LINE
  8
0
 62
     0
 10
274.662
 20
39.9136
 30
0.0
 11
277.963
 21
39.9136
 31
0.0
  0
LINE
  8
0
 62
     0
 10
277.963
 20
39.9136
 30
0.0
 11
277.963
 21
41.1138
 31
0.0
  0
LINE
  8
0
 62
     0
 10
277.963
 20
41.1138
 30
0.0
 11
279.688
 21
41.1138
 31
0.0
  0
LINE
  8
0
 62
     0
 10
279.688
 20
41.1138
 30
0.0
 11
279.688
 21
47.3837
 31
0.0
  0
LINE
  8
0
 62
     0
 10
279.688
 20
47.3837
 30
0.0
 11
280.512
 21
47.3837
 31
0.0
  0
LINE
  8
0
 62
     0
 10
280.512
 20
47.3837
 30
0.0
 11
280.512
 21
50.1826
 31
0.0
  0
LINE
  8
0
 62
     0
 10
280.512
 20
50.1826
 30
0.0
 11
279.688
 21
50.1826
 31
0.0
  0
LINE
  8
0
 62
     0
 10
279.688
 20
50.1826
 30
0.0
 11
279.688
 21
53.4127
 31
0.0
  0
LINE
  8
0
 62
     0
 10
279.688
 20
53.4127
 30
0.0
 11
272.937
 21
53.4127
 31
0.0
  0
LINE
  8
0
 62
     0
 10
272.937
 20
53.4127
 30
0.0
 11
272.937
 21
50.1826
 31
0.0
  0
LINE
  8
0
 62
     0
 10
272.937
 20
50.1826
 30
0.0
 11
271.413
 21
50.1826
 31
0.0
  0
LINE
  8
0
 62
     0
 10
271.413
 20
50.1826
 30
0.0
 11
271.413
 21
54.8831
 31
0.0
  0
LINE
  8
0
 62
     0
 10
271.413
 20
54.8831
 30
0.0
 11
257.412
 21
54.8831
 31
0.0
  0
LINE
  8
0
 62
     0
 10
5.00091
 20
54.8831
 30
0.0
 11
23.7629
 21
54.8831
 31
0.0
  0
LINE
  8
0
 62
     0
 10
23.7629
 20
54.8831
 30
0.0
 11
23.7629
 21
40.8838
 31
0.0
  0
LINE
  8
0
 62
     0
 10
23.7629
 20
40.8838
 30
0.0
 11
5.00091
 21
40.8838
 31
0.0
  0
LINE
  8
0
 62
     0
 10
5.00091
 20
40.8838
 30
0.0
 11
5.00091
 21
54.8831
 31
0.0
  0
LINE
  8
0
 62
     0
 10
35.9572
 20
54.8831
 30
0.0
 11
49.9565
 21
54.8831
 31
0.0
  0
LINE
  8
0
 62
     0
 10
49.9565
 20
54.8831
 30
0.0
 11
49.9565
 21
40.8838
 31
0.0
  0
LINE
  8
0
 62
     0
 10
49.9565
 20
40.8838
 30
0.0
 11
35.9572
 21
40.8838
 31
0.0
  0
LINE
  8
0
 62
     0
 10
35.9572
 20
40.8838
 30
0.0
 11
35.9572
 21
54.8831
 31
0.0
  0
LINE
  8
0
 62
     0
 10
55.0072
 20
54.8831
 30
0.0
 11
69.0065
 21
54.8831
 31
0.0
  0
LINE
  8
0
 62
     0
 10
69.0065
 20
54.8831
 30
0.0
 11
69.0065
 21
40.8838
 31
0.0
  0
LINE
  8
0
 62
     0
 10
69.0065
 20
40.8838
 30
0.0
 11
55.0072
 21
40.8838
 31
0.0
  0
LINE
  8
0
 62
     0
 10
55.0072
 20
40.8838
 30
0.0
 11
55.0072
 21
54.8831
 31
0.0
  0
LINE
  8
0
 62
     0
 10
74.0572
 20
54.8831
 30
0.0
 11
88.0565
 21
54.8831
 31
0.0
  0
LINE
  8
0
 62
     0
 10
88.0565
 20
54.8831
 30
0.0
 11
88.0565
 21
40.8838
 31
0.0
  0
LINE
  8
0
 62
     0
 10
88.0565
 20
40.8838
 30
0.0
 11
74.0572
 21
40.8838
 31
0.0
  0
LINE
  8
0
 62
     0
 10
74.0572
 20
40.8838
 30
0.0
 11
74.0572
 21
54.8831
 31
0.0
  0
LINE
  8
0
 62
     0
 10
93.1072
 20
54.8831
 30
0.0
 11
107.107
 21
54.8831
 31
0.0
  0
LINE
  8
0
 62
     0
 10
107.107
 20
54.8831
 30
0.0
 11
107.107
 21
40.8838
 31
0.0
  0
LINE
  8
0
 62
     0
 10
107.107
 20
40.8838
 30
0.0
 11
93.1072
 21
40.8838
 31
0.0
  0
LINE
  8
0
 62
     0
 10
93.1072
 20
40.8838
 30
0.0
 11
93.1072
 21
54.8831
 31
0.0
  0
LINE
  8
0
 62
     0
 10
112.157
 20
54.8831
 30
0.0
 11
126.157
 21
54.8831
 31
0.0
  0
LINE
  8
0
 62
     0
 10
126.157
 20
54.8831
 30
0.0
 11
126.157
 21
40.8838
 31
0.0
  0
LINE
  8
0
 62
     0
 10
126.157
 20
40.8838
 30
0.0
 11
112.157
 21
40.8838
 31
0.0
  0
LINE
  8
0
 62
     0
 10
112.157
 20
40.8838
 30
0.0
 11
112.157
 21
54.8831
 31
0.0
  0
LINE
  8
0
 62
     0
 10
131.207
 20
54.8831
 30
0.0
 11
145.207
 21
54.8831
 31
0.0
  0
LINE
  8
0
 62
     0
 10
145.207
 20
54.8831
 30
0.0
 11
145.207
 21
40.8838
 31
0.0
  0
LINE
  8
0
 62
     0
 10
145.207
 20
40.8838
 30
0.0
 11
131.207
 21
40.8838
 31
0.0
  0
LINE
  8
0
 62
     0
 10
131.207
 20
40.8838
 30
0.0
 11
131.207
 21
54.8831
 31
0.0
  0
LINE
  8
0
 62
     0
 10
150.257
 20
54.8831
 30
0.0
 11
164.257
 21
54.8831
 31
0.0
  0
LINE
  8
0
 62
     0
 10
164.257
 20
54.8831
 30
0.0
 11
164.257
 21
40.8838
 31
0.0
  0
LINE
  8
0
 62
     0
 10
164.257
 20
40.8838
 30
0.0
 11
150.257
 21
40.8838
 31
0.0
  0
LINE
  8
0
 62
     0
 10
150.257
 20
40.8838
 30
0.0
 11
150.257
 21
54.8831
 31
0.0
  0
LINE
  8
0
 62
     0
 10
169.307
 20
54.8831
 30
0.0
 11
183.307
 21
54.8831
 31
0.0
  0
LINE
  8
0
 62
     0
 10
183.307
 20
54.8831
 30
0.0
 11
183.307
 21
40.8838
 31
0.0
  0
LINE
  8
0
 62
     0
 10
183.307
 20
40.8838
 30
0.0
 11
169.307
 21
40.8838
 31
0.0
  0
LINE
  8
0
 62
     0
 10
169.307
 20
40.8838
 30
0.0
 11
169.307
 21
54.8831
 31
0.0
  0
LINE
  8
0
 62
     0
 10
188.357
 20
54.8831
 30
0.0
 11
202.357
 21
54.8831
 31
0.0
  0
LINE
  8
0
 62
     0
 10
202.357
 20
54.8831
 30
0.0
 11
202.357
 21
40.8838
 31
0.0
  0
LINE
  8
0
 62
     0
 10
202.357
 20
40.8838
 30
0.0
 11
188.357
 21
40.8838
 31
0.0
  0
LINE
  8
0
 62
     0
 10
188.357
 20
40.8838
 30
0.0
 11
188.357
 21
54.8831
 31
0.0
  0
LINE
  8
0
 62
     0
 10
207.407
 20
54.8831
 30
0.0
 11
221.407
 21
54.8831
 31
0.0
  0
LINE
  8
0
 62
     0
 10
221.407
 20
54.8831
 30
0.0
 11
221.407
 21
40.8838
 31
0.0
  0
LINE
  8
0
 62
     0
 10
221.407
 20
40.8838
 30
0.0
 11
207.407
 21
40.8838
 31
0.0
  0
LINE
  8
0
 62
     0
 10
207.407
 20
40.8838
 30
0.0
 11
207.407
 21
54.8831
 31
0.0
  0
LINE
  8
0
 62
     0
 10
226.457
 20
54.8831
 30
0.0
 11
240.457
 21
54.8831
 31
0.0
  0
LINE
  8
0
 62
     0
 10
240.457
 20
54.8831
 30
0.0
 11
240.457
 21
40.8838
 31
0.0
  0
LINE
  8
0
 62
     0
 10
240.457
 20
40.8838
 30
0.0
 11
226.457
 21
40.8838
 31
0.0
  0
LINE
  8
0
 62
     0
 10
226.457
 20
40.8838
 30
0.0
 11
226.457
 21
54.8831
 31
0.0
  0
LINE
  8
0
 62
     0
 10
7.38216
 20
73.9331
 30
0.0
 11
21.3817
 21
73.9331
 31
0.0
  0
LINE
  8
0
 62
     0
 10
21.3817
 20
73.9331
 30
0.0
 11
21.3817
 21
59.9338
 31
0.0
  0
LINE
  8
0
 62
     0
 10
21.3817
 20
59.9338
 30
0.0
 11
7.38216
 21
59.9338
 31
0.0
  0
LINE
  8
0
 62
     0
 10
7.38216
 20
59.9338
 30
0.0
 11
7.38216
 21
73.9331
 31
0.0
  0
LINE
  8
0
 62
     0
 10
31.1947
 20
73.9331
 30
0.0
 11
45.194
 21
73.9331
 31
0.0
  0
LINE
  8
0
 62
     0
 10
45.194
 20
73.9331
 30
0.0
 11
45.194
 21
59.9338
 31
0.0
  0
LINE
  8
0
 62
     0
 10
45.194
 20
59.9338
 30
0.0
 11
31.1947
 21
59.9338
 31
0.0
  0
LINE
  8
0
 62
     0
 10
31.1947
 20
59.9338
 30
0.0
 11
31.1947
 21
73.9331
 31
0.0
  0
LINE
  8
0
 62
     0
 10
50.2447
 20
73.9331
 30
0.0
 11
64.244
 21
73.9331
 31
0.0
  0
LINE
  8
0
 62
     0
 10
64.244
 20
73.9331
 30
0.0
 11
64.244
 21
59.9338
 31
0.0
  0
LINE
  8
0
 62
     0
 10
64.244
 20
59.9338
 30
0.0
 11
50.2447
 21
59.9338
 31
0.0
  0
LINE
  8
0
 62
     0
 10
50.2447
 20
59.9338
 30
0.0
 11
50.2447
 21
73.9331
 31
0.0
  0
LINE
  8
0
 62
     0
 10
69.2947
 20
73.9331
 30
0.0
 11
83.294
 21
73.9331
 31
0.0
  0
LINE
  8
0
 62
     0
 10
83.294
 20
73.9331
 30
0.0
 11
83.294
 21
59.9338
 31
0.0
  0
LINE
  8
0
 62
     0
 10
83.294
 20
59.9338
 30
0.0
 11
69.2947
 21
59.9338
 31
0.0
  0
LINE
  8
0
 62
     0
 10
69.2947
 20
59.9338
 30
0.0
 11
69.2947
 21
73.9331
 31
0.0
  0
LINE
  8
0
 62
     0
 10
88.3447
 20
73.9331
 30
0.0
 11
102.344
 21
73.9331
 31
0.0
  0
LINE
  8
0
 62
     0
 10
102.344
 20
73.9331
 30
0.0
 11
102.344
 21
59.9338
 31
0.0
  0
LINE
  8
0
 62
     0
 10
102.344
 20
59.9338
 30
0.0
 11
88.3447
 21
59.9338
 31
0.0
  0
LINE
  8
0
 62
     0
 10
88.3447
 20
59.9338
 30
0.0
 11
88.3447
 21
73.9331
 31
0.0
  0
LINE
  8
0
 62
     0
 10
107.395
 20
73.9331
 30
0.0
 11
121.394
 21
73.9331
 31
0.0
  0
LINE
  8
0
 62
     0
 10
121.394
 20
73.9331
 30
0.0
 11
121.394
 21
59.9338
 31
0.0
  0
LINE
  8
0
 62
     0
 10
121.394
 20
59.9338
 30
0.0
 11
107.395
 21
59.9338
 31
0.0
  0
LINE
  8
0
 62
     0
 10
107.395
 20
59.9338
 30
0.0
 11
107.395
 21
73.9331
 31
0.0
  0
LINE
  8
0
 62
     0
 10
126.445
 20
73.9331
 30
0.0
 11
140.444
 21
73.9331
 31
0.0
  0
LINE
  8
0
 62
     0
 10
140.444
 20
73.9331
 30
0.0
 11
140.444
 21
59.9338
 31
0.0
  0
LINE
  8
0
 62
     0
 10
140.444
 20
59.9338
 30
0.0
 11
126.445
 21
59.9338
 31
0.0
  0
LINE
  8
0
 62
     0
 10
126.445
 20
59.9338
 30
0.0
 11
126.445
 21
73.9331
 31
0.0
  0
LINE
  8
0
 62
     0
 10
145.495
 20
73.9331
 30
0.0
 11
159.494
 21
73.9331
 31
0.0
  0
LINE
  8
0
 62
     0
 10
159.494
 20
73.9331
 30
0.0
 11
159.494
 21
59.9338
 31
0.0
  0
LINE
  8
0
 62
     0
 10
159.494
 20
59.9338
 30
0.0
 11
145.495
 21
59.9338
 31
0.0
  0
LINE
  8
0
 62
     0
 10
145.495
 20
59.9338
 30
0.0
 11
145.495
 21
73.9331
 31
0.0
  0
LINE
  8
0
 62
     0
 10
164.545
 20
73.9331
 30
0.0
 11
178.544
 21
73.9331
 31
0.0
  0
LINE
  8
0
 62
     0
 10
178.544
 20
73.9331
 30
0.0
 11
178.544
 21
59.9338
 31
0.0
  0
LINE
  8
0
 62
     0
 10
178.544
 20
59.9338
 30
0.0
 11
164.545
 21
59.9338
 31
0.0
  0
LINE
  8
0
 62
     0
 10
164.545
 20
59.9338
 30
0.0
 11
164.545
 21
73.9331
 31
0.0
  0
LINE
  8
0
 62
     0
 10
183.595
 20
73.9331
 30
0.0
 11
197.594
 21
73.9331
 31
0.0
  0
LINE
  8
0
 62
     0
 10
197.594
 20
73.9331
 30
0.0
 11
197.594
 21
59.9338
 31
0.0
  0
LINE
  8
0
 62
     0
 10
197.594
 20
59.9338
 30
0.0
 11
183.595
 21
59.9338
 31
0.0
  0
LINE
  8
0
 62
     0
 10
183.595
 20
59.9338
 30
0.0
 11
183.595
 21
73.9331
 31
0.0
  0
LINE
  8
0
 62
     0
 10
202.645
 20
73.9331
 30
0.0
 11
216.644
 21
73.9331
 31
0.0
  0
LINE
  8
0
 62
     0
 10
216.644
 20
73.9331
 30
0.0
 11
216.644
 21
59.9338
 31
0.0
  0
LINE
  8
0
 62
     0
 10
216.644
 20
59.9338
 30
0.0
 11
202.645
 21
59.9338
 31
0.0
  0
LINE
  8
0
 62
     0
 10
202.645
 20
59.9338
 30
0.0
 11
202.645
 21
73.9331
 31
0.0
  0
LINE
  8
0
 62
     0
 10
221.695
 20
73.9331
 30
0.0
 11
235.694
 21
73.9331
 31
0.0
  0
LINE
  8
0
 62
     0
 10
235.694
 20
73.9331
 30
0.0
 11
235.694
 21
59.9338
 31
0.0
  0
LINE
  8
0
 62
     0
 10
235.694
 20
59.9338
 30
0.0
 11
221.695
 21
59.9338
 31
0.0
  0
LINE
  8
0
 62
     0
 10
221.695
 20
59.9338
 30
0.0
 11
221.695
 21
73.9331
 31
0.0
  0
LINE
  8
0
 62
     0
 10
240.745
 20
73.9331
 30
0.0
 11
254.744
 21
73.9331
 31
0.0
  0
LINE
  8
0
 62
     0
 10
254.744
 20
73.9331
 30
0.0
 11
254.744
 21
59.9338
 31
0.0
  0
LINE
  8
0
 62
     0
 10
254.744
 20
59.9338
 30
0.0
 11
240.745
 21
59.9338
 31
0.0
  0
LINE
  8
0
 62
     0
 10
240.745
 20
59.9338
 30
0.0
 11
240.745
 21
73.9331
 31
0.0
  0
LINE
  8
0
 62
     0
 10
264.557
 20
73.9331
 30
0.0
 11
278.557
 21
73.9331
 31
0.0
  0
LINE
  8
0
 62
     0
 10
278.557
 20
73.9331
 30
0.0
 11
278.557
 21
59.9338
 31
0.0
  0
LINE
  8
0
 62
     0
 10
278.557
 20
59.9338
 30
0.0
 11
264.557
 21
59.9338
 31
0.0
  0
LINE
  8
0
 62
     0
 10
264.557
 20
59.9338
 30
0.0
 11
264.557
 21
73.9331
 31
0.0
  0
ENDSEC
  0
EOF
