%TF.GenerationSoftware,KiCad,Pcbnew,(6.0.6)*%
%TF.CreationDate,2022-08-16T14:09:32+02:00*%
%TF.ProjectId,rabid40,72616269-6434-4302-9e6b-696361645f70,rev?*%
%TF.SameCoordinates,Original*%
%TF.FileFunction,Legend,Bot*%
%TF.FilePolarity,Positive*%
%FSLAX46Y46*%
G04 Gerber Fmt 4.6, Leading zero omitted, Abs format (unit mm)*
G04 Created by KiCad (PCBNEW (6.0.6)) date 2022-08-16 14:09:32*
%MOMM*%
%LPD*%
G01*
G04 APERTURE LIST*
G04 Aperture macros list*
%AMRoundRect*
0 Rectangle with rounded corners*
0 $1 Rounding radius*
0 $2 $3 $4 $5 $6 $7 $8 $9 X,Y pos of 4 corners*
0 Add a 4 corners polygon primitive as box body*
4,1,4,$2,$3,$4,$5,$6,$7,$8,$9,$2,$3,0*
0 Add four circle primitives for the rounded corners*
1,1,$1+$1,$2,$3*
1,1,$1+$1,$4,$5*
1,1,$1+$1,$6,$7*
1,1,$1+$1,$8,$9*
0 Add four rect primitives between the rounded corners*
20,1,$1+$1,$2,$3,$4,$5,0*
20,1,$1+$1,$4,$5,$6,$7,0*
20,1,$1+$1,$6,$7,$8,$9,0*
20,1,$1+$1,$8,$9,$2,$3,0*%
G04 Aperture macros list end*
%ADD10C,0.150000*%
%ADD11C,0.120000*%
%ADD12RoundRect,0.150000X-0.150000X-0.625000X0.150000X-0.625000X0.150000X0.625000X-0.150000X0.625000X0*%
%ADD13RoundRect,0.250000X-0.350000X-0.650000X0.350000X-0.650000X0.350000X0.650000X-0.350000X0.650000X0*%
%ADD14C,3.987800*%
%ADD15C,1.750000*%
%ADD16C,2.300000*%
%ADD17C,3.048000*%
%ADD18R,1.700000X1.700000*%
%ADD19O,1.700000X1.700000*%
%ADD20C,4.000000*%
%ADD21RoundRect,0.140000X0.170000X-0.140000X0.170000X0.140000X-0.170000X0.140000X-0.170000X-0.140000X0*%
%ADD22R,1.200000X0.900000*%
%ADD23RoundRect,0.050000X0.387500X0.050000X-0.387500X0.050000X-0.387500X-0.050000X0.387500X-0.050000X0*%
%ADD24RoundRect,0.050000X0.050000X0.387500X-0.050000X0.387500X-0.050000X-0.387500X0.050000X-0.387500X0*%
%ADD25RoundRect,0.144000X1.456000X1.456000X-1.456000X1.456000X-1.456000X-1.456000X1.456000X-1.456000X0*%
%ADD26RoundRect,0.135000X0.135000X0.185000X-0.135000X0.185000X-0.135000X-0.185000X0.135000X-0.185000X0*%
%ADD27RoundRect,0.140000X-0.170000X0.140000X-0.170000X-0.140000X0.170000X-0.140000X0.170000X0.140000X0*%
%ADD28RoundRect,0.140000X0.140000X0.170000X-0.140000X0.170000X-0.140000X-0.170000X0.140000X-0.170000X0*%
%ADD29R,0.900000X1.200000*%
%ADD30RoundRect,0.135000X0.185000X-0.135000X0.185000X0.135000X-0.185000X0.135000X-0.185000X-0.135000X0*%
%ADD31RoundRect,0.150000X0.650000X0.150000X-0.650000X0.150000X-0.650000X-0.150000X0.650000X-0.150000X0*%
%ADD32RoundRect,0.150000X-0.587500X-0.150000X0.587500X-0.150000X0.587500X0.150000X-0.587500X0.150000X0*%
%ADD33R,1.400000X1.200000*%
%ADD34RoundRect,0.200000X-0.275000X0.200000X-0.275000X-0.200000X0.275000X-0.200000X0.275000X0.200000X0*%
%ADD35RoundRect,0.250000X0.375000X0.625000X-0.375000X0.625000X-0.375000X-0.625000X0.375000X-0.625000X0*%
%ADD36RoundRect,0.140000X-0.140000X-0.170000X0.140000X-0.170000X0.140000X0.170000X-0.140000X0.170000X0*%
G04 APERTURE END LIST*
D10*
%TO.C,J2*%
X116983333Y-59912380D02*
X116983333Y-60626666D01*
X117030952Y-60769523D01*
X117126190Y-60864761D01*
X117269047Y-60912380D01*
X117364285Y-60912380D01*
X116554761Y-60007619D02*
X116507142Y-59960000D01*
X116411904Y-59912380D01*
X116173809Y-59912380D01*
X116078571Y-59960000D01*
X116030952Y-60007619D01*
X115983333Y-60102857D01*
X115983333Y-60198095D01*
X116030952Y-60340952D01*
X116602380Y-60912380D01*
X115983333Y-60912380D01*
%TO.C,C11*%
X99184642Y-55668392D02*
X99232261Y-55620773D01*
X99279880Y-55477916D01*
X99279880Y-55382678D01*
X99232261Y-55239821D01*
X99137023Y-55144583D01*
X99041785Y-55096964D01*
X98851309Y-55049345D01*
X98708452Y-55049345D01*
X98517976Y-55096964D01*
X98422738Y-55144583D01*
X98327500Y-55239821D01*
X98279880Y-55382678D01*
X98279880Y-55477916D01*
X98327500Y-55620773D01*
X98375119Y-55668392D01*
X99279880Y-56620773D02*
X99279880Y-56049345D01*
X99279880Y-56335059D02*
X98279880Y-56335059D01*
X98422738Y-56239821D01*
X98517976Y-56144583D01*
X98565595Y-56049345D01*
X99279880Y-57573154D02*
X99279880Y-57001726D01*
X99279880Y-57287440D02*
X98279880Y-57287440D01*
X98422738Y-57192202D01*
X98517976Y-57096964D01*
X98565595Y-57001726D01*
%TO.C,D32*%
X191394880Y-67356964D02*
X190394880Y-67356964D01*
X190394880Y-67595059D01*
X190442500Y-67737916D01*
X190537738Y-67833154D01*
X190632976Y-67880773D01*
X190823452Y-67928392D01*
X190966309Y-67928392D01*
X191156785Y-67880773D01*
X191252023Y-67833154D01*
X191347261Y-67737916D01*
X191394880Y-67595059D01*
X191394880Y-67356964D01*
X190394880Y-68261726D02*
X190394880Y-68880773D01*
X190775833Y-68547440D01*
X190775833Y-68690297D01*
X190823452Y-68785535D01*
X190871071Y-68833154D01*
X190966309Y-68880773D01*
X191204404Y-68880773D01*
X191299642Y-68833154D01*
X191347261Y-68785535D01*
X191394880Y-68690297D01*
X191394880Y-68404583D01*
X191347261Y-68309345D01*
X191299642Y-68261726D01*
X190490119Y-69261726D02*
X190442500Y-69309345D01*
X190394880Y-69404583D01*
X190394880Y-69642678D01*
X190442500Y-69737916D01*
X190490119Y-69785535D01*
X190585357Y-69833154D01*
X190680595Y-69833154D01*
X190823452Y-69785535D01*
X191394880Y-69214107D01*
X191394880Y-69833154D01*
%TO.C,U1*%
X101016904Y-97129880D02*
X101016904Y-97939404D01*
X100969285Y-98034642D01*
X100921666Y-98082261D01*
X100826428Y-98129880D01*
X100635952Y-98129880D01*
X100540714Y-98082261D01*
X100493095Y-98034642D01*
X100445476Y-97939404D01*
X100445476Y-97129880D01*
X99445476Y-98129880D02*
X100016904Y-98129880D01*
X99731190Y-98129880D02*
X99731190Y-97129880D01*
X99826428Y-97272738D01*
X99921666Y-97367976D01*
X100016904Y-97415595D01*
%TO.C,D1*%
X29469880Y-47989404D02*
X28469880Y-47989404D01*
X28469880Y-48227500D01*
X28517500Y-48370357D01*
X28612738Y-48465595D01*
X28707976Y-48513214D01*
X28898452Y-48560833D01*
X29041309Y-48560833D01*
X29231785Y-48513214D01*
X29327023Y-48465595D01*
X29422261Y-48370357D01*
X29469880Y-48227500D01*
X29469880Y-47989404D01*
X29469880Y-49513214D02*
X29469880Y-48941785D01*
X29469880Y-49227500D02*
X28469880Y-49227500D01*
X28612738Y-49132261D01*
X28707976Y-49037023D01*
X28755595Y-48941785D01*
%TO.C,D20*%
X134244880Y-67356964D02*
X133244880Y-67356964D01*
X133244880Y-67595059D01*
X133292500Y-67737916D01*
X133387738Y-67833154D01*
X133482976Y-67880773D01*
X133673452Y-67928392D01*
X133816309Y-67928392D01*
X134006785Y-67880773D01*
X134102023Y-67833154D01*
X134197261Y-67737916D01*
X134244880Y-67595059D01*
X134244880Y-67356964D01*
X133340119Y-68309345D02*
X133292500Y-68356964D01*
X133244880Y-68452202D01*
X133244880Y-68690297D01*
X133292500Y-68785535D01*
X133340119Y-68833154D01*
X133435357Y-68880773D01*
X133530595Y-68880773D01*
X133673452Y-68833154D01*
X134244880Y-68261726D01*
X134244880Y-68880773D01*
X133244880Y-69499821D02*
X133244880Y-69595059D01*
X133292500Y-69690297D01*
X133340119Y-69737916D01*
X133435357Y-69785535D01*
X133625833Y-69833154D01*
X133863928Y-69833154D01*
X134054404Y-69785535D01*
X134149642Y-69737916D01*
X134197261Y-69690297D01*
X134244880Y-69595059D01*
X134244880Y-69499821D01*
X134197261Y-69404583D01*
X134149642Y-69356964D01*
X134054404Y-69309345D01*
X133863928Y-69261726D01*
X133625833Y-69261726D01*
X133435357Y-69309345D01*
X133340119Y-69356964D01*
X133292500Y-69404583D01*
X133244880Y-69499821D01*
%TO.C,D44*%
X247751130Y-67294464D02*
X246751130Y-67294464D01*
X246751130Y-67532559D01*
X246798750Y-67675416D01*
X246893988Y-67770654D01*
X246989226Y-67818273D01*
X247179702Y-67865892D01*
X247322559Y-67865892D01*
X247513035Y-67818273D01*
X247608273Y-67770654D01*
X247703511Y-67675416D01*
X247751130Y-67532559D01*
X247751130Y-67294464D01*
X247084464Y-68723035D02*
X247751130Y-68723035D01*
X246703511Y-68484940D02*
X247417797Y-68246845D01*
X247417797Y-68865892D01*
X247084464Y-69675416D02*
X247751130Y-69675416D01*
X246703511Y-69437321D02*
X247417797Y-69199226D01*
X247417797Y-69818273D01*
%TO.C,C6*%
X98054642Y-96770833D02*
X98102261Y-96723214D01*
X98149880Y-96580357D01*
X98149880Y-96485119D01*
X98102261Y-96342261D01*
X98007023Y-96247023D01*
X97911785Y-96199404D01*
X97721309Y-96151785D01*
X97578452Y-96151785D01*
X97387976Y-96199404D01*
X97292738Y-96247023D01*
X97197500Y-96342261D01*
X97149880Y-96485119D01*
X97149880Y-96580357D01*
X97197500Y-96723214D01*
X97245119Y-96770833D01*
X97149880Y-97627976D02*
X97149880Y-97437500D01*
X97197500Y-97342261D01*
X97245119Y-97294642D01*
X97387976Y-97199404D01*
X97578452Y-97151785D01*
X97959404Y-97151785D01*
X98054642Y-97199404D01*
X98102261Y-97247023D01*
X98149880Y-97342261D01*
X98149880Y-97532738D01*
X98102261Y-97627976D01*
X98054642Y-97675595D01*
X97959404Y-97723214D01*
X97721309Y-97723214D01*
X97626071Y-97675595D01*
X97578452Y-97627976D01*
X97530833Y-97532738D01*
X97530833Y-97342261D01*
X97578452Y-97247023D01*
X97626071Y-97199404D01*
X97721309Y-97151785D01*
%TO.C,D39*%
X224732380Y-47575714D02*
X223732380Y-47575714D01*
X223732380Y-47813809D01*
X223780000Y-47956666D01*
X223875238Y-48051904D01*
X223970476Y-48099523D01*
X224160952Y-48147142D01*
X224303809Y-48147142D01*
X224494285Y-48099523D01*
X224589523Y-48051904D01*
X224684761Y-47956666D01*
X224732380Y-47813809D01*
X224732380Y-47575714D01*
X223732380Y-48480476D02*
X223732380Y-49099523D01*
X224113333Y-48766190D01*
X224113333Y-48909047D01*
X224160952Y-49004285D01*
X224208571Y-49051904D01*
X224303809Y-49099523D01*
X224541904Y-49099523D01*
X224637142Y-49051904D01*
X224684761Y-49004285D01*
X224732380Y-48909047D01*
X224732380Y-48623333D01*
X224684761Y-48528095D01*
X224637142Y-48480476D01*
X224732380Y-49575714D02*
X224732380Y-49766190D01*
X224684761Y-49861428D01*
X224637142Y-49909047D01*
X224494285Y-50004285D01*
X224303809Y-50051904D01*
X223922857Y-50051904D01*
X223827619Y-50004285D01*
X223780000Y-49956666D01*
X223732380Y-49861428D01*
X223732380Y-49670952D01*
X223780000Y-49575714D01*
X223827619Y-49528095D01*
X223922857Y-49480476D01*
X224160952Y-49480476D01*
X224256190Y-49528095D01*
X224303809Y-49575714D01*
X224351428Y-49670952D01*
X224351428Y-49861428D01*
X224303809Y-49956666D01*
X224256190Y-50004285D01*
X224160952Y-50051904D01*
%TO.C,D15*%
X110432380Y-47575714D02*
X109432380Y-47575714D01*
X109432380Y-47813809D01*
X109480000Y-47956666D01*
X109575238Y-48051904D01*
X109670476Y-48099523D01*
X109860952Y-48147142D01*
X110003809Y-48147142D01*
X110194285Y-48099523D01*
X110289523Y-48051904D01*
X110384761Y-47956666D01*
X110432380Y-47813809D01*
X110432380Y-47575714D01*
X110432380Y-49099523D02*
X110432380Y-48528095D01*
X110432380Y-48813809D02*
X109432380Y-48813809D01*
X109575238Y-48718571D01*
X109670476Y-48623333D01*
X109718095Y-48528095D01*
X109432380Y-50004285D02*
X109432380Y-49528095D01*
X109908571Y-49480476D01*
X109860952Y-49528095D01*
X109813333Y-49623333D01*
X109813333Y-49861428D01*
X109860952Y-49956666D01*
X109908571Y-50004285D01*
X110003809Y-50051904D01*
X110241904Y-50051904D01*
X110337142Y-50004285D01*
X110384761Y-49956666D01*
X110432380Y-49861428D01*
X110432380Y-49623333D01*
X110384761Y-49528095D01*
X110337142Y-49480476D01*
%TO.C,D26*%
X149294880Y-94281964D02*
X148294880Y-94281964D01*
X148294880Y-94520059D01*
X148342500Y-94662916D01*
X148437738Y-94758154D01*
X148532976Y-94805773D01*
X148723452Y-94853392D01*
X148866309Y-94853392D01*
X149056785Y-94805773D01*
X149152023Y-94758154D01*
X149247261Y-94662916D01*
X149294880Y-94520059D01*
X149294880Y-94281964D01*
X148390119Y-95234345D02*
X148342500Y-95281964D01*
X148294880Y-95377202D01*
X148294880Y-95615297D01*
X148342500Y-95710535D01*
X148390119Y-95758154D01*
X148485357Y-95805773D01*
X148580595Y-95805773D01*
X148723452Y-95758154D01*
X149294880Y-95186726D01*
X149294880Y-95805773D01*
X148294880Y-96662916D02*
X148294880Y-96472440D01*
X148342500Y-96377202D01*
X148390119Y-96329583D01*
X148532976Y-96234345D01*
X148723452Y-96186726D01*
X149104404Y-96186726D01*
X149199642Y-96234345D01*
X149247261Y-96281964D01*
X149294880Y-96377202D01*
X149294880Y-96567678D01*
X149247261Y-96662916D01*
X149199642Y-96710535D01*
X149104404Y-96758154D01*
X148866309Y-96758154D01*
X148771071Y-96710535D01*
X148723452Y-96662916D01*
X148675833Y-96567678D01*
X148675833Y-96377202D01*
X148723452Y-96281964D01*
X148771071Y-96234345D01*
X148866309Y-96186726D01*
%TO.C,D4*%
X53282380Y-47989404D02*
X52282380Y-47989404D01*
X52282380Y-48227500D01*
X52330000Y-48370357D01*
X52425238Y-48465595D01*
X52520476Y-48513214D01*
X52710952Y-48560833D01*
X52853809Y-48560833D01*
X53044285Y-48513214D01*
X53139523Y-48465595D01*
X53234761Y-48370357D01*
X53282380Y-48227500D01*
X53282380Y-47989404D01*
X52615714Y-49417976D02*
X53282380Y-49417976D01*
X52234761Y-49179880D02*
X52949047Y-48941785D01*
X52949047Y-49560833D01*
%TO.C,R4*%
X123306666Y-88842380D02*
X123640000Y-88366190D01*
X123878095Y-88842380D02*
X123878095Y-87842380D01*
X123497142Y-87842380D01*
X123401904Y-87890000D01*
X123354285Y-87937619D01*
X123306666Y-88032857D01*
X123306666Y-88175714D01*
X123354285Y-88270952D01*
X123401904Y-88318571D01*
X123497142Y-88366190D01*
X123878095Y-88366190D01*
X122449523Y-88175714D02*
X122449523Y-88842380D01*
X122687619Y-87794761D02*
X122925714Y-88509047D01*
X122306666Y-88509047D01*
%TO.C,C4*%
X89990892Y-54868333D02*
X90038511Y-54820714D01*
X90086130Y-54677857D01*
X90086130Y-54582619D01*
X90038511Y-54439761D01*
X89943273Y-54344523D01*
X89848035Y-54296904D01*
X89657559Y-54249285D01*
X89514702Y-54249285D01*
X89324226Y-54296904D01*
X89228988Y-54344523D01*
X89133750Y-54439761D01*
X89086130Y-54582619D01*
X89086130Y-54677857D01*
X89133750Y-54820714D01*
X89181369Y-54868333D01*
X89419464Y-55725476D02*
X90086130Y-55725476D01*
X89038511Y-55487380D02*
X89752797Y-55249285D01*
X89752797Y-55868333D01*
%TO.C,D10*%
X52488630Y-104663214D02*
X51488630Y-104663214D01*
X51488630Y-104901309D01*
X51536250Y-105044166D01*
X51631488Y-105139404D01*
X51726726Y-105187023D01*
X51917202Y-105234642D01*
X52060059Y-105234642D01*
X52250535Y-105187023D01*
X52345773Y-105139404D01*
X52441011Y-105044166D01*
X52488630Y-104901309D01*
X52488630Y-104663214D01*
X52488630Y-106187023D02*
X52488630Y-105615595D01*
X52488630Y-105901309D02*
X51488630Y-105901309D01*
X51631488Y-105806071D01*
X51726726Y-105710833D01*
X51774345Y-105615595D01*
X51488630Y-106806071D02*
X51488630Y-106901309D01*
X51536250Y-106996547D01*
X51583869Y-107044166D01*
X51679107Y-107091785D01*
X51869583Y-107139404D01*
X52107678Y-107139404D01*
X52298154Y-107091785D01*
X52393392Y-107044166D01*
X52441011Y-106996547D01*
X52488630Y-106901309D01*
X52488630Y-106806071D01*
X52441011Y-106710833D01*
X52393392Y-106663214D01*
X52298154Y-106615595D01*
X52107678Y-106567976D01*
X51869583Y-106567976D01*
X51679107Y-106615595D01*
X51583869Y-106663214D01*
X51536250Y-106710833D01*
X51488630Y-106806071D01*
%TO.C,D24*%
X153294880Y-67356964D02*
X152294880Y-67356964D01*
X152294880Y-67595059D01*
X152342500Y-67737916D01*
X152437738Y-67833154D01*
X152532976Y-67880773D01*
X152723452Y-67928392D01*
X152866309Y-67928392D01*
X153056785Y-67880773D01*
X153152023Y-67833154D01*
X153247261Y-67737916D01*
X153294880Y-67595059D01*
X153294880Y-67356964D01*
X152390119Y-68309345D02*
X152342500Y-68356964D01*
X152294880Y-68452202D01*
X152294880Y-68690297D01*
X152342500Y-68785535D01*
X152390119Y-68833154D01*
X152485357Y-68880773D01*
X152580595Y-68880773D01*
X152723452Y-68833154D01*
X153294880Y-68261726D01*
X153294880Y-68880773D01*
X152628214Y-69737916D02*
X153294880Y-69737916D01*
X152247261Y-69499821D02*
X152961547Y-69261726D01*
X152961547Y-69880773D01*
%TO.C,SW7*%
X124963333Y-82394761D02*
X124820476Y-82442380D01*
X124582380Y-82442380D01*
X124487142Y-82394761D01*
X124439523Y-82347142D01*
X124391904Y-82251904D01*
X124391904Y-82156666D01*
X124439523Y-82061428D01*
X124487142Y-82013809D01*
X124582380Y-81966190D01*
X124772857Y-81918571D01*
X124868095Y-81870952D01*
X124915714Y-81823333D01*
X124963333Y-81728095D01*
X124963333Y-81632857D01*
X124915714Y-81537619D01*
X124868095Y-81490000D01*
X124772857Y-81442380D01*
X124534761Y-81442380D01*
X124391904Y-81490000D01*
X124058571Y-81442380D02*
X123820476Y-82442380D01*
X123630000Y-81728095D01*
X123439523Y-82442380D01*
X123201428Y-81442380D01*
X122915714Y-81442380D02*
X122249047Y-81442380D01*
X122677619Y-82442380D01*
%TO.C,C5*%
X94064166Y-98284642D02*
X94111785Y-98332261D01*
X94254642Y-98379880D01*
X94349880Y-98379880D01*
X94492738Y-98332261D01*
X94587976Y-98237023D01*
X94635595Y-98141785D01*
X94683214Y-97951309D01*
X94683214Y-97808452D01*
X94635595Y-97617976D01*
X94587976Y-97522738D01*
X94492738Y-97427500D01*
X94349880Y-97379880D01*
X94254642Y-97379880D01*
X94111785Y-97427500D01*
X94064166Y-97475119D01*
X93159404Y-97379880D02*
X93635595Y-97379880D01*
X93683214Y-97856071D01*
X93635595Y-97808452D01*
X93540357Y-97760833D01*
X93302261Y-97760833D01*
X93207023Y-97808452D01*
X93159404Y-97856071D01*
X93111785Y-97951309D01*
X93111785Y-98189404D01*
X93159404Y-98284642D01*
X93207023Y-98332261D01*
X93302261Y-98379880D01*
X93540357Y-98379880D01*
X93635595Y-98332261D01*
X93683214Y-98284642D01*
%TO.C,D28*%
X172344880Y-67356964D02*
X171344880Y-67356964D01*
X171344880Y-67595059D01*
X171392500Y-67737916D01*
X171487738Y-67833154D01*
X171582976Y-67880773D01*
X171773452Y-67928392D01*
X171916309Y-67928392D01*
X172106785Y-67880773D01*
X172202023Y-67833154D01*
X172297261Y-67737916D01*
X172344880Y-67595059D01*
X172344880Y-67356964D01*
X171440119Y-68309345D02*
X171392500Y-68356964D01*
X171344880Y-68452202D01*
X171344880Y-68690297D01*
X171392500Y-68785535D01*
X171440119Y-68833154D01*
X171535357Y-68880773D01*
X171630595Y-68880773D01*
X171773452Y-68833154D01*
X172344880Y-68261726D01*
X172344880Y-68880773D01*
X171773452Y-69452202D02*
X171725833Y-69356964D01*
X171678214Y-69309345D01*
X171582976Y-69261726D01*
X171535357Y-69261726D01*
X171440119Y-69309345D01*
X171392500Y-69356964D01*
X171344880Y-69452202D01*
X171344880Y-69642678D01*
X171392500Y-69737916D01*
X171440119Y-69785535D01*
X171535357Y-69833154D01*
X171582976Y-69833154D01*
X171678214Y-69785535D01*
X171725833Y-69737916D01*
X171773452Y-69642678D01*
X171773452Y-69452202D01*
X171821071Y-69356964D01*
X171868690Y-69309345D01*
X171963928Y-69261726D01*
X172154404Y-69261726D01*
X172249642Y-69309345D01*
X172297261Y-69356964D01*
X172344880Y-69452202D01*
X172344880Y-69642678D01*
X172297261Y-69737916D01*
X172249642Y-69785535D01*
X172154404Y-69833154D01*
X171963928Y-69833154D01*
X171868690Y-69785535D01*
X171821071Y-69737916D01*
X171773452Y-69642678D01*
%TO.C,D49*%
X273944880Y-86406964D02*
X272944880Y-86406964D01*
X272944880Y-86645059D01*
X272992500Y-86787916D01*
X273087738Y-86883154D01*
X273182976Y-86930773D01*
X273373452Y-86978392D01*
X273516309Y-86978392D01*
X273706785Y-86930773D01*
X273802023Y-86883154D01*
X273897261Y-86787916D01*
X273944880Y-86645059D01*
X273944880Y-86406964D01*
X273278214Y-87835535D02*
X273944880Y-87835535D01*
X272897261Y-87597440D02*
X273611547Y-87359345D01*
X273611547Y-87978392D01*
X273944880Y-88406964D02*
X273944880Y-88597440D01*
X273897261Y-88692678D01*
X273849642Y-88740297D01*
X273706785Y-88835535D01*
X273516309Y-88883154D01*
X273135357Y-88883154D01*
X273040119Y-88835535D01*
X272992500Y-88787916D01*
X272944880Y-88692678D01*
X272944880Y-88502202D01*
X272992500Y-88406964D01*
X273040119Y-88359345D01*
X273135357Y-88311726D01*
X273373452Y-88311726D01*
X273468690Y-88359345D01*
X273516309Y-88406964D01*
X273563928Y-88502202D01*
X273563928Y-88692678D01*
X273516309Y-88787916D01*
X273468690Y-88835535D01*
X273373452Y-88883154D01*
%TO.C,D3*%
X38074345Y-82898630D02*
X38074345Y-81898630D01*
X37836250Y-81898630D01*
X37693392Y-81946250D01*
X37598154Y-82041488D01*
X37550535Y-82136726D01*
X37502916Y-82327202D01*
X37502916Y-82470059D01*
X37550535Y-82660535D01*
X37598154Y-82755773D01*
X37693392Y-82851011D01*
X37836250Y-82898630D01*
X38074345Y-82898630D01*
X37169583Y-81898630D02*
X36550535Y-81898630D01*
X36883869Y-82279583D01*
X36741011Y-82279583D01*
X36645773Y-82327202D01*
X36598154Y-82374821D01*
X36550535Y-82470059D01*
X36550535Y-82708154D01*
X36598154Y-82803392D01*
X36645773Y-82851011D01*
X36741011Y-82898630D01*
X37026726Y-82898630D01*
X37121964Y-82851011D01*
X37169583Y-82803392D01*
%TO.C,D17*%
X119926130Y-78469464D02*
X118926130Y-78469464D01*
X118926130Y-78707559D01*
X118973750Y-78850416D01*
X119068988Y-78945654D01*
X119164226Y-78993273D01*
X119354702Y-79040892D01*
X119497559Y-79040892D01*
X119688035Y-78993273D01*
X119783273Y-78945654D01*
X119878511Y-78850416D01*
X119926130Y-78707559D01*
X119926130Y-78469464D01*
X119926130Y-79993273D02*
X119926130Y-79421845D01*
X119926130Y-79707559D02*
X118926130Y-79707559D01*
X119068988Y-79612321D01*
X119164226Y-79517083D01*
X119211845Y-79421845D01*
X118926130Y-80326607D02*
X118926130Y-80993273D01*
X119926130Y-80564702D01*
%TO.C,D47*%
X262832380Y-47450714D02*
X261832380Y-47450714D01*
X261832380Y-47688809D01*
X261880000Y-47831666D01*
X261975238Y-47926904D01*
X262070476Y-47974523D01*
X262260952Y-48022142D01*
X262403809Y-48022142D01*
X262594285Y-47974523D01*
X262689523Y-47926904D01*
X262784761Y-47831666D01*
X262832380Y-47688809D01*
X262832380Y-47450714D01*
X262165714Y-48879285D02*
X262832380Y-48879285D01*
X261784761Y-48641190D02*
X262499047Y-48403095D01*
X262499047Y-49022142D01*
X261832380Y-49307857D02*
X261832380Y-49974523D01*
X262832380Y-49545952D01*
%TO.C,D42*%
X261477380Y-104535714D02*
X260477380Y-104535714D01*
X260477380Y-104773809D01*
X260525000Y-104916666D01*
X260620238Y-105011904D01*
X260715476Y-105059523D01*
X260905952Y-105107142D01*
X261048809Y-105107142D01*
X261239285Y-105059523D01*
X261334523Y-105011904D01*
X261429761Y-104916666D01*
X261477380Y-104773809D01*
X261477380Y-104535714D01*
X260810714Y-105964285D02*
X261477380Y-105964285D01*
X260429761Y-105726190D02*
X261144047Y-105488095D01*
X261144047Y-106107142D01*
X260572619Y-106440476D02*
X260525000Y-106488095D01*
X260477380Y-106583333D01*
X260477380Y-106821428D01*
X260525000Y-106916666D01*
X260572619Y-106964285D01*
X260667857Y-107011904D01*
X260763095Y-107011904D01*
X260905952Y-106964285D01*
X261477380Y-106392857D01*
X261477380Y-107011904D01*
%TO.C,D50*%
X285851130Y-47575714D02*
X284851130Y-47575714D01*
X284851130Y-47813809D01*
X284898750Y-47956666D01*
X284993988Y-48051904D01*
X285089226Y-48099523D01*
X285279702Y-48147142D01*
X285422559Y-48147142D01*
X285613035Y-48099523D01*
X285708273Y-48051904D01*
X285803511Y-47956666D01*
X285851130Y-47813809D01*
X285851130Y-47575714D01*
X284851130Y-49051904D02*
X284851130Y-48575714D01*
X285327321Y-48528095D01*
X285279702Y-48575714D01*
X285232083Y-48670952D01*
X285232083Y-48909047D01*
X285279702Y-49004285D01*
X285327321Y-49051904D01*
X285422559Y-49099523D01*
X285660654Y-49099523D01*
X285755892Y-49051904D01*
X285803511Y-49004285D01*
X285851130Y-48909047D01*
X285851130Y-48670952D01*
X285803511Y-48575714D01*
X285755892Y-48528095D01*
X284851130Y-49718571D02*
X284851130Y-49813809D01*
X284898750Y-49909047D01*
X284946369Y-49956666D01*
X285041607Y-50004285D01*
X285232083Y-50051904D01*
X285470178Y-50051904D01*
X285660654Y-50004285D01*
X285755892Y-49956666D01*
X285803511Y-49909047D01*
X285851130Y-49813809D01*
X285851130Y-49718571D01*
X285803511Y-49623333D01*
X285755892Y-49575714D01*
X285660654Y-49528095D01*
X285470178Y-49480476D01*
X285232083Y-49480476D01*
X285041607Y-49528095D01*
X284946369Y-49575714D01*
X284898750Y-49623333D01*
X284851130Y-49718571D01*
%TO.C,D8*%
X77094880Y-67833154D02*
X76094880Y-67833154D01*
X76094880Y-68071250D01*
X76142500Y-68214107D01*
X76237738Y-68309345D01*
X76332976Y-68356964D01*
X76523452Y-68404583D01*
X76666309Y-68404583D01*
X76856785Y-68356964D01*
X76952023Y-68309345D01*
X77047261Y-68214107D01*
X77094880Y-68071250D01*
X77094880Y-67833154D01*
X76523452Y-68976011D02*
X76475833Y-68880773D01*
X76428214Y-68833154D01*
X76332976Y-68785535D01*
X76285357Y-68785535D01*
X76190119Y-68833154D01*
X76142500Y-68880773D01*
X76094880Y-68976011D01*
X76094880Y-69166488D01*
X76142500Y-69261726D01*
X76190119Y-69309345D01*
X76285357Y-69356964D01*
X76332976Y-69356964D01*
X76428214Y-69309345D01*
X76475833Y-69261726D01*
X76523452Y-69166488D01*
X76523452Y-68976011D01*
X76571071Y-68880773D01*
X76618690Y-68833154D01*
X76713928Y-68785535D01*
X76904404Y-68785535D01*
X76999642Y-68833154D01*
X77047261Y-68880773D01*
X77094880Y-68976011D01*
X77094880Y-69166488D01*
X77047261Y-69261726D01*
X76999642Y-69309345D01*
X76904404Y-69356964D01*
X76713928Y-69356964D01*
X76618690Y-69309345D01*
X76571071Y-69261726D01*
X76523452Y-69166488D01*
%TO.C,R5*%
X102249880Y-109060833D02*
X101773690Y-108727500D01*
X102249880Y-108489404D02*
X101249880Y-108489404D01*
X101249880Y-108870357D01*
X101297500Y-108965595D01*
X101345119Y-109013214D01*
X101440357Y-109060833D01*
X101583214Y-109060833D01*
X101678452Y-109013214D01*
X101726071Y-108965595D01*
X101773690Y-108870357D01*
X101773690Y-108489404D01*
X101249880Y-109965595D02*
X101249880Y-109489404D01*
X101726071Y-109441785D01*
X101678452Y-109489404D01*
X101630833Y-109584642D01*
X101630833Y-109822738D01*
X101678452Y-109917976D01*
X101726071Y-109965595D01*
X101821309Y-110013214D01*
X102059404Y-110013214D01*
X102154642Y-109965595D01*
X102202261Y-109917976D01*
X102249880Y-109822738D01*
X102249880Y-109584642D01*
X102202261Y-109489404D01*
X102154642Y-109441785D01*
%TO.C,D48*%
X279501130Y-67356964D02*
X278501130Y-67356964D01*
X278501130Y-67595059D01*
X278548750Y-67737916D01*
X278643988Y-67833154D01*
X278739226Y-67880773D01*
X278929702Y-67928392D01*
X279072559Y-67928392D01*
X279263035Y-67880773D01*
X279358273Y-67833154D01*
X279453511Y-67737916D01*
X279501130Y-67595059D01*
X279501130Y-67356964D01*
X278834464Y-68785535D02*
X279501130Y-68785535D01*
X278453511Y-68547440D02*
X279167797Y-68309345D01*
X279167797Y-68928392D01*
X278929702Y-69452202D02*
X278882083Y-69356964D01*
X278834464Y-69309345D01*
X278739226Y-69261726D01*
X278691607Y-69261726D01*
X278596369Y-69309345D01*
X278548750Y-69356964D01*
X278501130Y-69452202D01*
X278501130Y-69642678D01*
X278548750Y-69737916D01*
X278596369Y-69785535D01*
X278691607Y-69833154D01*
X278739226Y-69833154D01*
X278834464Y-69785535D01*
X278882083Y-69737916D01*
X278929702Y-69642678D01*
X278929702Y-69452202D01*
X278977321Y-69356964D01*
X279024940Y-69309345D01*
X279120178Y-69261726D01*
X279310654Y-69261726D01*
X279405892Y-69309345D01*
X279453511Y-69356964D01*
X279501130Y-69452202D01*
X279501130Y-69642678D01*
X279453511Y-69737916D01*
X279405892Y-69785535D01*
X279310654Y-69833154D01*
X279120178Y-69833154D01*
X279024940Y-69785535D01*
X278977321Y-69737916D01*
X278929702Y-69642678D01*
%TO.C,D34*%
X214413630Y-104600714D02*
X213413630Y-104600714D01*
X213413630Y-104838809D01*
X213461250Y-104981666D01*
X213556488Y-105076904D01*
X213651726Y-105124523D01*
X213842202Y-105172142D01*
X213985059Y-105172142D01*
X214175535Y-105124523D01*
X214270773Y-105076904D01*
X214366011Y-104981666D01*
X214413630Y-104838809D01*
X214413630Y-104600714D01*
X213413630Y-105505476D02*
X213413630Y-106124523D01*
X213794583Y-105791190D01*
X213794583Y-105934047D01*
X213842202Y-106029285D01*
X213889821Y-106076904D01*
X213985059Y-106124523D01*
X214223154Y-106124523D01*
X214318392Y-106076904D01*
X214366011Y-106029285D01*
X214413630Y-105934047D01*
X214413630Y-105648333D01*
X214366011Y-105553095D01*
X214318392Y-105505476D01*
X213746964Y-106981666D02*
X214413630Y-106981666D01*
X213366011Y-106743571D02*
X214080297Y-106505476D01*
X214080297Y-107124523D01*
%TO.C,D30*%
X173107380Y-98375714D02*
X172107380Y-98375714D01*
X172107380Y-98613809D01*
X172155000Y-98756666D01*
X172250238Y-98851904D01*
X172345476Y-98899523D01*
X172535952Y-98947142D01*
X172678809Y-98947142D01*
X172869285Y-98899523D01*
X172964523Y-98851904D01*
X173059761Y-98756666D01*
X173107380Y-98613809D01*
X173107380Y-98375714D01*
X172107380Y-99280476D02*
X172107380Y-99899523D01*
X172488333Y-99566190D01*
X172488333Y-99709047D01*
X172535952Y-99804285D01*
X172583571Y-99851904D01*
X172678809Y-99899523D01*
X172916904Y-99899523D01*
X173012142Y-99851904D01*
X173059761Y-99804285D01*
X173107380Y-99709047D01*
X173107380Y-99423333D01*
X173059761Y-99328095D01*
X173012142Y-99280476D01*
X172107380Y-100518571D02*
X172107380Y-100613809D01*
X172155000Y-100709047D01*
X172202619Y-100756666D01*
X172297857Y-100804285D01*
X172488333Y-100851904D01*
X172726428Y-100851904D01*
X172916904Y-100804285D01*
X173012142Y-100756666D01*
X173059761Y-100709047D01*
X173107380Y-100613809D01*
X173107380Y-100518571D01*
X173059761Y-100423333D01*
X173012142Y-100375714D01*
X172916904Y-100328095D01*
X172726428Y-100280476D01*
X172488333Y-100280476D01*
X172297857Y-100328095D01*
X172202619Y-100375714D01*
X172155000Y-100423333D01*
X172107380Y-100518571D01*
%TO.C,U2*%
X118049404Y-88174880D02*
X118049404Y-88984404D01*
X118001785Y-89079642D01*
X117954166Y-89127261D01*
X117858928Y-89174880D01*
X117668452Y-89174880D01*
X117573214Y-89127261D01*
X117525595Y-89079642D01*
X117477976Y-88984404D01*
X117477976Y-88174880D01*
X117049404Y-88270119D02*
X117001785Y-88222500D01*
X116906547Y-88174880D01*
X116668452Y-88174880D01*
X116573214Y-88222500D01*
X116525595Y-88270119D01*
X116477976Y-88365357D01*
X116477976Y-88460595D01*
X116525595Y-88603452D01*
X117097023Y-89174880D01*
X116477976Y-89174880D01*
%TO.C,D23*%
X148532380Y-47575714D02*
X147532380Y-47575714D01*
X147532380Y-47813809D01*
X147580000Y-47956666D01*
X147675238Y-48051904D01*
X147770476Y-48099523D01*
X147960952Y-48147142D01*
X148103809Y-48147142D01*
X148294285Y-48099523D01*
X148389523Y-48051904D01*
X148484761Y-47956666D01*
X148532380Y-47813809D01*
X148532380Y-47575714D01*
X147627619Y-48528095D02*
X147580000Y-48575714D01*
X147532380Y-48670952D01*
X147532380Y-48909047D01*
X147580000Y-49004285D01*
X147627619Y-49051904D01*
X147722857Y-49099523D01*
X147818095Y-49099523D01*
X147960952Y-49051904D01*
X148532380Y-48480476D01*
X148532380Y-49099523D01*
X147532380Y-49432857D02*
X147532380Y-50051904D01*
X147913333Y-49718571D01*
X147913333Y-49861428D01*
X147960952Y-49956666D01*
X148008571Y-50004285D01*
X148103809Y-50051904D01*
X148341904Y-50051904D01*
X148437142Y-50004285D01*
X148484761Y-49956666D01*
X148532380Y-49861428D01*
X148532380Y-49575714D01*
X148484761Y-49480476D01*
X148437142Y-49432857D01*
%TO.C,D41*%
X238226130Y-86406964D02*
X237226130Y-86406964D01*
X237226130Y-86645059D01*
X237273750Y-86787916D01*
X237368988Y-86883154D01*
X237464226Y-86930773D01*
X237654702Y-86978392D01*
X237797559Y-86978392D01*
X237988035Y-86930773D01*
X238083273Y-86883154D01*
X238178511Y-86787916D01*
X238226130Y-86645059D01*
X238226130Y-86406964D01*
X237559464Y-87835535D02*
X238226130Y-87835535D01*
X237178511Y-87597440D02*
X237892797Y-87359345D01*
X237892797Y-87978392D01*
X238226130Y-88883154D02*
X238226130Y-88311726D01*
X238226130Y-88597440D02*
X237226130Y-88597440D01*
X237368988Y-88502202D01*
X237464226Y-88406964D01*
X237511845Y-88311726D01*
%TO.C,D9*%
X82619880Y-78151904D02*
X81619880Y-78151904D01*
X81619880Y-78390000D01*
X81667500Y-78532857D01*
X81762738Y-78628095D01*
X81857976Y-78675714D01*
X82048452Y-78723333D01*
X82191309Y-78723333D01*
X82381785Y-78675714D01*
X82477023Y-78628095D01*
X82572261Y-78532857D01*
X82619880Y-78390000D01*
X82619880Y-78151904D01*
X82619880Y-79199523D02*
X82619880Y-79390000D01*
X82572261Y-79485238D01*
X82524642Y-79532857D01*
X82381785Y-79628095D01*
X82191309Y-79675714D01*
X81810357Y-79675714D01*
X81715119Y-79628095D01*
X81667500Y-79580476D01*
X81619880Y-79485238D01*
X81619880Y-79294761D01*
X81667500Y-79199523D01*
X81715119Y-79151904D01*
X81810357Y-79104285D01*
X82048452Y-79104285D01*
X82143690Y-79151904D01*
X82191309Y-79199523D01*
X82238928Y-79294761D01*
X82238928Y-79485238D01*
X82191309Y-79580476D01*
X82143690Y-79628095D01*
X82048452Y-79675714D01*
%TO.C,D12*%
X96144880Y-67356964D02*
X95144880Y-67356964D01*
X95144880Y-67595059D01*
X95192500Y-67737916D01*
X95287738Y-67833154D01*
X95382976Y-67880773D01*
X95573452Y-67928392D01*
X95716309Y-67928392D01*
X95906785Y-67880773D01*
X96002023Y-67833154D01*
X96097261Y-67737916D01*
X96144880Y-67595059D01*
X96144880Y-67356964D01*
X96144880Y-68880773D02*
X96144880Y-68309345D01*
X96144880Y-68595059D02*
X95144880Y-68595059D01*
X95287738Y-68499821D01*
X95382976Y-68404583D01*
X95430595Y-68309345D01*
X95240119Y-69261726D02*
X95192500Y-69309345D01*
X95144880Y-69404583D01*
X95144880Y-69642678D01*
X95192500Y-69737916D01*
X95240119Y-69785535D01*
X95335357Y-69833154D01*
X95430595Y-69833154D01*
X95573452Y-69785535D01*
X96144880Y-69214107D01*
X96144880Y-69833154D01*
%TO.C,U3*%
X95171904Y-57669880D02*
X95171904Y-58479404D01*
X95124285Y-58574642D01*
X95076666Y-58622261D01*
X94981428Y-58669880D01*
X94790952Y-58669880D01*
X94695714Y-58622261D01*
X94648095Y-58574642D01*
X94600476Y-58479404D01*
X94600476Y-57669880D01*
X94219523Y-57669880D02*
X93600476Y-57669880D01*
X93933809Y-58050833D01*
X93790952Y-58050833D01*
X93695714Y-58098452D01*
X93648095Y-58146071D01*
X93600476Y-58241309D01*
X93600476Y-58479404D01*
X93648095Y-58574642D01*
X93695714Y-58622261D01*
X93790952Y-58669880D01*
X94076666Y-58669880D01*
X94171904Y-58622261D01*
X94219523Y-58574642D01*
%TO.C,D43*%
X243782380Y-47513214D02*
X242782380Y-47513214D01*
X242782380Y-47751309D01*
X242830000Y-47894166D01*
X242925238Y-47989404D01*
X243020476Y-48037023D01*
X243210952Y-48084642D01*
X243353809Y-48084642D01*
X243544285Y-48037023D01*
X243639523Y-47989404D01*
X243734761Y-47894166D01*
X243782380Y-47751309D01*
X243782380Y-47513214D01*
X243115714Y-48941785D02*
X243782380Y-48941785D01*
X242734761Y-48703690D02*
X243449047Y-48465595D01*
X243449047Y-49084642D01*
X242782380Y-49370357D02*
X242782380Y-49989404D01*
X243163333Y-49656071D01*
X243163333Y-49798928D01*
X243210952Y-49894166D01*
X243258571Y-49941785D01*
X243353809Y-49989404D01*
X243591904Y-49989404D01*
X243687142Y-49941785D01*
X243734761Y-49894166D01*
X243782380Y-49798928D01*
X243782380Y-49513214D01*
X243734761Y-49417976D01*
X243687142Y-49370357D01*
%TO.C,C2*%
X97587142Y-109233333D02*
X97634761Y-109185714D01*
X97682380Y-109042857D01*
X97682380Y-108947619D01*
X97634761Y-108804761D01*
X97539523Y-108709523D01*
X97444285Y-108661904D01*
X97253809Y-108614285D01*
X97110952Y-108614285D01*
X96920476Y-108661904D01*
X96825238Y-108709523D01*
X96730000Y-108804761D01*
X96682380Y-108947619D01*
X96682380Y-109042857D01*
X96730000Y-109185714D01*
X96777619Y-109233333D01*
X96777619Y-109614285D02*
X96730000Y-109661904D01*
X96682380Y-109757142D01*
X96682380Y-109995238D01*
X96730000Y-110090476D01*
X96777619Y-110138095D01*
X96872857Y-110185714D01*
X96968095Y-110185714D01*
X97110952Y-110138095D01*
X97682380Y-109566666D01*
X97682380Y-110185714D01*
%TO.C,C15*%
X93324642Y-54728392D02*
X93372261Y-54680773D01*
X93419880Y-54537916D01*
X93419880Y-54442678D01*
X93372261Y-54299821D01*
X93277023Y-54204583D01*
X93181785Y-54156964D01*
X92991309Y-54109345D01*
X92848452Y-54109345D01*
X92657976Y-54156964D01*
X92562738Y-54204583D01*
X92467500Y-54299821D01*
X92419880Y-54442678D01*
X92419880Y-54537916D01*
X92467500Y-54680773D01*
X92515119Y-54728392D01*
X93419880Y-55680773D02*
X93419880Y-55109345D01*
X93419880Y-55395059D02*
X92419880Y-55395059D01*
X92562738Y-55299821D01*
X92657976Y-55204583D01*
X92705595Y-55109345D01*
X92419880Y-56585535D02*
X92419880Y-56109345D01*
X92896071Y-56061726D01*
X92848452Y-56109345D01*
X92800833Y-56204583D01*
X92800833Y-56442678D01*
X92848452Y-56537916D01*
X92896071Y-56585535D01*
X92991309Y-56633154D01*
X93229404Y-56633154D01*
X93324642Y-56585535D01*
X93372261Y-56537916D01*
X93419880Y-56442678D01*
X93419880Y-56204583D01*
X93372261Y-56109345D01*
X93324642Y-56061726D01*
%TO.C,D29*%
X181869880Y-86344464D02*
X180869880Y-86344464D01*
X180869880Y-86582559D01*
X180917500Y-86725416D01*
X181012738Y-86820654D01*
X181107976Y-86868273D01*
X181298452Y-86915892D01*
X181441309Y-86915892D01*
X181631785Y-86868273D01*
X181727023Y-86820654D01*
X181822261Y-86725416D01*
X181869880Y-86582559D01*
X181869880Y-86344464D01*
X180965119Y-87296845D02*
X180917500Y-87344464D01*
X180869880Y-87439702D01*
X180869880Y-87677797D01*
X180917500Y-87773035D01*
X180965119Y-87820654D01*
X181060357Y-87868273D01*
X181155595Y-87868273D01*
X181298452Y-87820654D01*
X181869880Y-87249226D01*
X181869880Y-87868273D01*
X181869880Y-88344464D02*
X181869880Y-88534940D01*
X181822261Y-88630178D01*
X181774642Y-88677797D01*
X181631785Y-88773035D01*
X181441309Y-88820654D01*
X181060357Y-88820654D01*
X180965119Y-88773035D01*
X180917500Y-88725416D01*
X180869880Y-88630178D01*
X180869880Y-88439702D01*
X180917500Y-88344464D01*
X180965119Y-88296845D01*
X181060357Y-88249226D01*
X181298452Y-88249226D01*
X181393690Y-88296845D01*
X181441309Y-88344464D01*
X181488928Y-88439702D01*
X181488928Y-88630178D01*
X181441309Y-88725416D01*
X181393690Y-88773035D01*
X181298452Y-88820654D01*
%TO.C,C7*%
X94071666Y-99313392D02*
X94119285Y-99361011D01*
X94262142Y-99408630D01*
X94357380Y-99408630D01*
X94500238Y-99361011D01*
X94595476Y-99265773D01*
X94643095Y-99170535D01*
X94690714Y-98980059D01*
X94690714Y-98837202D01*
X94643095Y-98646726D01*
X94595476Y-98551488D01*
X94500238Y-98456250D01*
X94357380Y-98408630D01*
X94262142Y-98408630D01*
X94119285Y-98456250D01*
X94071666Y-98503869D01*
X93738333Y-98408630D02*
X93071666Y-98408630D01*
X93500238Y-99408630D01*
%TO.C,C10*%
X93322857Y-103007142D02*
X93370476Y-103054761D01*
X93513333Y-103102380D01*
X93608571Y-103102380D01*
X93751428Y-103054761D01*
X93846666Y-102959523D01*
X93894285Y-102864285D01*
X93941904Y-102673809D01*
X93941904Y-102530952D01*
X93894285Y-102340476D01*
X93846666Y-102245238D01*
X93751428Y-102150000D01*
X93608571Y-102102380D01*
X93513333Y-102102380D01*
X93370476Y-102150000D01*
X93322857Y-102197619D01*
X92370476Y-103102380D02*
X92941904Y-103102380D01*
X92656190Y-103102380D02*
X92656190Y-102102380D01*
X92751428Y-102245238D01*
X92846666Y-102340476D01*
X92941904Y-102388095D01*
X91751428Y-102102380D02*
X91656190Y-102102380D01*
X91560952Y-102150000D01*
X91513333Y-102197619D01*
X91465714Y-102292857D01*
X91418095Y-102483333D01*
X91418095Y-102721428D01*
X91465714Y-102911904D01*
X91513333Y-103007142D01*
X91560952Y-103054761D01*
X91656190Y-103102380D01*
X91751428Y-103102380D01*
X91846666Y-103054761D01*
X91894285Y-103007142D01*
X91941904Y-102911904D01*
X91989523Y-102721428D01*
X91989523Y-102483333D01*
X91941904Y-102292857D01*
X91894285Y-102197619D01*
X91846666Y-102150000D01*
X91751428Y-102102380D01*
%TO.C,Y1*%
X102813690Y-114653690D02*
X102813690Y-115129880D01*
X103147023Y-114129880D02*
X102813690Y-114653690D01*
X102480357Y-114129880D01*
X101623214Y-115129880D02*
X102194642Y-115129880D01*
X101908928Y-115129880D02*
X101908928Y-114129880D01*
X102004166Y-114272738D01*
X102099404Y-114367976D01*
X102194642Y-114415595D01*
%TO.C,D36*%
X210444880Y-67294464D02*
X209444880Y-67294464D01*
X209444880Y-67532559D01*
X209492500Y-67675416D01*
X209587738Y-67770654D01*
X209682976Y-67818273D01*
X209873452Y-67865892D01*
X210016309Y-67865892D01*
X210206785Y-67818273D01*
X210302023Y-67770654D01*
X210397261Y-67675416D01*
X210444880Y-67532559D01*
X210444880Y-67294464D01*
X209444880Y-68199226D02*
X209444880Y-68818273D01*
X209825833Y-68484940D01*
X209825833Y-68627797D01*
X209873452Y-68723035D01*
X209921071Y-68770654D01*
X210016309Y-68818273D01*
X210254404Y-68818273D01*
X210349642Y-68770654D01*
X210397261Y-68723035D01*
X210444880Y-68627797D01*
X210444880Y-68342083D01*
X210397261Y-68246845D01*
X210349642Y-68199226D01*
X209444880Y-69675416D02*
X209444880Y-69484940D01*
X209492500Y-69389702D01*
X209540119Y-69342083D01*
X209682976Y-69246845D01*
X209873452Y-69199226D01*
X210254404Y-69199226D01*
X210349642Y-69246845D01*
X210397261Y-69294464D01*
X210444880Y-69389702D01*
X210444880Y-69580178D01*
X210397261Y-69675416D01*
X210349642Y-69723035D01*
X210254404Y-69770654D01*
X210016309Y-69770654D01*
X209921071Y-69723035D01*
X209873452Y-69675416D01*
X209825833Y-69580178D01*
X209825833Y-69389702D01*
X209873452Y-69294464D01*
X209921071Y-69246845D01*
X210016309Y-69199226D01*
%TO.C,R1*%
X115442380Y-72778333D02*
X114966190Y-72445000D01*
X115442380Y-72206904D02*
X114442380Y-72206904D01*
X114442380Y-72587857D01*
X114490000Y-72683095D01*
X114537619Y-72730714D01*
X114632857Y-72778333D01*
X114775714Y-72778333D01*
X114870952Y-72730714D01*
X114918571Y-72683095D01*
X114966190Y-72587857D01*
X114966190Y-72206904D01*
X115442380Y-73730714D02*
X115442380Y-73159285D01*
X115442380Y-73445000D02*
X114442380Y-73445000D01*
X114585238Y-73349761D01*
X114680476Y-73254523D01*
X114728095Y-73159285D01*
%TO.C,F1*%
X103687083Y-54148571D02*
X104020416Y-54148571D01*
X104020416Y-54672380D02*
X104020416Y-53672380D01*
X103544226Y-53672380D01*
X102639464Y-54672380D02*
X103210892Y-54672380D01*
X102925178Y-54672380D02*
X102925178Y-53672380D01*
X103020416Y-53815238D01*
X103115654Y-53910476D01*
X103210892Y-53958095D01*
%TO.C,C13*%
X106694642Y-97764642D02*
X106742261Y-97717023D01*
X106789880Y-97574166D01*
X106789880Y-97478928D01*
X106742261Y-97336071D01*
X106647023Y-97240833D01*
X106551785Y-97193214D01*
X106361309Y-97145595D01*
X106218452Y-97145595D01*
X106027976Y-97193214D01*
X105932738Y-97240833D01*
X105837500Y-97336071D01*
X105789880Y-97478928D01*
X105789880Y-97574166D01*
X105837500Y-97717023D01*
X105885119Y-97764642D01*
X106789880Y-98717023D02*
X106789880Y-98145595D01*
X106789880Y-98431309D02*
X105789880Y-98431309D01*
X105932738Y-98336071D01*
X106027976Y-98240833D01*
X106075595Y-98145595D01*
X105789880Y-99050357D02*
X105789880Y-99669404D01*
X106170833Y-99336071D01*
X106170833Y-99478928D01*
X106218452Y-99574166D01*
X106266071Y-99621785D01*
X106361309Y-99669404D01*
X106599404Y-99669404D01*
X106694642Y-99621785D01*
X106742261Y-99574166D01*
X106789880Y-99478928D01*
X106789880Y-99193214D01*
X106742261Y-99097976D01*
X106694642Y-99050357D01*
%TO.C,D25*%
X162026130Y-86406964D02*
X161026130Y-86406964D01*
X161026130Y-86645059D01*
X161073750Y-86787916D01*
X161168988Y-86883154D01*
X161264226Y-86930773D01*
X161454702Y-86978392D01*
X161597559Y-86978392D01*
X161788035Y-86930773D01*
X161883273Y-86883154D01*
X161978511Y-86787916D01*
X162026130Y-86645059D01*
X162026130Y-86406964D01*
X161121369Y-87359345D02*
X161073750Y-87406964D01*
X161026130Y-87502202D01*
X161026130Y-87740297D01*
X161073750Y-87835535D01*
X161121369Y-87883154D01*
X161216607Y-87930773D01*
X161311845Y-87930773D01*
X161454702Y-87883154D01*
X162026130Y-87311726D01*
X162026130Y-87930773D01*
X161026130Y-88835535D02*
X161026130Y-88359345D01*
X161502321Y-88311726D01*
X161454702Y-88359345D01*
X161407083Y-88454583D01*
X161407083Y-88692678D01*
X161454702Y-88787916D01*
X161502321Y-88835535D01*
X161597559Y-88883154D01*
X161835654Y-88883154D01*
X161930892Y-88835535D01*
X161978511Y-88787916D01*
X162026130Y-88692678D01*
X162026130Y-88454583D01*
X161978511Y-88359345D01*
X161930892Y-88311726D01*
%TO.C,D14*%
X76301130Y-104663214D02*
X75301130Y-104663214D01*
X75301130Y-104901309D01*
X75348750Y-105044166D01*
X75443988Y-105139404D01*
X75539226Y-105187023D01*
X75729702Y-105234642D01*
X75872559Y-105234642D01*
X76063035Y-105187023D01*
X76158273Y-105139404D01*
X76253511Y-105044166D01*
X76301130Y-104901309D01*
X76301130Y-104663214D01*
X76301130Y-106187023D02*
X76301130Y-105615595D01*
X76301130Y-105901309D02*
X75301130Y-105901309D01*
X75443988Y-105806071D01*
X75539226Y-105710833D01*
X75586845Y-105615595D01*
X75634464Y-107044166D02*
X76301130Y-107044166D01*
X75253511Y-106806071D02*
X75967797Y-106567976D01*
X75967797Y-107187023D01*
%TO.C,D52*%
X290613630Y-86406964D02*
X289613630Y-86406964D01*
X289613630Y-86645059D01*
X289661250Y-86787916D01*
X289756488Y-86883154D01*
X289851726Y-86930773D01*
X290042202Y-86978392D01*
X290185059Y-86978392D01*
X290375535Y-86930773D01*
X290470773Y-86883154D01*
X290566011Y-86787916D01*
X290613630Y-86645059D01*
X290613630Y-86406964D01*
X289613630Y-87883154D02*
X289613630Y-87406964D01*
X290089821Y-87359345D01*
X290042202Y-87406964D01*
X289994583Y-87502202D01*
X289994583Y-87740297D01*
X290042202Y-87835535D01*
X290089821Y-87883154D01*
X290185059Y-87930773D01*
X290423154Y-87930773D01*
X290518392Y-87883154D01*
X290566011Y-87835535D01*
X290613630Y-87740297D01*
X290613630Y-87502202D01*
X290566011Y-87406964D01*
X290518392Y-87359345D01*
X289708869Y-88311726D02*
X289661250Y-88359345D01*
X289613630Y-88454583D01*
X289613630Y-88692678D01*
X289661250Y-88787916D01*
X289708869Y-88835535D01*
X289804107Y-88883154D01*
X289899345Y-88883154D01*
X290042202Y-88835535D01*
X290613630Y-88264107D01*
X290613630Y-88883154D01*
%TO.C,C1*%
X101747142Y-94913333D02*
X101794761Y-94865714D01*
X101842380Y-94722857D01*
X101842380Y-94627619D01*
X101794761Y-94484761D01*
X101699523Y-94389523D01*
X101604285Y-94341904D01*
X101413809Y-94294285D01*
X101270952Y-94294285D01*
X101080476Y-94341904D01*
X100985238Y-94389523D01*
X100890000Y-94484761D01*
X100842380Y-94627619D01*
X100842380Y-94722857D01*
X100890000Y-94865714D01*
X100937619Y-94913333D01*
X101842380Y-95865714D02*
X101842380Y-95294285D01*
X101842380Y-95580000D02*
X100842380Y-95580000D01*
X100985238Y-95484761D01*
X101080476Y-95389523D01*
X101128095Y-95294285D01*
%TO.C,D6*%
X63569880Y-78151904D02*
X62569880Y-78151904D01*
X62569880Y-78390000D01*
X62617500Y-78532857D01*
X62712738Y-78628095D01*
X62807976Y-78675714D01*
X62998452Y-78723333D01*
X63141309Y-78723333D01*
X63331785Y-78675714D01*
X63427023Y-78628095D01*
X63522261Y-78532857D01*
X63569880Y-78390000D01*
X63569880Y-78151904D01*
X62569880Y-79580476D02*
X62569880Y-79390000D01*
X62617500Y-79294761D01*
X62665119Y-79247142D01*
X62807976Y-79151904D01*
X62998452Y-79104285D01*
X63379404Y-79104285D01*
X63474642Y-79151904D01*
X63522261Y-79199523D01*
X63569880Y-79294761D01*
X63569880Y-79485238D01*
X63522261Y-79580476D01*
X63474642Y-79628095D01*
X63379404Y-79675714D01*
X63141309Y-79675714D01*
X63046071Y-79628095D01*
X62998452Y-79580476D01*
X62950833Y-79485238D01*
X62950833Y-79294761D01*
X62998452Y-79199523D01*
X63046071Y-79151904D01*
X63141309Y-79104285D01*
%TO.C,D40*%
X229494880Y-67356964D02*
X228494880Y-67356964D01*
X228494880Y-67595059D01*
X228542500Y-67737916D01*
X228637738Y-67833154D01*
X228732976Y-67880773D01*
X228923452Y-67928392D01*
X229066309Y-67928392D01*
X229256785Y-67880773D01*
X229352023Y-67833154D01*
X229447261Y-67737916D01*
X229494880Y-67595059D01*
X229494880Y-67356964D01*
X228828214Y-68785535D02*
X229494880Y-68785535D01*
X228447261Y-68547440D02*
X229161547Y-68309345D01*
X229161547Y-68928392D01*
X228494880Y-69499821D02*
X228494880Y-69595059D01*
X228542500Y-69690297D01*
X228590119Y-69737916D01*
X228685357Y-69785535D01*
X228875833Y-69833154D01*
X229113928Y-69833154D01*
X229304404Y-69785535D01*
X229399642Y-69737916D01*
X229447261Y-69690297D01*
X229494880Y-69595059D01*
X229494880Y-69499821D01*
X229447261Y-69404583D01*
X229399642Y-69356964D01*
X229304404Y-69309345D01*
X229113928Y-69261726D01*
X228875833Y-69261726D01*
X228685357Y-69309345D01*
X228590119Y-69356964D01*
X228542500Y-69404583D01*
X228494880Y-69499821D01*
%TO.C,R3*%
X77856666Y-109182380D02*
X78190000Y-108706190D01*
X78428095Y-109182380D02*
X78428095Y-108182380D01*
X78047142Y-108182380D01*
X77951904Y-108230000D01*
X77904285Y-108277619D01*
X77856666Y-108372857D01*
X77856666Y-108515714D01*
X77904285Y-108610952D01*
X77951904Y-108658571D01*
X78047142Y-108706190D01*
X78428095Y-108706190D01*
X77523333Y-108182380D02*
X76904285Y-108182380D01*
X77237619Y-108563333D01*
X77094761Y-108563333D01*
X76999523Y-108610952D01*
X76951904Y-108658571D01*
X76904285Y-108753809D01*
X76904285Y-108991904D01*
X76951904Y-109087142D01*
X76999523Y-109134761D01*
X77094761Y-109182380D01*
X77380476Y-109182380D01*
X77475714Y-109134761D01*
X77523333Y-109087142D01*
%TO.C,D19*%
X129482380Y-47513214D02*
X128482380Y-47513214D01*
X128482380Y-47751309D01*
X128530000Y-47894166D01*
X128625238Y-47989404D01*
X128720476Y-48037023D01*
X128910952Y-48084642D01*
X129053809Y-48084642D01*
X129244285Y-48037023D01*
X129339523Y-47989404D01*
X129434761Y-47894166D01*
X129482380Y-47751309D01*
X129482380Y-47513214D01*
X129482380Y-49037023D02*
X129482380Y-48465595D01*
X129482380Y-48751309D02*
X128482380Y-48751309D01*
X128625238Y-48656071D01*
X128720476Y-48560833D01*
X128768095Y-48465595D01*
X129482380Y-49513214D02*
X129482380Y-49703690D01*
X129434761Y-49798928D01*
X129387142Y-49846547D01*
X129244285Y-49941785D01*
X129053809Y-49989404D01*
X128672857Y-49989404D01*
X128577619Y-49941785D01*
X128530000Y-49894166D01*
X128482380Y-49798928D01*
X128482380Y-49608452D01*
X128530000Y-49513214D01*
X128577619Y-49465595D01*
X128672857Y-49417976D01*
X128910952Y-49417976D01*
X129006190Y-49465595D01*
X129053809Y-49513214D01*
X129101428Y-49608452D01*
X129101428Y-49798928D01*
X129053809Y-49894166D01*
X129006190Y-49941785D01*
X128910952Y-49989404D01*
%TO.C,D2*%
X33622380Y-66121904D02*
X32622380Y-66121904D01*
X32622380Y-66360000D01*
X32670000Y-66502857D01*
X32765238Y-66598095D01*
X32860476Y-66645714D01*
X33050952Y-66693333D01*
X33193809Y-66693333D01*
X33384285Y-66645714D01*
X33479523Y-66598095D01*
X33574761Y-66502857D01*
X33622380Y-66360000D01*
X33622380Y-66121904D01*
X32717619Y-67074285D02*
X32670000Y-67121904D01*
X32622380Y-67217142D01*
X32622380Y-67455238D01*
X32670000Y-67550476D01*
X32717619Y-67598095D01*
X32812857Y-67645714D01*
X32908095Y-67645714D01*
X33050952Y-67598095D01*
X33622380Y-67026666D01*
X33622380Y-67645714D01*
%TO.C,D18*%
X90542380Y-91605714D02*
X89542380Y-91605714D01*
X89542380Y-91843809D01*
X89590000Y-91986666D01*
X89685238Y-92081904D01*
X89780476Y-92129523D01*
X89970952Y-92177142D01*
X90113809Y-92177142D01*
X90304285Y-92129523D01*
X90399523Y-92081904D01*
X90494761Y-91986666D01*
X90542380Y-91843809D01*
X90542380Y-91605714D01*
X90542380Y-93129523D02*
X90542380Y-92558095D01*
X90542380Y-92843809D02*
X89542380Y-92843809D01*
X89685238Y-92748571D01*
X89780476Y-92653333D01*
X89828095Y-92558095D01*
X89970952Y-93700952D02*
X89923333Y-93605714D01*
X89875714Y-93558095D01*
X89780476Y-93510476D01*
X89732857Y-93510476D01*
X89637619Y-93558095D01*
X89590000Y-93605714D01*
X89542380Y-93700952D01*
X89542380Y-93891428D01*
X89590000Y-93986666D01*
X89637619Y-94034285D01*
X89732857Y-94081904D01*
X89780476Y-94081904D01*
X89875714Y-94034285D01*
X89923333Y-93986666D01*
X89970952Y-93891428D01*
X89970952Y-93700952D01*
X90018571Y-93605714D01*
X90066190Y-93558095D01*
X90161428Y-93510476D01*
X90351904Y-93510476D01*
X90447142Y-93558095D01*
X90494761Y-93605714D01*
X90542380Y-93700952D01*
X90542380Y-93891428D01*
X90494761Y-93986666D01*
X90447142Y-94034285D01*
X90351904Y-94081904D01*
X90161428Y-94081904D01*
X90066190Y-94034285D01*
X90018571Y-93986666D01*
X89970952Y-93891428D01*
%TO.C,D5*%
X58044880Y-71008154D02*
X57044880Y-71008154D01*
X57044880Y-71246250D01*
X57092500Y-71389107D01*
X57187738Y-71484345D01*
X57282976Y-71531964D01*
X57473452Y-71579583D01*
X57616309Y-71579583D01*
X57806785Y-71531964D01*
X57902023Y-71484345D01*
X57997261Y-71389107D01*
X58044880Y-71246250D01*
X58044880Y-71008154D01*
X57044880Y-72484345D02*
X57044880Y-72008154D01*
X57521071Y-71960535D01*
X57473452Y-72008154D01*
X57425833Y-72103392D01*
X57425833Y-72341488D01*
X57473452Y-72436726D01*
X57521071Y-72484345D01*
X57616309Y-72531964D01*
X57854404Y-72531964D01*
X57949642Y-72484345D01*
X57997261Y-72436726D01*
X58044880Y-72341488D01*
X58044880Y-72103392D01*
X57997261Y-72008154D01*
X57949642Y-71960535D01*
%TO.C,D21*%
X143769880Y-86406964D02*
X142769880Y-86406964D01*
X142769880Y-86645059D01*
X142817500Y-86787916D01*
X142912738Y-86883154D01*
X143007976Y-86930773D01*
X143198452Y-86978392D01*
X143341309Y-86978392D01*
X143531785Y-86930773D01*
X143627023Y-86883154D01*
X143722261Y-86787916D01*
X143769880Y-86645059D01*
X143769880Y-86406964D01*
X142865119Y-87359345D02*
X142817500Y-87406964D01*
X142769880Y-87502202D01*
X142769880Y-87740297D01*
X142817500Y-87835535D01*
X142865119Y-87883154D01*
X142960357Y-87930773D01*
X143055595Y-87930773D01*
X143198452Y-87883154D01*
X143769880Y-87311726D01*
X143769880Y-87930773D01*
X143769880Y-88883154D02*
X143769880Y-88311726D01*
X143769880Y-88597440D02*
X142769880Y-88597440D01*
X142912738Y-88502202D01*
X143007976Y-88406964D01*
X143055595Y-88311726D01*
%TO.C,D31*%
X186632380Y-47575714D02*
X185632380Y-47575714D01*
X185632380Y-47813809D01*
X185680000Y-47956666D01*
X185775238Y-48051904D01*
X185870476Y-48099523D01*
X186060952Y-48147142D01*
X186203809Y-48147142D01*
X186394285Y-48099523D01*
X186489523Y-48051904D01*
X186584761Y-47956666D01*
X186632380Y-47813809D01*
X186632380Y-47575714D01*
X185632380Y-48480476D02*
X185632380Y-49099523D01*
X186013333Y-48766190D01*
X186013333Y-48909047D01*
X186060952Y-49004285D01*
X186108571Y-49051904D01*
X186203809Y-49099523D01*
X186441904Y-49099523D01*
X186537142Y-49051904D01*
X186584761Y-49004285D01*
X186632380Y-48909047D01*
X186632380Y-48623333D01*
X186584761Y-48528095D01*
X186537142Y-48480476D01*
X186632380Y-50051904D02*
X186632380Y-49480476D01*
X186632380Y-49766190D02*
X185632380Y-49766190D01*
X185775238Y-49670952D01*
X185870476Y-49575714D01*
X185918095Y-49480476D01*
%TO.C,D16*%
X114162380Y-67355714D02*
X113162380Y-67355714D01*
X113162380Y-67593809D01*
X113210000Y-67736666D01*
X113305238Y-67831904D01*
X113400476Y-67879523D01*
X113590952Y-67927142D01*
X113733809Y-67927142D01*
X113924285Y-67879523D01*
X114019523Y-67831904D01*
X114114761Y-67736666D01*
X114162380Y-67593809D01*
X114162380Y-67355714D01*
X114162380Y-68879523D02*
X114162380Y-68308095D01*
X114162380Y-68593809D02*
X113162380Y-68593809D01*
X113305238Y-68498571D01*
X113400476Y-68403333D01*
X113448095Y-68308095D01*
X113162380Y-69736666D02*
X113162380Y-69546190D01*
X113210000Y-69450952D01*
X113257619Y-69403333D01*
X113400476Y-69308095D01*
X113590952Y-69260476D01*
X113971904Y-69260476D01*
X114067142Y-69308095D01*
X114114761Y-69355714D01*
X114162380Y-69450952D01*
X114162380Y-69641428D01*
X114114761Y-69736666D01*
X114067142Y-69784285D01*
X113971904Y-69831904D01*
X113733809Y-69831904D01*
X113638571Y-69784285D01*
X113590952Y-69736666D01*
X113543333Y-69641428D01*
X113543333Y-69450952D01*
X113590952Y-69355714D01*
X113638571Y-69308095D01*
X113733809Y-69260476D01*
%TO.C,D27*%
X167582380Y-47513214D02*
X166582380Y-47513214D01*
X166582380Y-47751309D01*
X166630000Y-47894166D01*
X166725238Y-47989404D01*
X166820476Y-48037023D01*
X167010952Y-48084642D01*
X167153809Y-48084642D01*
X167344285Y-48037023D01*
X167439523Y-47989404D01*
X167534761Y-47894166D01*
X167582380Y-47751309D01*
X167582380Y-47513214D01*
X166677619Y-48465595D02*
X166630000Y-48513214D01*
X166582380Y-48608452D01*
X166582380Y-48846547D01*
X166630000Y-48941785D01*
X166677619Y-48989404D01*
X166772857Y-49037023D01*
X166868095Y-49037023D01*
X167010952Y-48989404D01*
X167582380Y-48417976D01*
X167582380Y-49037023D01*
X166582380Y-49370357D02*
X166582380Y-50037023D01*
X167582380Y-49608452D01*
%TO.C,D13*%
X103709880Y-77443214D02*
X102709880Y-77443214D01*
X102709880Y-77681309D01*
X102757500Y-77824166D01*
X102852738Y-77919404D01*
X102947976Y-77967023D01*
X103138452Y-78014642D01*
X103281309Y-78014642D01*
X103471785Y-77967023D01*
X103567023Y-77919404D01*
X103662261Y-77824166D01*
X103709880Y-77681309D01*
X103709880Y-77443214D01*
X103709880Y-78967023D02*
X103709880Y-78395595D01*
X103709880Y-78681309D02*
X102709880Y-78681309D01*
X102852738Y-78586071D01*
X102947976Y-78490833D01*
X102995595Y-78395595D01*
X102709880Y-79300357D02*
X102709880Y-79919404D01*
X103090833Y-79586071D01*
X103090833Y-79728928D01*
X103138452Y-79824166D01*
X103186071Y-79871785D01*
X103281309Y-79919404D01*
X103519404Y-79919404D01*
X103614642Y-79871785D01*
X103662261Y-79824166D01*
X103709880Y-79728928D01*
X103709880Y-79443214D01*
X103662261Y-79347976D01*
X103614642Y-79300357D01*
%TO.C,D35*%
X205682380Y-47513214D02*
X204682380Y-47513214D01*
X204682380Y-47751309D01*
X204730000Y-47894166D01*
X204825238Y-47989404D01*
X204920476Y-48037023D01*
X205110952Y-48084642D01*
X205253809Y-48084642D01*
X205444285Y-48037023D01*
X205539523Y-47989404D01*
X205634761Y-47894166D01*
X205682380Y-47751309D01*
X205682380Y-47513214D01*
X204682380Y-48417976D02*
X204682380Y-49037023D01*
X205063333Y-48703690D01*
X205063333Y-48846547D01*
X205110952Y-48941785D01*
X205158571Y-48989404D01*
X205253809Y-49037023D01*
X205491904Y-49037023D01*
X205587142Y-48989404D01*
X205634761Y-48941785D01*
X205682380Y-48846547D01*
X205682380Y-48560833D01*
X205634761Y-48465595D01*
X205587142Y-48417976D01*
X204682380Y-49941785D02*
X204682380Y-49465595D01*
X205158571Y-49417976D01*
X205110952Y-49465595D01*
X205063333Y-49560833D01*
X205063333Y-49798928D01*
X205110952Y-49894166D01*
X205158571Y-49941785D01*
X205253809Y-49989404D01*
X205491904Y-49989404D01*
X205587142Y-49941785D01*
X205634761Y-49894166D01*
X205682380Y-49798928D01*
X205682380Y-49560833D01*
X205634761Y-49465595D01*
X205587142Y-49417976D01*
%TO.C,D38*%
X238226130Y-104663214D02*
X237226130Y-104663214D01*
X237226130Y-104901309D01*
X237273750Y-105044166D01*
X237368988Y-105139404D01*
X237464226Y-105187023D01*
X237654702Y-105234642D01*
X237797559Y-105234642D01*
X237988035Y-105187023D01*
X238083273Y-105139404D01*
X238178511Y-105044166D01*
X238226130Y-104901309D01*
X238226130Y-104663214D01*
X237226130Y-105567976D02*
X237226130Y-106187023D01*
X237607083Y-105853690D01*
X237607083Y-105996547D01*
X237654702Y-106091785D01*
X237702321Y-106139404D01*
X237797559Y-106187023D01*
X238035654Y-106187023D01*
X238130892Y-106139404D01*
X238178511Y-106091785D01*
X238226130Y-105996547D01*
X238226130Y-105710833D01*
X238178511Y-105615595D01*
X238130892Y-105567976D01*
X237654702Y-106758452D02*
X237607083Y-106663214D01*
X237559464Y-106615595D01*
X237464226Y-106567976D01*
X237416607Y-106567976D01*
X237321369Y-106615595D01*
X237273750Y-106663214D01*
X237226130Y-106758452D01*
X237226130Y-106948928D01*
X237273750Y-107044166D01*
X237321369Y-107091785D01*
X237416607Y-107139404D01*
X237464226Y-107139404D01*
X237559464Y-107091785D01*
X237607083Y-107044166D01*
X237654702Y-106948928D01*
X237654702Y-106758452D01*
X237702321Y-106663214D01*
X237749940Y-106615595D01*
X237845178Y-106567976D01*
X238035654Y-106567976D01*
X238130892Y-106615595D01*
X238178511Y-106663214D01*
X238226130Y-106758452D01*
X238226130Y-106948928D01*
X238178511Y-107044166D01*
X238130892Y-107091785D01*
X238035654Y-107139404D01*
X237845178Y-107139404D01*
X237749940Y-107091785D01*
X237702321Y-107044166D01*
X237654702Y-106948928D01*
%TO.C,C17*%
X101213392Y-111425892D02*
X101261011Y-111378273D01*
X101308630Y-111235416D01*
X101308630Y-111140178D01*
X101261011Y-110997321D01*
X101165773Y-110902083D01*
X101070535Y-110854464D01*
X100880059Y-110806845D01*
X100737202Y-110806845D01*
X100546726Y-110854464D01*
X100451488Y-110902083D01*
X100356250Y-110997321D01*
X100308630Y-111140178D01*
X100308630Y-111235416D01*
X100356250Y-111378273D01*
X100403869Y-111425892D01*
X101308630Y-112378273D02*
X101308630Y-111806845D01*
X101308630Y-112092559D02*
X100308630Y-112092559D01*
X100451488Y-111997321D01*
X100546726Y-111902083D01*
X100594345Y-111806845D01*
X100308630Y-112711607D02*
X100308630Y-113378273D01*
X101308630Y-112949702D01*
%TO.C,C8*%
X113254642Y-89700833D02*
X113302261Y-89653214D01*
X113349880Y-89510357D01*
X113349880Y-89415119D01*
X113302261Y-89272261D01*
X113207023Y-89177023D01*
X113111785Y-89129404D01*
X112921309Y-89081785D01*
X112778452Y-89081785D01*
X112587976Y-89129404D01*
X112492738Y-89177023D01*
X112397500Y-89272261D01*
X112349880Y-89415119D01*
X112349880Y-89510357D01*
X112397500Y-89653214D01*
X112445119Y-89700833D01*
X112778452Y-90272261D02*
X112730833Y-90177023D01*
X112683214Y-90129404D01*
X112587976Y-90081785D01*
X112540357Y-90081785D01*
X112445119Y-90129404D01*
X112397500Y-90177023D01*
X112349880Y-90272261D01*
X112349880Y-90462738D01*
X112397500Y-90557976D01*
X112445119Y-90605595D01*
X112540357Y-90653214D01*
X112587976Y-90653214D01*
X112683214Y-90605595D01*
X112730833Y-90557976D01*
X112778452Y-90462738D01*
X112778452Y-90272261D01*
X112826071Y-90177023D01*
X112873690Y-90129404D01*
X112968928Y-90081785D01*
X113159404Y-90081785D01*
X113254642Y-90129404D01*
X113302261Y-90177023D01*
X113349880Y-90272261D01*
X113349880Y-90462738D01*
X113302261Y-90557976D01*
X113254642Y-90605595D01*
X113159404Y-90653214D01*
X112968928Y-90653214D01*
X112873690Y-90605595D01*
X112826071Y-90557976D01*
X112778452Y-90462738D01*
%TO.C,D11*%
X91382380Y-47513214D02*
X90382380Y-47513214D01*
X90382380Y-47751309D01*
X90430000Y-47894166D01*
X90525238Y-47989404D01*
X90620476Y-48037023D01*
X90810952Y-48084642D01*
X90953809Y-48084642D01*
X91144285Y-48037023D01*
X91239523Y-47989404D01*
X91334761Y-47894166D01*
X91382380Y-47751309D01*
X91382380Y-47513214D01*
X91382380Y-49037023D02*
X91382380Y-48465595D01*
X91382380Y-48751309D02*
X90382380Y-48751309D01*
X90525238Y-48656071D01*
X90620476Y-48560833D01*
X90668095Y-48465595D01*
X91382380Y-49989404D02*
X91382380Y-49417976D01*
X91382380Y-49703690D02*
X90382380Y-49703690D01*
X90525238Y-49608452D01*
X90620476Y-49513214D01*
X90668095Y-49417976D01*
%TO.C,C16*%
X104537142Y-111987142D02*
X104584761Y-111939523D01*
X104632380Y-111796666D01*
X104632380Y-111701428D01*
X104584761Y-111558571D01*
X104489523Y-111463333D01*
X104394285Y-111415714D01*
X104203809Y-111368095D01*
X104060952Y-111368095D01*
X103870476Y-111415714D01*
X103775238Y-111463333D01*
X103680000Y-111558571D01*
X103632380Y-111701428D01*
X103632380Y-111796666D01*
X103680000Y-111939523D01*
X103727619Y-111987142D01*
X104632380Y-112939523D02*
X104632380Y-112368095D01*
X104632380Y-112653809D02*
X103632380Y-112653809D01*
X103775238Y-112558571D01*
X103870476Y-112463333D01*
X103918095Y-112368095D01*
X103632380Y-113796666D02*
X103632380Y-113606190D01*
X103680000Y-113510952D01*
X103727619Y-113463333D01*
X103870476Y-113368095D01*
X104060952Y-113320476D01*
X104441904Y-113320476D01*
X104537142Y-113368095D01*
X104584761Y-113415714D01*
X104632380Y-113510952D01*
X104632380Y-113701428D01*
X104584761Y-113796666D01*
X104537142Y-113844285D01*
X104441904Y-113891904D01*
X104203809Y-113891904D01*
X104108571Y-113844285D01*
X104060952Y-113796666D01*
X104013333Y-113701428D01*
X104013333Y-113510952D01*
X104060952Y-113415714D01*
X104108571Y-113368095D01*
X104203809Y-113320476D01*
%TO.C,C14*%
X98597142Y-108837142D02*
X98644761Y-108789523D01*
X98692380Y-108646666D01*
X98692380Y-108551428D01*
X98644761Y-108408571D01*
X98549523Y-108313333D01*
X98454285Y-108265714D01*
X98263809Y-108218095D01*
X98120952Y-108218095D01*
X97930476Y-108265714D01*
X97835238Y-108313333D01*
X97740000Y-108408571D01*
X97692380Y-108551428D01*
X97692380Y-108646666D01*
X97740000Y-108789523D01*
X97787619Y-108837142D01*
X98692380Y-109789523D02*
X98692380Y-109218095D01*
X98692380Y-109503809D02*
X97692380Y-109503809D01*
X97835238Y-109408571D01*
X97930476Y-109313333D01*
X97978095Y-109218095D01*
X98025714Y-110646666D02*
X98692380Y-110646666D01*
X97644761Y-110408571D02*
X98359047Y-110170476D01*
X98359047Y-110789523D01*
%TO.C,R2*%
X113902380Y-72718333D02*
X113426190Y-72385000D01*
X113902380Y-72146904D02*
X112902380Y-72146904D01*
X112902380Y-72527857D01*
X112950000Y-72623095D01*
X112997619Y-72670714D01*
X113092857Y-72718333D01*
X113235714Y-72718333D01*
X113330952Y-72670714D01*
X113378571Y-72623095D01*
X113426190Y-72527857D01*
X113426190Y-72146904D01*
X112997619Y-73099285D02*
X112950000Y-73146904D01*
X112902380Y-73242142D01*
X112902380Y-73480238D01*
X112950000Y-73575476D01*
X112997619Y-73623095D01*
X113092857Y-73670714D01*
X113188095Y-73670714D01*
X113330952Y-73623095D01*
X113902380Y-73051666D01*
X113902380Y-73670714D01*
%TO.C,D33*%
X200126130Y-86406964D02*
X199126130Y-86406964D01*
X199126130Y-86645059D01*
X199173750Y-86787916D01*
X199268988Y-86883154D01*
X199364226Y-86930773D01*
X199554702Y-86978392D01*
X199697559Y-86978392D01*
X199888035Y-86930773D01*
X199983273Y-86883154D01*
X200078511Y-86787916D01*
X200126130Y-86645059D01*
X200126130Y-86406964D01*
X199126130Y-87311726D02*
X199126130Y-87930773D01*
X199507083Y-87597440D01*
X199507083Y-87740297D01*
X199554702Y-87835535D01*
X199602321Y-87883154D01*
X199697559Y-87930773D01*
X199935654Y-87930773D01*
X200030892Y-87883154D01*
X200078511Y-87835535D01*
X200126130Y-87740297D01*
X200126130Y-87454583D01*
X200078511Y-87359345D01*
X200030892Y-87311726D01*
X199126130Y-88264107D02*
X199126130Y-88883154D01*
X199507083Y-88549821D01*
X199507083Y-88692678D01*
X199554702Y-88787916D01*
X199602321Y-88835535D01*
X199697559Y-88883154D01*
X199935654Y-88883154D01*
X200030892Y-88835535D01*
X200078511Y-88787916D01*
X200126130Y-88692678D01*
X200126130Y-88406964D01*
X200078511Y-88311726D01*
X200030892Y-88264107D01*
%TO.C,D22*%
X125482380Y-94281964D02*
X124482380Y-94281964D01*
X124482380Y-94520059D01*
X124530000Y-94662916D01*
X124625238Y-94758154D01*
X124720476Y-94805773D01*
X124910952Y-94853392D01*
X125053809Y-94853392D01*
X125244285Y-94805773D01*
X125339523Y-94758154D01*
X125434761Y-94662916D01*
X125482380Y-94520059D01*
X125482380Y-94281964D01*
X124577619Y-95234345D02*
X124530000Y-95281964D01*
X124482380Y-95377202D01*
X124482380Y-95615297D01*
X124530000Y-95710535D01*
X124577619Y-95758154D01*
X124672857Y-95805773D01*
X124768095Y-95805773D01*
X124910952Y-95758154D01*
X125482380Y-95186726D01*
X125482380Y-95805773D01*
X124577619Y-96186726D02*
X124530000Y-96234345D01*
X124482380Y-96329583D01*
X124482380Y-96567678D01*
X124530000Y-96662916D01*
X124577619Y-96710535D01*
X124672857Y-96758154D01*
X124768095Y-96758154D01*
X124910952Y-96710535D01*
X125482380Y-96139107D01*
X125482380Y-96758154D01*
%TO.C,C3*%
X99054642Y-96770833D02*
X99102261Y-96723214D01*
X99149880Y-96580357D01*
X99149880Y-96485119D01*
X99102261Y-96342261D01*
X99007023Y-96247023D01*
X98911785Y-96199404D01*
X98721309Y-96151785D01*
X98578452Y-96151785D01*
X98387976Y-96199404D01*
X98292738Y-96247023D01*
X98197500Y-96342261D01*
X98149880Y-96485119D01*
X98149880Y-96580357D01*
X98197500Y-96723214D01*
X98245119Y-96770833D01*
X98149880Y-97104166D02*
X98149880Y-97723214D01*
X98530833Y-97389880D01*
X98530833Y-97532738D01*
X98578452Y-97627976D01*
X98626071Y-97675595D01*
X98721309Y-97723214D01*
X98959404Y-97723214D01*
X99054642Y-97675595D01*
X99102261Y-97627976D01*
X99149880Y-97532738D01*
X99149880Y-97247023D01*
X99102261Y-97151785D01*
X99054642Y-97104166D01*
%TO.C,C9*%
X100720892Y-95229583D02*
X100768511Y-95181964D01*
X100816130Y-95039107D01*
X100816130Y-94943869D01*
X100768511Y-94801011D01*
X100673273Y-94705773D01*
X100578035Y-94658154D01*
X100387559Y-94610535D01*
X100244702Y-94610535D01*
X100054226Y-94658154D01*
X99958988Y-94705773D01*
X99863750Y-94801011D01*
X99816130Y-94943869D01*
X99816130Y-95039107D01*
X99863750Y-95181964D01*
X99911369Y-95229583D01*
X100816130Y-95705773D02*
X100816130Y-95896250D01*
X100768511Y-95991488D01*
X100720892Y-96039107D01*
X100578035Y-96134345D01*
X100387559Y-96181964D01*
X100006607Y-96181964D01*
X99911369Y-96134345D01*
X99863750Y-96086726D01*
X99816130Y-95991488D01*
X99816130Y-95801011D01*
X99863750Y-95705773D01*
X99911369Y-95658154D01*
X100006607Y-95610535D01*
X100244702Y-95610535D01*
X100339940Y-95658154D01*
X100387559Y-95705773D01*
X100435178Y-95801011D01*
X100435178Y-95991488D01*
X100387559Y-96086726D01*
X100339940Y-96134345D01*
X100244702Y-96181964D01*
%TO.C,D7*%
X72332380Y-47989404D02*
X71332380Y-47989404D01*
X71332380Y-48227500D01*
X71380000Y-48370357D01*
X71475238Y-48465595D01*
X71570476Y-48513214D01*
X71760952Y-48560833D01*
X71903809Y-48560833D01*
X72094285Y-48513214D01*
X72189523Y-48465595D01*
X72284761Y-48370357D01*
X72332380Y-48227500D01*
X72332380Y-47989404D01*
X71332380Y-48894166D02*
X71332380Y-49560833D01*
X72332380Y-49132261D01*
%TO.C,C12*%
X107542857Y-105907142D02*
X107590476Y-105954761D01*
X107733333Y-106002380D01*
X107828571Y-106002380D01*
X107971428Y-105954761D01*
X108066666Y-105859523D01*
X108114285Y-105764285D01*
X108161904Y-105573809D01*
X108161904Y-105430952D01*
X108114285Y-105240476D01*
X108066666Y-105145238D01*
X107971428Y-105050000D01*
X107828571Y-105002380D01*
X107733333Y-105002380D01*
X107590476Y-105050000D01*
X107542857Y-105097619D01*
X106590476Y-106002380D02*
X107161904Y-106002380D01*
X106876190Y-106002380D02*
X106876190Y-105002380D01*
X106971428Y-105145238D01*
X107066666Y-105240476D01*
X107161904Y-105288095D01*
X106209523Y-105097619D02*
X106161904Y-105050000D01*
X106066666Y-105002380D01*
X105828571Y-105002380D01*
X105733333Y-105050000D01*
X105685714Y-105097619D01*
X105638095Y-105192857D01*
X105638095Y-105288095D01*
X105685714Y-105430952D01*
X106257142Y-106002380D01*
X105638095Y-106002380D01*
%TO.C,D37*%
X219176130Y-86406964D02*
X218176130Y-86406964D01*
X218176130Y-86645059D01*
X218223750Y-86787916D01*
X218318988Y-86883154D01*
X218414226Y-86930773D01*
X218604702Y-86978392D01*
X218747559Y-86978392D01*
X218938035Y-86930773D01*
X219033273Y-86883154D01*
X219128511Y-86787916D01*
X219176130Y-86645059D01*
X219176130Y-86406964D01*
X218176130Y-87311726D02*
X218176130Y-87930773D01*
X218557083Y-87597440D01*
X218557083Y-87740297D01*
X218604702Y-87835535D01*
X218652321Y-87883154D01*
X218747559Y-87930773D01*
X218985654Y-87930773D01*
X219080892Y-87883154D01*
X219128511Y-87835535D01*
X219176130Y-87740297D01*
X219176130Y-87454583D01*
X219128511Y-87359345D01*
X219080892Y-87311726D01*
X218176130Y-88264107D02*
X218176130Y-88930773D01*
X219176130Y-88502202D01*
D11*
%TO.C,J2*%
X114710000Y-53795000D02*
X118590000Y-53795000D01*
X113540000Y-55765000D02*
X113540000Y-58265000D01*
X119760000Y-55765000D02*
X119760000Y-58265000D01*
X113540000Y-58265000D02*
X114590000Y-58265000D01*
X119760000Y-58265000D02*
X118710000Y-58265000D01*
X114590000Y-58265000D02*
X114590000Y-59255000D01*
%TO.C,C11*%
X97307500Y-56419086D02*
X97307500Y-56203414D01*
X98027500Y-56419086D02*
X98027500Y-56203414D01*
%TO.C,D32*%
X189942500Y-70821250D02*
X187942500Y-70821250D01*
X189942500Y-70821250D02*
X189942500Y-66921250D01*
X187942500Y-70821250D02*
X187942500Y-66921250D01*
%TO.C,U1*%
X96645000Y-106107500D02*
X96645000Y-105457500D01*
X97295000Y-106107500D02*
X96645000Y-106107500D01*
X103215000Y-98887500D02*
X103865000Y-98887500D01*
X103865000Y-106107500D02*
X103865000Y-105457500D01*
X97295000Y-98887500D02*
X96645000Y-98887500D01*
X96645000Y-98887500D02*
X96645000Y-99537500D01*
X103215000Y-106107500D02*
X103865000Y-106107500D01*
%TO.C,D1*%
X26017500Y-50977500D02*
X26017500Y-47077500D01*
X28017500Y-50977500D02*
X26017500Y-50977500D01*
X28017500Y-50977500D02*
X28017500Y-47077500D01*
%TO.C,D20*%
X132792500Y-70821250D02*
X130792500Y-70821250D01*
X132792500Y-70821250D02*
X132792500Y-66921250D01*
X130792500Y-70821250D02*
X130792500Y-66921250D01*
%TO.C,D44*%
X244298750Y-70758750D02*
X244298750Y-66858750D01*
X246298750Y-70758750D02*
X246298750Y-66858750D01*
X246298750Y-70758750D02*
X244298750Y-70758750D01*
%TO.C,C6*%
X96177500Y-97045336D02*
X96177500Y-96829664D01*
X96897500Y-97045336D02*
X96897500Y-96829664D01*
%TO.C,D39*%
X221280000Y-51040000D02*
X221280000Y-47140000D01*
X223280000Y-51040000D02*
X223280000Y-47140000D01*
X223280000Y-51040000D02*
X221280000Y-51040000D01*
%TO.C,D15*%
X108980000Y-51040000D02*
X108980000Y-47140000D01*
X106980000Y-51040000D02*
X106980000Y-47140000D01*
X108980000Y-51040000D02*
X106980000Y-51040000D01*
%TO.C,D26*%
X151842500Y-93246250D02*
X151842500Y-97146250D01*
X149842500Y-93246250D02*
X151842500Y-93246250D01*
X149842500Y-93246250D02*
X149842500Y-97146250D01*
%TO.C,D4*%
X51830000Y-50977500D02*
X49830000Y-50977500D01*
X49830000Y-50977500D02*
X49830000Y-47077500D01*
X51830000Y-50977500D02*
X51830000Y-47077500D01*
%TO.C,R4*%
X123293641Y-89180000D02*
X122986359Y-89180000D01*
X123293641Y-89940000D02*
X122986359Y-89940000D01*
%TO.C,C4*%
X90427500Y-55263414D02*
X90427500Y-55479086D01*
X91147500Y-55263414D02*
X91147500Y-55479086D01*
%TO.C,D10*%
X49036250Y-108127500D02*
X49036250Y-104227500D01*
X51036250Y-108127500D02*
X49036250Y-108127500D01*
X51036250Y-108127500D02*
X51036250Y-104227500D01*
%TO.C,D24*%
X151842500Y-70821250D02*
X149842500Y-70821250D01*
X149842500Y-70821250D02*
X149842500Y-66921250D01*
X151842500Y-70821250D02*
X151842500Y-66921250D01*
%TO.C,SW7*%
X124960000Y-86030000D02*
X124960000Y-88630000D01*
X124960000Y-86030000D02*
X122300000Y-86030000D01*
X124960000Y-88630000D02*
X122300000Y-88630000D01*
X122300000Y-86030000D02*
X122300000Y-88630000D01*
X122300000Y-83430000D02*
X122300000Y-84760000D01*
X123630000Y-83430000D02*
X122300000Y-83430000D01*
%TO.C,C5*%
X94005336Y-99447500D02*
X93789664Y-99447500D01*
X94005336Y-98727500D02*
X93789664Y-98727500D01*
%TO.C,D28*%
X168892500Y-70821250D02*
X168892500Y-66921250D01*
X170892500Y-70821250D02*
X168892500Y-70821250D01*
X170892500Y-70821250D02*
X170892500Y-66921250D01*
%TO.C,D49*%
X272492500Y-89871250D02*
X272492500Y-85971250D01*
X270492500Y-89871250D02*
X270492500Y-85971250D01*
X272492500Y-89871250D02*
X270492500Y-89871250D01*
%TO.C,D3*%
X39586250Y-83446250D02*
X39586250Y-85446250D01*
X39586250Y-83446250D02*
X35686250Y-83446250D01*
X39586250Y-85446250D02*
X35686250Y-85446250D01*
%TO.C,D17*%
X120473750Y-77433750D02*
X122473750Y-77433750D01*
X122473750Y-77433750D02*
X122473750Y-81333750D01*
X120473750Y-77433750D02*
X120473750Y-81333750D01*
%TO.C,D47*%
X261380000Y-50915000D02*
X261380000Y-47015000D01*
X259380000Y-50915000D02*
X259380000Y-47015000D01*
X261380000Y-50915000D02*
X259380000Y-50915000D01*
%TO.C,D42*%
X260025000Y-108000000D02*
X258025000Y-108000000D01*
X260025000Y-108000000D02*
X260025000Y-104100000D01*
X258025000Y-108000000D02*
X258025000Y-104100000D01*
%TO.C,D50*%
X284398750Y-51040000D02*
X284398750Y-47140000D01*
X282398750Y-51040000D02*
X282398750Y-47140000D01*
X284398750Y-51040000D02*
X282398750Y-51040000D01*
%TO.C,D8*%
X75642500Y-70821250D02*
X73642500Y-70821250D01*
X73642500Y-70821250D02*
X73642500Y-66921250D01*
X75642500Y-70821250D02*
X75642500Y-66921250D01*
%TO.C,R5*%
X101007500Y-109381141D02*
X101007500Y-109073859D01*
X100247500Y-109381141D02*
X100247500Y-109073859D01*
%TO.C,D48*%
X276048750Y-70821250D02*
X276048750Y-66921250D01*
X278048750Y-70821250D02*
X276048750Y-70821250D01*
X278048750Y-70821250D02*
X278048750Y-66921250D01*
%TO.C,D34*%
X210961250Y-108065000D02*
X210961250Y-104165000D01*
X212961250Y-108065000D02*
X212961250Y-104165000D01*
X212961250Y-108065000D02*
X210961250Y-108065000D01*
%TO.C,D30*%
X173655000Y-97340000D02*
X173655000Y-101240000D01*
X175655000Y-97340000D02*
X175655000Y-101240000D01*
X173655000Y-97340000D02*
X175655000Y-97340000D01*
%TO.C,U2*%
X117287500Y-89557500D02*
X120012500Y-89557500D01*
X117287500Y-95007500D02*
X114562500Y-95007500D01*
X120012500Y-89817500D02*
X121687500Y-89817500D01*
X117287500Y-95007500D02*
X120012500Y-95007500D01*
X120012500Y-89557500D02*
X120012500Y-89817500D01*
X114562500Y-95007500D02*
X114562500Y-94747500D01*
X120012500Y-95007500D02*
X120012500Y-94747500D01*
X114562500Y-89557500D02*
X114562500Y-89817500D01*
X117287500Y-89557500D02*
X114562500Y-89557500D01*
%TO.C,D23*%
X147080000Y-51040000D02*
X147080000Y-47140000D01*
X147080000Y-51040000D02*
X145080000Y-51040000D01*
X145080000Y-51040000D02*
X145080000Y-47140000D01*
%TO.C,D41*%
X234773750Y-89871250D02*
X234773750Y-85971250D01*
X236773750Y-89871250D02*
X234773750Y-89871250D01*
X236773750Y-89871250D02*
X236773750Y-85971250D01*
%TO.C,D9*%
X85167500Y-76640000D02*
X85167500Y-80540000D01*
X83167500Y-76640000D02*
X83167500Y-80540000D01*
X83167500Y-76640000D02*
X85167500Y-76640000D01*
%TO.C,D12*%
X92692500Y-70821250D02*
X92692500Y-66921250D01*
X94692500Y-70821250D02*
X94692500Y-66921250D01*
X94692500Y-70821250D02*
X92692500Y-70821250D01*
%TO.C,U3*%
X94410000Y-54257500D02*
X95060000Y-54257500D01*
X94410000Y-57377500D02*
X92735000Y-57377500D01*
X94410000Y-57377500D02*
X95060000Y-57377500D01*
X94410000Y-54257500D02*
X93760000Y-54257500D01*
%TO.C,D43*%
X242330000Y-50977500D02*
X242330000Y-47077500D01*
X240330000Y-50977500D02*
X240330000Y-47077500D01*
X242330000Y-50977500D02*
X240330000Y-50977500D01*
%TO.C,C2*%
X98750000Y-109292164D02*
X98750000Y-109507836D01*
X98030000Y-109292164D02*
X98030000Y-109507836D01*
%TO.C,C15*%
X92167500Y-55479086D02*
X92167500Y-55263414D01*
X91447500Y-55479086D02*
X91447500Y-55263414D01*
%TO.C,D29*%
X178417500Y-89808750D02*
X178417500Y-85908750D01*
X180417500Y-89808750D02*
X180417500Y-85908750D01*
X180417500Y-89808750D02*
X178417500Y-89808750D01*
%TO.C,C7*%
X94012836Y-99756250D02*
X93797164Y-99756250D01*
X94012836Y-100476250D02*
X93797164Y-100476250D01*
%TO.C,C10*%
X92787836Y-104170000D02*
X92572164Y-104170000D01*
X92787836Y-103450000D02*
X92572164Y-103450000D01*
%TO.C,Y1*%
X100337500Y-113877500D02*
X100337500Y-110577500D01*
X100337500Y-110577500D02*
X104337500Y-110577500D01*
%TO.C,D36*%
X206992500Y-70758750D02*
X206992500Y-66858750D01*
X208992500Y-70758750D02*
X206992500Y-70758750D01*
X208992500Y-70758750D02*
X208992500Y-66858750D01*
%TO.C,R1*%
X115897500Y-72707742D02*
X115897500Y-73182258D01*
X116942500Y-72707742D02*
X116942500Y-73182258D01*
%TO.C,F1*%
X103955814Y-56950000D02*
X102751686Y-56950000D01*
X103955814Y-55130000D02*
X102751686Y-55130000D01*
%TO.C,C13*%
X105537500Y-98515336D02*
X105537500Y-98299664D01*
X104817500Y-98515336D02*
X104817500Y-98299664D01*
%TO.C,D25*%
X160573750Y-89871250D02*
X158573750Y-89871250D01*
X158573750Y-89871250D02*
X158573750Y-85971250D01*
X160573750Y-89871250D02*
X160573750Y-85971250D01*
%TO.C,D14*%
X72848750Y-108127500D02*
X72848750Y-104227500D01*
X74848750Y-108127500D02*
X72848750Y-108127500D01*
X74848750Y-108127500D02*
X74848750Y-104227500D01*
%TO.C,D52*%
X289161250Y-89871250D02*
X287161250Y-89871250D01*
X289161250Y-89871250D02*
X289161250Y-85971250D01*
X287161250Y-89871250D02*
X287161250Y-85971250D01*
%TO.C,C1*%
X100590000Y-95187836D02*
X100590000Y-94972164D01*
X99870000Y-95187836D02*
X99870000Y-94972164D01*
%TO.C,D6*%
X64117500Y-76640000D02*
X64117500Y-80540000D01*
X64117500Y-76640000D02*
X66117500Y-76640000D01*
X66117500Y-76640000D02*
X66117500Y-80540000D01*
%TO.C,D40*%
X226042500Y-70821250D02*
X226042500Y-66921250D01*
X228042500Y-70821250D02*
X226042500Y-70821250D01*
X228042500Y-70821250D02*
X228042500Y-66921250D01*
%TO.C,R3*%
X77843641Y-109520000D02*
X77536359Y-109520000D01*
X77843641Y-110280000D02*
X77536359Y-110280000D01*
%TO.C,D19*%
X128030000Y-50977500D02*
X126030000Y-50977500D01*
X126030000Y-50977500D02*
X126030000Y-47077500D01*
X128030000Y-50977500D02*
X128030000Y-47077500D01*
%TO.C,D2*%
X32050000Y-68960000D02*
X30050000Y-68960000D01*
X32050000Y-68960000D02*
X32050000Y-65060000D01*
X30050000Y-68960000D02*
X30050000Y-65060000D01*
%TO.C,D18*%
X93090000Y-90570000D02*
X93090000Y-94470000D01*
X91090000Y-90570000D02*
X93090000Y-90570000D01*
X91090000Y-90570000D02*
X91090000Y-94470000D01*
%TO.C,D5*%
X56592500Y-73996250D02*
X54592500Y-73996250D01*
X54592500Y-73996250D02*
X54592500Y-70096250D01*
X56592500Y-73996250D02*
X56592500Y-70096250D01*
%TO.C,D21*%
X142317500Y-89871250D02*
X140317500Y-89871250D01*
X142317500Y-89871250D02*
X142317500Y-85971250D01*
X140317500Y-89871250D02*
X140317500Y-85971250D01*
%TO.C,D31*%
X185180000Y-51040000D02*
X183180000Y-51040000D01*
X185180000Y-51040000D02*
X185180000Y-47140000D01*
X183180000Y-51040000D02*
X183180000Y-47140000D01*
%TO.C,D16*%
X112710000Y-70820000D02*
X112710000Y-66920000D01*
X110710000Y-70820000D02*
X110710000Y-66920000D01*
X112710000Y-70820000D02*
X110710000Y-70820000D01*
%TO.C,D27*%
X164130000Y-50977500D02*
X164130000Y-47077500D01*
X166130000Y-50977500D02*
X166130000Y-47077500D01*
X166130000Y-50977500D02*
X164130000Y-50977500D01*
%TO.C,D13*%
X104257500Y-76407500D02*
X104257500Y-80307500D01*
X106257500Y-76407500D02*
X106257500Y-80307500D01*
X104257500Y-76407500D02*
X106257500Y-76407500D01*
%TO.C,D35*%
X204230000Y-50977500D02*
X202230000Y-50977500D01*
X204230000Y-50977500D02*
X204230000Y-47077500D01*
X202230000Y-50977500D02*
X202230000Y-47077500D01*
%TO.C,D38*%
X236773750Y-108127500D02*
X234773750Y-108127500D01*
X236773750Y-108127500D02*
X236773750Y-104227500D01*
X234773750Y-108127500D02*
X234773750Y-104227500D01*
%TO.C,C17*%
X99336250Y-112176586D02*
X99336250Y-111960914D01*
X100056250Y-112176586D02*
X100056250Y-111960914D01*
%TO.C,C8*%
X111377500Y-89975336D02*
X111377500Y-89759664D01*
X112097500Y-89975336D02*
X112097500Y-89759664D01*
%TO.C,D11*%
X89930000Y-50977500D02*
X89930000Y-47077500D01*
X87930000Y-50977500D02*
X87930000Y-47077500D01*
X89930000Y-50977500D02*
X87930000Y-50977500D01*
%TO.C,C16*%
X104980000Y-112522164D02*
X104980000Y-112737836D01*
X105700000Y-112522164D02*
X105700000Y-112737836D01*
%TO.C,C14*%
X99760000Y-109372164D02*
X99760000Y-109587836D01*
X99040000Y-109372164D02*
X99040000Y-109587836D01*
%TO.C,R2*%
X114357500Y-72647742D02*
X114357500Y-73122258D01*
X115402500Y-72647742D02*
X115402500Y-73122258D01*
%TO.C,D33*%
X196673750Y-89871250D02*
X196673750Y-85971250D01*
X198673750Y-89871250D02*
X198673750Y-85971250D01*
X198673750Y-89871250D02*
X196673750Y-89871250D01*
%TO.C,D22*%
X128030000Y-93246250D02*
X128030000Y-97146250D01*
X126030000Y-93246250D02*
X128030000Y-93246250D01*
X126030000Y-93246250D02*
X126030000Y-97146250D01*
%TO.C,C3*%
X97177500Y-97045336D02*
X97177500Y-96829664D01*
X97897500Y-97045336D02*
X97897500Y-96829664D01*
%TO.C,C9*%
X98850000Y-95167836D02*
X98850000Y-94952164D01*
X99570000Y-95167836D02*
X99570000Y-94952164D01*
%TO.C,D7*%
X70880000Y-50977500D02*
X68880000Y-50977500D01*
X68880000Y-50977500D02*
X68880000Y-47077500D01*
X70880000Y-50977500D02*
X70880000Y-47077500D01*
%TO.C,C12*%
X106792164Y-104030000D02*
X107007836Y-104030000D01*
X106792164Y-104750000D02*
X107007836Y-104750000D01*
%TO.C,D37*%
X215723750Y-89871250D02*
X215723750Y-85971250D01*
X217723750Y-89871250D02*
X215723750Y-89871250D01*
X217723750Y-89871250D02*
X217723750Y-85971250D01*
%TD*%
%LPC*%
D12*
%TO.C,J2*%
X115150000Y-58480000D03*
X116150000Y-58480000D03*
X117150000Y-58480000D03*
X118150000Y-58480000D03*
D13*
X119450000Y-54605000D03*
X113850000Y-54605000D03*
%TD*%
D14*
%TO.C,P1*%
X213548750Y-47933750D03*
D15*
X208468750Y-47933750D03*
X218628750Y-47933750D03*
D16*
X209738750Y-45393750D03*
X216088750Y-42853750D03*
%TD*%
D15*
%TO.C,Q1*%
X37018750Y-47933750D03*
D14*
X42098750Y-47933750D03*
D15*
X47178750Y-47933750D03*
D16*
X38288750Y-45393750D03*
X44638750Y-42853750D03*
%TD*%
D14*
%TO.C,W1*%
X61148750Y-47933750D03*
D15*
X56068750Y-47933750D03*
X66228750Y-47933750D03*
D16*
X57338750Y-45393750D03*
X63688750Y-42853750D03*
%TD*%
D14*
%TO.C,G1*%
X123061250Y-66983750D03*
D15*
X128141250Y-66983750D03*
X117981250Y-66983750D03*
D16*
X119251250Y-64443750D03*
X125601250Y-61903750D03*
%TD*%
D15*
%TO.C,D46*%
X90041250Y-66983750D03*
D14*
X84961250Y-66983750D03*
D15*
X79881250Y-66983750D03*
D16*
X81151250Y-64443750D03*
X87501250Y-61903750D03*
%TD*%
D15*
%TO.C,E1*%
X75118750Y-47933750D03*
X85278750Y-47933750D03*
D14*
X80198750Y-47933750D03*
D16*
X76388750Y-45393750D03*
X82738750Y-42853750D03*
%TD*%
D14*
%TO.C,;1*%
X218311250Y-66983750D03*
D15*
X213231250Y-66983750D03*
X223391250Y-66983750D03*
D16*
X214501250Y-64443750D03*
X220851250Y-61903750D03*
%TD*%
D14*
%TO.C,Stab_Enter1*%
X256411250Y-75238750D03*
D17*
X280223750Y-59998750D03*
X256411250Y-59998750D03*
D14*
X280223750Y-75238750D03*
%TD*%
D15*
%TO.C,T1*%
X123378750Y-47933750D03*
D14*
X118298750Y-47933750D03*
D15*
X113218750Y-47933750D03*
D16*
X114488750Y-45393750D03*
X120838750Y-42853750D03*
%TD*%
D15*
%TO.C,J3*%
X156081250Y-66983750D03*
D14*
X161161250Y-66983750D03*
D15*
X166241250Y-66983750D03*
D16*
X157351250Y-64443750D03*
X163701250Y-61903750D03*
%TD*%
D14*
%TO.C,WIN1*%
X41304997Y-105083762D03*
D15*
X36224997Y-105083762D03*
X46384997Y-105083762D03*
D16*
X37494997Y-102543762D03*
X43844997Y-100003762D03*
%TD*%
D15*
%TO.C,ALT2*%
X232122497Y-105083762D03*
D14*
X227042497Y-105083762D03*
D15*
X221962497Y-105083762D03*
D16*
X223232497Y-102543762D03*
X229582497Y-100003762D03*
%TD*%
D18*
%TO.C,J1*%
X74020000Y-112390000D03*
D19*
X76560000Y-112390000D03*
X79100000Y-112390000D03*
X81640000Y-112390000D03*
X84180000Y-112390000D03*
%TD*%
D14*
%TO.C,H1*%
X142111250Y-66983750D03*
D15*
X137031250Y-66983750D03*
X147191250Y-66983750D03*
D16*
X138301250Y-64443750D03*
X144651250Y-61903750D03*
%TD*%
D15*
%TO.C,<1*%
X194816250Y-86033750D03*
D14*
X189736250Y-86033750D03*
D15*
X184656250Y-86033750D03*
D16*
X185926250Y-83493750D03*
X192276250Y-80953750D03*
%TD*%
D14*
%TO.C,Stab_Spc2.25*%
X107993520Y-96824148D03*
X131806020Y-96824148D03*
D20*
X107993520Y-112064148D03*
X131806020Y-112064148D03*
%TD*%
D15*
%TO.C,U4*%
X161478750Y-47933750D03*
X151318750Y-47933750D03*
D14*
X156398750Y-47933750D03*
D16*
X152588750Y-45393750D03*
X158938750Y-42853750D03*
%TD*%
D14*
%TO.C,L1*%
X199261250Y-66983750D03*
D15*
X204341250Y-66983750D03*
X194181250Y-66983750D03*
D16*
X195451250Y-64443750D03*
X201801250Y-61903750D03*
%TD*%
D14*
%TO.C,Stab_Spc7u1*%
X88930000Y-96828750D03*
D20*
X203230000Y-112068750D03*
X88930000Y-112068750D03*
D14*
X203230000Y-96828750D03*
%TD*%
D15*
%TO.C,TAB1*%
X23366250Y-47933750D03*
D14*
X18286250Y-47933750D03*
D15*
X13206250Y-47933750D03*
D16*
X14476250Y-45393750D03*
X20826250Y-42853750D03*
%TD*%
D15*
%TO.C,[1*%
X227518750Y-47933750D03*
X237678750Y-47933750D03*
D14*
X232598750Y-47933750D03*
D16*
X228788750Y-45393750D03*
X235138750Y-42853750D03*
%TD*%
D14*
%TO.C,I1*%
X175448750Y-47933750D03*
D15*
X170368750Y-47933750D03*
X180528750Y-47933750D03*
D16*
X171638750Y-45393750D03*
X177988750Y-42853750D03*
%TD*%
D14*
%TO.C,F2*%
X104011250Y-66983750D03*
D15*
X109091250Y-66983750D03*
X98931250Y-66983750D03*
D16*
X100201250Y-64443750D03*
X106551250Y-61903750D03*
%TD*%
D14*
%TO.C,STEPCTRL1*%
X15905000Y-66983750D03*
D15*
X20985000Y-66983750D03*
X10825000Y-66983750D03*
D16*
X12095000Y-64443750D03*
X18445000Y-61903750D03*
%TD*%
D15*
%TO.C,V1*%
X108456250Y-86033750D03*
X118616250Y-86033750D03*
D14*
X113536250Y-86033750D03*
D16*
X109726250Y-83493750D03*
X116076250Y-80953750D03*
%TD*%
D14*
%TO.C,SHIFT3*%
X263555000Y-86033750D03*
D15*
X268635000Y-86033750D03*
X258475000Y-86033750D03*
D16*
X259745000Y-83493750D03*
X266095000Y-80953750D03*
%TD*%
D14*
%TO.C,CTRL1*%
X20667500Y-66983750D03*
D15*
X25747500Y-66983750D03*
X15587500Y-66983750D03*
D16*
X16857500Y-64443750D03*
X23207500Y-61903750D03*
%TD*%
D14*
%TO.C,BSPC1*%
X275461250Y-47933750D03*
D15*
X280541250Y-47933750D03*
X270381250Y-47933750D03*
D16*
X271651250Y-45393750D03*
X278001250Y-42853750D03*
%TD*%
D14*
%TO.C,SPACE_7u1*%
X146080000Y-105083750D03*
D15*
X151160000Y-105083750D03*
X141000000Y-105083750D03*
D16*
X142270000Y-102543750D03*
X148620000Y-100003750D03*
%TD*%
D15*
%TO.C,Y2*%
X132268750Y-47933750D03*
X142428750Y-47933750D03*
D14*
X137348750Y-47933750D03*
D16*
X133538750Y-45393750D03*
X139888750Y-42853750D03*
%TD*%
D14*
%TO.C,Stab_Spc2.75*%
X179417500Y-96828750D03*
D20*
X179417500Y-112068750D03*
D14*
X155605000Y-96828750D03*
D20*
X155605000Y-112068750D03*
%TD*%
D15*
%TO.C,SHIFT2*%
X248950000Y-86033750D03*
D14*
X254030000Y-86033750D03*
D15*
X259110000Y-86033750D03*
D16*
X250220000Y-83493750D03*
X256570000Y-80953750D03*
%TD*%
D15*
%TO.C,SPACE2.25*%
X114806250Y-105083750D03*
X124966250Y-105083750D03*
D14*
X119886250Y-105083750D03*
D16*
X116076250Y-102543750D03*
X122426250Y-100003750D03*
%TD*%
D14*
%TO.C,SPACE2.75*%
X167511250Y-105083750D03*
D15*
X162431250Y-105083750D03*
X172591250Y-105083750D03*
D16*
X163701250Y-102543750D03*
X170051250Y-100003750D03*
%TD*%
D15*
%TO.C,FN1*%
X285303750Y-86033750D03*
X275143750Y-86033750D03*
D14*
X280223750Y-86033750D03*
D16*
X276413750Y-83493750D03*
X282763750Y-80953750D03*
%TD*%
D15*
%TO.C,B1*%
X127506250Y-86033750D03*
X137666250Y-86033750D03*
D14*
X132586250Y-86033750D03*
D16*
X128776250Y-83493750D03*
X135126250Y-80953750D03*
%TD*%
D15*
%TO.C,SHIFT1*%
X20350000Y-86033750D03*
D14*
X25430000Y-86033750D03*
D15*
X30510000Y-86033750D03*
D16*
X21620000Y-83493750D03*
X27970000Y-80953750D03*
%TD*%
D15*
%TO.C,ALT1*%
X60037497Y-105083762D03*
D14*
X65117497Y-105083762D03*
D15*
X70197497Y-105083762D03*
D16*
X61307497Y-102543762D03*
X67657497Y-100003762D03*
%TD*%
D14*
%TO.C,Stab_RShift1*%
X275461250Y-94288750D03*
D17*
X275461250Y-79048750D03*
D14*
X251648750Y-94288750D03*
D17*
X251648750Y-79048750D03*
%TD*%
D15*
%TO.C,M1*%
X175766250Y-86033750D03*
D14*
X170686250Y-86033750D03*
D15*
X165606250Y-86033750D03*
D16*
X166876250Y-83493750D03*
X173226250Y-80953750D03*
%TD*%
D14*
%TO.C,Z1*%
X56386250Y-86033750D03*
D15*
X61466250Y-86033750D03*
X51306250Y-86033750D03*
D16*
X52576250Y-83493750D03*
X58926250Y-80953750D03*
%TD*%
D15*
%TO.C,C18*%
X89406250Y-86033750D03*
D14*
X94486250Y-86033750D03*
D15*
X99566250Y-86033750D03*
D16*
X90676250Y-83493750D03*
X97026250Y-80953750D03*
%TD*%
D14*
%TO.C,Stab_LShift1*%
X13523750Y-94288750D03*
D17*
X37336250Y-79048750D03*
D14*
X37336250Y-94288750D03*
D17*
X13523750Y-79048750D03*
%TD*%
D15*
%TO.C,S1*%
X70991250Y-66983750D03*
X60831250Y-66983750D03*
D14*
X65911250Y-66983750D03*
D16*
X62101250Y-64443750D03*
X68451250Y-61903750D03*
%TD*%
D15*
%TO.C,A1*%
X41781250Y-66983750D03*
X51941250Y-66983750D03*
D14*
X46861250Y-66983750D03*
D16*
X43051250Y-64443750D03*
X49401250Y-61903750D03*
%TD*%
D14*
%TO.C,'1*%
X237361250Y-66983750D03*
D15*
X242441250Y-66983750D03*
X232281250Y-66983750D03*
D16*
X233551250Y-64443750D03*
X239901250Y-61903750D03*
%TD*%
D15*
%TO.C,X1*%
X70356250Y-86033750D03*
D14*
X75436250Y-86033750D03*
D15*
X80516250Y-86033750D03*
D16*
X71626250Y-83493750D03*
X77976250Y-80953750D03*
%TD*%
D15*
%TO.C,/1*%
X222756250Y-86033750D03*
D14*
X227836250Y-86033750D03*
D15*
X232916250Y-86033750D03*
D16*
X224026250Y-83493750D03*
X230376250Y-80953750D03*
%TD*%
D15*
%TO.C,R6*%
X104328750Y-47933750D03*
D14*
X99248750Y-47933750D03*
D15*
X94168750Y-47933750D03*
D16*
X95438750Y-45393750D03*
X101788750Y-42853750D03*
%TD*%
D15*
%TO.C,RMOD11*%
X198150000Y-105083750D03*
X208310000Y-105083750D03*
D14*
X203230000Y-105083750D03*
D16*
X199420000Y-102543750D03*
X205770000Y-100003750D03*
%TD*%
D14*
%TO.C,K1*%
X180211250Y-66983750D03*
D15*
X175131250Y-66983750D03*
X185291250Y-66983750D03*
D16*
X176401250Y-64443750D03*
X182751250Y-61903750D03*
%TD*%
D14*
%TO.C,WIN2*%
X250855000Y-105083750D03*
D15*
X255935000Y-105083750D03*
X245775000Y-105083750D03*
D16*
X247045000Y-102543750D03*
X253395000Y-100003750D03*
%TD*%
D14*
%TO.C,>1*%
X208786250Y-86033750D03*
D15*
X203706250Y-86033750D03*
X213866250Y-86033750D03*
D16*
X204976250Y-83493750D03*
X211326250Y-80953750D03*
%TD*%
D15*
%TO.C,N1*%
X156716250Y-86033750D03*
X146556250Y-86033750D03*
D14*
X151636250Y-86033750D03*
D16*
X147826250Y-83493750D03*
X154176250Y-80953750D03*
%TD*%
D15*
%TO.C,]1*%
X256728750Y-47933750D03*
D14*
X251648750Y-47933750D03*
D15*
X246568750Y-47933750D03*
D16*
X247838750Y-45393750D03*
X254188750Y-42853750D03*
%TD*%
D15*
%TO.C,ENTER1*%
X273397500Y-66983750D03*
D14*
X268317500Y-66983750D03*
D15*
X263237500Y-66983750D03*
D16*
X264507500Y-64443750D03*
X270857500Y-61903750D03*
%TD*%
D15*
%TO.C,O1*%
X189418750Y-47933750D03*
D14*
X194498750Y-47933750D03*
D15*
X199578750Y-47933750D03*
D16*
X190688750Y-45393750D03*
X197038750Y-42853750D03*
%TD*%
D14*
%TO.C,LMOD1*%
X88930000Y-105083750D03*
D15*
X83850000Y-105083750D03*
X94010000Y-105083750D03*
D16*
X85120000Y-102543750D03*
X91470000Y-100003750D03*
%TD*%
D21*
%TO.C,C11*%
X97667500Y-56791250D03*
X97667500Y-55831250D03*
%TD*%
D22*
%TO.C,D32*%
X188942500Y-70221250D03*
X188942500Y-66921250D03*
%TD*%
D23*
%TO.C,U1*%
X103692500Y-99897500D03*
X103692500Y-100297500D03*
X103692500Y-100697500D03*
X103692500Y-101097500D03*
X103692500Y-101497500D03*
X103692500Y-101897500D03*
X103692500Y-102297500D03*
X103692500Y-102697500D03*
X103692500Y-103097500D03*
X103692500Y-103497500D03*
X103692500Y-103897500D03*
X103692500Y-104297500D03*
X103692500Y-104697500D03*
X103692500Y-105097500D03*
D24*
X102855000Y-105935000D03*
X102455000Y-105935000D03*
X102055000Y-105935000D03*
X101655000Y-105935000D03*
X101255000Y-105935000D03*
X100855000Y-105935000D03*
X100455000Y-105935000D03*
X100055000Y-105935000D03*
X99655000Y-105935000D03*
X99255000Y-105935000D03*
X98855000Y-105935000D03*
X98455000Y-105935000D03*
X98055000Y-105935000D03*
X97655000Y-105935000D03*
D23*
X96817500Y-105097500D03*
X96817500Y-104697500D03*
X96817500Y-104297500D03*
X96817500Y-103897500D03*
X96817500Y-103497500D03*
X96817500Y-103097500D03*
X96817500Y-102697500D03*
X96817500Y-102297500D03*
X96817500Y-101897500D03*
X96817500Y-101497500D03*
X96817500Y-101097500D03*
X96817500Y-100697500D03*
X96817500Y-100297500D03*
X96817500Y-99897500D03*
D24*
X97655000Y-99060000D03*
X98055000Y-99060000D03*
X98455000Y-99060000D03*
X98855000Y-99060000D03*
X99255000Y-99060000D03*
X99655000Y-99060000D03*
X100055000Y-99060000D03*
X100455000Y-99060000D03*
X100855000Y-99060000D03*
X101255000Y-99060000D03*
X101655000Y-99060000D03*
X102055000Y-99060000D03*
X102455000Y-99060000D03*
X102855000Y-99060000D03*
D25*
X100255000Y-102497500D03*
%TD*%
D22*
%TO.C,D1*%
X27017500Y-50377500D03*
X27017500Y-47077500D03*
%TD*%
%TO.C,D20*%
X131792500Y-70221250D03*
X131792500Y-66921250D03*
%TD*%
%TO.C,D44*%
X245298750Y-70158750D03*
X245298750Y-66858750D03*
%TD*%
D21*
%TO.C,C6*%
X96537500Y-97417500D03*
X96537500Y-96457500D03*
%TD*%
D22*
%TO.C,D39*%
X222280000Y-50440000D03*
X222280000Y-47140000D03*
%TD*%
%TO.C,D15*%
X107980000Y-50440000D03*
X107980000Y-47140000D03*
%TD*%
%TO.C,D26*%
X150842500Y-93846250D03*
X150842500Y-97146250D03*
%TD*%
%TO.C,D4*%
X50830000Y-50377500D03*
X50830000Y-47077500D03*
%TD*%
D26*
%TO.C,R4*%
X123650000Y-89560000D03*
X122630000Y-89560000D03*
%TD*%
D27*
%TO.C,C4*%
X90787500Y-54891250D03*
X90787500Y-55851250D03*
%TD*%
D22*
%TO.C,D10*%
X50036250Y-107527500D03*
X50036250Y-104227500D03*
%TD*%
%TO.C,D24*%
X150842500Y-70221250D03*
X150842500Y-66921250D03*
%TD*%
D18*
%TO.C,SW7*%
X123630000Y-84760000D03*
D19*
X123630000Y-87300000D03*
%TD*%
D28*
%TO.C,C5*%
X94377500Y-99087500D03*
X93417500Y-99087500D03*
%TD*%
D22*
%TO.C,D28*%
X169892500Y-70221250D03*
X169892500Y-66921250D03*
%TD*%
%TO.C,D49*%
X271492500Y-89271250D03*
X271492500Y-85971250D03*
%TD*%
D29*
%TO.C,D3*%
X38986250Y-84446250D03*
X35686250Y-84446250D03*
%TD*%
D22*
%TO.C,D17*%
X121473750Y-78033750D03*
X121473750Y-81333750D03*
%TD*%
%TO.C,D47*%
X260380000Y-50315000D03*
X260380000Y-47015000D03*
%TD*%
%TO.C,D42*%
X259025000Y-107400000D03*
X259025000Y-104100000D03*
%TD*%
%TO.C,D50*%
X283398750Y-50440000D03*
X283398750Y-47140000D03*
%TD*%
%TO.C,D8*%
X74642500Y-70221250D03*
X74642500Y-66921250D03*
%TD*%
D30*
%TO.C,R5*%
X100627500Y-109737500D03*
X100627500Y-108717500D03*
%TD*%
D22*
%TO.C,D48*%
X277048750Y-70221250D03*
X277048750Y-66921250D03*
%TD*%
%TO.C,D34*%
X211961250Y-107465000D03*
X211961250Y-104165000D03*
%TD*%
%TO.C,D30*%
X174655000Y-97940000D03*
X174655000Y-101240000D03*
%TD*%
D31*
%TO.C,U2*%
X120887500Y-90377500D03*
X120887500Y-91647500D03*
X120887500Y-92917500D03*
X120887500Y-94187500D03*
X113687500Y-94187500D03*
X113687500Y-92917500D03*
X113687500Y-91647500D03*
X113687500Y-90377500D03*
%TD*%
D22*
%TO.C,D23*%
X146080000Y-50440000D03*
X146080000Y-47140000D03*
%TD*%
%TO.C,D41*%
X235773750Y-89271250D03*
X235773750Y-85971250D03*
%TD*%
%TO.C,D9*%
X84167500Y-77240000D03*
X84167500Y-80540000D03*
%TD*%
%TO.C,D12*%
X93692500Y-70221250D03*
X93692500Y-66921250D03*
%TD*%
D32*
%TO.C,U3*%
X93472500Y-56767500D03*
X93472500Y-54867500D03*
X95347500Y-55817500D03*
%TD*%
D22*
%TO.C,D43*%
X241330000Y-50377500D03*
X241330000Y-47077500D03*
%TD*%
D27*
%TO.C,C2*%
X98390000Y-108920000D03*
X98390000Y-109880000D03*
%TD*%
D21*
%TO.C,C15*%
X91807500Y-55851250D03*
X91807500Y-54891250D03*
%TD*%
D22*
%TO.C,D29*%
X179417500Y-89208750D03*
X179417500Y-85908750D03*
%TD*%
D28*
%TO.C,C7*%
X94385000Y-100116250D03*
X93425000Y-100116250D03*
%TD*%
%TO.C,C10*%
X93160000Y-103810000D03*
X92200000Y-103810000D03*
%TD*%
D33*
%TO.C,Y1*%
X101237500Y-111377500D03*
X103437500Y-111377500D03*
X103437500Y-113077500D03*
X101237500Y-113077500D03*
%TD*%
D22*
%TO.C,D36*%
X207992500Y-70158750D03*
X207992500Y-66858750D03*
%TD*%
D34*
%TO.C,R1*%
X116420000Y-72120000D03*
X116420000Y-73770000D03*
%TD*%
D35*
%TO.C,F1*%
X104753750Y-56040000D03*
X101953750Y-56040000D03*
%TD*%
D21*
%TO.C,C13*%
X105177500Y-98887500D03*
X105177500Y-97927500D03*
%TD*%
D22*
%TO.C,D25*%
X159573750Y-89271250D03*
X159573750Y-85971250D03*
%TD*%
%TO.C,D14*%
X73848750Y-107527500D03*
X73848750Y-104227500D03*
%TD*%
%TO.C,D52*%
X288161250Y-89271250D03*
X288161250Y-85971250D03*
%TD*%
D21*
%TO.C,C1*%
X100230000Y-95560000D03*
X100230000Y-94600000D03*
%TD*%
D22*
%TO.C,D6*%
X65117500Y-77240000D03*
X65117500Y-80540000D03*
%TD*%
%TO.C,D40*%
X227042500Y-70221250D03*
X227042500Y-66921250D03*
%TD*%
D26*
%TO.C,R3*%
X78200000Y-109900000D03*
X77180000Y-109900000D03*
%TD*%
D22*
%TO.C,D19*%
X127030000Y-50377500D03*
X127030000Y-47077500D03*
%TD*%
%TO.C,D2*%
X31050000Y-68360000D03*
X31050000Y-65060000D03*
%TD*%
%TO.C,D18*%
X92090000Y-91170000D03*
X92090000Y-94470000D03*
%TD*%
%TO.C,D5*%
X55592500Y-73396250D03*
X55592500Y-70096250D03*
%TD*%
%TO.C,D21*%
X141317500Y-89271250D03*
X141317500Y-85971250D03*
%TD*%
%TO.C,D31*%
X184180000Y-50440000D03*
X184180000Y-47140000D03*
%TD*%
%TO.C,D16*%
X111710000Y-70220000D03*
X111710000Y-66920000D03*
%TD*%
%TO.C,D27*%
X165130000Y-50377500D03*
X165130000Y-47077500D03*
%TD*%
%TO.C,D13*%
X105257500Y-77007500D03*
X105257500Y-80307500D03*
%TD*%
%TO.C,D35*%
X203230000Y-50377500D03*
X203230000Y-47077500D03*
%TD*%
%TO.C,D38*%
X235773750Y-107527500D03*
X235773750Y-104227500D03*
%TD*%
D21*
%TO.C,C17*%
X99696250Y-112548750D03*
X99696250Y-111588750D03*
%TD*%
%TO.C,C8*%
X111737500Y-90347500D03*
X111737500Y-89387500D03*
%TD*%
D22*
%TO.C,D11*%
X88930000Y-50377500D03*
X88930000Y-47077500D03*
%TD*%
D27*
%TO.C,C16*%
X105340000Y-112150000D03*
X105340000Y-113110000D03*
%TD*%
%TO.C,C14*%
X99400000Y-109000000D03*
X99400000Y-109960000D03*
%TD*%
D34*
%TO.C,R2*%
X114880000Y-72060000D03*
X114880000Y-73710000D03*
%TD*%
D22*
%TO.C,D33*%
X197673750Y-89271250D03*
X197673750Y-85971250D03*
%TD*%
%TO.C,D22*%
X127030000Y-93846250D03*
X127030000Y-97146250D03*
%TD*%
D21*
%TO.C,C3*%
X97537500Y-97417500D03*
X97537500Y-96457500D03*
%TD*%
%TO.C,C9*%
X99210000Y-95540000D03*
X99210000Y-94580000D03*
%TD*%
D22*
%TO.C,D7*%
X69880000Y-50377500D03*
X69880000Y-47077500D03*
%TD*%
D36*
%TO.C,C12*%
X106420000Y-104390000D03*
X107380000Y-104390000D03*
%TD*%
D22*
%TO.C,D37*%
X216723750Y-89271250D03*
X216723750Y-85971250D03*
%TD*%
M02*
