%TF.GenerationSoftware,KiCad,Pcbnew,(6.0.6)*%
%TF.CreationDate,2022-08-10T17:01:52+02:00*%
%TF.ProjectId,rabid40,72616269-6434-4302-9e6b-696361645f70,rev?*%
%TF.SameCoordinates,Original*%
%TF.FileFunction,Soldermask,Bot*%
%TF.FilePolarity,Negative*%
%FSLAX46Y46*%
G04 Gerber Fmt 4.6, Leading zero omitted, Abs format (unit mm)*
G04 Created by KiCad (PCBNEW (6.0.6)) date 2022-08-10 17:01:52*
%MOMM*%
%LPD*%
G01*
G04 APERTURE LIST*
G04 Aperture macros list*
%AMRoundRect*
0 Rectangle with rounded corners*
0 $1 Rounding radius*
0 $2 $3 $4 $5 $6 $7 $8 $9 X,Y pos of 4 corners*
0 Add a 4 corners polygon primitive as box body*
4,1,4,$2,$3,$4,$5,$6,$7,$8,$9,$2,$3,0*
0 Add four circle primitives for the rounded corners*
1,1,$1+$1,$2,$3*
1,1,$1+$1,$4,$5*
1,1,$1+$1,$6,$7*
1,1,$1+$1,$8,$9*
0 Add four rect primitives between the rounded corners*
20,1,$1+$1,$2,$3,$4,$5,0*
20,1,$1+$1,$4,$5,$6,$7,0*
20,1,$1+$1,$6,$7,$8,$9,0*
20,1,$1+$1,$8,$9,$2,$3,0*%
G04 Aperture macros list end*
%ADD10C,1.750000*%
%ADD11C,3.987800*%
%ADD12C,2.300000*%
%ADD13O,1.700000X1.950000*%
%ADD14RoundRect,0.250000X-0.600000X-0.725000X0.600000X-0.725000X0.600000X0.725000X-0.600000X0.725000X0*%
%ADD15C,3.048000*%
%ADD16O,1.700000X1.700000*%
%ADD17R,1.700000X1.700000*%
%ADD18C,4.000000*%
%ADD19RoundRect,0.140000X0.170000X-0.140000X0.170000X0.140000X-0.170000X0.140000X-0.170000X-0.140000X0*%
%ADD20R,1.200000X0.900000*%
%ADD21RoundRect,0.144000X1.456000X1.456000X-1.456000X1.456000X-1.456000X-1.456000X1.456000X-1.456000X0*%
%ADD22RoundRect,0.050000X0.050000X0.387500X-0.050000X0.387500X-0.050000X-0.387500X0.050000X-0.387500X0*%
%ADD23RoundRect,0.050000X0.387500X0.050000X-0.387500X0.050000X-0.387500X-0.050000X0.387500X-0.050000X0*%
%ADD24RoundRect,0.135000X0.135000X0.185000X-0.135000X0.185000X-0.135000X-0.185000X0.135000X-0.185000X0*%
%ADD25RoundRect,0.140000X-0.170000X0.140000X-0.170000X-0.140000X0.170000X-0.140000X0.170000X0.140000X0*%
%ADD26RoundRect,0.140000X0.140000X0.170000X-0.140000X0.170000X-0.140000X-0.170000X0.140000X-0.170000X0*%
%ADD27R,0.900000X1.200000*%
%ADD28RoundRect,0.135000X0.185000X-0.135000X0.185000X0.135000X-0.185000X0.135000X-0.185000X-0.135000X0*%
%ADD29RoundRect,0.150000X0.650000X0.150000X-0.650000X0.150000X-0.650000X-0.150000X0.650000X-0.150000X0*%
%ADD30RoundRect,0.150000X-0.587500X-0.150000X0.587500X-0.150000X0.587500X0.150000X-0.587500X0.150000X0*%
%ADD31R,1.400000X1.200000*%
%ADD32RoundRect,0.200000X-0.275000X0.200000X-0.275000X-0.200000X0.275000X-0.200000X0.275000X0.200000X0*%
%ADD33RoundRect,0.250000X0.375000X0.625000X-0.375000X0.625000X-0.375000X-0.625000X0.375000X-0.625000X0*%
%ADD34RoundRect,0.135000X-0.135000X-0.185000X0.135000X-0.185000X0.135000X0.185000X-0.135000X0.185000X0*%
%ADD35RoundRect,0.140000X-0.140000X-0.170000X0.140000X-0.170000X0.140000X0.170000X-0.140000X0.170000X0*%
G04 APERTURE END LIST*
D10*
%TO.C,Alt1*%
X70197500Y-105083750D03*
D11*
X65117500Y-105083750D03*
D10*
X60037500Y-105083750D03*
D12*
X61307500Y-102543750D03*
X67657500Y-100003750D03*
%TD*%
D10*
%TO.C,Alt2*%
X232122500Y-105083750D03*
D11*
X227042500Y-105083750D03*
D10*
X221962500Y-105083750D03*
D12*
X223232500Y-102543750D03*
X229582500Y-100003750D03*
%TD*%
D13*
%TO.C,J2*%
X121130000Y-59172500D03*
X118630000Y-59172500D03*
X116130000Y-59172500D03*
D14*
X113630000Y-59172500D03*
%TD*%
D12*
%TO.C,F2*%
X106551250Y-61903750D03*
X100201250Y-64443750D03*
D10*
X98931250Y-66983750D03*
X109091250Y-66983750D03*
D11*
X104011250Y-66983750D03*
%TD*%
D12*
%TO.C,P1*%
X216088750Y-42853750D03*
X209738750Y-45393750D03*
D10*
X218628750Y-47933750D03*
X208468750Y-47933750D03*
D11*
X213548750Y-47933750D03*
%TD*%
D12*
%TO.C,Q1*%
X44638750Y-42853750D03*
X38288750Y-45393750D03*
D10*
X47178750Y-47933750D03*
D11*
X42098750Y-47933750D03*
D10*
X37018750Y-47933750D03*
%TD*%
D12*
%TO.C,W1*%
X63688750Y-42853750D03*
X57338750Y-45393750D03*
D10*
X66228750Y-47933750D03*
X56068750Y-47933750D03*
D11*
X61148750Y-47933750D03*
%TD*%
%TO.C,G1*%
X123061250Y-66983750D03*
D10*
X128141250Y-66983750D03*
X117981250Y-66983750D03*
D12*
X119251250Y-64443750D03*
X125601250Y-61903750D03*
%TD*%
%TO.C,D46*%
X87501250Y-61903750D03*
X81151250Y-64443750D03*
D10*
X79881250Y-66983750D03*
D11*
X84961250Y-66983750D03*
D10*
X90041250Y-66983750D03*
%TD*%
D12*
%TO.C,E1*%
X82738750Y-42853750D03*
X76388750Y-45393750D03*
D11*
X80198750Y-47933750D03*
D10*
X85278750Y-47933750D03*
X75118750Y-47933750D03*
%TD*%
D12*
%TO.C,;1*%
X220851250Y-61903750D03*
X214501250Y-64443750D03*
D10*
X223391250Y-66983750D03*
X213231250Y-66983750D03*
D11*
X218311250Y-66983750D03*
%TD*%
%TO.C,Stab_Enter1*%
X280223750Y-75238750D03*
D15*
X256411250Y-59998750D03*
X280223750Y-59998750D03*
D11*
X256411250Y-75238750D03*
%TD*%
D12*
%TO.C,T1*%
X120838750Y-42853750D03*
X114488750Y-45393750D03*
D10*
X113218750Y-47933750D03*
D11*
X118298750Y-47933750D03*
D10*
X123378750Y-47933750D03*
%TD*%
D12*
%TO.C,J3*%
X163701250Y-61903750D03*
X157351250Y-64443750D03*
D10*
X166241250Y-66983750D03*
D11*
X161161250Y-66983750D03*
D10*
X156081250Y-66983750D03*
%TD*%
D12*
%TO.C,Win1*%
X43845000Y-100003750D03*
X37495000Y-102543750D03*
D10*
X46385000Y-105083750D03*
X36225000Y-105083750D03*
D11*
X41305000Y-105083750D03*
%TD*%
D16*
%TO.C,J1*%
X65190000Y-94530000D03*
X67730000Y-94530000D03*
X70270000Y-94530000D03*
X72810000Y-94530000D03*
D17*
X75350000Y-94530000D03*
%TD*%
D12*
%TO.C,H1*%
X144651250Y-61903750D03*
X138301250Y-64443750D03*
D10*
X147191250Y-66983750D03*
X137031250Y-66983750D03*
D11*
X142111250Y-66983750D03*
%TD*%
D12*
%TO.C,<1*%
X192276250Y-80953750D03*
X185926250Y-83493750D03*
D10*
X184656250Y-86033750D03*
D11*
X189736250Y-86033750D03*
D10*
X194816250Y-86033750D03*
%TD*%
D11*
%TO.C,Stab_Spc2.25*%
X107993520Y-96824148D03*
X131806020Y-96824148D03*
D18*
X107993520Y-112064148D03*
X131806020Y-112064148D03*
%TD*%
D12*
%TO.C,U4*%
X158938750Y-42853750D03*
X152588750Y-45393750D03*
D11*
X156398750Y-47933750D03*
D10*
X151318750Y-47933750D03*
X161478750Y-47933750D03*
%TD*%
D12*
%TO.C,L1*%
X201801250Y-61903750D03*
X195451250Y-64443750D03*
D10*
X194181250Y-66983750D03*
X204341250Y-66983750D03*
D11*
X199261250Y-66983750D03*
%TD*%
%TO.C,Stab_Spc7u1*%
X203230000Y-96828750D03*
D18*
X88930000Y-112068750D03*
X203230000Y-112068750D03*
D11*
X88930000Y-96828750D03*
%TD*%
D12*
%TO.C,Tab1*%
X20826250Y-42853750D03*
X14476250Y-45393750D03*
D10*
X13206250Y-47933750D03*
D11*
X18286250Y-47933750D03*
D10*
X23366250Y-47933750D03*
%TD*%
D12*
%TO.C,[1*%
X235138750Y-42853750D03*
X228788750Y-45393750D03*
D11*
X232598750Y-47933750D03*
D10*
X237678750Y-47933750D03*
X227518750Y-47933750D03*
%TD*%
D12*
%TO.C,I1*%
X177988750Y-42853750D03*
X171638750Y-45393750D03*
D10*
X180528750Y-47933750D03*
X170368750Y-47933750D03*
D11*
X175448750Y-47933750D03*
%TD*%
D12*
%TO.C,StepCtrl1*%
X18445000Y-61903750D03*
X12095000Y-64443750D03*
D10*
X10825000Y-66983750D03*
X20985000Y-66983750D03*
D11*
X15905000Y-66983750D03*
%TD*%
D12*
%TO.C,V1*%
X116076250Y-80953750D03*
X109726250Y-83493750D03*
D11*
X113536250Y-86033750D03*
D10*
X118616250Y-86033750D03*
X108456250Y-86033750D03*
%TD*%
D12*
%TO.C,Shift3*%
X266095000Y-80953750D03*
X259745000Y-83493750D03*
D10*
X258475000Y-86033750D03*
X268635000Y-86033750D03*
D11*
X263555000Y-86033750D03*
%TD*%
D12*
%TO.C,Ctrl1*%
X23207500Y-61903750D03*
X16857500Y-64443750D03*
D10*
X15587500Y-66983750D03*
X25747500Y-66983750D03*
D11*
X20667500Y-66983750D03*
%TD*%
D12*
%TO.C,Bspc1*%
X278001250Y-42853750D03*
X271651250Y-45393750D03*
D10*
X270381250Y-47933750D03*
X280541250Y-47933750D03*
D11*
X275461250Y-47933750D03*
%TD*%
D12*
%TO.C,Space_7u1*%
X148620000Y-100003750D03*
X142270000Y-102543750D03*
D10*
X141000000Y-105083750D03*
X151160000Y-105083750D03*
D11*
X146080000Y-105083750D03*
%TD*%
D12*
%TO.C,Y2*%
X139888750Y-42853750D03*
X133538750Y-45393750D03*
D11*
X137348750Y-47933750D03*
D10*
X142428750Y-47933750D03*
X132268750Y-47933750D03*
%TD*%
D18*
%TO.C,Stab_Spc2.75*%
X155605000Y-112068750D03*
D11*
X155605000Y-96828750D03*
D18*
X179417500Y-112068750D03*
D11*
X179417500Y-96828750D03*
%TD*%
D12*
%TO.C,Shift2*%
X256570000Y-80953750D03*
X250220000Y-83493750D03*
D10*
X259110000Y-86033750D03*
D11*
X254030000Y-86033750D03*
D10*
X248950000Y-86033750D03*
%TD*%
D12*
%TO.C,Space2.25*%
X122426250Y-100003750D03*
X116076250Y-102543750D03*
D11*
X119886250Y-105083750D03*
D10*
X124966250Y-105083750D03*
X114806250Y-105083750D03*
%TD*%
D12*
%TO.C,Space2.75*%
X170051250Y-100003750D03*
X163701250Y-102543750D03*
D10*
X172591250Y-105083750D03*
X162431250Y-105083750D03*
D11*
X167511250Y-105083750D03*
%TD*%
D12*
%TO.C,Fn1*%
X282763750Y-80953750D03*
X276413750Y-83493750D03*
D11*
X280223750Y-86033750D03*
D10*
X275143750Y-86033750D03*
X285303750Y-86033750D03*
%TD*%
D12*
%TO.C,B1*%
X135126250Y-80953750D03*
X128776250Y-83493750D03*
D11*
X132586250Y-86033750D03*
D10*
X137666250Y-86033750D03*
X127506250Y-86033750D03*
%TD*%
D12*
%TO.C,Shift1*%
X27970000Y-80953750D03*
X21620000Y-83493750D03*
D10*
X30510000Y-86033750D03*
D11*
X25430000Y-86033750D03*
D10*
X20350000Y-86033750D03*
%TD*%
D15*
%TO.C,Stab_RShift1*%
X251648750Y-79048750D03*
D11*
X251648750Y-94288750D03*
D15*
X275461250Y-79048750D03*
D11*
X275461250Y-94288750D03*
%TD*%
D12*
%TO.C,M1*%
X173226250Y-80953750D03*
X166876250Y-83493750D03*
D10*
X165606250Y-86033750D03*
D11*
X170686250Y-86033750D03*
D10*
X175766250Y-86033750D03*
%TD*%
D12*
%TO.C,Z1*%
X58926250Y-80953750D03*
X52576250Y-83493750D03*
D10*
X51306250Y-86033750D03*
X61466250Y-86033750D03*
D11*
X56386250Y-86033750D03*
%TD*%
D12*
%TO.C,C18*%
X97026250Y-80953750D03*
X90676250Y-83493750D03*
D10*
X99566250Y-86033750D03*
D11*
X94486250Y-86033750D03*
D10*
X89406250Y-86033750D03*
%TD*%
D15*
%TO.C,Stab_LShift1*%
X13523750Y-79048750D03*
D11*
X37336250Y-94288750D03*
D15*
X37336250Y-79048750D03*
D11*
X13523750Y-94288750D03*
%TD*%
D12*
%TO.C,S1*%
X68451250Y-61903750D03*
X62101250Y-64443750D03*
D11*
X65911250Y-66983750D03*
D10*
X60831250Y-66983750D03*
X70991250Y-66983750D03*
%TD*%
D12*
%TO.C,A1*%
X49401250Y-61903750D03*
X43051250Y-64443750D03*
D11*
X46861250Y-66983750D03*
D10*
X51941250Y-66983750D03*
X41781250Y-66983750D03*
%TD*%
D12*
%TO.C,'1*%
X239901250Y-61903750D03*
X233551250Y-64443750D03*
D10*
X232281250Y-66983750D03*
X242441250Y-66983750D03*
D11*
X237361250Y-66983750D03*
%TD*%
D12*
%TO.C,X1*%
X77976250Y-80953750D03*
X71626250Y-83493750D03*
D10*
X80516250Y-86033750D03*
D11*
X75436250Y-86033750D03*
D10*
X70356250Y-86033750D03*
%TD*%
D12*
%TO.C,/1*%
X230376250Y-80953750D03*
X224026250Y-83493750D03*
D10*
X232916250Y-86033750D03*
D11*
X227836250Y-86033750D03*
D10*
X222756250Y-86033750D03*
%TD*%
D12*
%TO.C,R6*%
X101788750Y-42853750D03*
X95438750Y-45393750D03*
D10*
X94168750Y-47933750D03*
D11*
X99248750Y-47933750D03*
D10*
X104328750Y-47933750D03*
%TD*%
D12*
%TO.C,RMod1*%
X205770000Y-100003750D03*
X199420000Y-102543750D03*
D11*
X203230000Y-105083750D03*
D10*
X208310000Y-105083750D03*
X198150000Y-105083750D03*
%TD*%
D12*
%TO.C,K1*%
X182751250Y-61903750D03*
X176401250Y-64443750D03*
D10*
X185291250Y-66983750D03*
X175131250Y-66983750D03*
D11*
X180211250Y-66983750D03*
%TD*%
D12*
%TO.C,Win2*%
X253395000Y-100003750D03*
X247045000Y-102543750D03*
D10*
X245775000Y-105083750D03*
X255935000Y-105083750D03*
D11*
X250855000Y-105083750D03*
%TD*%
D12*
%TO.C,>1*%
X211326250Y-80953750D03*
X204976250Y-83493750D03*
D10*
X213866250Y-86033750D03*
X203706250Y-86033750D03*
D11*
X208786250Y-86033750D03*
%TD*%
D12*
%TO.C,N1*%
X154176250Y-80953750D03*
X147826250Y-83493750D03*
D11*
X151636250Y-86033750D03*
D10*
X146556250Y-86033750D03*
X156716250Y-86033750D03*
%TD*%
D12*
%TO.C,]1*%
X254188750Y-42853750D03*
X247838750Y-45393750D03*
D10*
X246568750Y-47933750D03*
D11*
X251648750Y-47933750D03*
D10*
X256728750Y-47933750D03*
%TD*%
D12*
%TO.C,Enter1*%
X270857500Y-61903750D03*
X264507500Y-64443750D03*
D10*
X263237500Y-66983750D03*
D11*
X268317500Y-66983750D03*
D10*
X273397500Y-66983750D03*
%TD*%
D12*
%TO.C,O1*%
X197038750Y-42853750D03*
X190688750Y-45393750D03*
D10*
X199578750Y-47933750D03*
D11*
X194498750Y-47933750D03*
D10*
X189418750Y-47933750D03*
%TD*%
D12*
%TO.C,LMod1*%
X91470000Y-100003750D03*
X85120000Y-102543750D03*
D10*
X94010000Y-105083750D03*
X83850000Y-105083750D03*
D11*
X88930000Y-105083750D03*
%TD*%
D19*
%TO.C,C11*%
X97667500Y-55831250D03*
X97667500Y-56791250D03*
%TD*%
D20*
%TO.C,D32*%
X188942500Y-66921250D03*
X188942500Y-70221250D03*
%TD*%
D21*
%TO.C,U1*%
X100255000Y-102497500D03*
D22*
X102855000Y-99060000D03*
X102455000Y-99060000D03*
X102055000Y-99060000D03*
X101655000Y-99060000D03*
X101255000Y-99060000D03*
X100855000Y-99060000D03*
X100455000Y-99060000D03*
X100055000Y-99060000D03*
X99655000Y-99060000D03*
X99255000Y-99060000D03*
X98855000Y-99060000D03*
X98455000Y-99060000D03*
X98055000Y-99060000D03*
X97655000Y-99060000D03*
D23*
X96817500Y-99897500D03*
X96817500Y-100297500D03*
X96817500Y-100697500D03*
X96817500Y-101097500D03*
X96817500Y-101497500D03*
X96817500Y-101897500D03*
X96817500Y-102297500D03*
X96817500Y-102697500D03*
X96817500Y-103097500D03*
X96817500Y-103497500D03*
X96817500Y-103897500D03*
X96817500Y-104297500D03*
X96817500Y-104697500D03*
X96817500Y-105097500D03*
D22*
X97655000Y-105935000D03*
X98055000Y-105935000D03*
X98455000Y-105935000D03*
X98855000Y-105935000D03*
X99255000Y-105935000D03*
X99655000Y-105935000D03*
X100055000Y-105935000D03*
X100455000Y-105935000D03*
X100855000Y-105935000D03*
X101255000Y-105935000D03*
X101655000Y-105935000D03*
X102055000Y-105935000D03*
X102455000Y-105935000D03*
X102855000Y-105935000D03*
D23*
X103692500Y-105097500D03*
X103692500Y-104697500D03*
X103692500Y-104297500D03*
X103692500Y-103897500D03*
X103692500Y-103497500D03*
X103692500Y-103097500D03*
X103692500Y-102697500D03*
X103692500Y-102297500D03*
X103692500Y-101897500D03*
X103692500Y-101497500D03*
X103692500Y-101097500D03*
X103692500Y-100697500D03*
X103692500Y-100297500D03*
X103692500Y-99897500D03*
%TD*%
D20*
%TO.C,D1*%
X27017500Y-47077500D03*
X27017500Y-50377500D03*
%TD*%
%TO.C,D20*%
X131792500Y-66921250D03*
X131792500Y-70221250D03*
%TD*%
%TO.C,D44*%
X245298750Y-66858750D03*
X245298750Y-70158750D03*
%TD*%
D19*
%TO.C,C6*%
X96537500Y-96457500D03*
X96537500Y-97417500D03*
%TD*%
D20*
%TO.C,D39*%
X222280000Y-47140000D03*
X222280000Y-50440000D03*
%TD*%
%TO.C,D15*%
X107980000Y-47140000D03*
X107980000Y-50440000D03*
%TD*%
%TO.C,D26*%
X150842500Y-97146250D03*
X150842500Y-93846250D03*
%TD*%
%TO.C,D4*%
X50830000Y-47077500D03*
X50830000Y-50377500D03*
%TD*%
D24*
%TO.C,R4*%
X122630000Y-89560000D03*
X123650000Y-89560000D03*
%TD*%
D25*
%TO.C,C4*%
X90787500Y-55851250D03*
X90787500Y-54891250D03*
%TD*%
D20*
%TO.C,D10*%
X50036250Y-104227500D03*
X50036250Y-107527500D03*
%TD*%
%TO.C,D24*%
X150842500Y-66921250D03*
X150842500Y-70221250D03*
%TD*%
D16*
%TO.C,SW7*%
X123630000Y-87300000D03*
D17*
X123630000Y-84760000D03*
%TD*%
D26*
%TO.C,C5*%
X93417500Y-99087500D03*
X94377500Y-99087500D03*
%TD*%
D20*
%TO.C,D28*%
X169892500Y-66921250D03*
X169892500Y-70221250D03*
%TD*%
%TO.C,D49*%
X271492500Y-85971250D03*
X271492500Y-89271250D03*
%TD*%
D27*
%TO.C,D3*%
X35686250Y-84446250D03*
X38986250Y-84446250D03*
%TD*%
D20*
%TO.C,D17*%
X121473750Y-81333750D03*
X121473750Y-78033750D03*
%TD*%
%TO.C,D47*%
X260380000Y-47015000D03*
X260380000Y-50315000D03*
%TD*%
%TO.C,D42*%
X259025000Y-104100000D03*
X259025000Y-107400000D03*
%TD*%
%TO.C,D50*%
X283398750Y-47140000D03*
X283398750Y-50440000D03*
%TD*%
%TO.C,D8*%
X74642500Y-66921250D03*
X74642500Y-70221250D03*
%TD*%
D28*
%TO.C,R5*%
X100627500Y-108717500D03*
X100627500Y-109737500D03*
%TD*%
D20*
%TO.C,D48*%
X277048750Y-66921250D03*
X277048750Y-70221250D03*
%TD*%
%TO.C,D34*%
X211961250Y-104165000D03*
X211961250Y-107465000D03*
%TD*%
%TO.C,D30*%
X174655000Y-101240000D03*
X174655000Y-97940000D03*
%TD*%
D29*
%TO.C,U2*%
X113687500Y-90377500D03*
X113687500Y-91647500D03*
X113687500Y-92917500D03*
X113687500Y-94187500D03*
X120887500Y-94187500D03*
X120887500Y-92917500D03*
X120887500Y-91647500D03*
X120887500Y-90377500D03*
%TD*%
D20*
%TO.C,D23*%
X146080000Y-47140000D03*
X146080000Y-50440000D03*
%TD*%
%TO.C,D41*%
X235773750Y-85971250D03*
X235773750Y-89271250D03*
%TD*%
%TO.C,D9*%
X84167500Y-80540000D03*
X84167500Y-77240000D03*
%TD*%
%TO.C,D12*%
X93692500Y-66921250D03*
X93692500Y-70221250D03*
%TD*%
D30*
%TO.C,U3*%
X95347500Y-55817500D03*
X93472500Y-54867500D03*
X93472500Y-56767500D03*
%TD*%
D20*
%TO.C,D43*%
X241330000Y-47077500D03*
X241330000Y-50377500D03*
%TD*%
D25*
%TO.C,C2*%
X98390000Y-109880000D03*
X98390000Y-108920000D03*
%TD*%
D19*
%TO.C,C15*%
X91807500Y-54891250D03*
X91807500Y-55851250D03*
%TD*%
D20*
%TO.C,D29*%
X179417500Y-85908750D03*
X179417500Y-89208750D03*
%TD*%
D26*
%TO.C,C7*%
X93425000Y-100116250D03*
X94385000Y-100116250D03*
%TD*%
%TO.C,C10*%
X92200000Y-103810000D03*
X93160000Y-103810000D03*
%TD*%
D31*
%TO.C,Y1*%
X101237500Y-113077500D03*
X103437500Y-113077500D03*
X103437500Y-111377500D03*
X101237500Y-111377500D03*
%TD*%
D20*
%TO.C,D36*%
X207992500Y-66858750D03*
X207992500Y-70158750D03*
%TD*%
D32*
%TO.C,R1*%
X116420000Y-73770000D03*
X116420000Y-72120000D03*
%TD*%
D33*
%TO.C,F1*%
X101953750Y-56040000D03*
X104753750Y-56040000D03*
%TD*%
D19*
%TO.C,C13*%
X105177500Y-97927500D03*
X105177500Y-98887500D03*
%TD*%
D20*
%TO.C,D25*%
X159573750Y-85971250D03*
X159573750Y-89271250D03*
%TD*%
%TO.C,D14*%
X73848750Y-104227500D03*
X73848750Y-107527500D03*
%TD*%
%TO.C,D52*%
X288161250Y-85971250D03*
X288161250Y-89271250D03*
%TD*%
D19*
%TO.C,C1*%
X100230000Y-94600000D03*
X100230000Y-95560000D03*
%TD*%
D20*
%TO.C,D6*%
X65117500Y-80540000D03*
X65117500Y-77240000D03*
%TD*%
%TO.C,D40*%
X227042500Y-66921250D03*
X227042500Y-70221250D03*
%TD*%
D34*
%TO.C,R3*%
X75350000Y-98970000D03*
X74330000Y-98970000D03*
%TD*%
D20*
%TO.C,D19*%
X127030000Y-47077500D03*
X127030000Y-50377500D03*
%TD*%
%TO.C,D2*%
X31050000Y-65060000D03*
X31050000Y-68360000D03*
%TD*%
%TO.C,D18*%
X92090000Y-94470000D03*
X92090000Y-91170000D03*
%TD*%
%TO.C,D5*%
X55592500Y-70096250D03*
X55592500Y-73396250D03*
%TD*%
%TO.C,D21*%
X141317500Y-85971250D03*
X141317500Y-89271250D03*
%TD*%
%TO.C,D31*%
X184180000Y-47140000D03*
X184180000Y-50440000D03*
%TD*%
%TO.C,D16*%
X111710000Y-66920000D03*
X111710000Y-70220000D03*
%TD*%
%TO.C,D27*%
X165130000Y-47077500D03*
X165130000Y-50377500D03*
%TD*%
%TO.C,D13*%
X105257500Y-80307500D03*
X105257500Y-77007500D03*
%TD*%
%TO.C,D35*%
X203230000Y-47077500D03*
X203230000Y-50377500D03*
%TD*%
%TO.C,D38*%
X235773750Y-104227500D03*
X235773750Y-107527500D03*
%TD*%
D19*
%TO.C,C17*%
X99696250Y-111588750D03*
X99696250Y-112548750D03*
%TD*%
%TO.C,C8*%
X111737500Y-89387500D03*
X111737500Y-90347500D03*
%TD*%
D20*
%TO.C,D11*%
X88930000Y-47077500D03*
X88930000Y-50377500D03*
%TD*%
D25*
%TO.C,C16*%
X105340000Y-113110000D03*
X105340000Y-112150000D03*
%TD*%
%TO.C,C14*%
X99400000Y-109960000D03*
X99400000Y-109000000D03*
%TD*%
D32*
%TO.C,R2*%
X114880000Y-73710000D03*
X114880000Y-72060000D03*
%TD*%
D20*
%TO.C,D33*%
X197673750Y-85971250D03*
X197673750Y-89271250D03*
%TD*%
%TO.C,D22*%
X127030000Y-97146250D03*
X127030000Y-93846250D03*
%TD*%
D19*
%TO.C,C3*%
X97537500Y-96457500D03*
X97537500Y-97417500D03*
%TD*%
%TO.C,C9*%
X99210000Y-94580000D03*
X99210000Y-95540000D03*
%TD*%
D20*
%TO.C,D7*%
X69880000Y-47077500D03*
X69880000Y-50377500D03*
%TD*%
D35*
%TO.C,C12*%
X107380000Y-104390000D03*
X106420000Y-104390000D03*
%TD*%
D20*
%TO.C,D37*%
X216723750Y-85971250D03*
X216723750Y-89271250D03*
%TD*%
M02*
