M48
; DRILL file {KiCad (6.0.6)} date Wed Aug 10 23:25:01 2022
; FORMAT={-:-/ absolute / inch / decimal}
; #@! TF.CreationDate,2022-08-10T23:25:01+02:00
; #@! TF.GenerationSoftware,Kicad,Pcbnew,(6.0.6)
; #@! TF.FileFunction,NonPlated,1,2,NPTH
FMAT,2
INCH
; #@! TA.AperFunction,NonPlated,NPTH,ComponentDrill
T1C0.0689
; #@! TA.AperFunction,NonPlated,NPTH,ComponentDrill
T2C0.1200
; #@! TA.AperFunction,NonPlated,NPTH,ComponentDrill
T3C0.1570
%
G90
G05
T1
X0.4262Y-2.6372
X0.5199Y-1.8872
X0.6137Y-2.6372
X0.8012Y-3.3872
X0.8262Y-2.6372
X0.9199Y-1.8872
X1.0137Y-2.6372
X1.2012Y-3.3872
X1.4262Y-4.1372
X1.4574Y-1.8872
X1.6449Y-2.6372
X1.8262Y-4.1372
X1.8574Y-1.8872
X2.0199Y-3.3872
X2.0449Y-2.6372
X2.2074Y-1.8872
X2.3637Y-4.1372
X2.3949Y-2.6372
X2.4199Y-3.3872
X2.6074Y-1.8872
X2.7637Y-4.1372
X2.7699Y-3.3872
X2.7949Y-2.6372
X2.9574Y-1.8872
X3.1449Y-2.6372
X3.1699Y-3.3872
X3.3012Y-4.1372
X3.3574Y-1.8872
X3.5199Y-3.3872
X3.5449Y-2.6372
X3.7012Y-4.1372
X3.7074Y-1.8872
X3.8949Y-2.6372
X3.9199Y-3.3872
X4.1074Y-1.8872
X4.2699Y-3.3872
X4.2949Y-2.6372
X4.4574Y-1.8872
X4.5199Y-4.1372
X4.6449Y-2.6372
X4.6699Y-3.3872
X4.8574Y-1.8872
X4.9199Y-4.1372
X5.0199Y-3.3872
X5.0449Y-2.6372
X5.2074Y-1.8872
X5.3949Y-2.6372
X5.4199Y-3.3872
X5.5512Y-4.1372
X5.6074Y-1.8872
X5.7699Y-3.3872
X5.7949Y-2.6372
X5.9512Y-4.1372
X5.9574Y-1.8872
X6.1449Y-2.6372
X6.1699Y-3.3872
X6.3574Y-1.8872
X6.3949Y-4.1372
X6.5199Y-3.3872
X6.5449Y-2.6372
X6.7074Y-1.8872
X6.7949Y-4.1372
X6.8949Y-2.6372
X6.9199Y-3.3872
X7.1074Y-1.8872
X7.2699Y-3.3872
X7.2949Y-2.6372
X7.4574Y-1.8872
X7.6449Y-2.6372
X7.6699Y-3.3872
X7.8012Y-4.1372
X7.8574Y-1.8872
X8.0199Y-3.3872
X8.0449Y-2.6372
X8.2012Y-4.1372
X8.2074Y-1.8872
X8.3949Y-2.6372
X8.4199Y-3.3872
X8.6074Y-1.8872
X8.7387Y-4.1372
X8.7699Y-3.3872
X8.7949Y-2.6372
X8.9574Y-1.8872
X9.1387Y-4.1372
X9.1449Y-2.6372
X9.1699Y-3.3872
X9.3574Y-1.8872
X9.5449Y-2.6372
X9.6762Y-4.1372
X9.7074Y-1.8872
X9.8012Y-3.3872
X10.0762Y-4.1372
X10.1074Y-1.8872
X10.1762Y-3.3872
X10.2012Y-3.3872
X10.3637Y-2.6372
X10.5762Y-3.3872
X10.6449Y-1.8872
X10.7637Y-2.6372
X10.8324Y-3.3872
X11.0449Y-1.8872
X11.2324Y-3.3872
T2
X0.5324Y-3.1122
X1.4699Y-3.1122
X9.9074Y-3.1122
X10.0949Y-2.3622
X10.8449Y-3.1122
X11.0324Y-2.3622
T3
X0.5324Y-3.7122
X0.6262Y-2.6372
X0.7199Y-1.8872
X0.8137Y-2.6372
X1.0012Y-3.3872
X1.4699Y-3.7122
X1.6262Y-4.1372
X1.6574Y-1.8872
X1.8449Y-2.6372
X2.2199Y-3.3872
X2.4074Y-1.8872
X2.5637Y-4.1372
X2.5949Y-2.6372
X2.9699Y-3.3872
X3.1574Y-1.8872
X3.3449Y-2.6372
X3.5012Y-3.8122
X3.5012Y-4.1372
X3.7199Y-3.3872
X3.9074Y-1.8872
X4.0949Y-2.6372
X4.2517Y-3.812
X4.4699Y-3.3872
X4.6574Y-1.8872
X4.7199Y-4.1372
X4.8449Y-2.6372
X5.1892Y-3.812
X5.2199Y-3.3872
X5.4074Y-1.8872
X5.5949Y-2.6372
X5.7512Y-4.1372
X5.9699Y-3.3872
X6.1262Y-3.8122
X6.1574Y-1.8872
X6.3449Y-2.6372
X6.5949Y-4.1372
X6.7199Y-3.3872
X6.9074Y-1.8872
X7.0637Y-3.8122
X7.0949Y-2.6372
X7.4699Y-3.3872
X7.6574Y-1.8872
X7.8449Y-2.6372
X8.0012Y-3.8122
X8.0012Y-4.1372
X8.2199Y-3.3872
X8.4074Y-1.8872
X8.5949Y-2.6372
X8.9387Y-4.1372
X8.9699Y-3.3872
X9.1574Y-1.8872
X9.3449Y-2.6372
X9.8762Y-4.1372
X9.9074Y-1.8872
X9.9074Y-3.7122
X10.0012Y-3.3872
X10.0949Y-2.9622
X10.3762Y-3.3872
X10.5637Y-2.6372
X10.8449Y-1.8872
X10.8449Y-3.7122
X11.0324Y-2.9622
X11.0324Y-3.3872
T0
M30
