M48
; DRILL file {KiCad (6.0.6)} date Wed Aug 17 20:57:02 2022
; FORMAT={-:-/ absolute / inch / decimal}
; #@! TF.CreationDate,2022-08-17T20:57:02+02:00
; #@! TF.GenerationSoftware,Kicad,Pcbnew,(6.0.6)
; #@! TF.FileFunction,Plated,1,2,PTH
FMAT,2
INCH
; #@! TA.AperFunction,Plated,PTH,ComponentDrill
T1C0.0138
; #@! TA.AperFunction,Plated,PTH,ViaDrill
T2C0.0157
; #@! TA.AperFunction,Plated,PTH,ComponentDrill
T3C0.0394
; #@! TA.AperFunction,Plated,PTH,ComponentDrill
T4C0.0600
; #@! TA.AperFunction,Plated,PTH,ComponentDrill
T5C0.1200
%
G90
G05
T1
X3.8969Y-3.9851
X3.8969Y-4.0353
X3.8969Y-4.0855
X3.947Y-3.9851
X3.947Y-4.0353
X3.947Y-4.0855
X3.9972Y-3.9851
X3.9972Y-4.0353
X3.9972Y-4.0855
T2
X0.511Y-2.2441
X2.2335Y-4.3108
X2.2494Y-4.2747
X2.2638Y-4.3448
X2.2886Y-4.2713
X2.5701Y-3.5976
X2.8177Y-2.9744
X2.8394Y-2.1583
X3.024Y-2.8346
X3.0248Y-2.6705
X3.0803Y-3.5701
X3.1283Y-3.0071
X3.2293Y-3.7396
X3.2691Y-3.7439
X3.3992Y-3.3358
X3.4024Y-3.9161
X3.4772Y-3.6567
X3.515Y-2.1984
X3.635Y-4.1343
X3.6504Y-4.2109
X3.6581Y-3.9759
X3.6776Y-3.7571
X3.6803Y-2.2969
X3.7173Y-3.7177
X3.7752Y-2.335
X3.8008Y-3.7551
X3.8256Y-4.2866
X3.8697Y-4.3862
X3.9079Y-3.9487
X3.9083Y-3.8028
X3.9236Y-4.1219
X3.9247Y-4.4743
X3.9274Y-4.2563
X3.9307Y-3.5925
X3.9431Y-3.8232
X3.9941Y-3.7248
X4.0Y-3.5626
X4.1405Y-3.8086
X4.1441Y-4.352
X4.2843Y-4.1102
X4.2854Y-3.0425
X4.3484Y-3.5201
X4.3571Y-3.5744
X4.4811Y-2.2169
X4.489Y-2.7654
X4.5921Y-4.3098
X4.6173Y-3.6339
X4.6264Y-4.3374
X4.6283Y-2.7654
X4.6532Y-4.3662
X4.6803Y-3.7083
X4.6835Y-3.0413
X4.7028Y-2.2217
X4.9059Y-3.7894
X9.4169Y-4.2634
X9.5177Y-4.1626
X9.5524Y-3.7902
X10.0311Y-4.3382
X10.126Y-4.2917
T3
X2.9142Y-4.4248
X3.0142Y-4.4248
X3.1142Y-4.4248
X3.2142Y-4.4248
X3.3142Y-4.4248
X4.8673Y-3.337
X4.8673Y-3.437
T4
X0.4762Y-2.5372
X0.5699Y-1.7872
X0.6637Y-2.5372
X0.7262Y-2.4372
X0.8199Y-1.6872
X0.8512Y-3.2872
X0.9137Y-2.4372
X1.1012Y-3.1872
X1.4762Y-4.0372
X1.5074Y-1.7872
X1.6949Y-2.5372
X1.7262Y-3.9372
X1.7574Y-1.6872
X1.9449Y-2.4372
X2.0699Y-3.2872
X2.2574Y-1.7872
X2.3199Y-3.1872
X2.4137Y-4.0372
X2.4449Y-2.5372
X2.5074Y-1.6872
X2.6637Y-3.9372
X2.6949Y-2.4372
X2.8199Y-3.2872
X3.0074Y-1.7872
X3.0699Y-3.1872
X3.1949Y-2.5372
X3.2574Y-1.6872
X3.3512Y-4.0372
X3.4449Y-2.4372
X3.5699Y-3.2872
X3.6012Y-3.9372
X3.7574Y-1.7872
X3.8199Y-3.1872
X3.9449Y-2.5372
X4.0074Y-1.6872
X4.1949Y-2.4372
X4.3199Y-3.2872
X4.5074Y-1.7872
X4.5699Y-3.1872
X4.5699Y-4.0372
X4.6949Y-2.5372
X4.7574Y-1.6872
X4.8199Y-3.9372
X4.9449Y-2.4372
X5.0699Y-3.2872
X5.2574Y-1.7872
X5.3199Y-3.1872
X5.4449Y-2.5372
X5.5074Y-1.6872
X5.6012Y-4.0372
X5.6949Y-2.4372
X5.8199Y-3.2872
X5.8512Y-3.9372
X6.0074Y-1.7872
X6.0699Y-3.1872
X6.1949Y-2.5372
X6.2574Y-1.6872
X6.4449Y-2.4372
X6.4449Y-4.0372
X6.5699Y-3.2872
X6.6949Y-3.9372
X6.7574Y-1.7872
X6.8199Y-3.1872
X6.9449Y-2.5372
X7.0074Y-1.6872
X7.1949Y-2.4372
X7.3199Y-3.2872
X7.5074Y-1.7872
X7.5699Y-3.1872
X7.6949Y-2.5372
X7.7574Y-1.6872
X7.8512Y-4.0372
X7.9449Y-2.4372
X8.0699Y-3.2872
X8.1012Y-3.9372
X8.2574Y-1.7872
X8.3199Y-3.1872
X8.4449Y-2.5372
X8.5074Y-1.6872
X8.6949Y-2.4372
X8.7887Y-4.0372
X8.8199Y-3.2872
X9.0074Y-1.7872
X9.0387Y-3.9372
X9.0699Y-3.1872
X9.1949Y-2.5372
X9.2574Y-1.6872
X9.4449Y-2.4372
X9.7262Y-4.0372
X9.7574Y-1.7872
X9.8512Y-3.2872
X9.9762Y-3.9372
X10.0074Y-1.6872
X10.1012Y-3.1872
X10.2262Y-3.2872
X10.4137Y-2.5372
X10.4762Y-3.1872
X10.6637Y-2.4372
X10.6949Y-1.7872
X10.8824Y-3.2872
X10.9449Y-1.6872
X11.1324Y-3.1872
T5
X3.5012Y-4.4122
X4.2517Y-4.412
X5.1892Y-4.412
X6.1262Y-4.4122
X7.0637Y-4.4122
X8.0012Y-4.4122
T0
M30
