%TF.GenerationSoftware,KiCad,Pcbnew,(6.0.6)*%
%TF.CreationDate,2022-08-10T23:24:21+02:00*%
%TF.ProjectId,rabid40,72616269-6434-4302-9e6b-696361645f70,rev?*%
%TF.SameCoordinates,Original*%
%TF.FileFunction,Paste,Bot*%
%TF.FilePolarity,Positive*%
%FSLAX46Y46*%
G04 Gerber Fmt 4.6, Leading zero omitted, Abs format (unit mm)*
G04 Created by KiCad (PCBNEW (6.0.6)) date 2022-08-10 23:24:21*
%MOMM*%
%LPD*%
G01*
G04 APERTURE LIST*
G04 Aperture macros list*
%AMRoundRect*
0 Rectangle with rounded corners*
0 $1 Rounding radius*
0 $2 $3 $4 $5 $6 $7 $8 $9 X,Y pos of 4 corners*
0 Add a 4 corners polygon primitive as box body*
4,1,4,$2,$3,$4,$5,$6,$7,$8,$9,$2,$3,0*
0 Add four circle primitives for the rounded corners*
1,1,$1+$1,$2,$3*
1,1,$1+$1,$4,$5*
1,1,$1+$1,$6,$7*
1,1,$1+$1,$8,$9*
0 Add four rect primitives between the rounded corners*
20,1,$1+$1,$2,$3,$4,$5,0*
20,1,$1+$1,$4,$5,$6,$7,0*
20,1,$1+$1,$6,$7,$8,$9,0*
20,1,$1+$1,$8,$9,$2,$3,0*%
G04 Aperture macros list end*
%ADD10RoundRect,0.140000X0.170000X-0.140000X0.170000X0.140000X-0.170000X0.140000X-0.170000X-0.140000X0*%
%ADD11R,1.200000X0.900000*%
%ADD12RoundRect,0.050000X0.050000X0.387500X-0.050000X0.387500X-0.050000X-0.387500X0.050000X-0.387500X0*%
%ADD13RoundRect,0.050000X0.387500X0.050000X-0.387500X0.050000X-0.387500X-0.050000X0.387500X-0.050000X0*%
%ADD14RoundRect,0.250000X0.292217X0.292217X-0.292217X0.292217X-0.292217X-0.292217X0.292217X-0.292217X0*%
%ADD15RoundRect,0.135000X0.135000X0.185000X-0.135000X0.185000X-0.135000X-0.185000X0.135000X-0.185000X0*%
%ADD16RoundRect,0.140000X-0.170000X0.140000X-0.170000X-0.140000X0.170000X-0.140000X0.170000X0.140000X0*%
%ADD17RoundRect,0.140000X0.140000X0.170000X-0.140000X0.170000X-0.140000X-0.170000X0.140000X-0.170000X0*%
%ADD18R,0.900000X1.200000*%
%ADD19RoundRect,0.135000X0.185000X-0.135000X0.185000X0.135000X-0.185000X0.135000X-0.185000X-0.135000X0*%
%ADD20RoundRect,0.150000X0.650000X0.150000X-0.650000X0.150000X-0.650000X-0.150000X0.650000X-0.150000X0*%
%ADD21RoundRect,0.150000X-0.587500X-0.150000X0.587500X-0.150000X0.587500X0.150000X-0.587500X0.150000X0*%
%ADD22R,1.400000X1.200000*%
%ADD23RoundRect,0.200000X-0.275000X0.200000X-0.275000X-0.200000X0.275000X-0.200000X0.275000X0.200000X0*%
%ADD24RoundRect,0.250000X0.375000X0.625000X-0.375000X0.625000X-0.375000X-0.625000X0.375000X-0.625000X0*%
%ADD25RoundRect,0.135000X-0.135000X-0.185000X0.135000X-0.185000X0.135000X0.185000X-0.135000X0.185000X0*%
%ADD26RoundRect,0.140000X-0.140000X-0.170000X0.140000X-0.170000X0.140000X0.170000X-0.140000X0.170000X0*%
G04 APERTURE END LIST*
D10*
%TO.C,C11*%
X97667500Y-55831250D03*
X97667500Y-56791250D03*
%TD*%
D11*
%TO.C,D32*%
X188942500Y-66921250D03*
X188942500Y-70221250D03*
%TD*%
D12*
%TO.C,U1*%
X102855000Y-99060000D03*
X102455000Y-99060000D03*
X102055000Y-99060000D03*
X101655000Y-99060000D03*
X101255000Y-99060000D03*
X100855000Y-99060000D03*
X100455000Y-99060000D03*
X100055000Y-99060000D03*
X99655000Y-99060000D03*
X99255000Y-99060000D03*
X98855000Y-99060000D03*
X98455000Y-99060000D03*
X98055000Y-99060000D03*
X97655000Y-99060000D03*
D13*
X96817500Y-99897500D03*
X96817500Y-100297500D03*
X96817500Y-100697500D03*
X96817500Y-101097500D03*
X96817500Y-101497500D03*
X96817500Y-101897500D03*
X96817500Y-102297500D03*
X96817500Y-102697500D03*
X96817500Y-103097500D03*
X96817500Y-103497500D03*
X96817500Y-103897500D03*
X96817500Y-104297500D03*
X96817500Y-104697500D03*
X96817500Y-105097500D03*
D12*
X97655000Y-105935000D03*
X98055000Y-105935000D03*
X98455000Y-105935000D03*
X98855000Y-105935000D03*
X99255000Y-105935000D03*
X99655000Y-105935000D03*
X100055000Y-105935000D03*
X100455000Y-105935000D03*
X100855000Y-105935000D03*
X101255000Y-105935000D03*
X101655000Y-105935000D03*
X102055000Y-105935000D03*
X102455000Y-105935000D03*
X102855000Y-105935000D03*
D13*
X103692500Y-105097500D03*
X103692500Y-104697500D03*
X103692500Y-104297500D03*
X103692500Y-103897500D03*
X103692500Y-103497500D03*
X103692500Y-103097500D03*
X103692500Y-102697500D03*
X103692500Y-102297500D03*
X103692500Y-101897500D03*
X103692500Y-101497500D03*
X103692500Y-101097500D03*
X103692500Y-100697500D03*
X103692500Y-100297500D03*
X103692500Y-99897500D03*
D14*
X100892500Y-103135000D03*
X100892500Y-101860000D03*
X99617500Y-103135000D03*
X99617500Y-101860000D03*
%TD*%
D11*
%TO.C,D1*%
X27017500Y-47077500D03*
X27017500Y-50377500D03*
%TD*%
%TO.C,D20*%
X131792500Y-66921250D03*
X131792500Y-70221250D03*
%TD*%
%TO.C,D44*%
X245298750Y-66858750D03*
X245298750Y-70158750D03*
%TD*%
D10*
%TO.C,C6*%
X96537500Y-96457500D03*
X96537500Y-97417500D03*
%TD*%
D11*
%TO.C,D39*%
X222280000Y-47140000D03*
X222280000Y-50440000D03*
%TD*%
%TO.C,D15*%
X107980000Y-47140000D03*
X107980000Y-50440000D03*
%TD*%
%TO.C,D26*%
X150842500Y-97146250D03*
X150842500Y-93846250D03*
%TD*%
%TO.C,D4*%
X50830000Y-47077500D03*
X50830000Y-50377500D03*
%TD*%
D15*
%TO.C,R4*%
X122630000Y-89560000D03*
X123650000Y-89560000D03*
%TD*%
D16*
%TO.C,C4*%
X90787500Y-55851250D03*
X90787500Y-54891250D03*
%TD*%
D11*
%TO.C,D10*%
X50036250Y-104227500D03*
X50036250Y-107527500D03*
%TD*%
%TO.C,D24*%
X150842500Y-66921250D03*
X150842500Y-70221250D03*
%TD*%
D17*
%TO.C,C5*%
X93417500Y-99087500D03*
X94377500Y-99087500D03*
%TD*%
D11*
%TO.C,D28*%
X169892500Y-66921250D03*
X169892500Y-70221250D03*
%TD*%
%TO.C,D49*%
X271492500Y-85971250D03*
X271492500Y-89271250D03*
%TD*%
D18*
%TO.C,D3*%
X35686250Y-84446250D03*
X38986250Y-84446250D03*
%TD*%
D11*
%TO.C,D17*%
X121473750Y-81333750D03*
X121473750Y-78033750D03*
%TD*%
%TO.C,D47*%
X260380000Y-47015000D03*
X260380000Y-50315000D03*
%TD*%
%TO.C,D42*%
X259025000Y-104100000D03*
X259025000Y-107400000D03*
%TD*%
%TO.C,D50*%
X283398750Y-47140000D03*
X283398750Y-50440000D03*
%TD*%
%TO.C,D8*%
X74642500Y-66921250D03*
X74642500Y-70221250D03*
%TD*%
D19*
%TO.C,R5*%
X100627500Y-108717500D03*
X100627500Y-109737500D03*
%TD*%
D11*
%TO.C,D48*%
X277048750Y-66921250D03*
X277048750Y-70221250D03*
%TD*%
%TO.C,D34*%
X211961250Y-104165000D03*
X211961250Y-107465000D03*
%TD*%
%TO.C,D30*%
X174655000Y-101240000D03*
X174655000Y-97940000D03*
%TD*%
D20*
%TO.C,U2*%
X113687500Y-90377500D03*
X113687500Y-91647500D03*
X113687500Y-92917500D03*
X113687500Y-94187500D03*
X120887500Y-94187500D03*
X120887500Y-92917500D03*
X120887500Y-91647500D03*
X120887500Y-90377500D03*
%TD*%
D11*
%TO.C,D23*%
X146080000Y-47140000D03*
X146080000Y-50440000D03*
%TD*%
%TO.C,D41*%
X235773750Y-85971250D03*
X235773750Y-89271250D03*
%TD*%
%TO.C,D9*%
X84167500Y-80540000D03*
X84167500Y-77240000D03*
%TD*%
%TO.C,D12*%
X93692500Y-66921250D03*
X93692500Y-70221250D03*
%TD*%
D21*
%TO.C,U3*%
X95347500Y-55817500D03*
X93472500Y-54867500D03*
X93472500Y-56767500D03*
%TD*%
D11*
%TO.C,D43*%
X241330000Y-47077500D03*
X241330000Y-50377500D03*
%TD*%
D16*
%TO.C,C2*%
X98390000Y-109880000D03*
X98390000Y-108920000D03*
%TD*%
D10*
%TO.C,C15*%
X91807500Y-54891250D03*
X91807500Y-55851250D03*
%TD*%
D11*
%TO.C,D29*%
X179417500Y-85908750D03*
X179417500Y-89208750D03*
%TD*%
D17*
%TO.C,C7*%
X93425000Y-100116250D03*
X94385000Y-100116250D03*
%TD*%
%TO.C,C10*%
X92200000Y-103810000D03*
X93160000Y-103810000D03*
%TD*%
D22*
%TO.C,Y1*%
X101237500Y-113077500D03*
X103437500Y-113077500D03*
X103437500Y-111377500D03*
X101237500Y-111377500D03*
%TD*%
D11*
%TO.C,D36*%
X207992500Y-66858750D03*
X207992500Y-70158750D03*
%TD*%
D23*
%TO.C,R1*%
X116420000Y-73770000D03*
X116420000Y-72120000D03*
%TD*%
D24*
%TO.C,F1*%
X101953750Y-56040000D03*
X104753750Y-56040000D03*
%TD*%
D10*
%TO.C,C13*%
X105177500Y-97927500D03*
X105177500Y-98887500D03*
%TD*%
D11*
%TO.C,D25*%
X159573750Y-85971250D03*
X159573750Y-89271250D03*
%TD*%
%TO.C,D14*%
X73848750Y-104227500D03*
X73848750Y-107527500D03*
%TD*%
%TO.C,D52*%
X288161250Y-85971250D03*
X288161250Y-89271250D03*
%TD*%
D10*
%TO.C,C1*%
X100230000Y-94600000D03*
X100230000Y-95560000D03*
%TD*%
D11*
%TO.C,D6*%
X65117500Y-80540000D03*
X65117500Y-77240000D03*
%TD*%
%TO.C,D40*%
X227042500Y-66921250D03*
X227042500Y-70221250D03*
%TD*%
D25*
%TO.C,R3*%
X75350000Y-98970000D03*
X74330000Y-98970000D03*
%TD*%
D11*
%TO.C,D19*%
X127030000Y-47077500D03*
X127030000Y-50377500D03*
%TD*%
%TO.C,D2*%
X31050000Y-65060000D03*
X31050000Y-68360000D03*
%TD*%
%TO.C,D18*%
X92090000Y-94470000D03*
X92090000Y-91170000D03*
%TD*%
%TO.C,D5*%
X55592500Y-70096250D03*
X55592500Y-73396250D03*
%TD*%
%TO.C,D21*%
X141317500Y-85971250D03*
X141317500Y-89271250D03*
%TD*%
%TO.C,D31*%
X184180000Y-47140000D03*
X184180000Y-50440000D03*
%TD*%
%TO.C,D16*%
X111710000Y-66920000D03*
X111710000Y-70220000D03*
%TD*%
%TO.C,D27*%
X165130000Y-47077500D03*
X165130000Y-50377500D03*
%TD*%
%TO.C,D13*%
X105257500Y-80307500D03*
X105257500Y-77007500D03*
%TD*%
%TO.C,D35*%
X203230000Y-47077500D03*
X203230000Y-50377500D03*
%TD*%
%TO.C,D38*%
X235773750Y-104227500D03*
X235773750Y-107527500D03*
%TD*%
D10*
%TO.C,C17*%
X99696250Y-111588750D03*
X99696250Y-112548750D03*
%TD*%
%TO.C,C8*%
X111737500Y-89387500D03*
X111737500Y-90347500D03*
%TD*%
D11*
%TO.C,D11*%
X88930000Y-47077500D03*
X88930000Y-50377500D03*
%TD*%
D16*
%TO.C,C16*%
X105340000Y-113110000D03*
X105340000Y-112150000D03*
%TD*%
%TO.C,C14*%
X99400000Y-109960000D03*
X99400000Y-109000000D03*
%TD*%
D23*
%TO.C,R2*%
X114880000Y-73710000D03*
X114880000Y-72060000D03*
%TD*%
D11*
%TO.C,D33*%
X197673750Y-85971250D03*
X197673750Y-89271250D03*
%TD*%
%TO.C,D22*%
X127030000Y-97146250D03*
X127030000Y-93846250D03*
%TD*%
D10*
%TO.C,C3*%
X97537500Y-96457500D03*
X97537500Y-97417500D03*
%TD*%
%TO.C,C9*%
X99210000Y-94580000D03*
X99210000Y-95540000D03*
%TD*%
D11*
%TO.C,D7*%
X69880000Y-47077500D03*
X69880000Y-50377500D03*
%TD*%
D26*
%TO.C,C12*%
X107380000Y-104390000D03*
X106420000Y-104390000D03*
%TD*%
D11*
%TO.C,D37*%
X216723750Y-85971250D03*
X216723750Y-89271250D03*
%TD*%
M02*
