%TF.GenerationSoftware,KiCad,Pcbnew,(6.0.6)*%
%TF.CreationDate,2022-08-10T23:24:21+02:00*%
%TF.ProjectId,rabid40,72616269-6434-4302-9e6b-696361645f70,rev?*%
%TF.SameCoordinates,Original*%
%TF.FileFunction,Legend,Top*%
%TF.FilePolarity,Positive*%
%FSLAX46Y46*%
G04 Gerber Fmt 4.6, Leading zero omitted, Abs format (unit mm)*
G04 Created by KiCad (PCBNEW (6.0.6)) date 2022-08-10 23:24:21*
%MOMM*%
%LPD*%
G01*
G04 APERTURE LIST*
G04 Aperture macros list*
%AMRoundRect*
0 Rectangle with rounded corners*
0 $1 Rounding radius*
0 $2 $3 $4 $5 $6 $7 $8 $9 X,Y pos of 4 corners*
0 Add a 4 corners polygon primitive as box body*
4,1,4,$2,$3,$4,$5,$6,$7,$8,$9,$2,$3,0*
0 Add four circle primitives for the rounded corners*
1,1,$1+$1,$2,$3*
1,1,$1+$1,$4,$5*
1,1,$1+$1,$6,$7*
1,1,$1+$1,$8,$9*
0 Add four rect primitives between the rounded corners*
20,1,$1+$1,$2,$3,$4,$5,0*
20,1,$1+$1,$4,$5,$6,$7,0*
20,1,$1+$1,$6,$7,$8,$9,0*
20,1,$1+$1,$8,$9,$2,$3,0*%
G04 Aperture macros list end*
%ADD10C,0.125000*%
%ADD11C,0.150000*%
%ADD12C,0.120000*%
%ADD13C,1.750000*%
%ADD14C,3.987800*%
%ADD15O,1.700000X1.950000*%
%ADD16RoundRect,0.250000X-0.600000X-0.725000X0.600000X-0.725000X0.600000X0.725000X-0.600000X0.725000X0*%
%ADD17C,3.048000*%
%ADD18O,1.700000X1.700000*%
%ADD19R,1.700000X1.700000*%
G04 APERTURE END LIST*
D10*
X193646666Y-95723809D02*
X194027619Y-95723809D01*
X191479999Y-96457380D02*
X191479999Y-96481190D01*
X191456190Y-96528809D01*
X191432380Y-96552619D01*
X191694285Y-96433571D02*
X191718095Y-96457380D01*
X191694285Y-96481190D01*
X191670476Y-96457380D01*
X191694285Y-96433571D01*
X191694285Y-96481190D01*
X191694285Y-96171666D02*
X191718095Y-96195476D01*
X191694285Y-96219285D01*
X191670476Y-96195476D01*
X191694285Y-96171666D01*
X191694285Y-96219285D01*
X191956190Y-95981190D02*
X191908571Y-96076428D01*
X192527619Y-95957380D02*
X192099047Y-96600238D01*
X193718095Y-96528809D02*
X194099047Y-96528809D01*
X194218095Y-96433571D02*
X194241904Y-96457380D01*
X194218095Y-96481190D01*
X194194285Y-96457380D01*
X194218095Y-96433571D01*
X194218095Y-96481190D01*
X194456190Y-96433571D02*
X194479999Y-96457380D01*
X194456190Y-96481190D01*
X194432380Y-96457380D01*
X194456190Y-96433571D01*
X194456190Y-96481190D01*
X194694285Y-96433571D02*
X194718095Y-96457380D01*
X194694285Y-96481190D01*
X194670476Y-96457380D01*
X194694285Y-96433571D01*
X194694285Y-96481190D01*
X194813333Y-96528809D02*
X195194285Y-96528809D01*
X191027619Y-96762380D02*
X190599047Y-97405238D01*
X191551428Y-96762380D02*
X191122857Y-97405238D01*
X192241904Y-97476666D02*
X192218095Y-97452857D01*
X192170476Y-97381428D01*
X192146666Y-97333809D01*
X192122857Y-97262380D01*
X192099047Y-97143333D01*
X192099047Y-97048095D01*
X192122857Y-96929047D01*
X192146666Y-96857619D01*
X192170476Y-96810000D01*
X192218095Y-96738571D01*
X192241904Y-96714761D01*
X192741904Y-96762380D02*
X192813333Y-96833809D01*
X192980000Y-96786190D02*
X192980000Y-96881428D01*
X193170476Y-96786190D02*
X193170476Y-96881428D01*
X193360952Y-96786190D02*
X193360952Y-96881428D01*
X193551428Y-96786190D02*
X193551428Y-96881428D01*
X193765714Y-97095714D02*
X194146666Y-97095714D01*
X194384761Y-97238571D02*
X194408571Y-97262380D01*
X194384761Y-97286190D01*
X194360952Y-97262380D01*
X194384761Y-97238571D01*
X194384761Y-97286190D01*
X194622857Y-97238571D02*
X194646666Y-97262380D01*
X194622857Y-97286190D01*
X194599047Y-97262380D01*
X194622857Y-97238571D01*
X194622857Y-97286190D01*
X194741904Y-97333809D02*
X195122857Y-97333809D01*
X195241904Y-97238571D02*
X195265714Y-97262380D01*
X195241904Y-97286190D01*
X195218095Y-97262380D01*
X195241904Y-97238571D01*
X195241904Y-97286190D01*
X195503809Y-96786190D02*
X195456190Y-96881428D01*
X190432380Y-97543571D02*
X190860952Y-98186428D01*
X191051428Y-98257857D02*
X191051428Y-97543571D01*
X192146666Y-97567380D02*
X191718095Y-98210238D01*
X194051428Y-97591190D02*
X193956190Y-97591190D01*
X193908571Y-97615000D01*
X193884761Y-97638809D01*
X193837142Y-97710238D01*
X193813333Y-97805476D01*
X193813333Y-97995952D01*
X193837142Y-98043571D01*
X193860952Y-98067380D01*
X193908571Y-98091190D01*
X194003809Y-98091190D01*
X194051428Y-98067380D01*
X194075238Y-98043571D01*
X194099047Y-97995952D01*
X194099047Y-97876904D01*
X194075238Y-97829285D01*
X194051428Y-97805476D01*
X194003809Y-97781666D01*
X193908571Y-97781666D01*
X193860952Y-97805476D01*
X193837142Y-97829285D01*
X193813333Y-97876904D01*
X194146666Y-97543571D02*
X194575238Y-98186428D01*
X194527619Y-98138809D02*
X194908571Y-98138809D01*
X194908571Y-98138809D02*
X195289523Y-98138809D01*
X195289523Y-98138809D02*
X195670476Y-98138809D01*
X190503809Y-99062857D02*
X190503809Y-98348571D01*
X192980000Y-98396190D02*
X192884761Y-98396190D01*
X192837142Y-98420000D01*
X192813333Y-98443809D01*
X192765714Y-98515238D01*
X192741904Y-98610476D01*
X192741904Y-98800952D01*
X192765714Y-98848571D01*
X192789523Y-98872380D01*
X192837142Y-98896190D01*
X192932380Y-98896190D01*
X192980000Y-98872380D01*
X193003809Y-98848571D01*
X193027619Y-98800952D01*
X193027619Y-98681904D01*
X193003809Y-98634285D01*
X192980000Y-98610476D01*
X192932380Y-98586666D01*
X192837142Y-98586666D01*
X192789523Y-98610476D01*
X192765714Y-98634285D01*
X192741904Y-98681904D01*
X195741904Y-98562857D02*
X195741904Y-98896190D01*
X195622857Y-98372380D02*
X195503809Y-98729523D01*
X195813333Y-98729523D01*
X190527619Y-99867857D02*
X190527619Y-99153571D01*
X195813333Y-99177380D02*
X195384761Y-99820238D01*
X190480000Y-99958571D02*
X190908571Y-100601428D01*
X190860952Y-100553809D02*
X191241904Y-100553809D01*
X194027619Y-100458571D02*
X194051428Y-100482380D01*
X194027619Y-100506190D01*
X194003809Y-100482380D01*
X194027619Y-100458571D01*
X194027619Y-100506190D01*
X194265714Y-100315714D02*
X194646666Y-100315714D01*
X194884761Y-100315714D02*
X195265714Y-100315714D01*
X195527619Y-100006190D02*
X195480000Y-100101428D01*
X191551428Y-101501666D02*
X191527619Y-101477857D01*
X191480000Y-101406428D01*
X191456190Y-101358809D01*
X191432380Y-101287380D01*
X191408571Y-101168333D01*
X191408571Y-101073095D01*
X191432380Y-100954047D01*
X191456190Y-100882619D01*
X191480000Y-100835000D01*
X191527619Y-100763571D01*
X191551428Y-100739761D01*
X191622857Y-101358809D02*
X192003809Y-101358809D01*
X192146666Y-100811190D02*
X192099047Y-100906428D01*
X192360952Y-101120714D02*
X192741904Y-101120714D01*
X192980000Y-101120714D02*
X193360952Y-101120714D01*
X193599047Y-101120714D02*
X193980000Y-101120714D01*
X194241904Y-100811190D02*
X194194285Y-100906428D01*
X194384761Y-100787380D02*
X194456190Y-100858809D01*
X194599047Y-101501666D02*
X194622857Y-101477857D01*
X194670476Y-101406428D01*
X194694285Y-101358809D01*
X194718095Y-101287380D01*
X194741904Y-101168333D01*
X194741904Y-101073095D01*
X194718095Y-100954047D01*
X194694285Y-100882619D01*
X194670476Y-100835000D01*
X194622857Y-100763571D01*
X194599047Y-100739761D01*
X191527619Y-101592380D02*
X191099047Y-102235238D01*
X192003809Y-101592380D02*
X192075238Y-101663809D01*
X192289523Y-101616190D02*
X192241904Y-101711428D01*
X192503809Y-101925714D02*
X192884761Y-101925714D01*
X193122857Y-101925714D02*
X193503809Y-101925714D01*
X193741904Y-101925714D02*
X194122857Y-101925714D01*
X194289523Y-101592380D02*
X194360952Y-101663809D01*
X194694285Y-102306666D02*
X194670476Y-102282857D01*
X194622857Y-102211428D01*
X194599047Y-102163809D01*
X194575238Y-102092380D01*
X194551428Y-101973333D01*
X194551428Y-101878095D01*
X194575238Y-101759047D01*
X194599047Y-101687619D01*
X194622857Y-101640000D01*
X194670476Y-101568571D01*
X194694285Y-101544761D01*
X194837142Y-102306666D02*
X194860952Y-102282857D01*
X194908571Y-102211428D01*
X194932380Y-102163809D01*
X194956190Y-102092380D01*
X194980000Y-101973333D01*
X194980000Y-101878095D01*
X194956190Y-101759047D01*
X194932380Y-101687619D01*
X194908571Y-101640000D01*
X194860952Y-101568571D01*
X194837142Y-101544761D01*
X190837142Y-102897380D02*
X190837142Y-102921190D01*
X190813333Y-102968809D01*
X190789523Y-102992619D01*
X191075238Y-102421190D02*
X191027619Y-102516428D01*
X194456190Y-103087857D02*
X194456190Y-102373571D01*
X184908571Y-103702380D02*
X184908571Y-103726190D01*
X184884761Y-103773809D01*
X184860952Y-103797619D01*
X189694285Y-103678571D02*
X189718095Y-103702380D01*
X189694285Y-103726190D01*
X189670476Y-103702380D01*
X189694285Y-103678571D01*
X189694285Y-103726190D01*
X189956190Y-103226190D02*
X189908571Y-103321428D01*
X190099047Y-103202380D02*
X190170476Y-103273809D01*
X194289523Y-103892857D02*
X194289523Y-103178571D01*
X184718095Y-104721666D02*
X184741904Y-104697857D01*
X184789523Y-104626428D01*
X184813333Y-104578809D01*
X184837142Y-104507380D01*
X184860952Y-104388333D01*
X184860952Y-104293095D01*
X184837142Y-104174047D01*
X184813333Y-104102619D01*
X184789523Y-104055000D01*
X184741904Y-103983571D01*
X184718095Y-103959761D01*
X184932380Y-103983571D02*
X185360952Y-104626428D01*
X187980000Y-104578809D02*
X188360952Y-104578809D01*
X188480000Y-104483571D02*
X188503809Y-104507380D01*
X188480000Y-104531190D01*
X188456190Y-104507380D01*
X188480000Y-104483571D01*
X188480000Y-104531190D01*
X188718095Y-104340714D02*
X189099047Y-104340714D01*
X189360952Y-104031190D02*
X189313333Y-104126428D01*
X194551428Y-104507380D02*
X194551428Y-104531190D01*
X194527619Y-104578809D01*
X194503809Y-104602619D01*
X194527619Y-104221666D02*
X194551428Y-104245476D01*
X194527619Y-104269285D01*
X194503809Y-104245476D01*
X194527619Y-104221666D01*
X194527619Y-104269285D01*
X184837142Y-104812380D02*
X184408571Y-105455238D01*
X185503809Y-105502857D02*
X185503809Y-104788571D01*
X187384761Y-105288571D02*
X187408571Y-105312380D01*
X187384761Y-105336190D01*
X187360952Y-105312380D01*
X187384761Y-105288571D01*
X187384761Y-105336190D01*
X187646666Y-104836190D02*
X187599047Y-104931428D01*
X187789523Y-104812380D02*
X187860952Y-104883809D01*
X189075238Y-105383809D02*
X189456190Y-105383809D01*
X194503809Y-104812380D02*
X194075238Y-105455238D01*
X184289523Y-105617380D02*
X183860952Y-106260238D01*
X184384761Y-105617380D02*
X184456190Y-105688809D01*
X185384761Y-105617380D02*
X184956190Y-106260238D01*
X186694285Y-106093571D02*
X186718095Y-106117380D01*
X186694285Y-106141190D01*
X186670476Y-106117380D01*
X186694285Y-106093571D01*
X186694285Y-106141190D01*
X186956190Y-105641190D02*
X186908571Y-105736428D01*
X189860952Y-105641190D02*
X189813333Y-105736428D01*
X190075238Y-106093571D02*
X190099047Y-106117380D01*
X190075238Y-106141190D01*
X190051428Y-106117380D01*
X190075238Y-106093571D01*
X190075238Y-106141190D01*
X193384761Y-106117380D02*
X193384761Y-106141190D01*
X193360952Y-106188809D01*
X193337142Y-106212619D01*
X194099047Y-106307857D02*
X194099047Y-105593571D01*
X183432380Y-106422380D02*
X183003809Y-107065238D01*
X184718095Y-106422380D02*
X184289523Y-107065238D01*
X186384761Y-106422380D02*
X185956190Y-107065238D01*
X190575238Y-106398571D02*
X191003809Y-107041428D01*
X192241904Y-106922380D02*
X192241904Y-106946190D01*
X192218095Y-106993809D01*
X192194285Y-107017619D01*
X192218095Y-106636666D02*
X192241904Y-106660476D01*
X192218095Y-106684285D01*
X192194285Y-106660476D01*
X192218095Y-106636666D01*
X192218095Y-106684285D01*
X193718095Y-107112857D02*
X193718095Y-106398571D01*
X194575238Y-107112857D02*
X194575238Y-106398571D01*
X183218095Y-107917857D02*
X183218095Y-107203571D01*
X184170476Y-107203571D02*
X184599047Y-107846428D01*
X185551428Y-107917857D02*
X185551428Y-107203571D01*
X190599047Y-107917857D02*
X190599047Y-107203571D01*
X191718095Y-107703571D02*
X191741904Y-107727380D01*
X191718095Y-107751190D01*
X191694285Y-107727380D01*
X191718095Y-107703571D01*
X191718095Y-107751190D01*
X192075238Y-107917857D02*
X192075238Y-107203571D01*
X193694285Y-107917857D02*
X193694285Y-107203571D01*
X194551428Y-107917857D02*
X194551428Y-107203571D01*
X183384761Y-108008571D02*
X183813333Y-108651428D01*
X184575238Y-108032380D02*
X184646666Y-108103809D01*
X184813333Y-108056190D02*
X184813333Y-108151428D01*
X185003809Y-108056190D02*
X185003809Y-108151428D01*
X185337142Y-108722857D02*
X185337142Y-108008571D01*
X190241904Y-108032380D02*
X189813333Y-108675238D01*
X190408571Y-108508571D02*
X190432380Y-108532380D01*
X190408571Y-108556190D01*
X190384761Y-108532380D01*
X190408571Y-108508571D01*
X190408571Y-108556190D01*
X190646666Y-108365714D02*
X191027619Y-108365714D01*
X191289523Y-108056190D02*
X191241904Y-108151428D01*
X192003809Y-108722857D02*
X192003809Y-108008571D01*
X193622857Y-108722857D02*
X193622857Y-108008571D01*
X194479999Y-108722857D02*
X194479999Y-108008571D01*
X183980000Y-108861190D02*
X183932380Y-108956428D01*
X184194285Y-109170714D02*
X184575238Y-109170714D01*
X184813333Y-109313571D02*
X184837142Y-109337380D01*
X184813333Y-109361190D01*
X184789523Y-109337380D01*
X184813333Y-109313571D01*
X184813333Y-109361190D01*
X185051428Y-109313571D02*
X185075238Y-109337380D01*
X185051428Y-109361190D01*
X185027619Y-109337380D01*
X185051428Y-109313571D01*
X185051428Y-109361190D01*
X185289523Y-109170714D02*
X185670476Y-109170714D01*
X185741904Y-108813571D02*
X186170476Y-109456428D01*
X188789523Y-109408809D02*
X189170476Y-109408809D01*
X189289523Y-109313571D02*
X189313333Y-109337380D01*
X189289523Y-109361190D01*
X189265714Y-109337380D01*
X189289523Y-109313571D01*
X189289523Y-109361190D01*
X189551428Y-109337380D02*
X189551428Y-109361190D01*
X189527619Y-109408809D01*
X189503809Y-109432619D01*
X189527619Y-109051666D02*
X189551428Y-109075476D01*
X189527619Y-109099285D01*
X189503809Y-109075476D01*
X189527619Y-109051666D01*
X189527619Y-109099285D01*
X189765714Y-109313571D02*
X189789523Y-109337380D01*
X189765714Y-109361190D01*
X189741904Y-109337380D01*
X189765714Y-109313571D01*
X189765714Y-109361190D01*
X190003809Y-109313571D02*
X190027619Y-109337380D01*
X190003809Y-109361190D01*
X189980000Y-109337380D01*
X190003809Y-109313571D01*
X190003809Y-109361190D01*
X190122857Y-109408809D02*
X190503809Y-109408809D01*
X191503809Y-109527857D02*
X191503809Y-108813571D01*
X193122857Y-109527857D02*
X193122857Y-108813571D01*
X193480000Y-109313571D02*
X193503809Y-109337380D01*
X193480000Y-109361190D01*
X193456190Y-109337380D01*
X193480000Y-109313571D01*
X193480000Y-109361190D01*
X193741904Y-109337380D02*
X193741904Y-109361190D01*
X193718095Y-109408809D01*
X193694285Y-109432619D01*
X193718095Y-109051666D02*
X193741904Y-109075476D01*
X193718095Y-109099285D01*
X193694285Y-109075476D01*
X193718095Y-109051666D01*
X193718095Y-109099285D01*
X193956190Y-109170714D02*
X194337142Y-109170714D01*
X194575238Y-109313571D02*
X194599047Y-109337380D01*
X194575238Y-109361190D01*
X194551428Y-109337380D01*
X194575238Y-109313571D01*
X194575238Y-109361190D01*
X185884761Y-109618571D02*
X186313333Y-110261428D01*
X188289523Y-109832857D02*
X187908571Y-109975714D01*
X188289523Y-110118571D01*
X188456190Y-109642380D02*
X188527619Y-109713809D01*
X188718095Y-110118571D02*
X188741904Y-110142380D01*
X188718095Y-110166190D01*
X188694285Y-110142380D01*
X188718095Y-110118571D01*
X188718095Y-110166190D01*
X188956190Y-110118571D02*
X188980000Y-110142380D01*
X188956190Y-110166190D01*
X188932380Y-110142380D01*
X188956190Y-110118571D01*
X188956190Y-110166190D01*
X189075238Y-110213809D02*
X189456190Y-110213809D01*
X190289523Y-110356666D02*
X190313333Y-110332857D01*
X190360952Y-110261428D01*
X190384761Y-110213809D01*
X190408571Y-110142380D01*
X190432380Y-110023333D01*
X190432380Y-109928095D01*
X190408571Y-109809047D01*
X190384761Y-109737619D01*
X190360952Y-109690000D01*
X190313333Y-109618571D01*
X190289523Y-109594761D01*
X190622857Y-110356666D02*
X190646666Y-110332857D01*
X190694285Y-110261428D01*
X190718095Y-110213809D01*
X190741904Y-110142380D01*
X190765714Y-110023333D01*
X190765714Y-109928095D01*
X190741904Y-109809047D01*
X190718095Y-109737619D01*
X190694285Y-109690000D01*
X190646666Y-109618571D01*
X190622857Y-109594761D01*
X191503809Y-110332857D02*
X191503809Y-109618571D01*
X192622857Y-110118571D02*
X192646666Y-110142380D01*
X192622857Y-110166190D01*
X192599047Y-110142380D01*
X192622857Y-110118571D01*
X192622857Y-110166190D01*
X192884761Y-110142380D02*
X192884761Y-110166190D01*
X192860952Y-110213809D01*
X192837142Y-110237619D01*
X192860952Y-109856666D02*
X192884761Y-109880476D01*
X192860952Y-109904285D01*
X192837142Y-109880476D01*
X192860952Y-109856666D01*
X192860952Y-109904285D01*
X193099047Y-109975714D02*
X193480000Y-109975714D01*
X193718095Y-110118571D02*
X193741904Y-110142380D01*
X193718095Y-110166190D01*
X193694285Y-110142380D01*
X193718095Y-110118571D01*
X193718095Y-110166190D01*
X194289523Y-110356666D02*
X194313333Y-110332857D01*
X194360952Y-110261428D01*
X194384761Y-110213809D01*
X194408571Y-110142380D01*
X194432380Y-110023333D01*
X194432380Y-109928095D01*
X194408571Y-109809047D01*
X194384761Y-109737619D01*
X194360952Y-109690000D01*
X194313333Y-109618571D01*
X194289523Y-109594761D01*
X194622857Y-110356666D02*
X194646666Y-110332857D01*
X194694285Y-110261428D01*
X194718095Y-110213809D01*
X194741904Y-110142380D01*
X194765714Y-110023333D01*
X194765714Y-109928095D01*
X194741904Y-109809047D01*
X194718095Y-109737619D01*
X194694285Y-109690000D01*
X194646666Y-109618571D01*
X194622857Y-109594761D01*
X186432380Y-111161666D02*
X186408571Y-111137857D01*
X186360952Y-111066428D01*
X186337142Y-111018809D01*
X186313333Y-110947380D01*
X186289523Y-110828333D01*
X186289523Y-110733095D01*
X186313333Y-110614047D01*
X186337142Y-110542619D01*
X186360952Y-110495000D01*
X186408571Y-110423571D01*
X186432380Y-110399761D01*
X186503809Y-111018809D02*
X186884761Y-111018809D01*
X186884761Y-111018809D02*
X187265714Y-111018809D01*
X187384761Y-110923571D02*
X187408571Y-110947380D01*
X187384761Y-110971190D01*
X187360952Y-110947380D01*
X187384761Y-110923571D01*
X187384761Y-110971190D01*
X188313333Y-110447380D02*
X188384761Y-110518809D01*
X189289523Y-111161666D02*
X189313333Y-111137857D01*
X189360952Y-111066428D01*
X189384761Y-111018809D01*
X189408571Y-110947380D01*
X189432380Y-110828333D01*
X189432380Y-110733095D01*
X189408571Y-110614047D01*
X189384761Y-110542619D01*
X189360952Y-110495000D01*
X189313333Y-110423571D01*
X189289523Y-110399761D01*
X189622857Y-111161666D02*
X189646666Y-111137857D01*
X189694285Y-111066428D01*
X189718095Y-111018809D01*
X189741904Y-110947380D01*
X189765714Y-110828333D01*
X189765714Y-110733095D01*
X189741904Y-110614047D01*
X189718095Y-110542619D01*
X189694285Y-110495000D01*
X189646666Y-110423571D01*
X189622857Y-110399761D01*
X190003809Y-110780714D02*
X190384761Y-110780714D01*
X190646666Y-110471190D02*
X190599047Y-110566428D01*
X191456190Y-110423571D02*
X191884761Y-111066428D01*
X191837142Y-111018809D02*
X192218095Y-111018809D01*
X193813333Y-111161666D02*
X193837142Y-111137857D01*
X193884761Y-111066428D01*
X193908571Y-111018809D01*
X193932380Y-110947380D01*
X193956190Y-110828333D01*
X193956190Y-110733095D01*
X193932380Y-110614047D01*
X193908571Y-110542619D01*
X193884761Y-110495000D01*
X193837142Y-110423571D01*
X193813333Y-110399761D01*
X194146666Y-111161666D02*
X194170476Y-111137857D01*
X194218095Y-111066428D01*
X194241904Y-111018809D01*
X194265714Y-110947380D01*
X194289523Y-110828333D01*
X194289523Y-110733095D01*
X194265714Y-110614047D01*
X194241904Y-110542619D01*
X194218095Y-110495000D01*
X194170476Y-110423571D01*
X194146666Y-110399761D01*
X194551428Y-110471190D02*
X194503809Y-110566428D01*
X188003809Y-111252380D02*
X188075238Y-111323809D01*
X188289523Y-111276190D02*
X188241904Y-111371428D01*
X188503809Y-111585714D02*
X188884761Y-111585714D01*
X189122857Y-111585714D02*
X189503809Y-111585714D01*
X189718095Y-111276190D02*
X189718095Y-111371428D01*
X189908571Y-111276190D02*
X189908571Y-111371428D01*
X190051428Y-111252380D02*
X190122857Y-111323809D01*
X192908571Y-111252380D02*
X192980000Y-111323809D01*
X193146666Y-111276190D02*
X193146666Y-111371428D01*
X193337142Y-111276190D02*
X193337142Y-111371428D01*
X193527619Y-111276190D02*
X193527619Y-111371428D01*
X193718095Y-111276190D02*
X193718095Y-111371428D01*
X193908571Y-111276190D02*
X193908571Y-111371428D01*
X194099047Y-111276190D02*
X194099047Y-111371428D01*
X194241904Y-111252380D02*
X194313333Y-111323809D01*
D11*
X183703333Y-113432380D02*
X183370000Y-112956190D01*
X183131904Y-113432380D02*
X183131904Y-112432380D01*
X183512857Y-112432380D01*
X183608095Y-112480000D01*
X183655714Y-112527619D01*
X183703333Y-112622857D01*
X183703333Y-112765714D01*
X183655714Y-112860952D01*
X183608095Y-112908571D01*
X183512857Y-112956190D01*
X183131904Y-112956190D01*
X184560476Y-113432380D02*
X184560476Y-112908571D01*
X184512857Y-112813333D01*
X184417619Y-112765714D01*
X184227142Y-112765714D01*
X184131904Y-112813333D01*
X184560476Y-113384761D02*
X184465238Y-113432380D01*
X184227142Y-113432380D01*
X184131904Y-113384761D01*
X184084285Y-113289523D01*
X184084285Y-113194285D01*
X184131904Y-113099047D01*
X184227142Y-113051428D01*
X184465238Y-113051428D01*
X184560476Y-113003809D01*
X185036666Y-113432380D02*
X185036666Y-112432380D01*
X185036666Y-112813333D02*
X185131904Y-112765714D01*
X185322380Y-112765714D01*
X185417619Y-112813333D01*
X185465238Y-112860952D01*
X185512857Y-112956190D01*
X185512857Y-113241904D01*
X185465238Y-113337142D01*
X185417619Y-113384761D01*
X185322380Y-113432380D01*
X185131904Y-113432380D01*
X185036666Y-113384761D01*
X185941428Y-113432380D02*
X185941428Y-112765714D01*
X185941428Y-112432380D02*
X185893809Y-112480000D01*
X185941428Y-112527619D01*
X185989047Y-112480000D01*
X185941428Y-112432380D01*
X185941428Y-112527619D01*
X186846190Y-113432380D02*
X186846190Y-112432380D01*
X186846190Y-113384761D02*
X186750952Y-113432380D01*
X186560476Y-113432380D01*
X186465238Y-113384761D01*
X186417619Y-113337142D01*
X186370000Y-113241904D01*
X186370000Y-112956190D01*
X186417619Y-112860952D01*
X186465238Y-112813333D01*
X186560476Y-112765714D01*
X186750952Y-112765714D01*
X186846190Y-112813333D01*
X187750952Y-112765714D02*
X187750952Y-113432380D01*
X187512857Y-112384761D02*
X187274761Y-113099047D01*
X187893809Y-113099047D01*
X188465238Y-112432380D02*
X188560476Y-112432380D01*
X188655714Y-112480000D01*
X188703333Y-112527619D01*
X188750952Y-112622857D01*
X188798571Y-112813333D01*
X188798571Y-113051428D01*
X188750952Y-113241904D01*
X188703333Y-113337142D01*
X188655714Y-113384761D01*
X188560476Y-113432380D01*
X188465238Y-113432380D01*
X188370000Y-113384761D01*
X188322380Y-113337142D01*
X188274761Y-113241904D01*
X188227142Y-113051428D01*
X188227142Y-112813333D01*
X188274761Y-112622857D01*
X188322380Y-112527619D01*
X188370000Y-112480000D01*
X188465238Y-112432380D01*
X189893809Y-112765714D02*
X190131904Y-113432380D01*
X190370000Y-112765714D01*
X191274761Y-113432380D02*
X190703333Y-113432380D01*
X190989047Y-113432380D02*
X190989047Y-112432380D01*
X190893809Y-112575238D01*
X190798571Y-112670476D01*
X190703333Y-112718095D01*
X192465238Y-113432380D02*
X192465238Y-112432380D01*
X192465238Y-112813333D02*
X192560476Y-112765714D01*
X192750952Y-112765714D01*
X192846190Y-112813333D01*
X192893809Y-112860952D01*
X192941428Y-112956190D01*
X192941428Y-113241904D01*
X192893809Y-113337142D01*
X192846190Y-113384761D01*
X192750952Y-113432380D01*
X192560476Y-113432380D01*
X192465238Y-113384761D01*
X193274761Y-112765714D02*
X193512857Y-113432380D01*
X193750952Y-112765714D02*
X193512857Y-113432380D01*
X193417619Y-113670476D01*
X193370000Y-113718095D01*
X193274761Y-113765714D01*
X195465238Y-113337142D02*
X195417619Y-113384761D01*
X195274761Y-113432380D01*
X195179523Y-113432380D01*
X195036666Y-113384761D01*
X194941428Y-113289523D01*
X194893809Y-113194285D01*
X194846190Y-113003809D01*
X194846190Y-112860952D01*
X194893809Y-112670476D01*
X194941428Y-112575238D01*
X195036666Y-112480000D01*
X195179523Y-112432380D01*
X195274761Y-112432380D01*
X195417619Y-112480000D01*
X195465238Y-112527619D01*
X196322380Y-112765714D02*
X196322380Y-113432380D01*
X195893809Y-112765714D02*
X195893809Y-113289523D01*
X195941428Y-113384761D01*
X196036666Y-113432380D01*
X196179523Y-113432380D01*
X196274761Y-113384761D01*
X196322380Y-113337142D01*
X196798571Y-112765714D02*
X196798571Y-113622857D01*
X196750952Y-113718095D01*
X196655714Y-113765714D01*
X196608095Y-113765714D01*
X196798571Y-112432380D02*
X196750952Y-112480000D01*
X196798571Y-112527619D01*
X196846190Y-112480000D01*
X196798571Y-112432380D01*
X196798571Y-112527619D01*
X197417619Y-113432380D02*
X197322380Y-113384761D01*
X197274761Y-113337142D01*
X197227142Y-113241904D01*
X197227142Y-112956190D01*
X197274761Y-112860952D01*
X197322380Y-112813333D01*
X197417619Y-112765714D01*
X197560476Y-112765714D01*
X197655714Y-112813333D01*
X197703333Y-112860952D01*
X197750952Y-112956190D01*
X197750952Y-113241904D01*
X197703333Y-113337142D01*
X197655714Y-113384761D01*
X197560476Y-113432380D01*
X197417619Y-113432380D01*
X198131904Y-112527619D02*
X198179523Y-112480000D01*
X198274761Y-112432380D01*
X198512857Y-112432380D01*
X198608095Y-112480000D01*
X198655714Y-112527619D01*
X198703333Y-112622857D01*
X198703333Y-112718095D01*
X198655714Y-112860952D01*
X198084285Y-113432380D01*
X198703333Y-113432380D01*
X199560476Y-112432380D02*
X199370000Y-112432380D01*
X199274761Y-112480000D01*
X199227142Y-112527619D01*
X199131904Y-112670476D01*
X199084285Y-112860952D01*
X199084285Y-113241904D01*
X199131904Y-113337142D01*
X199179523Y-113384761D01*
X199274761Y-113432380D01*
X199465238Y-113432380D01*
X199560476Y-113384761D01*
X199608095Y-113337142D01*
X199655714Y-113241904D01*
X199655714Y-113003809D01*
X199608095Y-112908571D01*
X199560476Y-112860952D01*
X199465238Y-112813333D01*
X199274761Y-112813333D01*
X199179523Y-112860952D01*
X199131904Y-112908571D01*
X199084285Y-113003809D01*
%TO.C,J2*%
X117046666Y-50724880D02*
X117046666Y-51439166D01*
X116999047Y-51582023D01*
X116903809Y-51677261D01*
X116760952Y-51724880D01*
X116665714Y-51724880D01*
X117475238Y-50820119D02*
X117522857Y-50772500D01*
X117618095Y-50724880D01*
X117856190Y-50724880D01*
X117951428Y-50772500D01*
X117999047Y-50820119D01*
X118046666Y-50915357D01*
X118046666Y-51010595D01*
X117999047Y-51153452D01*
X117427619Y-51724880D01*
X118046666Y-51724880D01*
%TO.C,J1*%
X77572380Y-94863333D02*
X78286666Y-94863333D01*
X78429523Y-94910952D01*
X78524761Y-95006190D01*
X78572380Y-95149047D01*
X78572380Y-95244285D01*
X78572380Y-93863333D02*
X78572380Y-94434761D01*
X78572380Y-94149047D02*
X77572380Y-94149047D01*
X77715238Y-94244285D01*
X77810476Y-94339523D01*
X77858095Y-94434761D01*
D12*
%TO.C,J2*%
X119800000Y-58582500D02*
X119960000Y-58582500D01*
X113310000Y-57582500D02*
X113310000Y-54162500D01*
X118310000Y-57582500D02*
X118310000Y-54162500D01*
X112240000Y-58582500D02*
X111020000Y-58582500D01*
X118310000Y-54162500D02*
X118630000Y-54082500D01*
X113950000Y-57582500D02*
X113630000Y-57582500D01*
X113630000Y-57582500D02*
X113310000Y-57582500D01*
X121130000Y-54082500D02*
X121450000Y-54162500D01*
X116450000Y-54162500D02*
X116450000Y-57582500D01*
X123740000Y-60782500D02*
X122520000Y-60782500D01*
X121450000Y-57582500D02*
X121130000Y-57582500D01*
X113630000Y-60672500D02*
X113330000Y-61272500D01*
X122520000Y-58582500D02*
X123740000Y-58582500D01*
X113950000Y-54162500D02*
X113950000Y-57582500D01*
X113930000Y-61272500D02*
X113630000Y-60672500D01*
X123740000Y-52362500D02*
X123740000Y-60782500D01*
X114800000Y-58582500D02*
X114960000Y-58582500D01*
X112240000Y-58582500D02*
X112240000Y-60782500D01*
X112240000Y-53582500D02*
X112240000Y-58582500D01*
X118630000Y-57582500D02*
X118310000Y-57582500D01*
X111020000Y-60782500D02*
X111020000Y-52362500D01*
X116130000Y-57582500D02*
X115810000Y-57582500D01*
X118950000Y-57582500D02*
X118630000Y-57582500D01*
X118630000Y-54082500D02*
X118950000Y-54162500D01*
X116130000Y-54082500D02*
X116450000Y-54162500D01*
X118950000Y-54162500D02*
X118950000Y-57582500D01*
X113330000Y-61272500D02*
X113930000Y-61272500D01*
X121130000Y-57582500D02*
X120810000Y-57582500D01*
X113310000Y-54162500D02*
X113630000Y-54082500D01*
X116450000Y-57582500D02*
X116130000Y-57582500D01*
X123740000Y-53582500D02*
X122520000Y-53582500D01*
X111020000Y-53582500D02*
X112240000Y-53582500D01*
X121450000Y-54162500D02*
X121450000Y-57582500D01*
X113630000Y-54082500D02*
X113950000Y-54162500D01*
X111020000Y-52362500D02*
X123740000Y-52362500D01*
X120810000Y-57582500D02*
X120810000Y-54162500D01*
X122520000Y-60782500D02*
X122520000Y-58582500D01*
X112240000Y-57582500D02*
X122520000Y-57582500D01*
X115810000Y-57582500D02*
X115810000Y-54162500D01*
X112240000Y-60782500D02*
X111020000Y-60782500D01*
X115810000Y-54162500D02*
X116130000Y-54082500D01*
X117300000Y-58582500D02*
X117460000Y-58582500D01*
X120810000Y-54162500D02*
X121130000Y-54082500D01*
X122520000Y-53582500D02*
X122520000Y-58582500D01*
%TO.C,J1*%
X74080000Y-93200000D02*
X63860000Y-93200000D01*
X76680000Y-94530000D02*
X76680000Y-95860000D01*
X63860000Y-93200000D02*
X63860000Y-95860000D01*
X76680000Y-95860000D02*
X75350000Y-95860000D01*
X74080000Y-93200000D02*
X74080000Y-95860000D01*
X74080000Y-95860000D02*
X63860000Y-95860000D01*
%TD*%
%LPC*%
D13*
%TO.C,Alt1*%
X70197500Y-105083750D03*
D14*
X65117500Y-105083750D03*
D13*
X60037500Y-105083750D03*
%TD*%
%TO.C,Alt2*%
X232122500Y-105083750D03*
D14*
X227042500Y-105083750D03*
D13*
X221962500Y-105083750D03*
%TD*%
D15*
%TO.C,J2*%
X121130000Y-59172500D03*
X118630000Y-59172500D03*
X116130000Y-59172500D03*
D16*
X113630000Y-59172500D03*
%TD*%
D13*
%TO.C,F2*%
X98931250Y-66983750D03*
X109091250Y-66983750D03*
D14*
X104011250Y-66983750D03*
%TD*%
D13*
%TO.C,P1*%
X218628750Y-47933750D03*
X208468750Y-47933750D03*
D14*
X213548750Y-47933750D03*
%TD*%
D13*
%TO.C,Q1*%
X47178750Y-47933750D03*
D14*
X42098750Y-47933750D03*
D13*
X37018750Y-47933750D03*
%TD*%
%TO.C,W1*%
X66228750Y-47933750D03*
X56068750Y-47933750D03*
D14*
X61148750Y-47933750D03*
%TD*%
%TO.C,G1*%
X123061250Y-66983750D03*
D13*
X128141250Y-66983750D03*
X117981250Y-66983750D03*
%TD*%
%TO.C,D46*%
X79881250Y-66983750D03*
D14*
X84961250Y-66983750D03*
D13*
X90041250Y-66983750D03*
%TD*%
D14*
%TO.C,E1*%
X80198750Y-47933750D03*
D13*
X85278750Y-47933750D03*
X75118750Y-47933750D03*
%TD*%
%TO.C,;1*%
X223391250Y-66983750D03*
X213231250Y-66983750D03*
D14*
X218311250Y-66983750D03*
%TD*%
%TO.C,Stab_Enter1*%
X280223750Y-75238750D03*
D17*
X256411250Y-59998750D03*
X280223750Y-59998750D03*
D14*
X256411250Y-75238750D03*
%TD*%
D13*
%TO.C,T1*%
X113218750Y-47933750D03*
D14*
X118298750Y-47933750D03*
D13*
X123378750Y-47933750D03*
%TD*%
%TO.C,J3*%
X166241250Y-66983750D03*
D14*
X161161250Y-66983750D03*
D13*
X156081250Y-66983750D03*
%TD*%
%TO.C,Win1*%
X46385000Y-105083750D03*
X36225000Y-105083750D03*
D14*
X41305000Y-105083750D03*
%TD*%
D18*
%TO.C,J1*%
X65190000Y-94530000D03*
X67730000Y-94530000D03*
X70270000Y-94530000D03*
X72810000Y-94530000D03*
D19*
X75350000Y-94530000D03*
%TD*%
D13*
%TO.C,H1*%
X147191250Y-66983750D03*
X137031250Y-66983750D03*
D14*
X142111250Y-66983750D03*
%TD*%
D13*
%TO.C,<1*%
X184656250Y-86033750D03*
D14*
X189736250Y-86033750D03*
D13*
X194816250Y-86033750D03*
%TD*%
D14*
%TO.C,Stab_Spc2.25*%
X107993520Y-96824148D03*
X131806020Y-96824148D03*
%TD*%
%TO.C,U4*%
X156398750Y-47933750D03*
D13*
X151318750Y-47933750D03*
X161478750Y-47933750D03*
%TD*%
%TO.C,L1*%
X194181250Y-66983750D03*
X204341250Y-66983750D03*
D14*
X199261250Y-66983750D03*
%TD*%
%TO.C,Stab_Spc7u1*%
X203230000Y-96828750D03*
X88930000Y-96828750D03*
%TD*%
D13*
%TO.C,Tab1*%
X13206250Y-47933750D03*
D14*
X18286250Y-47933750D03*
D13*
X23366250Y-47933750D03*
%TD*%
D14*
%TO.C,[1*%
X232598750Y-47933750D03*
D13*
X237678750Y-47933750D03*
X227518750Y-47933750D03*
%TD*%
%TO.C,I1*%
X180528750Y-47933750D03*
X170368750Y-47933750D03*
D14*
X175448750Y-47933750D03*
%TD*%
D13*
%TO.C,StepCtrl1*%
X10825000Y-66983750D03*
X20985000Y-66983750D03*
D14*
X15905000Y-66983750D03*
%TD*%
%TO.C,V1*%
X113536250Y-86033750D03*
D13*
X118616250Y-86033750D03*
X108456250Y-86033750D03*
%TD*%
%TO.C,Shift3*%
X258475000Y-86033750D03*
X268635000Y-86033750D03*
D14*
X263555000Y-86033750D03*
%TD*%
D13*
%TO.C,Ctrl1*%
X15587500Y-66983750D03*
X25747500Y-66983750D03*
D14*
X20667500Y-66983750D03*
%TD*%
D13*
%TO.C,Bspc1*%
X270381250Y-47933750D03*
X280541250Y-47933750D03*
D14*
X275461250Y-47933750D03*
%TD*%
D13*
%TO.C,Space_7u1*%
X141000000Y-105083750D03*
X151160000Y-105083750D03*
D14*
X146080000Y-105083750D03*
%TD*%
%TO.C,Y2*%
X137348750Y-47933750D03*
D13*
X142428750Y-47933750D03*
X132268750Y-47933750D03*
%TD*%
D14*
%TO.C,Stab_Spc2.75*%
X155605000Y-96828750D03*
X179417500Y-96828750D03*
%TD*%
D13*
%TO.C,Shift2*%
X259110000Y-86033750D03*
D14*
X254030000Y-86033750D03*
D13*
X248950000Y-86033750D03*
%TD*%
D14*
%TO.C,Space2.25*%
X119886250Y-105083750D03*
D13*
X124966250Y-105083750D03*
X114806250Y-105083750D03*
%TD*%
%TO.C,Space2.75*%
X172591250Y-105083750D03*
X162431250Y-105083750D03*
D14*
X167511250Y-105083750D03*
%TD*%
%TO.C,Fn1*%
X280223750Y-86033750D03*
D13*
X275143750Y-86033750D03*
X285303750Y-86033750D03*
%TD*%
D14*
%TO.C,B1*%
X132586250Y-86033750D03*
D13*
X137666250Y-86033750D03*
X127506250Y-86033750D03*
%TD*%
%TO.C,Shift1*%
X30510000Y-86033750D03*
D14*
X25430000Y-86033750D03*
D13*
X20350000Y-86033750D03*
%TD*%
D17*
%TO.C,Stab_RShift1*%
X251648750Y-79048750D03*
D14*
X251648750Y-94288750D03*
D17*
X275461250Y-79048750D03*
D14*
X275461250Y-94288750D03*
%TD*%
D13*
%TO.C,M1*%
X165606250Y-86033750D03*
D14*
X170686250Y-86033750D03*
D13*
X175766250Y-86033750D03*
%TD*%
%TO.C,Z1*%
X51306250Y-86033750D03*
X61466250Y-86033750D03*
D14*
X56386250Y-86033750D03*
%TD*%
D13*
%TO.C,C18*%
X99566250Y-86033750D03*
D14*
X94486250Y-86033750D03*
D13*
X89406250Y-86033750D03*
%TD*%
D17*
%TO.C,Stab_LShift1*%
X13523750Y-79048750D03*
D14*
X37336250Y-94288750D03*
D17*
X37336250Y-79048750D03*
D14*
X13523750Y-94288750D03*
%TD*%
%TO.C,S1*%
X65911250Y-66983750D03*
D13*
X60831250Y-66983750D03*
X70991250Y-66983750D03*
%TD*%
D14*
%TO.C,A1*%
X46861250Y-66983750D03*
D13*
X51941250Y-66983750D03*
X41781250Y-66983750D03*
%TD*%
%TO.C,'1*%
X232281250Y-66983750D03*
X242441250Y-66983750D03*
D14*
X237361250Y-66983750D03*
%TD*%
D13*
%TO.C,X1*%
X80516250Y-86033750D03*
D14*
X75436250Y-86033750D03*
D13*
X70356250Y-86033750D03*
%TD*%
%TO.C,/1*%
X232916250Y-86033750D03*
D14*
X227836250Y-86033750D03*
D13*
X222756250Y-86033750D03*
%TD*%
%TO.C,R6*%
X94168750Y-47933750D03*
D14*
X99248750Y-47933750D03*
D13*
X104328750Y-47933750D03*
%TD*%
D14*
%TO.C,RMod1*%
X203230000Y-105083750D03*
D13*
X208310000Y-105083750D03*
X198150000Y-105083750D03*
%TD*%
%TO.C,K1*%
X185291250Y-66983750D03*
X175131250Y-66983750D03*
D14*
X180211250Y-66983750D03*
%TD*%
D13*
%TO.C,Win2*%
X245775000Y-105083750D03*
X255935000Y-105083750D03*
D14*
X250855000Y-105083750D03*
%TD*%
D13*
%TO.C,>1*%
X213866250Y-86033750D03*
X203706250Y-86033750D03*
D14*
X208786250Y-86033750D03*
%TD*%
%TO.C,N1*%
X151636250Y-86033750D03*
D13*
X146556250Y-86033750D03*
X156716250Y-86033750D03*
%TD*%
%TO.C,]1*%
X246568750Y-47933750D03*
D14*
X251648750Y-47933750D03*
D13*
X256728750Y-47933750D03*
%TD*%
%TO.C,Enter1*%
X263237500Y-66983750D03*
D14*
X268317500Y-66983750D03*
D13*
X273397500Y-66983750D03*
%TD*%
%TO.C,O1*%
X199578750Y-47933750D03*
D14*
X194498750Y-47933750D03*
D13*
X189418750Y-47933750D03*
%TD*%
%TO.C,LMod1*%
X94010000Y-105083750D03*
X83850000Y-105083750D03*
D14*
X88930000Y-105083750D03*
%TD*%
D18*
%TO.C,SW7*%
X123630000Y-87300000D03*
D19*
X123630000Y-84760000D03*
%TD*%
M02*
